<?xml version="1.0" encoding="UTF-8" standalone="no"?>
<!-- Created with Inkscape (http://www.inkscape.org/) -->

<svg
   xmlns:dc="http://purl.org/dc/elements/1.1/"
   xmlns:cc="http://creativecommons.org/ns#"
   xmlns:rdf="http://www.w3.org/1999/02/22-rdf-syntax-ns#"
   xmlns:svg="http://www.w3.org/2000/svg"
   xmlns="http://www.w3.org/2000/svg"
   xmlns:sodipodi="http://sodipodi.sourceforge.net/DTD/sodipodi-0.dtd"
   xmlns:inkscape="http://www.inkscape.org/namespaces/inkscape"
   width="129.19069mm"
   height="229.58879mm"
   viewBox="0 0 457.76228 813.50359"
   id="svg2"
   version="1.1"
   inkscape:version="0.91 r13725"
   sodipodi:docname="052_reshaped lb broth bottle (no lid).svg">
  <defs
     id="defs4" />
  <sodipodi:namedview
     id="base"
     pagecolor="#ffffff"
     bordercolor="#666666"
     borderopacity="1.0"
     inkscape:pageopacity="0.0"
     inkscape:pageshadow="2"
     inkscape:zoom="0.77587891"
     inkscape:cx="181.63213"
     inkscape:cy="519.14368"
     inkscape:document-units="px"
     inkscape:current-layer="layer1"
     showgrid="false"
     inkscape:window-width="1600"
     inkscape:window-height="837"
     inkscape:window-x="-8"
     inkscape:window-y="-8"
     inkscape:window-maximized="1"
     fit-margin-top="0"
     fit-margin-left="0"
     fit-margin-right="0"
     fit-margin-bottom="0" />
  <metadata
     id="metadata7">
    <rdf:RDF>
      <cc:Work
         rdf:about="">
        <dc:format>image/svg+xml</dc:format>
        <dc:type
           rdf:resource="http://purl.org/dc/dcmitype/StillImage" />
        <dc:title></dc:title>
      </cc:Work>
    </rdf:RDF>
  </metadata>
  <g
     inkscape:label="Layer 1"
     inkscape:groupmode="layer"
     id="layer1"
     transform="translate(-157.51702,-159.58023)">
    <path
       style="fill:none;fill-rule:evenodd;stroke:#000000;stroke-width:2.921;stroke-linecap:butt;stroke-linejoin:miter;stroke-miterlimit:4;stroke-dasharray:none;stroke-opacity:1"
       d="m 164.03151,282.31282 0,70.61946"
       id="path4146"
       inkscape:connector-curvature="0" />
    <path
       style="fill:none;fill-rule:evenodd;stroke:#000000;stroke-width:2.87777066px;stroke-linecap:butt;stroke-linejoin:miter;stroke-opacity:1"
       d="m 611.78408,277.77376 -0.72426,74.75005"
       id="path4148"
       inkscape:connector-curvature="0" />
    <path
       style="opacity:0.7;fill:#f2f2f2;stroke:#000000;stroke-width:5.07000017;stroke-miterlimit:4;stroke-dasharray:none;stroke-opacity:1"
       d="m 178.125,162.11523 -17.38867,72.07618 0.7539,0 c -0.14462,0.35542 -0.22851,0.72307 -0.22851,1.10351 l 0,57.75977 c 0,2.73373 3.95372,5.02734 8.66797,5.02734 l 1.59179,0 c -3.68851,1.93903 -6.2832,6.63356 -6.2832,12.15625 l 0,190.82031 c -0.006,0.63398 -0.0176,1.26458 -0.0176,1.90039 l 0,308.375 c 0,88.20629 54.42584,159.21485 122.03321,159.21485 l 200.60742,0 c 67.60737,0 122.0332,-71.00856 122.0332,-159.21485 l 0,-294.66796 c 1.38561,-2.24728 2.21485,-5.10492 2.21485,-8.22657 l 0,-198.20117 c 0,-5.69644 -2.75936,-10.50555 -6.63282,-12.32422 3.67217,-0.56844 6.37696,-2.55481 6.37696,-4.85937 l 0,-57.75977 c 0,-0.38121 -0.0886,-0.74743 -0.22852,-1.10351 l 0.46484,0 -16.69922,-72.07618 -417.26562,0 z"
       id="rect4190"
       inkscape:connector-curvature="0" />
    <rect
       style="opacity:0.6;fill:#f2f2f2;stroke:#000000;stroke-width:0.52728772;stroke-miterlimit:4;stroke-dasharray:none;stroke-opacity:1"
       id="rect4192"
       width="2.0087152"
       height="8.0348606"
       x="400.07388"
       y="849.33643"
       ry="1.0043576" />
    <path
       inkscape:connector-curvature="0"
       id="path3402"
       d="m 170.32834,450.31324 436.02476,0 c 3.52065,0 6.2289,1.07904 6.2289,2.58957 l 0,284.63701 c 0,1.40272 -2.70825,2.58958 -6.2289,2.58958 l -436.02476,0 c -3.79151,0 -6.49969,-1.18686 -6.49969,-2.58958 l 0,-284.63701 c 0,-1.51053 2.70818,-2.58957 6.49969,-2.58957 z"
       style="fill:#ffff00;fill-opacity:1;fill-rule:nonzero;stroke:#000000;stroke-width:1.40610063;stroke-opacity:1" />
    <text
       xml:space="preserve"
       style="font-style:normal;font-weight:normal;font-size:73.62145996px;line-height:125%;font-family:sans-serif;letter-spacing:0px;word-spacing:0px;fill:#000000;fill-opacity:1;stroke:#000000;stroke-width:4.04918051;stroke-linecap:butt;stroke-linejoin:miter;stroke-miterlimit:4;stroke-dasharray:none;stroke-opacity:1"
       x="225.04355"
       y="613.27777"
       id="text4228"
       sodipodi:linespacing="125%"><tspan
         sodipodi:role="line"
         id="tspan4230"
         x="225.04355"
         y="613.27777"
         style="stroke-width:4.04918051">LB-Broth</tspan></text>
    <rect
       style="opacity:0.85;fill:#cccccc;stroke:#000000;stroke-width:1.17921078;stroke-miterlimit:4;stroke-dasharray:none;stroke-opacity:1"
       id="rect4244"
       width="449.35251"
       height="12.38266"
       x="106.07378"
       y="256.03284"
       ry="6.19133"
       transform="matrix(0.99975137,-0.0222979,0.20517003,0.97872635,0,0)" />
    <rect
       transform="matrix(0.99975137,-0.0222979,0.20517003,0.97872635,0,0)"
       ry="6.19133"
       y="231.42331"
       x="113.14497"
       height="12.38266"
       width="449.35251"
       id="rect4219"
       style="opacity:0.85;fill:#cccccc;stroke:#000000;stroke-width:1.17921078;stroke-miterlimit:4;stroke-dasharray:none;stroke-opacity:1" />
    <rect
       style="opacity:0.85;fill:#cccccc;stroke:#000000;stroke-width:1.16297841;stroke-miterlimit:4;stroke-dasharray:none;stroke-opacity:1"
       id="rect4221"
       width="437.2572"
       height="12.37726"
       x="123.18021"
       y="207.84521"
       ry="6.1886301"
       transform="matrix(0.99973705,-0.02293102,0.19973166,0.97985063,0,0)" />
    <rect
       transform="matrix(0.99972147,-0.02360038,0.1942807,0.98094598,0,0)"
       ry="6.1861835"
       y="186.25441"
       x="134.59639"
       height="12.372367"
       width="425.16232"
       id="rect4223"
       style="opacity:0.85;fill:#cccccc;stroke:#000000;stroke-width:1.14655447;stroke-miterlimit:4;stroke-dasharray:none;stroke-opacity:1" />
  </g>
</svg>
