<?xml version="1.0" encoding="utf-8"?>
<!-- Generator: Adobe Illustrator 15.1.0, SVG Export Plug-In . SVG Version: 6.00 Build 0)  -->
<!DOCTYPE svg PUBLIC "-//W3C//DTD SVG 1.1//EN" "http://www.w3.org/Graphics/SVG/1.1/DTD/svg11.dtd">
<svg version="1.1" id="Capa_1" xmlns="http://www.w3.org/2000/svg" xmlns:xlink="http://www.w3.org/1999/xlink" x="0px" y="0px"
	 width="250.562px" height="250.562px" viewBox="0 0 250.562 250.562" enable-background="new 0 0 250.562 250.562"
	 xml:space="preserve">
<g>
	<path d="M235.666,65.352c9.015-16.924,8.719-35.673-2.282-46.835c-11.058-11.219-29.69-11.455-46.446-2.147
		C192.153,50.966,219.438,61.909,235.666,65.352z"/>
	<path d="M30.18,182.467L7.001,246.563l64.815-23.437C56.126,216.701,38.802,204.727,30.18,182.467z"/>
	<path d="M48.358,201.51L199.139,50.721c-7.046-8.074-12.733-18.465-15.588-31.877c-1.475,1.255-2.925,2.571-4.333,3.979
		L36.031,166.01l-1.304,3.603C36.577,183.4,41.717,193.728,48.358,201.51z"/>
	<path d="M201.529,54.095L50.8,204.836c10.893,8.298,23.365,12.016,32.18,13.679l3.068-1.11L229.238,74.217
		c1.402-1.405,2.718-2.849,3.967-4.324C223.495,67.167,211.854,62.396,201.529,54.095z"/>
</g>
</svg>
