<?xml version="1.0" encoding="UTF-8" standalone="no"?>
<!-- Created with Inkscape (http://www.inkscape.org/) -->

<svg
   xmlns:dc="http://purl.org/dc/elements/1.1/"
   xmlns:cc="http://creativecommons.org/ns#"
   xmlns:rdf="http://www.w3.org/1999/02/22-rdf-syntax-ns#"
   xmlns:svg="http://www.w3.org/2000/svg"
   xmlns="http://www.w3.org/2000/svg"
   xmlns:sodipodi="http://sodipodi.sourceforge.net/DTD/sodipodi-0.dtd"
   xmlns:inkscape="http://www.inkscape.org/namespaces/inkscape"
   width="89.898766mm"
   height="48.179039mm"
   viewBox="0 0 318.53893 170.71313"
   id="svg2"
   version="1.1"
   inkscape:version="0.91 r13725"
   sodipodi:docname="colorless petri dish.svg">
  <defs
     id="defs4">
    <pattern
       y="0"
       x="0"
       height="6"
       width="6"
       patternUnits="userSpaceOnUse"
       id="EMFhbasepattern" />
  </defs>
  <sodipodi:namedview
     id="base"
     pagecolor="#ffffff"
     bordercolor="#666666"
     borderopacity="1.0"
     inkscape:pageopacity="0.0"
     inkscape:pageshadow="2"
     inkscape:zoom="1"
     inkscape:cx="12.748034"
     inkscape:cy="201.18144"
     inkscape:document-units="px"
     inkscape:current-layer="layer1"
     showgrid="false"
     inkscape:window-width="1600"
     inkscape:window-height="837"
     inkscape:window-x="-8"
     inkscape:window-y="-8"
     inkscape:window-maximized="1"
     fit-margin-top="0"
     fit-margin-left="0"
     fit-margin-right="0"
     fit-margin-bottom="0" />
  <metadata
     id="metadata7">
    <rdf:RDF>
      <cc:Work
         rdf:about="">
        <dc:format>image/svg+xml</dc:format>
        <dc:type
           rdf:resource="http://purl.org/dc/dcmitype/StillImage" />
        <dc:title></dc:title>
      </cc:Work>
    </rdf:RDF>
  </metadata>
  <g
     inkscape:label="Layer 1"
     inkscape:groupmode="layer"
     id="layer1"
     transform="translate(-232.58768,-332.3985)">
    <g
       id="g4353"
       transform="matrix(5.8239787,0,0,6.815901,-3119.17,-3872.8891)">
      <path
         style="fill:#ffffff;fill-opacity:1;fill-rule:evenodd;stroke:#000000;stroke-width:0.19049859px;stroke-linecap:butt;stroke-linejoin:miter;stroke-miterlimit:4;stroke-dasharray:none;stroke-opacity:1"
         d="m 628.384,624.05152 c 0,-3.51364 -11.40883,-6.37112 -25.48458,-6.37112 -14.07575,0 -25.50565,2.85748 -25.50565,6.37112 0,3.51363 11.4299,6.37111 25.50565,6.37111 14.07575,0 25.48458,-2.85748 25.48458,-6.37111 z"
         id="path3341"
         inkscape:connector-curvature="0" />
      <path
         style="fill:none;stroke:#000000;stroke-width:0.33866414px;stroke-linecap:butt;stroke-linejoin:miter;stroke-miterlimit:4;stroke-dasharray:none;stroke-opacity:1"
         d="m 630.035,624.30552 c 0,3.95813 -12.1285,7.15427 -27.09325,7.15427 -14.96472,0 -27.09313,-3.19614 -27.09313,-7.15427 0,-3.93698 12.12841,-7.15428 27.09313,-7.15428 14.96475,0 27.09325,3.2173 27.09325,7.15428 z"
         id="path3343"
         inkscape:connector-curvature="0" />
      <path
         style="fill:none;stroke:#000000;stroke-width:0.33866414px;stroke-linecap:butt;stroke-linejoin:miter;stroke-miterlimit:4;stroke-dasharray:none;stroke-opacity:1"
         d="m 575.67928,624.15735 0,10.07525"
         id="path3345"
         inkscape:connector-curvature="0" />
      <path
         style="fill:none;stroke:#000000;stroke-width:0.33866414px;stroke-linecap:butt;stroke-linejoin:miter;stroke-miterlimit:4;stroke-dasharray:none;stroke-opacity:1"
         d="m 629.92917,624.22085 0,10.07525"
         id="path3347"
         inkscape:connector-curvature="0" />
      <path
         style="fill:none;stroke:#000000;stroke-width:0.35983068px;stroke-linecap:butt;stroke-linejoin:miter;stroke-miterlimit:4;stroke-dasharray:none;stroke-opacity:1"
         d="m 629.88684,634.21143 c 0,2.75167 -5.22817,5.27047 -13.67367,6.64631 -8.46667,1.35463 -18.85939,1.3123 -27.22016,-0.0847 -8.36075,-1.397 -13.41956,-3.95814 -13.22906,-6.70978"
         id="path3349"
         inkscape:connector-curvature="0" />
      <path
         style="fill:none;stroke:#000000;stroke-width:0.25399813px;stroke-linecap:butt;stroke-linejoin:miter;stroke-miterlimit:4;stroke-dasharray:none;stroke-opacity:1"
         d="m 628.638,634.27493 c 0,2.32833 -4.93183,4.44497 -12.93283,5.58797 -7.97983,1.143 -17.77989,1.12184 -25.675,-0.0635 -7.87394,-1.16416 -12.6364,-3.3443 -12.46707,-5.65144"
         id="path3351"
         inkscape:connector-curvature="0" />
      <path
         style="fill:none;stroke:#000000;stroke-width:0.25399813px;stroke-linecap:butt;stroke-linejoin:miter;stroke-miterlimit:4;stroke-dasharray:none;stroke-opacity:1"
         d="m 628.53217,629.78765 0,4.50845"
         id="path3353"
         inkscape:connector-curvature="0" />
      <path
         style="fill:none;stroke:#000000;stroke-width:0.25399813px;stroke-linecap:butt;stroke-linejoin:miter;stroke-miterlimit:4;stroke-dasharray:none;stroke-opacity:1"
         d="m 577.4361,629.61832 0,4.57197"
         id="path3355"
         inkscape:connector-curvature="0" />
      <path
         style="fill:none;stroke:#000000;stroke-width:0.25399813px;stroke-linecap:butt;stroke-linejoin:miter;stroke-miterlimit:4;stroke-dasharray:none;stroke-opacity:1"
         d="m 628.34167,629.17382 c 0,3.93697 -11.34533,7.13311 -25.35758,7.13311 -13.99108,0 -25.35749,-3.19614 -25.35749,-7.13311 0,-3.93697 11.36641,-7.11194 25.35749,-7.11194 14.01225,0 25.35758,3.17497 25.35758,7.11194 z"
         id="path3357"
         inkscape:connector-curvature="0" />
      <path
         style="fill:#ffffff;fill-opacity:1;fill-rule:evenodd;stroke:#000000;stroke-width:0.21166511px;stroke-linecap:butt;stroke-linejoin:miter;stroke-miterlimit:4;stroke-dasharray:none;stroke-opacity:1"
         d="m 593.96714,625.08868 c 0,0.33867 -0.61383,0.635 -1.35463,0.635 -0.74084,0 -1.3335,-0.29633 -1.3335,-0.635 0,-0.35983 0.59266,-0.635 1.3335,-0.635 0.7408,0 1.35463,0.27517 1.35463,0.635 z"
         id="path3359"
         inkscape:connector-curvature="0" />
      <path
         style="fill:#ffffff;fill-opacity:1;fill-rule:evenodd;stroke:#000000;stroke-width:0.21166511px;stroke-linecap:butt;stroke-linejoin:miter;stroke-miterlimit:4;stroke-dasharray:none;stroke-opacity:1"
         d="m 616.29784,633.91513 c 0,0.33863 -0.61384,0.63497 -1.35467,0.63497 -0.74083,0 -1.3335,-0.29634 -1.3335,-0.63497 0,-0.35984 0.59267,-0.635 1.3335,-0.635 0.74083,0 1.35467,0.27516 1.35467,0.635 z"
         id="path3361"
         inkscape:connector-curvature="0" />
      <path
         style="fill:#ffffff;fill-opacity:1;fill-rule:evenodd;stroke:#000000;stroke-width:0.21166511px;stroke-linecap:butt;stroke-linejoin:miter;stroke-miterlimit:4;stroke-dasharray:none;stroke-opacity:1"
         d="m 609.588,625.00402 c 0,0.35983 -0.61383,0.635 -1.35466,0.635 -0.74084,0 -1.3335,-0.27517 -1.3335,-0.635 0,-0.35984 0.59266,-0.635 1.3335,-0.635 0.74083,0 1.35466,0.27516 1.35466,0.635 z"
         id="path3363"
         inkscape:connector-curvature="0" />
      <path
         style="fill:#ffffff;fill-opacity:1;fill-rule:evenodd;stroke:#000000;stroke-width:0.21166511px;stroke-linecap:butt;stroke-linejoin:miter;stroke-miterlimit:4;stroke-dasharray:none;stroke-opacity:1"
         d="m 601.98925,626.16818 c 0,0.33867 -0.59266,0.63497 -1.3335,0.63497 -0.7408,0 -1.35463,-0.2963 -1.35463,-0.63497 0,-0.35983 0.61383,-0.635 1.35463,-0.635 0.74084,0 1.3335,0.27517 1.3335,0.635 z"
         id="path3365"
         inkscape:connector-curvature="0" />
      <path
         style="fill:#ffffff;fill-opacity:1;fill-rule:evenodd;stroke:#000000;stroke-width:0.21166511px;stroke-linecap:butt;stroke-linejoin:miter;stroke-miterlimit:4;stroke-dasharray:none;stroke-opacity:1"
         d="m 616.86934,625.93535 c 0,0.33867 -0.59267,0.635 -1.3335,0.635 -0.74084,0 -1.3335,-0.29633 -1.3335,-0.635 0,-0.35983 0.59266,-0.635 1.3335,-0.635 0.74083,0 1.3335,0.27517 1.3335,0.635 z"
         id="path3367"
         inkscape:connector-curvature="0" />
      <path
         style="fill:#ffffff;fill-opacity:1;fill-rule:evenodd;stroke:#000000;stroke-width:0.21166511px;stroke-linecap:butt;stroke-linejoin:miter;stroke-miterlimit:4;stroke-dasharray:none;stroke-opacity:1"
         d="m 600.82509,632.43346 c 0,0.35983 -0.61381,0.635 -1.35464,0.635 -0.74083,0 -1.3335,-0.27517 -1.3335,-0.635 0,-0.33867 0.59267,-0.635 1.3335,-0.635 0.74083,0 1.35464,0.29633 1.35464,0.635 z"
         id="path3369"
         inkscape:connector-curvature="0" />
      <path
         style="fill:#ffffff;fill-opacity:1;fill-rule:evenodd;stroke:#000000;stroke-width:0.21166511px;stroke-linecap:butt;stroke-linejoin:miter;stroke-miterlimit:4;stroke-dasharray:none;stroke-opacity:1"
         d="m 607.83117,635.07926 c 0,0.33867 -0.61383,0.635 -1.35467,0.635 -0.74083,0 -1.3335,-0.29633 -1.3335,-0.635 0,-0.35983 0.59267,-0.635 1.3335,-0.635 0.74084,0 1.35467,0.27517 1.35467,0.635 z"
         id="path3371"
         inkscape:connector-curvature="0" />
      <path
         style="fill:#ffffff;fill-opacity:1;fill-rule:evenodd;stroke:#000000;stroke-width:0.21166511px;stroke-linecap:butt;stroke-linejoin:miter;stroke-miterlimit:4;stroke-dasharray:none;stroke-opacity:1"
         d="m 622.56317,631.20579 c 0,0.33867 -0.59267,0.635 -1.3335,0.635 -0.74083,0 -1.3335,-0.29633 -1.3335,-0.635 0,-0.35983 0.59267,-0.635 1.3335,-0.635 0.74083,0 1.3335,0.27517 1.3335,0.635 z"
         id="path3373"
         inkscape:connector-curvature="0" />
      <path
         style="fill:#ffffff;fill-opacity:1;fill-rule:evenodd;stroke:#000000;stroke-width:0.21166511px;stroke-linecap:butt;stroke-linejoin:miter;stroke-miterlimit:4;stroke-dasharray:none;stroke-opacity:1"
         d="m 612.21267,634.06329 c 0,0.35981 -0.61383,0.63497 -1.35467,0.63497 -0.74083,0 -1.3335,-0.27516 -1.3335,-0.63497 0,-0.33866 0.59267,-0.635 1.3335,-0.635 0.74084,0 1.35467,0.29634 1.35467,0.635 z"
         id="path3375"
         inkscape:connector-curvature="0" />
      <path
         style="fill:#ffffff;fill-opacity:1;fill-rule:evenodd;stroke:#000000;stroke-width:0.21166511px;stroke-linecap:butt;stroke-linejoin:miter;stroke-miterlimit:4;stroke-dasharray:none;stroke-opacity:1"
         d="m 608.55084,627.71332 c 0,0.35983 -0.59267,0.635 -1.3335,0.635 -0.74084,0 -1.3335,-0.27517 -1.3335,-0.635 0,-0.33867 0.59266,-0.635 1.3335,-0.635 0.74083,0 1.3335,0.29633 1.3335,0.635 z"
         id="path3377"
         inkscape:connector-curvature="0" />
      <path
         style="fill:#ffffff;fill-opacity:1;fill-rule:evenodd;stroke:#000000;stroke-width:0.21166511px;stroke-linecap:butt;stroke-linejoin:miter;stroke-miterlimit:4;stroke-dasharray:none;stroke-opacity:1"
         d="m 599.78795,635.07926 c 0,0.33867 -0.59267,0.635 -1.3335,0.635 -0.74083,0 -1.3335,-0.29633 -1.3335,-0.635 0,-0.35983 0.59267,-0.635 1.3335,-0.635 0.74083,0 1.3335,0.27517 1.3335,0.635 z"
         id="path3379"
         inkscape:connector-curvature="0" />
      <path
         style="fill:#ffffff;fill-opacity:1;fill-rule:evenodd;stroke:#000000;stroke-width:0.21166511px;stroke-linecap:butt;stroke-linejoin:miter;stroke-miterlimit:4;stroke-dasharray:none;stroke-opacity:1"
         d="m 586.81287,626.25285 c 0,0.33864 -0.61384,0.6138 -1.35467,0.6138 -0.7408,0 -1.33347,-0.27516 -1.33347,-0.6138 0,-0.35983 0.59267,-0.635 1.33347,-0.635 0.74083,0 1.35467,0.27517 1.35467,0.635 z"
         id="path3381"
         inkscape:connector-curvature="0" />
      <path
         style="fill:#ffffff;fill-opacity:1;fill-rule:evenodd;stroke:#000000;stroke-width:0.21166511px;stroke-linecap:butt;stroke-linejoin:miter;stroke-miterlimit:4;stroke-dasharray:none;stroke-opacity:1"
         d="m 600.67692,629.19499 c 0,0.33866 -0.59264,0.635 -1.33347,0.635 -0.74083,0 -1.35467,-0.29634 -1.35467,-0.635 0,-0.35984 0.61384,-0.635 1.35467,-0.635 0.74083,0 1.33347,0.27516 1.33347,0.635 z"
         id="path3383"
         inkscape:connector-curvature="0" />
      <path
         style="fill:#ffffff;fill-opacity:1;fill-rule:evenodd;stroke:#000000;stroke-width:0.21166511px;stroke-linecap:butt;stroke-linejoin:miter;stroke-miterlimit:4;stroke-dasharray:none;stroke-opacity:1"
         d="m 593.81898,633.28013 c 0,0.35983 -0.61384,0.635 -1.35464,0.635 -0.74083,0 -1.3335,-0.27517 -1.3335,-0.635 0,-0.33867 0.59267,-0.61384 1.3335,-0.61384 0.7408,0 1.35464,0.27517 1.35464,0.61384 z"
         id="path3385"
         inkscape:connector-curvature="0" />
      <path
         style="fill:#ffffff;fill-opacity:1;fill-rule:evenodd;stroke:#000000;stroke-width:0.21166511px;stroke-linecap:butt;stroke-linejoin:miter;stroke-miterlimit:4;stroke-dasharray:none;stroke-opacity:1"
         d="m 581.69056,630.50729 c 0,0.33867 -0.59264,0.635 -1.33347,0.635 -0.74083,0 -1.3335,-0.29633 -1.3335,-0.635 0,-0.3598 0.59267,-0.63497 1.3335,-0.63497 0.74083,0 1.33347,0.27517 1.33347,0.63497 z"
         id="path3387"
         inkscape:connector-curvature="0" />
      <path
         style="fill:#ffffff;fill-opacity:1;fill-rule:evenodd;stroke:#000000;stroke-width:0.21166511px;stroke-linecap:butt;stroke-linejoin:miter;stroke-miterlimit:4;stroke-dasharray:none;stroke-opacity:1"
         d="m 610.90034,625.70252 c 0,0.33866 -0.61384,0.635 -1.35467,0.635 -0.74083,0 -1.3335,-0.29634 -1.3335,-0.635 0,-0.35984 0.59267,-0.635 1.3335,-0.635 0.74083,0 1.35467,0.27516 1.35467,0.635 z"
         id="path3389"
         inkscape:connector-curvature="0" />
      <path
         style="fill:#ffffff;fill-opacity:1;fill-rule:evenodd;stroke:#000000;stroke-width:0.21166511px;stroke-linecap:butt;stroke-linejoin:miter;stroke-miterlimit:4;stroke-dasharray:none;stroke-opacity:1"
         d="m 599.78795,634.9946 c 0,0.35983 -0.59267,0.635 -1.3335,0.635 -0.74083,0 -1.3335,-0.27517 -1.3335,-0.635 0,-0.35984 0.59267,-0.635 1.3335,-0.635 0.74083,0 1.3335,0.27516 1.3335,0.635 z"
         id="path3391"
         inkscape:connector-curvature="0" />
      <path
         style="fill:#ffffff;fill-opacity:1;fill-rule:evenodd;stroke:#000000;stroke-width:0.21166511px;stroke-linecap:butt;stroke-linejoin:miter;stroke-miterlimit:4;stroke-dasharray:none;stroke-opacity:1"
         d="m 603.44975,623.54352 c 0,0.33866 -0.59266,0.61383 -1.3335,0.61383 -0.74083,0 -1.35466,-0.27517 -1.35466,-0.61383 0,-0.35984 0.61383,-0.635 1.35466,-0.635 0.74084,0 1.3335,0.27516 1.3335,0.635 z"
         id="path3393"
         inkscape:connector-curvature="0" />
      <path
         style="fill:#ffffff;fill-opacity:1;fill-rule:evenodd;stroke:#000000;stroke-width:0.21166511px;stroke-linecap:butt;stroke-linejoin:miter;stroke-miterlimit:4;stroke-dasharray:none;stroke-opacity:1"
         d="m 606.94217,632.66629 c 0,0.35984 -0.59267,0.635 -1.3335,0.635 -0.74083,0 -1.3335,-0.27516 -1.3335,-0.635 0,-0.33866 0.59267,-0.635 1.3335,-0.635 0.74083,0 1.3335,0.29634 1.3335,0.635 z"
         id="path3395"
         inkscape:connector-curvature="0" />
      <path
         style="fill:#ffffff;fill-opacity:1;fill-rule:evenodd;stroke:#000000;stroke-width:0.21166511px;stroke-linecap:butt;stroke-linejoin:miter;stroke-miterlimit:4;stroke-dasharray:none;stroke-opacity:1"
         d="m 593.96714,627.56515 c 0,0.33867 -0.61383,0.635 -1.35463,0.635 -0.74084,0 -1.3335,-0.29633 -1.3335,-0.635 0,-0.35983 0.59266,-0.635 1.3335,-0.635 0.7408,0 1.35463,0.27517 1.35463,0.635 z"
         id="path3397"
         inkscape:connector-curvature="0" />
      <path
         style="fill:#ffffff;fill-opacity:1;fill-rule:evenodd;stroke:#000000;stroke-width:0.21166511px;stroke-linecap:butt;stroke-linejoin:miter;stroke-miterlimit:4;stroke-dasharray:none;stroke-opacity:1"
         d="m 592.35851,631.90429 c 0,0.33867 -0.61384,0.635 -1.35467,0.635 -0.71967,0 -1.3335,-0.29633 -1.3335,-0.635 0,-0.35983 0.61383,-0.635 1.3335,-0.635 0.74083,0 1.35467,0.27517 1.35467,0.635 z"
         id="path3399"
         inkscape:connector-curvature="0" />
      <path
         style="fill:#ffffff;fill-opacity:1;fill-rule:evenodd;stroke:#000000;stroke-width:0.21166511px;stroke-linecap:butt;stroke-linejoin:miter;stroke-miterlimit:4;stroke-dasharray:none;stroke-opacity:1"
         d="m 613.525,632.36996 c 0,0.33867 -0.61383,0.635 -1.35466,0.635 -0.74084,0 -1.3335,-0.29633 -1.3335,-0.635 0,-0.35983 0.59266,-0.635 1.3335,-0.635 0.74083,0 1.35466,0.27517 1.35466,0.635 z"
         id="path3401"
         inkscape:connector-curvature="0" />
      <path
         style="fill:#ffffff;fill-opacity:1;fill-rule:evenodd;stroke:#000000;stroke-width:0.21166511px;stroke-linecap:butt;stroke-linejoin:miter;stroke-miterlimit:4;stroke-dasharray:none;stroke-opacity:1"
         d="m 612.36084,629.02565 c 0,0.35984 -0.61384,0.635 -1.35467,0.635 -0.74083,0 -1.3335,-0.27516 -1.3335,-0.635 0,-0.33866 0.59267,-0.635 1.3335,-0.635 0.74083,0 1.35467,0.29634 1.35467,0.635 z"
         id="path3403"
         inkscape:connector-curvature="0" />
      <path
         style="fill:#ffffff;fill-opacity:1;fill-rule:evenodd;stroke:#000000;stroke-width:0.21166511px;stroke-linecap:butt;stroke-linejoin:miter;stroke-miterlimit:4;stroke-dasharray:none;stroke-opacity:1"
         d="m 621.54717,626.78199 c 0,0.35983 -0.59267,0.635 -1.3335,0.635 -0.74083,0 -1.35467,-0.27517 -1.35467,-0.635 0,-0.33864 0.61384,-0.63497 1.35467,-0.63497 0.74083,0 1.3335,0.29633 1.3335,0.63497 z"
         id="path3405"
         inkscape:connector-curvature="0" />
      <path
         style="fill:#ffffff;fill-opacity:1;fill-rule:evenodd;stroke:#000000;stroke-width:0.21166511px;stroke-linecap:butt;stroke-linejoin:miter;stroke-miterlimit:4;stroke-dasharray:none;stroke-opacity:1"
         d="m 620.53117,632.89913 c 0,0.35983 -0.61383,0.635 -1.35467,0.635 -0.74083,0 -1.3335,-0.27517 -1.3335,-0.635 0,-0.33867 0.59267,-0.635 1.3335,-0.635 0.74084,0 1.35467,0.29633 1.35467,0.635 z"
         id="path3407"
         inkscape:connector-curvature="0" />
      <path
         style="fill:#ffffff;fill-opacity:1;fill-rule:evenodd;stroke:#000000;stroke-width:0.21166511px;stroke-linecap:butt;stroke-linejoin:miter;stroke-miterlimit:4;stroke-dasharray:none;stroke-opacity:1"
         d="m 586.81287,631.43863 c 0,0.33866 -0.61384,0.635 -1.35467,0.635 -0.7408,0 -1.33347,-0.29634 -1.33347,-0.635 0,-0.35984 0.59267,-0.635 1.33347,-0.635 0.74083,0 1.35467,0.27516 1.35467,0.635 z"
         id="path3409"
         inkscape:connector-curvature="0" />
      <path
         style="fill:#ffffff;fill-opacity:1;fill-rule:evenodd;stroke:#000000;stroke-width:0.21166511px;stroke-linecap:butt;stroke-linejoin:miter;stroke-miterlimit:4;stroke-dasharray:none;stroke-opacity:1"
         d="m 590.00901,627.33232 c 0,0.33867 -0.59267,0.635 -1.33348,0.635 -0.74083,0 -1.3335,-0.29633 -1.3335,-0.635 0,-0.35983 0.59267,-0.635 1.3335,-0.635 0.74081,0 1.33348,0.27517 1.33348,0.635 z"
         id="path3411"
         inkscape:connector-curvature="0" />
      <path
         style="fill:#ffffff;fill-opacity:1;fill-rule:evenodd;stroke:#000000;stroke-width:0.21166511px;stroke-linecap:butt;stroke-linejoin:miter;stroke-miterlimit:4;stroke-dasharray:none;stroke-opacity:1"
         d="m 598.20045,629.02565 c 0,0.35984 -0.61383,0.635 -1.35467,0.635 -0.7408,0 -1.33347,-0.27516 -1.33347,-0.635 0,-0.33866 0.59267,-0.635 1.33347,-0.635 0.74084,0 1.35467,0.29634 1.35467,0.635 z"
         id="path3413"
         inkscape:connector-curvature="0" />
      <path
         style="fill:#ffffff;fill-opacity:1;fill-rule:evenodd;stroke:#000000;stroke-width:0.21166511px;stroke-linecap:butt;stroke-linejoin:miter;stroke-miterlimit:4;stroke-dasharray:none;stroke-opacity:1"
         d="m 604.91017,628.72932 c 0,0.33867 -0.59267,0.635 -1.33342,0.635 -0.74083,0 -1.35466,-0.29633 -1.35466,-0.635 0,-0.35983 0.61383,-0.635 1.35466,-0.635 0.74075,0 1.33342,0.27517 1.33342,0.635 z"
         id="path3415"
         inkscape:connector-curvature="0" />
      <path
         style="fill:#ffffff;fill-opacity:1;fill-rule:evenodd;stroke:#000000;stroke-width:0.21166511px;stroke-linecap:butt;stroke-linejoin:miter;stroke-miterlimit:4;stroke-dasharray:none;stroke-opacity:1"
         d="m 615.13367,628.03082 c 0,0.33867 -0.61383,0.635 -1.35467,0.635 -0.74083,0 -1.3335,-0.29633 -1.3335,-0.635 0,-0.35983 0.59267,-0.635 1.3335,-0.635 0.74084,0 1.35467,0.27517 1.35467,0.635 z"
         id="path3417"
         inkscape:connector-curvature="0" />
      <path
         style="fill:#ffffff;fill-opacity:1;fill-rule:evenodd;stroke:#000000;stroke-width:0.21166511px;stroke-linecap:butt;stroke-linejoin:miter;stroke-miterlimit:4;stroke-dasharray:none;stroke-opacity:1"
         d="m 627.00817,629.63949 c 0,0.35983 -0.59267,0.635 -1.3335,0.635 -0.74083,0 -1.35467,-0.27517 -1.35467,-0.635 0,-0.33867 0.61384,-0.61384 1.35467,-0.61384 0.74083,0 1.3335,0.27517 1.3335,0.61384 z"
         id="path3419"
         inkscape:connector-curvature="0" />
      <path
         style="fill:#ffffff;fill-opacity:1;fill-rule:evenodd;stroke:#000000;stroke-width:0.21166511px;stroke-linecap:butt;stroke-linejoin:miter;stroke-miterlimit:4;stroke-dasharray:none;stroke-opacity:1"
         d="m 598.62378,624.45368 c 0,0.35984 -0.59266,0.635 -1.3335,0.635 -0.74083,0 -1.33347,-0.27516 -1.33347,-0.635 0,-0.33866 0.59264,-0.635 1.33347,-0.635 0.74084,0 1.3335,0.29634 1.3335,0.635 z"
         id="path3421"
         inkscape:connector-curvature="0" />
      <path
         style="fill:#ffffff;fill-opacity:1;fill-rule:evenodd;stroke:#000000;stroke-width:0.21166511px;stroke-linecap:butt;stroke-linejoin:miter;stroke-miterlimit:4;stroke-dasharray:none;stroke-opacity:1"
         d="m 597.75595,626.54918 c 0,0.35981 -0.59267,0.63497 -1.33347,0.63497 -0.74084,0 -1.35467,-0.27516 -1.35467,-0.63497 0,-0.33866 0.61383,-0.635 1.35467,-0.635 0.7408,0 1.33347,0.29634 1.33347,0.635 z"
         id="path3423"
         inkscape:connector-curvature="0" />
      <path
         style="fill:#ffffff;fill-opacity:1;fill-rule:evenodd;stroke:#000000;stroke-width:0.21166511px;stroke-linecap:butt;stroke-linejoin:miter;stroke-miterlimit:4;stroke-dasharray:none;stroke-opacity:1"
         d="m 588.99301,633.51296 c 0,0.35983 -0.59264,0.635 -1.33348,0.635 -0.74083,0 -1.3335,-0.27517 -1.3335,-0.635 0,-0.33867 0.59267,-0.61383 1.3335,-0.61383 0.74084,0 1.33348,0.27516 1.33348,0.61383 z"
         id="path3425"
         inkscape:connector-curvature="0" />
      <path
         style="fill:#ffffff;fill-opacity:1;fill-rule:evenodd;stroke:#000000;stroke-width:0.21166511px;stroke-linecap:butt;stroke-linejoin:miter;stroke-miterlimit:4;stroke-dasharray:none;stroke-opacity:1"
         d="m 612.636,623.54352 c 0,0.33866 -0.59266,0.61383 -1.3335,0.61383 -0.74083,0 -1.3335,-0.27517 -1.3335,-0.61383 0,-0.35984 0.59267,-0.635 1.3335,-0.635 0.74084,0 1.3335,0.27516 1.3335,0.635 z"
         id="path3427"
         inkscape:connector-curvature="0" />
      <path
         style="fill:#ffffff;fill-opacity:1;fill-rule:evenodd;stroke:#000000;stroke-width:0.21166511px;stroke-linecap:butt;stroke-linejoin:miter;stroke-miterlimit:4;stroke-dasharray:none;stroke-opacity:1"
         d="m 605.92617,625.78718 c 0,0.33867 -0.59267,0.635 -1.3335,0.635 -0.74083,0 -1.33342,-0.29633 -1.33342,-0.635 0,-0.35983 0.59259,-0.635 1.33342,-0.635 0.74083,0 1.3335,0.27517 1.3335,0.635 z"
         id="path3429"
         inkscape:connector-curvature="0" />
      <path
         style="fill:#ffffff;fill-opacity:1;fill-rule:evenodd;stroke:#000000;stroke-width:0.21166511px;stroke-linecap:butt;stroke-linejoin:miter;stroke-miterlimit:4;stroke-dasharray:none;stroke-opacity:1"
         d="m 619.367,624.62302 c 0,0.33866 -0.61383,0.635 -1.35466,0.635 -0.74084,0 -1.3335,-0.29634 -1.3335,-0.635 0,-0.35984 0.59266,-0.635 1.3335,-0.635 0.74083,0 1.35466,0.27516 1.35466,0.635 z"
         id="path3431"
         inkscape:connector-curvature="0" />
      <path
         style="fill:#ffffff;fill-opacity:1;fill-rule:evenodd;stroke:#000000;stroke-width:0.21166511px;stroke-linecap:butt;stroke-linejoin:miter;stroke-miterlimit:4;stroke-dasharray:none;stroke-opacity:1"
         d="m 586.96103,627.71332 c 0,0.35983 -0.61383,0.635 -1.35466,0.635 -0.74081,0 -1.33347,-0.27517 -1.33347,-0.635 0,-0.33867 0.59266,-0.635 1.33347,-0.635 0.74083,0 1.35466,0.29633 1.35466,0.635 z"
         id="path3433"
         inkscape:connector-curvature="0" />
      <path
         style="fill:#ffffff;fill-opacity:1;fill-rule:evenodd;stroke:#000000;stroke-width:0.21166511px;stroke-linecap:butt;stroke-linejoin:miter;stroke-miterlimit:4;stroke-dasharray:none;stroke-opacity:1"
         d="m 603.44975,634.21143 c 0,0.35983 -0.59266,0.635 -1.3335,0.635 -0.74083,0 -1.35466,-0.27517 -1.35466,-0.635 0,-0.33864 0.61383,-0.63497 1.35466,-0.63497 0.74084,0 1.3335,0.29633 1.3335,0.63497 z"
         id="path3435"
         inkscape:connector-curvature="0" />
      <path
         style="fill:#ffffff;fill-opacity:1;fill-rule:evenodd;stroke:#000000;stroke-width:0.21166511px;stroke-linecap:butt;stroke-linejoin:miter;stroke-miterlimit:4;stroke-dasharray:none;stroke-opacity:1"
         d="m 619.367,627.86149 c 0,0.35983 -0.61383,0.635 -1.35466,0.635 -0.74084,0 -1.3335,-0.27517 -1.3335,-0.635 0,-0.33867 0.59266,-0.635 1.3335,-0.635 0.74083,0 1.35466,0.29633 1.35466,0.635 z"
         id="path3437"
         inkscape:connector-curvature="0" />
      <path
         style="fill:#ffffff;fill-opacity:1;fill-rule:evenodd;stroke:#000000;stroke-width:0.21166511px;stroke-linecap:butt;stroke-linejoin:miter;stroke-miterlimit:4;stroke-dasharray:none;stroke-opacity:1"
         d="m 597.60778,632.36996 c 0,0.33867 -0.59266,0.635 -1.33347,0.635 -0.74083,0 -1.35467,-0.29633 -1.35467,-0.635 0,-0.35983 0.61384,-0.635 1.35467,-0.635 0.74081,0 1.33347,0.27517 1.33347,0.635 z"
         id="path3439"
         inkscape:connector-curvature="0" />
      <path
         style="fill:#ffffff;fill-opacity:1;fill-rule:evenodd;stroke:#000000;stroke-width:0.21166511px;stroke-linecap:butt;stroke-linejoin:miter;stroke-miterlimit:4;stroke-dasharray:none;stroke-opacity:1"
         d="m 607.38667,623.45885 c 0,0.33867 -0.59267,0.635 -1.3335,0.635 -0.74083,0 -1.35467,-0.29633 -1.35467,-0.635 0,-0.35983 0.61384,-0.635 1.35467,-0.635 0.74083,0 1.3335,0.27517 1.3335,0.635 z"
         id="path3441"
         inkscape:connector-curvature="0" />
      <path
         style="fill:#ffffff;fill-opacity:1;fill-rule:evenodd;stroke:#000000;stroke-width:0.21166511px;stroke-linecap:butt;stroke-linejoin:miter;stroke-miterlimit:4;stroke-dasharray:none;stroke-opacity:1"
         d="m 612.93234,627.71332 c 0,0.35983 -0.59267,0.635 -1.3335,0.635 -0.74084,0 -1.3335,-0.27517 -1.3335,-0.635 0,-0.33867 0.59266,-0.635 1.3335,-0.635 0.74083,0 1.3335,0.29633 1.3335,0.635 z"
         id="path3443"
         inkscape:connector-curvature="0" />
      <path
         style="fill:#ffffff;fill-opacity:1;fill-rule:evenodd;stroke:#000000;stroke-width:0.21166511px;stroke-linecap:butt;stroke-linejoin:miter;stroke-miterlimit:4;stroke-dasharray:none;stroke-opacity:1"
         d="m 618.77434,631.73496 c 0,0.35983 -0.59267,0.635 -1.3335,0.635 -0.74084,0 -1.35467,-0.27517 -1.35467,-0.635 0,-0.33867 0.61383,-0.635 1.35467,-0.635 0.74083,0 1.3335,0.29633 1.3335,0.635 z"
         id="path3445"
         inkscape:connector-curvature="0" />
      <path
         style="fill:#ffffff;fill-opacity:1;fill-rule:nonzero;stroke:none"
         d="m 599.93612,640.5614 c -10.81611,-0.42333 -19.32503,-2.37066 -21.54753,-4.95297 -0.61382,-0.71967 -0.76199,-1.4393 -0.76199,-3.51364 0,-1.7568 0.0212,-1.8838 0.21167,-1.5875 1.14299,1.62984 3.74646,2.94217 8.12793,4.06397 10.75258,2.7305 27.6223,2.37067 36.7663,-0.8043 2.43417,-0.8255 4.1275,-1.778 5.03767,-2.81517 l 0.48683,-0.52916 0.0212,1.9685 c 0.0635,2.49763 0.0423,2.53997 -0.3175,3.0268 -1.8415,2.4765 -9.37683,4.42381 -19.40983,5.03764 -1.4605,0.0847 -7.23892,0.14817 -8.61472,0.10583 z"
         id="path3447"
         inkscape:connector-curvature="0" />
      <path
         style="fill:#ffffff;fill-opacity:1;fill-rule:nonzero;stroke:none"
         d="m 599.06828,640.51907 c -10.18111,-0.46567 -18.26669,-2.32833 -20.51036,-4.74131 -0.78315,-0.8255 -0.93132,-1.4605 -0.93132,-3.68297 l -0.0212,-1.90497 0.35983,0.44447 c 0.5715,0.762 1.27,1.29117 2.43416,1.92617 3.42897,1.8203 9.58842,3.1538 16.9967,3.68297 2.30716,0.14817 8.48772,0.1905 10.58322,0.0423 6.39233,-0.4445 11.303,-1.29117 14.94366,-2.5823 2.24367,-0.80434 4.48734,-2.11667 5.08,-2.9845 0.16934,-0.27517 0.1905,-0.0635 0.254,1.82033 0.0847,2.3918 0.0212,2.7093 -0.762,3.4078 -0.99483,0.889 -3.47133,1.98967 -6.0325,2.66698 -3.25966,0.84666 -7.5565,1.48166 -12.319,1.79916 -2.2225,0.14817 -7.95858,0.21167 -10.07522,0.10584 z"
         id="path3449"
         inkscape:connector-curvature="0" />
      <path
         style="fill:#ffffff;fill-opacity:1;fill-rule:nonzero;stroke:none"
         d="m 599.08945,640.51907 c -10.09644,-0.40217 -18.45719,-2.37067 -20.63736,-4.84714 -0.67732,-0.762 -0.82549,-1.4605 -0.82549,-3.57714 l -0.0212,-1.90497 0.33867,0.44447 c 1.22766,1.56634 3.80996,2.83634 7.91627,3.89464 8.69944,2.2225 21.75913,2.4765 31.5593,0.61383 3.09033,-0.59266 5.7785,-1.41813 7.70467,-2.37063 1.24883,-0.635 1.9685,-1.12184 2.62466,-1.82034 l 0.48684,-0.508 0.0423,2.11667 c 0.0423,1.56633 0,2.22247 -0.127,2.53997 -0.5715,1.27 -3.28084,2.64583 -7.09084,3.59831 -5.7785,1.4605 -14.05466,2.13783 -21.97088,1.82033 z"
         id="path3451"
         inkscape:connector-curvature="0" />
      <path
         style="fill:#ffffff;fill-opacity:1;fill-rule:nonzero;stroke:none"
         d="m 598.92012,640.51907 c -10.11759,-0.46567 -18.09736,-2.32833 -20.44686,-4.80481 -0.67733,-0.71966 -0.86783,-1.52397 -0.86783,-3.6618 l 0,-1.86264 0.42334,0.50797 c 0.57149,0.71967 1.10065,1.12184 2.26482,1.75684 6.05361,3.32313 19.72719,4.78363 32.13075,3.42897 7.493,-0.8255 13.12333,-2.62464 15.3035,-4.93181 l 0.508,-0.52916 0.0423,2.11666 c 0.0423,1.56634 0,2.24364 -0.127,2.56114 -0.5715,1.24883 -3.09034,2.56117 -6.81567,3.55597 -5.5245,1.4605 -14.6685,2.2225 -22.41539,1.86267 z"
         id="path3453"
         inkscape:connector-curvature="0" />
      <path
         style="fill:#b3b3b3;fill-opacity:1;fill-rule:nonzero;stroke:none"
         d="m 599.38578,636.09526 c -5.03764,-0.1905 -9.90594,-0.86783 -13.67358,-1.86266 -3.7888,-0.99481 -6.54044,-2.41297 -7.4506,-3.80997 -0.48683,-0.74081 -0.42333,-2.24364 0.12699,-2.62464 0.14817,-0.10584 0.29633,-0.0635 1.27,0.33866 2.22247,0.9525 4.65664,1.62984 8.17028,2.24367 9.22858,1.62981 20.8913,1.62981 30.24697,0 3.45016,-0.59267 6.13833,-1.35467 8.382,-2.32833 l 1.03716,-0.46567 0.27517,0.42333 c 0.35983,0.52917 0.35983,1.69334 0.0212,2.286 -0.61383,1.05831 -2.68817,2.34948 -5.10117,3.21731 -5.56683,1.9473 -14.52033,2.94214 -23.30438,2.5823 z m 0.21167,-0.5715 c 0.40217,-0.23283 0.46567,-0.67733 0.127,-0.93133 -0.508,-0.40214 -1.778,-0.4233 -2.413,-0.0635 -0.55033,0.3175 -0.48683,0.762 0.127,1.05833 0.4445,0.21167 0.5715,0.23284 1.16417,0.1905 0.48683,-0.0212 0.762,-0.0847 0.99483,-0.254 z m 8.04322,0 c 0.61383,-0.381 0.35983,-0.91016 -0.52917,-1.12183 -0.99483,-0.21164 -2.11666,0.14817 -2.11666,0.67733 0,0.21167 0.10583,0.3175 0.48683,0.508 0.42333,0.21167 0.5715,0.23284 1.143,0.1905 0.48683,-0.0212 0.762,-0.0847 1.016,-0.254 z m -4.38142,-0.84666 c 0.61375,-0.381 0.35984,-0.93131 -0.52916,-1.12181 -0.99484,-0.21166 -2.11667,0.14817 -2.11667,0.67731 0,0.21166 0.10583,0.3175 0.48683,0.508 0.42334,0.1905 0.5715,0.23283 1.16417,0.1905 0.46567,-0.0423 0.74083,-0.10584 0.99483,-0.254 z m 8.76292,-0.14817 c 0.61383,-0.38097 0.35983,-0.9313 -0.55033,-1.1218 -0.97367,-0.21167 -2.0955,0.127 -2.0955,0.65616 0,0.23281 0.10583,0.33864 0.48683,0.50797 0.42333,0.21167 0.5715,0.23284 1.143,0.21167 0.48683,-0.0423 0.762,-0.10583 1.016,-0.254 z m 4.08517,-0.14817 c 0.61383,-0.38097 0.35983,-0.9313 -0.52917,-1.14297 -0.99483,-0.21166 -2.11667,0.14817 -2.11667,0.67734 0,0.21166 0.10584,0.33863 0.48684,0.50797 0.42333,0.21166 0.5715,0.23283 1.143,0.1905 0.48683,-0.0212 0.762,-0.0847 1.016,-0.23284 z m -27.30481,-0.40213 c 0.61381,-0.381 0.35981,-0.93134 -0.52916,-1.12184 -0.99484,-0.21166 -2.11667,0.14817 -2.11667,0.67734 0,0.21166 0.10583,0.3175 0.48683,0.508 0.4445,0.21163 0.5715,0.2328 1.16417,0.19047 0.48683,-0.0212 0.762,-0.10581 0.99483,-0.25397 z m 4.82595,-0.23284 c 0.61383,-0.381 0.35983,-0.93133 -0.55034,-1.12183 -0.97363,-0.21167 -2.09547,0.14817 -2.09547,0.67733 0,0.21167 0.10584,0.3175 0.48684,0.508 0.42333,0.21167 0.5715,0.23284 1.143,0.1905 0.4868,-0.0212 0.76197,-0.10583 1.01597,-0.254 z m 26.71219,-0.381 c 0.33867,-0.21166 0.42333,-0.5715 0.16933,-0.8255 -0.16933,-0.1905 -0.889,-0.381 -1.35466,-0.381 -0.33867,0 -0.35984,-0.0212 -0.27517,-0.29633 0.0847,-0.381 -0.1905,-0.635 -0.8255,-0.78317 -0.99483,-0.21166 -2.11667,0.14817 -2.11667,0.67734 0,0.35983 0.6985,0.71966 1.43934,0.71966 0.48683,0 0.508,0 0.35983,0.1905 -0.1905,0.27517 -0.0212,0.55034 0.48683,0.78317 0.381,0.16933 0.55034,0.1905 1.12184,0.16933 0.46566,-0.0423 0.74083,-0.10583 0.99483,-0.254 z m -13.589,-0.23283 c 0.635,-0.381 0.35983,-0.93133 -0.52917,-1.12183 -0.99483,-0.21167 -2.11666,0.127 -2.11666,0.67733 0,0.21167 0.10583,0.3175 0.508,0.508 0.42333,0.1905 0.55033,0.21167 1.143,0.1905 0.48683,-0.0423 0.762,-0.10583 0.99483,-0.254 z m -6.11708,-0.23283 c 0.61383,-0.381 0.35983,-0.93134 -0.52914,-1.12184 -0.99483,-0.21166 -2.11667,0.14817 -2.11667,0.67734 0,0.21166 0.10584,0.3175 0.48684,0.508 0.42333,0.1905 0.5715,0.21166 1.143,0.1905 0.48683,-0.0423 0.76197,-0.10584 1.01597,-0.254 z m -3.21731,-0.0847 c 0.61384,-0.381 0.35984,-0.91017 -0.52916,-1.12184 -0.99481,-0.21166 -2.11664,0.14817 -2.11664,0.67734 0,0.21166 0.10583,0.3175 0.48683,0.508 0.4445,0.21166 0.5715,0.23283 1.16417,0.1905 0.4868,-0.0212 0.76197,-0.10584 0.9948,-0.254 z m 15.91722,0 c 0.61384,-0.381 0.35984,-0.91017 -0.55033,-1.12184 -0.97367,-0.21166 -2.0955,0.14817 -2.0955,0.67734 0,0.21166 0.10583,0.3175 0.48683,0.508 0.42334,0.21166 0.5715,0.23283 1.143,0.1905 0.48684,-0.0212 0.762,-0.10584 1.016,-0.254 z m -21.16649,-0.46567 c 0.6138,-0.381 0.35983,-0.91016 -0.52917,-1.12183 -0.99483,-0.21167 -2.11667,0.14817 -2.11667,0.67733 0,0.21167 0.10584,0.3175 0.48684,0.508 0.42333,0.21167 0.5715,0.23284 1.143,0.1905 0.48683,-0.0212 0.762,-0.0847 1.016,-0.254 z m -5.54564,-0.4445 c 0.61383,-0.40216 0.35983,-0.93133 -0.55034,-1.143 -0.97366,-0.21166 -2.09547,0.14817 -2.09547,0.67734 0,0.21166 0.10584,0.33866 0.48684,0.508 0.42333,0.21166 0.57147,0.23283 1.14297,0.1905 0.48683,-0.0212 0.762,-0.0847 1.016,-0.23284 z m 35.7503,-0.23283 c 0.635,-0.381 0.35983,-0.93133 -0.52917,-1.143 -0.99483,-0.21164 -2.11666,0.14817 -2.11666,0.67733 0,0.21167 0.10583,0.33867 0.48683,0.508 0.4445,0.21167 0.5715,0.23284 1.16417,0.1905 0.48683,-0.0212 0.762,-0.0847 0.99483,-0.23283 z m -40.87261,-0.6985 c 0.635,-0.381 0.35984,-0.93131 -0.52914,-1.12181 -0.99483,-0.23283 -2.11666,0.127 -2.11666,0.65614 0,0.21167 0.10583,0.33867 0.48683,0.508 0.4445,0.21167 0.5715,0.23284 1.16417,0.1905 0.48683,-0.0212 0.76197,-0.0847 0.9948,-0.23283 z m 45.23294,-0.84664 c 0.61384,-0.3175 0.635,-0.5715 0.127,-0.889 -0.889,-0.5715 -2.68816,-0.29633 -2.68816,0.40217 0,0.4445 0.59266,0.71966 1.5875,0.74083 0.35983,0 0.61383,-0.0635 0.97366,-0.254 z"
         id="path3455"
         inkscape:connector-curvature="0" />
      <path
         style="fill:#b3b3b3;fill-opacity:1;fill-rule:nonzero;stroke:none"
         d="m 599.51278,640.5614 c -11.85325,-0.5715 -19.96002,-2.66697 -21.56868,-5.5668 -0.16933,-0.29634 -0.23283,-0.93131 -0.29633,-2.60347 l -0.0423,-2.20131 0.42333,0.52914 c 2.28599,2.77283 9.8001,4.88947 19.66368,5.5033 2.51883,0.16934 8.10672,0.16934 10.62555,0 9.56734,-0.59266 16.8275,-2.56113 19.34634,-5.2493 l 0.5715,-0.59264 0.0423,2.15897 c 0.0847,2.87864 -0.0847,3.21731 -2.20134,4.36031 -3.302,1.7568 -9.18633,3.00564 -16.84866,3.51364 -1.69334,0.10583 -8.27609,0.21166 -9.71539,0.14816 z"
         id="path3457"
         inkscape:connector-curvature="0" />
      <path
         style="fill:#cccccc;fill-opacity:1;fill-rule:nonzero;stroke:none"
         d="m 598.11578,630.23215 c -4.40264,-0.254 -8.08561,-0.6985 -11.59925,-1.41816 l -1.54513,-0.3175 0.7408,-0.0635 c 0.84667,-0.0635 1.37583,-0.33867 1.37583,-0.6985 0,-0.3175 -0.21166,-0.508 -0.762,-0.65617 -0.4445,-0.127 -0.4445,-0.127 -0.14816,-0.1905 0.6985,-0.127 0.99483,-0.71964 0.55033,-1.0583 -0.762,-0.5715 -2.75164,-0.29634 -2.75164,0.40216 0,0.29634 0.21167,0.46564 0.84667,0.67731 0.27514,0.0847 0.3598,0.14816 0.21164,0.14816 -0.12697,0 -0.38097,0.0847 -0.57147,0.1905 -0.46567,0.254 -0.46567,0.65617 0,0.93134 0.1905,0.10583 0.27516,0.1905 0.21166,0.1905 -0.27516,0 -2.4765,-0.6985 -3.49247,-1.12184 -1.69333,-0.69847 -1.67217,-0.635 -0.65617,-1.1853 3.45014,-1.88383 9.31325,-3.175 16.7427,-3.70414 2.62466,-0.1905 8.88988,-0.1905 11.42988,0 4.42384,0.3175 8.04334,0.86781 11.176,1.67214 2.2225,0.5715 3.72534,1.10067 5.207,1.8415 l 1.143,0.59267 -0.48683,0.25397 c -2.87867,1.5875 -9.12283,2.89983 -16.34067,3.40783 -2.0955,0.14817 -9.22855,0.21167 -11.28172,0.10583 z m 2.37064,-0.59266 c 0.5715,-0.35984 0.40217,-0.86784 -0.40214,-1.0795 -0.508,-0.14817 -0.97366,-0.14817 -1.4605,-0.0212 -0.3175,0.0847 -0.42333,0.0847 -0.86783,-0.0847 -1.50281,-0.52917 -3.25964,0.4445 -1.92614,1.0795 0.52917,0.254 1.16414,0.29633 1.77797,0.127 0.33867,-0.10584 0.42334,-0.0847 0.80434,0.0847 0.5715,0.254 1.56633,0.21166 2.0743,-0.10584 z m 11.68392,-0.14817 c 0.381,-0.23283 0.42333,-0.635 0.10583,-0.86783 -0.46567,-0.3175 -0.127,-0.35984 0.55033,-0.0635 0.381,0.1905 0.55034,0.21166 1.12184,0.16933 1.05833,-0.0635 1.651,-0.59267 1.16416,-1.05833 -0.23283,-0.23284 -0.99483,-0.40217 -1.54516,-0.35984 -0.381,0.0212 -0.635,0 -1.03717,-0.14816 -0.67733,-0.254 -1.50283,-0.21167 -2.05317,0.0635 -0.4445,0.254 -0.508,0.67733 -0.127,0.889 0.29634,0.16933 0.3175,0.254 0.0635,0.254 -0.40216,0 -0.889,0.381 -0.889,0.67733 0,0.21167 0.10584,0.3175 0.48684,0.508 0.42333,0.1905 0.55033,0.21167 1.143,0.1905 0.48683,-0.0423 0.762,-0.10583 1.016,-0.254 z m -7.45067,-0.3175 c 0.61383,-0.381 0.35983,-0.91017 -0.52917,-1.12183 -0.99475,-0.21167 -2.11658,0.14816 -2.11658,0.67733 0,0.21167 0.10583,0.3175 0.48683,0.508 0.42334,0.21167 0.5715,0.23283 1.16409,0.1905 0.46566,-0.0212 0.74083,-0.0847 0.99483,-0.254 z m 14.45683,-0.84667 c 0.29634,-0.16933 0.33867,-0.27516 0.29634,-0.52916 l -0.0847,-0.3175 0.80433,0 c 0.67733,0 0.84667,-0.0423 1.143,-0.21167 0.635,-0.40217 0.40217,-0.95247 -0.508,-1.14297 -1.22767,-0.27517 -2.56117,0.33867 -1.98967,0.9313 0.1905,0.23284 0.1905,0.23284 -0.0423,0.16934 -0.127,-0.0212 -0.52916,-0.0635 -0.86783,-0.0635 -1.3335,0 -1.905,0.762 -0.91017,1.22766 0.42334,0.1905 0.55034,0.21167 1.143,0.1905 0.508,-0.0423 0.762,-0.10583 1.016,-0.254 z m -10.81616,-0.14816 c 0.61383,-0.381 0.35983,-0.93134 -0.52917,-1.12184 -0.99483,-0.21166 -2.11667,0.127 -2.11667,0.65617 0,0.23283 0.10584,0.33867 0.48684,0.508 0.4445,0.21167 0.5715,0.23283 1.16416,0.21167 0.48684,-0.0423 0.762,-0.10584 0.99484,-0.254 z m -14.5837,-0.14817 c 0.61384,-0.381 0.35984,-0.93133 -0.55033,-1.143 -0.97364,-0.21167 -2.09547,0.14817 -2.09547,0.67733 0,0.21167 0.10583,0.33867 0.48683,0.508 0.42334,0.21167 0.55034,0.23284 1.14297,0.1905 0.48684,-0.0212 0.762,-0.0847 1.016,-0.23283 z m -3.95813,-0.23283 c 0.635,-0.381 0.35983,-0.93134 -0.52917,-1.12184 -0.97364,-0.2328 -2.09547,0.127 -2.09547,0.65617 0,0.21167 0.10583,0.33867 0.48683,0.508 0.42333,0.21167 0.55033,0.23283 1.14297,0.1905 0.48684,-0.0212 0.762,-0.0847 0.99484,-0.23283 z m 7.74694,-0.78317 c 0.61383,-0.381 0.35983,-0.9313 -0.52917,-1.1218 -0.9948,-0.21167 -2.11664,0.127 -2.11664,0.65616 0,0.23281 0.10584,0.33864 0.48684,0.52914 0.42333,0.1905 0.5715,0.21167 1.16414,0.1905 0.46566,-0.0423 0.762,-0.10583 0.99483,-0.254 z m 4.2333,-0.381 c 0.61384,-0.38097 0.35984,-0.9313 -0.52916,-1.1218 -0.99484,-0.23284 -2.11664,0.127 -2.11664,0.65616 0,0.23284 0.10583,0.33867 0.48683,0.50797 0.42334,0.21167 0.5715,0.23284 1.16414,0.1905 0.46567,-0.0212 0.762,-0.0847 0.99483,-0.23283 z m 14.88009,-0.2328 c 0.635,-0.381 0.35983,-0.93134 -0.52917,-1.12184 -0.99483,-0.23283 -2.11667,0.127 -2.11667,0.65617 0,0.23283 0.10584,0.33867 0.48684,0.508 0.4445,0.21164 0.5715,0.2328 1.16416,0.19047 0.48684,-0.0212 0.762,-0.0846 0.99484,-0.2328 z m -10.94317,-0.16934 c 0.61383,-0.381 0.35983,-0.91016 -0.52917,-1.12183 -0.99483,-0.21167 -2.11658,0.14817 -2.11658,0.67733 0,0.21167 0.10583,0.3175 0.48683,0.508 0.44442,0.21167 0.57142,0.23284 1.16409,0.1905 0.48683,-0.0212 0.762,-0.10583 0.99483,-0.254 z m 4.97417,-0.0635 c 0.59266,-0.381 0.35983,-0.93133 -0.508,-1.12183 -0.23284,-0.0423 -0.48684,-0.1905 -0.59267,-0.3175 -0.33867,-0.48683 -1.79917,-0.59267 -2.51883,-0.1905 -0.65617,0.35983 -0.381,0.889 0.61383,1.16417 0.23283,0.0635 0.40217,0.16933 0.40217,0.21166 0,0.0635 0.21166,0.21167 0.48683,0.3175 0.381,0.1905 0.55033,0.21167 1.12183,0.16934 0.46567,-0.0212 0.74084,-0.0847 0.99484,-0.23284 z m -16.9332,-0.61383 c 0.61384,-0.40217 0.35984,-0.93133 -0.55033,-1.143 -0.97364,-0.21167 -2.09547,0.14817 -2.09547,0.67733 0,0.21167 0.10583,0.33867 0.48683,0.508 0.42334,0.21167 0.55034,0.23284 1.14297,0.1905 0.48684,-0.0212 0.762,-0.0847 1.016,-0.23283 z m 25.39986,-0.46567 c 0.61384,-0.381 0.35984,-0.93133 -0.55033,-1.143 -0.97367,-0.21166 -2.0955,0.14817 -2.0955,0.67734 0,0.21166 0.10583,0.33866 0.48683,0.508 0.42334,0.21166 0.55034,0.23283 1.143,0.1905 0.48684,-0.0212 0.762,-0.0847 1.016,-0.23284 z m -20.74322,-0.16933 c 0.635,-0.381 0.35984,-0.93133 -0.52916,-1.12183 -0.99484,-0.21167 -2.11664,0.14816 -2.11664,0.67733 0,0.21167 0.10583,0.3175 0.48683,0.508 0.44447,0.1905 0.57147,0.23283 1.16414,0.1905 0.48683,-0.0423 0.762,-0.10583 0.99483,-0.254 z m 4.82597,-0.93133 c 0.61375,-0.381 0.35984,-0.91017 -0.52916,-1.12184 -0.99484,-0.21164 -2.11667,0.14817 -2.11667,0.67734 0,0.21166 0.10583,0.3175 0.48683,0.508 0.42334,0.21166 0.5715,0.23283 1.16417,0.1905 0.46567,-0.0212 0.74083,-0.10584 0.99483,-0.254 z m 9.18625,0 c 0.635,-0.381 0.35984,-0.91017 -0.52916,-1.12184 -0.99484,-0.21164 -2.11667,0.14817 -2.11667,0.67734 0,0.21166 0.10583,0.3175 0.48683,0.508 0.4445,0.21166 0.5715,0.23283 1.16417,0.1905 0.48683,-0.0212 0.762,-0.10584 0.99483,-0.254 z m -5.24933,-0.0635 c 0.61383,-0.381 0.35983,-0.93134 -0.52917,-1.12184 -0.99483,-0.2328 -2.11666,0.127 -2.11666,0.65617 0,0.21167 0.10583,0.33867 0.48683,0.508 0.4445,0.21167 0.5715,0.23283 1.16417,0.1905 0.48683,-0.0212 0.762,-0.0847 0.99483,-0.23283 z"
         id="path3459"
         inkscape:connector-curvature="0" />
      <path
         style="fill:#cccccc;fill-opacity:1;fill-rule:nonzero;stroke:none"
         d="m 599.53395,636.09526 c -0.21167,-0.0423 -0.635,-0.0635 -0.91017,-0.0635 -0.86783,0 -1.67216,-0.0635 -1.92616,-0.10583 -0.14817,-0.0423 -0.40214,-0.0423 -0.55031,-0.0212 -0.16933,0.0212 -0.33867,0 -0.381,-0.0423 -0.0423,-0.0423 -0.23283,-0.0635 -0.40217,-0.0635 -0.16933,0.0212 -0.40216,0 -0.52916,-0.0212 -0.508,-0.10583 -2.37064,-0.27517 -2.49764,-0.23283 -0.0635,0.0212 -0.127,0 -0.127,-0.0635 0,-0.0423 -0.127,-0.0635 -0.29633,-0.0423 -0.14817,0.0212 -0.29634,0 -0.3175,-0.0423 -0.0212,-0.0423 -0.254,-0.0635 -0.48684,-0.0847 -0.23283,0 -0.46566,-0.0423 -0.508,-0.0635 -0.127,-0.0847 -1.9473,-0.381 -2.0743,-0.33867 -0.0635,0.0212 -0.127,0.0212 -0.127,-0.0212 0,-0.0847 -0.91017,-0.27516 -1.22767,-0.29633 -0.0847,0 -0.1905,-0.0212 -0.23283,-0.0423 -0.0212,-0.0212 -0.55034,-0.16933 -1.16417,-0.33867 -2.75164,-0.71964 -5.29161,-1.84147 -6.58278,-2.8998 -0.381,-0.29634 -0.71966,-0.61384 -0.71966,-0.67734 0,-0.0423 -0.0635,-0.10583 -0.127,-0.10583 -0.0847,0 -0.10583,-0.0423 -0.0635,-0.10583 0.0423,-0.0635 0.0212,-0.12697 -0.0635,-0.12697 -0.0847,0 -0.10583,-0.0635 -0.0635,-0.14817 0.0423,-0.0847 0.0212,-0.14817 -0.0635,-0.14817 -0.127,0 -0.127,-1.5875 0.0212,-1.7145 0.0635,-0.0423 0.0635,-0.10583 0.0212,-0.14816 -0.0635,-0.0423 -0.0212,-0.0847 0.0635,-0.127 0.0847,-0.0212 0.10582,-0.0635 0.0635,-0.10584 -0.14817,-0.14816 0.38099,-0.14816 0.71966,0 0.1905,0.0847 0.381,0.14817 0.42333,0.14817 0.0423,0 0.29633,0.10583 0.5715,0.23283 0.254,0.127 0.55033,0.23284 0.65617,0.23284 0.10583,0 0.1905,0.0423 0.1905,0.0847 0,0.0423 0.0635,0.0847 0.14816,0.0847 0.0847,0 0.29631,0.0635 0.46564,0.14816 0.508,0.254 4.00047,1.16417 4.84714,1.27 0.0847,0.0212 0.33867,0.0635 0.5715,0.10584 0.21167,0.0423 0.48683,0.0847 0.61383,0.0847 0.10584,0 0.23284,0.0423 0.27517,0.0847 0.0423,0.0211 0.3175,0.0846 0.635,0.12697 0.61381,0.0635 0.74081,0.0847 0.82547,0.10583 0.0423,0.0212 0.127,0.0212 0.1905,0.0423 0.0635,0 0.48684,0.0635 0.97367,0.14817 0.46567,0.0635 1.03717,0.14816 1.27,0.14816 0.23283,0.0212 0.46567,0.0635 0.52917,0.0847 0.0635,0.0212 0.42333,0.0423 0.78313,0.0847 0.33867,0.0212 0.762,0.0635 0.93134,0.0635 0.8255,0.10584 2.87864,0.254 3.2808,0.27517 0.127,0 0.67734,0.0212 1.24884,0.0423 0.55033,0.0423 2.49763,0.0635 4.2968,0.0635 3.89458,0 5.73608,-0.0635 8.40308,-0.29633 0.14817,0 0.5715,-0.0423 0.93134,-0.0635 0.35983,-0.0423 0.91016,-0.0847 1.24883,-0.127 0.3175,-0.0423 0.762,-0.10583 0.9525,-0.127 0.21167,-0.0212 0.71967,-0.0847 1.16417,-0.14817 0.4445,-0.0635 0.93133,-0.127 1.0795,-0.14816 0.14816,-0.0212 0.508,-0.0847 0.80433,-0.127 0.29633,-0.0635 0.5715,-0.10584 0.635,-0.10584 0.0635,-0.0212 0.14817,-0.0212 0.1905,-0.0423 0.0423,0 0.127,-0.0212 0.21167,-0.0423 0.0847,0 0.16933,-0.0212 0.1905,-0.0212 0.0212,-0.0212 0.127,-0.0423 0.254,-0.0423 0.127,-0.0212 0.40216,-0.0847 0.65616,-0.127 0.508,-0.127 0.46567,-0.10583 0.97367,-0.1905 0.23283,-0.0212 0.40217,-0.0847 0.40217,-0.14817 0,-0.0423 0.0423,-0.0423 0.10583,-0.0212 0.0847,0.0423 2.413,-0.55033 2.54,-0.65616 0.0635,-0.0423 0.127,-0.0635 0.1905,-0.0635 0.0423,0.0212 0.21167,-0.0212 0.381,-0.10584 0.16933,-0.0635 0.29633,-0.10583 0.29633,-0.0847 0,0.0212 0.254,-0.0635 0.5715,-0.16933 0.33867,-0.10583 0.59267,-0.23283 0.59267,-0.27517 0,-0.0423 0.10583,-0.0635 0.21167,-0.0635 0.127,0 0.29633,-0.0635 0.40216,-0.14816 0.10584,-0.0847 0.254,-0.16934 0.3175,-0.16934 0.0635,0 0.3175,-0.0847 0.55034,-0.1905 0.42333,-0.16933 0.80433,-0.254 0.65616,-0.127 -0.0212,0.0212 0,0.14817 0.0847,0.254 0.0847,0.10584 0.14817,0.254 0.127,0.3175 -0.0212,0.0847 0.0423,0.14817 0.127,0.14817 0.10584,0 0.14817,0.0212 0.10584,0.0423 -0.0423,0.0423 -0.0847,0.42333 -0.10584,0.86783 -0.0423,0.55034 -0.127,0.889 -0.254,0.99484 -0.127,0.1058 -0.16933,0.21164 -0.127,0.2328 0.0423,0.0212 0.0212,0.0847 -0.0635,0.127 -0.0847,0.0423 -0.40216,0.3175 -0.74083,0.59267 -0.80433,0.67733 -2.70933,1.67217 -4.1275,2.159 -0.65617,0.23283 -1.22767,0.4445 -1.29117,0.48683 -0.0423,0.0635 -0.10583,0.0847 -0.10583,0.0423 0,-0.0635 -1.79917,0.40214 -1.86267,0.48681 -0.0423,0.0423 -0.10583,0.0635 -0.1905,0.0423 -0.14816,-0.0635 -0.86783,0.10583 -0.86783,0.1905 0,0.0423 -0.0847,0.0423 -0.1905,0.0212 -0.127,-0.0212 -0.29633,0.0212 -0.40217,0.0847 -0.127,0.0423 -0.29633,0.0847 -0.381,0.0635 -0.10583,-0.0212 -0.1905,0.0212 -0.1905,0.0635 0,0.0423 -0.0635,0.0635 -0.127,0.0423 -0.14816,-0.0423 -1.18533,0.127 -1.18533,0.1905 0,0.0423 -0.10583,0.0423 -0.21167,0.0212 -0.127,-0.0212 -0.23283,0 -0.23283,0.0423 0,0.0212 -0.10583,0.0635 -0.254,0.0635 -0.42333,-0.0212 -2.667,0.29633 -2.667,0.35983 0,0.0423 -0.0635,0.0423 -0.127,0.0212 -0.0847,-0.0212 -0.889,0.0212 -1.778,0.10584 -0.91017,0.0847 -1.8415,0.14816 -2.0955,0.14816 -0.254,0 -0.508,0.0212 -0.55033,0.0635 -0.1905,0.0847 -7.76806,0.16934 -8.40306,0.0847 z m -0.0423,-0.52916 c 0.59267,-0.35984 0.5715,-0.80434 -0.0212,-1.10067 -0.33867,-0.16933 -0.52917,-0.1905 -1.0795,-0.1905 -1.3335,0.0423 -1.905,0.6985 -1.05833,1.24883 0.40216,0.254 0.48683,0.27517 1.143,0.254 0.55033,-0.0212 0.80433,-0.0635 1.016,-0.21166 z m 7.87389,0.0847 c 1.05833,-0.48684 0.55033,-1.27 -0.8255,-1.31234 -0.74084,0 -1.43934,0.27517 -1.5875,0.65617 -0.0635,0.1905 0,0.29633 0.40216,0.52917 0.42334,0.254 0.52917,0.27516 1.12184,0.27516 0.33866,-0.0212 0.762,-0.0847 0.889,-0.14816 z m -4.38142,-0.84667 c 1.05825,-0.48683 0.55033,-1.29114 -0.8255,-1.3123 -0.74083,-0.0212 -1.43933,0.27516 -1.56633,0.65616 -0.0847,0.19047 0,0.29631 0.381,0.52914 0.42333,0.254 0.52916,0.27517 1.12183,0.254 0.33867,0 0.762,-0.0635 0.889,-0.127 z m 8.76292,-0.16933 c 1.05833,-0.48681 0.52916,-1.26997 -0.84667,-1.29114 -0.71967,-0.0212 -1.41817,0.27517 -1.56633,0.65617 -0.0635,0.1905 0,0.27513 0.40216,0.50797 0.42334,0.254 0.52917,0.29633 1.10067,0.27516 0.35983,0 0.762,-0.0635 0.91017,-0.14816 z m 4.08516,-0.14817 c 1.05834,-0.4868 0.55034,-1.26997 -0.84666,-1.3123 -0.71967,0 -1.41817,0.29633 -1.56634,0.65616 -0.0635,0.21167 0,0.29634 0.40217,0.52914 0.42333,0.254 0.52917,0.27517 1.10067,0.27517 0.35983,-0.0212 0.78316,-0.0847 0.91016,-0.14817 z m -27.28364,-0.38097 c 1.03714,-0.48684 0.52914,-1.29117 -0.84666,-1.31234 -0.74084,-0.0212 -1.43934,0.27517 -1.56634,0.65617 -0.0635,0.1905 0,0.29633 0.381,0.52917 0.42334,0.25397 0.52917,0.27513 1.12184,0.25397 0.35983,0 0.762,-0.0635 0.91016,-0.12697 z m 4.80478,-0.23284 c 1.016,-0.48683 0.59267,-1.22766 -0.7408,-1.31233 -0.67734,-0.0212 -0.84667,-0.0635 -0.61384,-0.14817 0.3175,-0.10583 0.52917,-0.42333 0.4445,-0.65616 -0.21166,-0.5715 -1.5875,-0.78317 -2.43416,-0.381 -0.23284,0.10583 -0.46567,0.3175 -0.52917,0.4445 -0.0635,0.1905 0,0.29633 0.40217,0.52916 0.40216,0.23284 0.55033,0.29634 0.99483,0.27517 0.80433,-0.0212 0.8255,-0.0212 0.48683,0.1905 -0.1905,0.0847 -0.35983,0.27517 -0.40216,0.40217 -0.0847,0.1905 -0.0212,0.29633 0.381,0.52916 0.42333,0.254 0.52916,0.27517 1.10066,0.254 0.35981,0 0.78314,-0.0635 0.91014,-0.127 z m 26.88153,-0.46566 c 0.78316,-0.48684 0.40216,-1.10067 -0.74084,-1.2065 -0.27516,-0.0212 -0.508,-0.0635 -0.55033,-0.0635 -0.0212,-0.0212 -0.0635,-0.1905 -0.0847,-0.381 -0.0423,-0.46567 -0.52917,-0.71967 -1.37583,-0.74084 -0.48684,-0.0212 -0.6985,0.0423 -1.03717,0.1905 -0.65617,0.3175 -0.71967,0.61384 -0.21167,0.93134 0.40217,0.254 0.635,0.3175 1.27,0.33866 0.21167,0 0.23284,0.0423 0.14817,0.29634 -0.0635,0.254 -0.0212,0.33866 0.381,0.5715 0.42333,0.254 0.508,0.27516 1.18533,0.254 0.52917,0 0.78317,-0.0635 1.016,-0.1905 z m -13.73717,-0.14817 c 1.03717,-0.48683 0.52917,-1.29117 -0.84667,-1.31233 -0.71966,-0.0212 -1.43933,0.27516 -1.56633,0.65616 -0.0635,0.1905 0,0.27517 0.381,0.52917 0.42333,0.254 0.55033,0.27517 1.12183,0.254 0.35984,0 0.762,-0.0635 0.91017,-0.127 z m -6.13825,-0.23283 c 1.05833,-0.48684 0.55033,-1.29117 -0.84664,-1.31234 -0.71966,-0.0212 -1.41816,0.27517 -1.56633,0.65617 -0.0635,0.1905 0,0.29633 0.40217,0.52917 0.42333,0.254 0.52916,0.27516 1.10066,0.254 0.35984,0 0.78317,-0.0635 0.91014,-0.127 z m -3.19614,-0.0847 c 1.03717,-0.48684 0.52917,-1.27 -0.84664,-1.31234 -0.74083,-0.0212 -1.43933,0.27517 -1.56633,0.65617 -0.0847,0.1905 0,0.29633 0.381,0.52917 0.42333,0.254 0.52917,0.27516 1.12183,0.27516 0.35981,-0.0212 0.76198,-0.0847 0.91014,-0.14816 z m 15.89606,0 c 1.05833,-0.48684 0.52916,-1.27 -0.84667,-1.31234 -0.71967,-0.0212 -1.41817,0.27517 -1.56633,0.65617 -0.0635,0.1905 0,0.29633 0.40216,0.52917 0.42334,0.254 0.52917,0.27516 1.10067,0.27516 0.35983,-0.0212 0.78317,-0.0847 0.91017,-0.14816 z m -26.71214,-0.93133 c 1.05833,-0.48684 0.55033,-1.27 -0.84667,-1.31234 -0.71963,0 -1.41813,0.27517 -1.5663,0.65617 -0.0635,0.1905 0,0.29633 0.40217,0.52917 0.42333,0.254 0.52916,0.27516 1.10063,0.27516 0.35984,-0.0212 0.78317,-0.0847 0.91017,-0.14816 z m 35.77147,-0.23284 c 1.03717,-0.48683 0.52917,-1.27 -0.84667,-1.31233 -0.71966,0 -1.43933,0.27517 -1.56633,0.65617 -0.0635,0.1905 0,0.29633 0.381,0.52916 0.42333,0.254 0.55033,0.27517 1.12183,0.27517 0.35984,-0.0212 0.762,-0.0847 0.91017,-0.14817 z m -40.87261,-0.6985 c 1.03717,-0.48683 0.52917,-1.26997 -0.84664,-1.3123 -0.71966,0 -1.43933,0.29633 -1.56633,0.65614 -0.0635,0.21166 0,0.29633 0.381,0.52916 0.42333,0.254 0.55033,0.27517 1.12183,0.27517 0.35984,-0.0212 0.762,-0.0847 0.91014,-0.14817 z m 45.46578,-0.95247 c 0.59266,-0.33867 0.635,-0.5715 0.10583,-0.91017 -0.33867,-0.21166 -0.52917,-0.254 -1.10067,-0.27516 -0.61383,-0.0212 -0.762,0 -1.12183,0.1905 -0.91017,0.48683 -0.27517,1.24883 1.03717,1.24883 0.46566,0 0.67733,-0.0635 1.0795,-0.254 z"
         id="path3461"
         inkscape:connector-curvature="0" />
      <path
         style="fill:#cccccc;fill-opacity:1;fill-rule:nonzero;stroke:none"
         d="m 598.94128,640.4979 c -0.21166,-0.0212 -0.59266,-0.0423 -0.8255,-0.0423 -0.23283,0 -1.05833,-0.0635 -1.8203,-0.127 -0.762,-0.0635 -1.4605,-0.10583 -1.56634,-0.0847 -0.10583,0.0212 -0.1905,0.0212 -0.1905,-0.0212 0,-0.0423 -0.3175,-0.0847 -0.6985,-0.10583 -0.381,-0.0423 -1.60863,-0.1905 -2.73047,-0.33867 -1.12183,-0.14816 -2.13783,-0.27516 -2.26483,-0.29633 -0.12697,0 -0.25397,-0.0212 -0.29631,-0.0423 -0.10583,-0.0635 -1.92616,-0.40217 -2.13783,-0.40217 -0.10583,0 -0.1905,-0.0212 -0.1905,-0.0635 0,-0.0423 -0.84667,-0.23283 -1.05833,-0.23283 -0.0635,0 -0.21164,-0.0423 -0.33864,-0.10583 -0.127,-0.0635 -0.29633,-0.10584 -0.35983,-0.0847 -0.0847,0.0212 -0.14817,0.0212 -0.14817,-0.0212 0,-0.0635 -0.93133,-0.35984 -1.0795,-0.33867 -0.0423,0 -0.21167,-0.0423 -0.35983,-0.127 -0.127,-0.0635 -0.67734,-0.29631 -1.18534,-0.48681 -2.0743,-0.78316 -3.53479,-1.92616 -3.78879,-2.9845 -0.0635,-0.29633 -0.14817,-1.35463 -0.1905,-2.37063 -0.0423,-1.4605 -0.0212,-1.79917 0.127,-1.73567 0.10583,0.0423 0.14816,0.10583 0.127,0.127 -0.0423,0 0.1905,0.27517 0.48682,0.5715 0.381,0.40217 0.93133,0.762 1.92617,1.29117 1.3123,0.6985 2.18014,1.0795 2.53997,1.143 0.0847,0.0212 0.1905,0.0635 0.23283,0.0847 0.10584,0.0847 1.4605,0.48683 2.47647,0.76197 0.4445,0.10583 1.03717,0.254 1.31234,0.33866 0.29633,0.0635 0.55033,0.127 0.59266,0.127 0.0423,0 0.27517,0.0423 0.508,0.10584 0.254,0.0423 0.508,0.0847 0.59267,0.10583 0.0847,0 0.33864,0.0635 0.57147,0.10583 0.23284,0.0423 0.508,0.10584 0.65617,0.127 0.127,0 0.3175,0.0423 0.4445,0.0635 0.33867,0.0635 1.2065,0.1905 1.60867,0.23284 0.1905,0.0212 0.76197,0.10583 1.2488,0.16933 1.05833,0.127 3.15383,0.3175 4.44497,0.40217 1.2065,0.0847 9.60956,0.0847 10.58322,0 1.03717,-0.0635 1.8415,-0.127 2.26484,-0.16934 0.1905,-0.0212 0.65616,-0.0423 1.016,-0.0847 0.35983,-0.0212 0.6985,-0.0635 0.762,-0.0847 0.0635,-0.0212 0.3175,-0.0423 0.52916,-0.0635 1.03717,-0.0635 4.445,-0.61383 4.80484,-0.762 0.10583,-0.0423 0.1905,-0.0423 0.1905,-0.0212 0,0.0212 0.14816,0 0.3175,-0.0423 0.1905,-0.0635 0.40216,-0.10583 0.48683,-0.10583 0.33867,-0.0423 3.429,-0.86781 3.556,-0.97364 0.0423,-0.0212 0.21167,-0.0635 0.381,-0.10583 0.14817,-0.0212 0.46567,-0.127 0.67733,-0.23284 0.21167,-0.10583 0.4445,-0.1905 0.508,-0.1905 0.127,0 0.3175,-0.10583 1.651,-0.80433 1.35467,-0.71967 1.73567,-0.9525 2.01084,-1.24883 0.10583,-0.127 0.35983,-0.381 0.5715,-0.55034 l 0.35983,-0.29633 -0.0635,2.24367 c -0.0423,1.7568 -0.10583,2.30714 -0.27517,2.60347 -0.127,0.21167 -0.1905,0.35983 -0.14816,0.381 0.0635,0 0.0423,0.0212 -0.0423,0.0423 -0.0847,0.0423 -0.33867,0.21167 -0.5715,0.40217 -0.9525,0.71966 -3.47134,1.79916 -5.63034,2.37064 -0.4445,0.127 -0.84666,0.254 -0.889,0.29633 -0.0635,0.0423 -0.127,0.0635 -0.1905,0.0635 -0.33866,-0.0212 -0.52916,0 -0.74083,0.10583 -0.127,0.0635 -0.23283,0.10584 -0.23283,0.0847 0,-0.0212 -0.67734,0.0847 -1.48167,0.23284 -1.651,0.29633 -4.46617,0.67733 -5.56683,0.762 -0.381,0.0423 -0.71967,0.0847 -0.762,0.127 -0.0423,0.0423 -0.14817,0.0635 -0.21167,0.0423 -0.0635,-0.0212 -0.8255,0 -1.69333,0.0635 -1.75684,0.14816 -10.18106,0.27516 -10.83722,0.16933 z"
         id="path3463"
         inkscape:connector-curvature="0" />
      <path
         style="fill:#cccccc;fill-opacity:1;fill-rule:nonzero;stroke:none"
         d="m 598.92012,631.22696 c -8.27611,-0.35983 -15.47272,-1.67214 -19.4097,-3.53481 l -0.762,-0.35983 0.3175,-0.29633 0.3175,-0.29634 0.61384,0.27517 c 3.13264,1.41817 7.51411,2.43417 13.08088,3.00567 12.2977,1.29114 26.50053,-0.0212 32.59653,-2.96334 l 0.80433,-0.40216 0.3175,0.27516 c 0.16934,0.14817 0.29634,0.33867 0.254,0.381 -0.0635,0.0635 -0.52916,0.3175 -1.0795,0.55034 -3.72533,1.62983 -9.75783,2.79397 -16.9545,3.25964 -2.20133,0.14816 -7.93741,0.21166 -10.09638,0.10583 z"
         id="path3465"
         inkscape:connector-curvature="0" />
      <path
         style="fill:#ffffff;fill-opacity:1;fill-rule:evenodd;stroke:#000000;stroke-width:0.21166511px;stroke-linecap:butt;stroke-linejoin:miter;stroke-miterlimit:4;stroke-dasharray:none;stroke-opacity:1"
         d="m 593.96714,629.02565 c 0,0.35984 -0.61383,0.635 -1.35463,0.635 -0.74084,0 -1.3335,-0.27516 -1.3335,-0.635 0,-0.33866 0.59266,-0.635 1.3335,-0.635 0.7408,0 1.35463,0.29634 1.35463,0.635 z"
         id="path3467"
         inkscape:connector-curvature="0" />
      <path
         style="fill:#ffffff;fill-opacity:1;fill-rule:evenodd;stroke:#000000;stroke-width:0.21166511px;stroke-linecap:butt;stroke-linejoin:miter;stroke-miterlimit:4;stroke-dasharray:none;stroke-opacity:1"
         d="m 607.97934,629.49132 c 0,0.35983 -0.61384,0.635 -1.35467,0.635 -0.74083,0 -1.3335,-0.27517 -1.3335,-0.635 0,-0.33867 0.59267,-0.635 1.3335,-0.635 0.74083,0 1.35467,0.29633 1.35467,0.635 z"
         id="path3469"
         inkscape:connector-curvature="0" />
      <path
         style="fill:#ffffff;fill-opacity:1;fill-rule:nonzero;stroke:none"
         d="m 598.77195,631.22696 c -8.27611,-0.35983 -15.49389,-1.67214 -19.40969,-3.53481 l -0.78317,-0.35983 0.33867,-0.29633 0.3175,-0.29634 0.61383,0.27517 c 3.13264,1.43933 7.51411,2.43417 13.08089,3.02683 12.29769,1.26998 26.50052,-0.0423 32.59652,-2.9845 l 0.80434,-0.381 0.3175,0.254 c 0.16933,0.16934 0.27516,0.33867 0.23283,0.40217 -0.0423,0.0423 -0.52917,0.29633 -1.0795,0.52917 -3.70417,1.651 -9.73667,2.79397 -16.9545,3.25964 -2.18017,0.14816 -7.93742,0.21166 -10.07522,0.10583 z"
         id="path3471"
         inkscape:connector-curvature="0" />
      <path
         style="fill:#ffffff;fill-opacity:1;fill-rule:nonzero;stroke:none"
         d="m 599.36462,640.7519 c -11.85325,-0.5715 -19.96003,-2.667 -21.56869,-5.5668 -0.16933,-0.29634 -0.23283,-0.93134 -0.27516,-2.60347 l -0.0635,-2.20131 0.42333,0.52914 c 2.28599,2.77283 9.8001,4.88947 19.66368,5.5033 2.51884,0.16934 8.10672,0.16934 10.62556,0 9.56733,-0.59266 16.8275,-2.56113 19.3675,-5.22813 l 0.55033,-0.61384 0.0635,2.159 c 0.0635,2.87864 -0.10583,3.21731 -2.2225,4.36031 -3.302,1.77797 -9.18633,3.00564 -16.84867,3.51364 -1.69333,0.10583 -8.27608,0.21166 -9.71538,0.14816 z"
         id="path3473"
         inkscape:connector-curvature="0" />
      <path
         style="fill:#ffffff;fill-opacity:1;fill-rule:nonzero;stroke:none"
         d="m 598.15812,630.21099 c -4.40264,-0.23284 -8.08561,-0.67734 -11.59925,-1.397 l -1.524,-0.3175 0.71966,-0.0635 c 0.86784,-0.0635 1.397,-0.33867 1.397,-0.6985 0,-0.3175 -0.23283,-0.508 -0.78316,-0.65617 -0.42334,-0.127 -0.4445,-0.127 -0.14817,-0.1905 0.6985,-0.127 1.016,-0.71964 0.5715,-1.0583 -0.78317,-0.5715 -2.7728,-0.29634 -2.7728,0.40216 0,0.29634 0.21166,0.46564 0.86783,0.67731 0.25397,0.0847 0.33864,0.14816 0.21164,0.14816 -0.12697,0 -0.40214,0.0847 -0.59264,0.1905 -0.46567,0.254 -0.46567,0.65617 0,0.93134 0.1905,0.10583 0.29633,0.1905 0.21167,0.1905 -0.27517,0 -2.4765,-0.71967 -3.4925,-1.12184 -1.69331,-0.69847 -1.67214,-0.635 -0.65614,-1.1853 3.45014,-1.88383 9.31325,-3.175 16.74269,-3.70414 2.64583,-0.1905 8.88989,-0.1905 11.42989,0 4.445,0.3175 8.04333,0.86781 11.19716,1.67214 2.20134,0.55033 3.70417,1.10067 5.18584,1.8415 l 1.143,0.59267 -0.46567,0.25397 c -2.87867,1.5875 -9.144,2.89983 -16.36183,3.40783 -2.0955,0.127 -9.22856,0.21167 -11.28172,0.0847 z m 2.37063,-0.5715 c 0.59267,-0.35984 0.40217,-0.86784 -0.40213,-1.0795 -0.508,-0.14817 -0.97367,-0.14817 -1.4605,-0.0212 -0.3175,0.0847 -0.42334,0.0847 -0.86784,-0.0847 -1.5028,-0.52917 -3.25964,0.4445 -1.92614,1.0795 0.52917,0.254 1.16414,0.29633 1.79914,0.127 0.33867,-0.10584 0.40217,-0.0847 0.78317,0.0847 0.5715,0.254 1.5875,0.21166 2.0743,-0.10584 z m 11.68392,-0.14817 c 0.381,-0.23283 0.4445,-0.635 0.10583,-0.86783 -0.4445,-0.3175 -0.10583,-0.35984 0.55034,-0.0635 0.40216,0.16933 0.5715,0.21166 1.12183,0.16933 1.05833,-0.0635 1.651,-0.59267 1.16417,-1.05833 -0.23284,-0.23284 -0.97367,-0.40217 -1.54517,-0.35984 -0.381,0.0212 -0.61383,0 -1.03717,-0.14816 -0.67733,-0.254 -1.50283,-0.21167 -2.05316,0.0635 -0.4445,0.254 -0.508,0.67733 -0.127,0.889 0.29633,0.16933 0.3175,0.254 0.0635,0.254 -0.381,0 -0.889,0.381 -0.889,0.67733 0,0.21167 0.10583,0.3175 0.48683,0.508 0.42333,0.1905 0.5715,0.21167 1.143,0.1905 0.48683,-0.0423 0.762,-0.10583 1.016,-0.254 z m -7.45067,-0.3175 c 0.61384,-0.381 0.35984,-0.91017 -0.52916,-1.12183 -0.99475,-0.21167 -2.11659,0.14816 -2.11659,0.67733 0,0.21167 0.10584,0.3175 0.48684,0.508 0.4445,0.21167 0.5715,0.23283 1.16408,0.1905 0.48683,-0.0212 0.762,-0.10583 0.99483,-0.254 z m 14.478,-0.84667 c 0.27517,-0.16933 0.3175,-0.27516 0.27517,-0.52916 l -0.0635,-0.3175 0.78317,0 c 0.6985,0 0.84666,-0.0423 1.143,-0.21167 0.635,-0.40217 0.40216,-0.95247 -0.508,-1.14297 -1.22767,-0.27517 -2.54,0.33867 -1.98967,0.9313 0.21167,0.23284 0.21167,0.23284 -0.0212,0.16934 -0.14817,-0.0212 -0.52917,-0.0635 -0.889,-0.0635 -1.3335,0 -1.905,0.762 -0.91017,1.22766 0.42334,0.1905 0.5715,0.21167 1.16417,0.1905 0.48683,-0.0423 0.74083,-0.10583 1.016,-0.254 z m -10.83733,-0.14816 c 0.635,-0.381 0.35983,-0.93134 -0.52917,-1.12184 -0.97366,-0.21166 -2.0955,0.127 -2.0955,0.65617 0,0.23283 0.10584,0.33867 0.48684,0.508 0.42333,0.21167 0.55033,0.23283 1.143,0.1905 0.48683,-0.0212 0.762,-0.0847 0.99483,-0.23283 z m -14.58369,-0.14817 c 0.61383,-0.381 0.35983,-0.93133 -0.52917,-1.143 -0.9948,-0.21167 -2.11664,0.14817 -2.11664,0.67733 0,0.21167 0.10584,0.33867 0.48684,0.508 0.42333,0.21167 0.5715,0.23284 1.16413,0.1905 0.46567,-0.0212 0.74084,-0.0847 0.99484,-0.23283 z m -3.93697,-0.23283 c 0.61383,-0.381 0.35983,-0.93134 -0.55034,-1.143 -0.97364,-0.21164 -2.09547,0.14816 -2.09547,0.67733 0,0.21167 0.10583,0.33867 0.48683,0.508 0.42334,0.21167 0.5715,0.23283 1.14298,0.1905 0.48683,-0.0212 0.762,-0.0847 1.016,-0.23283 z m 7.72577,-0.78317 c 0.61384,-0.381 0.35984,-0.9313 -0.52916,-1.1218 -0.99481,-0.21167 -2.11664,0.127 -2.11664,0.65616 0,0.23281 0.10583,0.33864 0.48683,0.52914 0.4445,0.1905 0.5715,0.21167 1.16414,0.1905 0.48683,-0.0423 0.762,-0.10583 0.99483,-0.254 z m 4.23331,-0.381 c 0.61383,-0.38097 0.35983,-0.9313 -0.52917,-1.1218 -0.99483,-0.23284 -2.11664,0.127 -2.11664,0.65616 0,0.21167 0.10584,0.33867 0.48684,0.50797 0.4445,0.21167 0.57147,0.23284 1.16413,0.1905 0.48684,-0.0212 0.762,-0.0847 0.99484,-0.23283 z m 14.90125,-0.2328 c 0.61383,-0.381 0.35983,-0.93134 -0.55034,-1.12184 -0.97366,-0.23283 -2.0955,0.127 -2.0955,0.65617 0,0.23283 0.10584,0.33867 0.48684,0.508 0.42333,0.21164 0.55033,0.2328 1.143,0.19047 0.48683,-0.0212 0.762,-0.0846 1.016,-0.2328 z M 605.778,626.23168 c 0.635,-0.381 0.35984,-0.91016 -0.52916,-1.12183 -0.99484,-0.21167 -2.11659,0.14817 -2.11659,0.67733 0,0.21167 0.10584,0.3175 0.48684,0.508 0.44441,0.21167 0.57141,0.23284 1.16408,0.1905 0.48683,-0.0212 0.762,-0.10583 0.99483,-0.254 z m 4.97417,-0.0635 c 0.61383,-0.381 0.35983,-0.93133 -0.508,-1.12183 -0.23283,-0.0635 -0.48683,-0.1905 -0.5715,-0.3175 -0.35983,-0.48683 -1.82033,-0.59267 -2.54,-0.1905 -0.65617,0.35983 -0.381,0.889 0.635,1.16417 0.21167,0.0635 0.40217,0.16933 0.40217,0.21166 0,0.0635 0.21166,0.21167 0.46566,0.3175 0.40217,0.1905 0.55034,0.21167 1.12184,0.16934 0.46566,-0.0212 0.74083,-0.0847 0.99483,-0.23284 z m -16.93319,-0.635 c 0.61383,-0.381 0.35983,-0.91016 -0.52917,-1.12183 -0.9948,-0.21167 -2.11664,0.14817 -2.11664,0.67733 0,0.21167 0.10584,0.3175 0.48684,0.508 0.42333,0.21167 0.5715,0.23284 1.16413,0.1905 0.46567,-0.0212 0.74084,-0.0847 0.99484,-0.254 z m 25.39986,-0.4445 c 0.61383,-0.40216 0.35983,-0.93133 -0.52917,-1.143 -0.99483,-0.21166 -2.11667,0.14817 -2.11667,0.67734 0,0.21166 0.10584,0.33866 0.48684,0.508 0.42333,0.21166 0.5715,0.23283 1.16416,0.1905 0.46567,-0.0212 0.74084,-0.0847 0.99484,-0.23284 z m -20.72206,-0.16933 c 0.61384,-0.381 0.35984,-0.93133 -0.55033,-1.12183 -0.97367,-0.21167 -2.09547,0.14816 -2.09547,0.67733 0,0.21167 0.10583,0.3175 0.48683,0.508 0.42331,0.1905 0.55031,0.21167 1.14297,0.1905 0.48684,-0.0423 0.762,-0.10583 1.016,-0.254 z m 4.80481,-0.93133 c 0.61375,-0.381 0.35983,-0.93134 -0.52917,-1.12184 -0.99483,-0.21164 -2.11667,0.14817 -2.11667,0.67734 0,0.21166 0.10584,0.3175 0.48684,0.508 0.4445,0.21166 0.5715,0.23283 1.16416,0.1905 0.48684,-0.0212 0.762,-0.10584 0.99484,-0.254 z m 9.20741,0 c 0.61384,-0.381 0.35984,-0.93134 -0.55033,-1.12184 -0.97367,-0.21164 -2.0955,0.14817 -2.0955,0.67734 0,0.21166 0.10583,0.3175 0.48683,0.508 0.42334,0.21166 0.55034,0.23283 1.143,0.1905 0.48684,-0.0212 0.762,-0.10584 1.016,-0.254 z m -5.2705,-0.0635 c 0.635,-0.381 0.35984,-0.93134 -0.52916,-1.12184 -0.99484,-0.2328 -2.11667,0.127 -2.11667,0.65617 0,0.21167 0.10583,0.33867 0.48683,0.508 0.4445,0.21167 0.5715,0.23283 1.16417,0.1905 0.48683,-0.0212 0.762,-0.0847 0.99483,-0.23283 z"
         id="path3475"
         inkscape:connector-curvature="0" />
      <path
         style="fill:#ffffff;fill-opacity:1;fill-rule:nonzero;stroke:none"
         d="m 599.59745,636.05293 c -0.23283,-0.0423 -0.635,-0.0635 -0.91017,-0.0635 -0.86783,0 -1.67216,-0.0635 -1.94733,-0.10583 -0.14817,-0.0423 -0.38097,-0.0423 -0.55031,-0.0212 -0.14816,0.0212 -0.3175,0 -0.381,-0.0423 -0.0423,-0.0423 -0.21166,-0.0635 -0.40216,-0.0423 -0.16934,0 -0.40217,-0.0212 -0.52917,-0.0423 -0.48683,-0.10584 -2.37064,-0.27517 -2.49764,-0.23284 -0.0635,0.0212 -0.127,0 -0.127,-0.0635 0,-0.0423 -0.127,-0.0635 -0.27516,-0.0423 -0.16934,0.0212 -0.3175,0 -0.33867,-0.0423 -0.0212,-0.0212 -0.23283,-0.0635 -0.48683,-0.0847 -0.23284,0 -0.46567,-0.0423 -0.508,-0.0635 -0.127,-0.0847 -1.92614,-0.381 -2.05314,-0.33866 -0.0635,0.0423 -0.127,0.0212 -0.127,-0.0212 0,-0.0847 -0.91017,-0.27517 -1.24884,-0.27517 -0.0847,0 -0.16933,-0.0423 -0.21166,-0.0635 -0.0423,-0.0212 -0.5715,-0.16933 -1.16417,-0.33864 -2.7728,-0.71967 -5.29161,-1.8415 -6.60394,-2.89983 -0.381,-0.29634 -0.6985,-0.61384 -0.6985,-0.67734 0,-0.0423 -0.0635,-0.10583 -0.14817,-0.10583 -0.0635,0 -0.10582,-0.0423 -0.0423,-0.1058 0.0423,-0.0635 0,-0.127 -0.0635,-0.127 -0.0847,0 -0.127,-0.0635 -0.0847,-0.14817 0.0423,-0.0847 0.0212,-0.14817 -0.0423,-0.14817 -0.14817,0 -0.127,-1.5875 0.0212,-1.7145 0.0423,-0.0423 0.0423,-0.10583 0,-0.14816 -0.0423,-0.0423 -0.0212,-0.0847 0.0635,-0.10584 0.0847,-0.0423 0.12699,-0.0847 0.0847,-0.127 -0.16932,-0.127 0.35983,-0.127 0.6985,0 0.1905,0.0847 0.40217,0.14817 0.4445,0.14817 0.0423,0 0.29633,0.10583 0.55033,0.23283 0.254,0.127 0.5715,0.23284 0.65617,0.23284 0.10583,0 0.1905,0.0423 0.1905,0.0847 0,0.0423 0.0635,0.0847 0.14817,0.0847 0.0847,0 0.2963,0.0635 0.4868,0.14816 0.48684,0.254 3.97931,1.16417 4.84714,1.27 0.0847,0.0212 0.33867,0.0635 0.55033,0.10584 0.23284,0.0635 0.508,0.0847 0.61384,0.0847 0.10583,0 0.23283,0.0423 0.27516,0.0847 0.0423,0.0212 0.33867,0.0846 0.635,0.12697 0.63498,0.0635 0.74081,0.0847 0.84664,0.10583 0.0423,0.0212 0.127,0.0212 0.16934,0.0423 0.0635,0 0.508,0.0635 0.97366,0.14817 0.46567,0.0635 1.03717,0.14816 1.27,0.16933 0.23284,0 0.46567,0.0423 0.55034,0.0635 0.0635,0.0212 0.40213,0.0635 0.76197,0.0847 0.35983,0.0212 0.78316,0.0635 0.93133,0.0847 0.8255,0.0847 2.87864,0.23283 3.30197,0.254 0.10584,0 0.67734,0.0212 1.22767,0.0635 0.5715,0.0212 2.49764,0.0423 4.31797,0.0423 3.87342,0 5.71492,-0.0635 8.38192,-0.29633 0.16933,0 0.59266,-0.0423 0.93133,-0.0635 0.35983,-0.0423 0.93133,-0.0847 1.24883,-0.127 0.33867,-0.0423 0.762,-0.10584 0.9525,-0.127 0.21167,-0.0212 0.74084,-0.0847 1.18534,-0.14817 0.4445,-0.0635 0.91016,-0.127 1.0795,-0.14817 0.14816,-0.0212 0.508,-0.0847 0.80433,-0.127 0.27517,-0.0635 0.5715,-0.1058 0.635,-0.1058 0.0423,-0.0212 0.127,-0.0212 0.16933,-0.0423 0.0423,0 0.14817,-0.0212 0.23284,-0.0423 0.0635,0 0.14816,-0.0212 0.16933,-0.0212 0.0212,-0.0212 0.14817,-0.0423 0.254,-0.0423 0.127,-0.0212 0.42333,-0.0847 0.65617,-0.127 0.508,-0.10584 0.46566,-0.10584 0.99483,-0.1905 0.21167,-0.0212 0.40217,-0.0847 0.40217,-0.14817 0,-0.0423 0.0423,-0.0423 0.0847,-0.0212 0.10583,0.0423 2.413,-0.55033 2.56116,-0.65616 0.0423,-0.0423 0.127,-0.0635 0.16934,-0.0423 0.0423,0 0.23283,-0.0423 0.381,-0.127 0.16933,-0.0635 0.29633,-0.10584 0.29633,-0.0847 0,0.0212 0.27517,-0.0635 0.59267,-0.16934 0.3175,-0.10583 0.5715,-0.23283 0.5715,-0.27516 0,-0.0423 0.10583,-0.0635 0.23283,-0.0635 0.10583,0 0.29633,-0.0635 0.40217,-0.14817 0.0847,-0.0847 0.23283,-0.16933 0.29633,-0.16933 0.0847,0 0.3175,-0.0847 0.5715,-0.1905 0.40217,-0.16934 0.78317,-0.254 0.65617,-0.127 -0.0423,0.0212 0,0.14816 0.0847,0.254 0.0847,0.10583 0.127,0.254 0.10583,0.3175 0,0.0847 0.0423,0.14816 0.14817,0.14816 0.0847,0 0.127,0.0212 0.0847,0.0423 -0.0212,0.0423 -0.0847,0.42333 -0.10584,0.889 -0.0212,0.52917 -0.127,0.86783 -0.254,0.97367 -0.10583,0.1058 -0.16933,0.21164 -0.127,0.2328 0.0423,0.0212 0.0212,0.0847 -0.0635,0.127 -0.0635,0.0423 -0.40216,0.3175 -0.74083,0.59267 -0.78317,0.67733 -2.68817,1.67217 -4.1275,2.159 -0.635,0.23283 -1.2065,0.4445 -1.27,0.508 -0.0635,0.0423 -0.10583,0.0635 -0.10583,0.0212 -0.0212,-0.0635 -1.82034,0.40214 -1.88384,0.4868 -0.0212,0.0423 -0.10583,0.0635 -0.16933,0.0423 -0.14817,-0.0635 -0.86783,0.10584 -0.86783,0.1905 0,0.0423 -0.10584,0.0635 -0.21167,0.0212 -0.10583,-0.0212 -0.29633,0.0212 -0.40217,0.0847 -0.10583,0.0423 -0.27516,0.0847 -0.381,0.0635 -0.10583,-0.0212 -0.1905,0.0212 -0.1905,0.0635 0,0.0423 -0.0423,0.0635 -0.10583,0.0423 -0.16933,-0.0423 -1.2065,0.127 -1.2065,0.1905 0,0.0423 -0.0847,0.0423 -0.21167,0.0212 -0.127,-0.0212 -0.21166,0 -0.21166,0.0423 0,0.0212 -0.127,0.0635 -0.254,0.0635 -0.4445,-0.0212 -2.667,0.29634 -2.667,0.35984 0,0.0423 -0.0635,0.0423 -0.14817,0.0212 -0.0635,-0.0212 -0.86783,0.0212 -1.778,0.10583 -0.889,0.0847 -1.8415,0.16933 -2.0955,0.16933 -0.254,0 -0.508,0 -0.55033,0.0423 -0.1905,0.0847 -7.74689,0.16934 -8.38189,0.0847 z m -0.0423,-0.52917 c 0.59267,-0.35983 0.5715,-0.80433 -0.0423,-1.10066 -0.3175,-0.16934 -0.508,-0.1905 -1.05833,-0.1905 -1.3335,0.0635 -1.905,0.6985 -1.0795,1.24883 0.40216,0.254 0.48683,0.27517 1.16416,0.254 0.55034,-0.0212 0.78317,-0.0635 1.016,-0.21167 z m 7.87389,0.0847 c 1.03716,-0.48683 0.52916,-1.27 -0.84667,-1.31233 -0.74083,0 -1.43933,0.27517 -1.56633,0.65617 -0.0635,0.1905 0,0.29633 0.381,0.52916 0.42333,0.254 0.52916,0.27517 1.12183,0.27517 0.35983,-0.0212 0.762,-0.0847 0.91017,-0.14817 z m -4.38142,-0.84666 c 1.03708,-0.48684 0.52917,-1.29114 -0.84667,-1.31231 -0.71966,-0.0212 -1.43933,0.27517 -1.56633,0.65617 -0.0635,0.19047 0,0.2963 0.381,0.52914 0.42333,0.254 0.55033,0.27516 1.12183,0.254 0.35984,0 0.762,-0.0635 0.91017,-0.127 z m 8.76292,-0.14817 c 1.03716,-0.4868 0.52916,-1.29114 -0.84667,-1.3123 -0.74083,-0.0212 -1.43933,0.27516 -1.56633,0.65616 -0.0847,0.1905 0,0.27514 0.381,0.50797 0.42333,0.27517 0.52916,0.29634 1.12183,0.27517 0.35983,0 0.762,-0.0635 0.91017,-0.127 z m 4.08516,-0.16933 c 1.03717,-0.48681 0.52917,-1.26997 -0.84666,-1.31231 -0.74084,0 -1.43934,0.29634 -1.56634,0.65617 -0.0635,0.21167 0,0.29633 0.381,0.52914 0.42334,0.254 0.52917,0.29633 1.12184,0.27516 0.35983,-0.0212 0.762,-0.0847 0.91016,-0.14816 z m -27.3048,-0.38098 c 1.03714,-0.48683 0.52914,-1.27 -0.84667,-1.31233 -0.71967,-0.0212 -1.41817,0.27517 -1.56633,0.65617 -0.0635,0.1905 0,0.29633 0.40216,0.52916 0.42334,0.254 0.52917,0.27514 1.10067,0.254 0.35983,0 0.762,-0.0635 0.91017,-0.127 z m 4.82594,-0.23283 c 1.016,-0.46567 0.5715,-1.22767 -0.762,-1.29117 -0.6773,-0.0423 -0.84664,-0.0847 -0.59264,-0.16933 0.29634,-0.10583 0.508,-0.42333 0.42334,-0.65617 -0.21167,-0.5715 -1.5875,-0.78316 -2.413,-0.381 -0.254,0.10584 -0.48684,0.3175 -0.52917,0.4445 -0.0635,0.1905 0,0.29634 0.381,0.52917 0.40217,0.23283 0.5715,0.29633 0.99483,0.27517 0.80434,-0.0212 0.8255,0 0.48684,0.1905 -0.16934,0.0847 -0.35984,0.27516 -0.40217,0.40216 -0.0635,0.1905 0,0.29634 0.381,0.52917 0.42333,0.254 0.52917,0.27517 1.12183,0.27517 0.35981,-0.0212 0.76197,-0.0847 0.91014,-0.14817 z m 26.86036,-0.46567 c 0.78317,-0.48683 0.40217,-1.10066 -0.71967,-1.2065 -0.27516,-0.0212 -0.52916,-0.0635 -0.55033,-0.0635 -0.0423,-0.0212 -0.0847,-0.1905 -0.10583,-0.381 -0.0423,-0.46566 -0.508,-0.71966 -1.37584,-0.74083 -0.46566,0 -0.6985,0.0423 -1.03716,0.1905 -0.635,0.3175 -0.6985,0.61383 -0.1905,0.9525 0.381,0.23283 0.635,0.29633 1.24883,0.3175 0.21167,0 0.23283,0.0423 0.16933,0.29633 -0.0847,0.254 -0.0423,0.33867 0.35984,0.5715 0.42333,0.254 0.52916,0.27517 1.18533,0.254 0.55033,0 0.78317,-0.0635 1.016,-0.1905 z M 606.54,633.21663 c 1.05834,-0.48684 0.55034,-1.29117 -0.8255,-1.31234 -0.74083,-0.0212 -1.43933,0.27517 -1.56633,0.65617 -0.0847,0.1905 -0.0212,0.29633 0.381,0.52917 0.42333,0.254 0.52917,0.27516 1.12183,0.254 0.33867,0 0.762,-0.0635 0.889,-0.127 z m -6.11708,-0.23284 c 1.03717,-0.48683 0.52917,-1.29116 -0.84664,-1.31233 -0.74083,-0.0212 -1.43933,0.27517 -1.56633,0.65617 -0.0635,0.1905 0,0.29633 0.381,0.52916 0.42333,0.254 0.52917,0.27517 1.12183,0.254 0.35984,0 0.76197,-0.0635 0.91014,-0.127 z m -3.2173,-0.0847 c 1.03716,-0.48683 0.52916,-1.27 -0.84664,-1.31233 -0.71967,0 -1.41817,0.27517 -1.56634,0.65617 -0.0635,0.1905 0,0.29633 0.381,0.52916 0.42334,0.254 0.55034,0.27517 1.12184,0.27517 0.3598,-0.0212 0.76197,-0.0847 0.91014,-0.14817 z m 15.91722,0 c 1.03716,-0.48683 0.52916,-1.27 -0.84667,-1.31233 -0.74083,0 -1.43933,0.27517 -1.56633,0.65617 -0.0847,0.1905 0,0.29633 0.381,0.52916 0.42333,0.254 0.52916,0.27517 1.12183,0.27517 0.35983,-0.0212 0.762,-0.0847 0.91017,-0.14817 z m -26.71214,-0.93133 c 1.03717,-0.48683 0.52917,-1.27 -0.84667,-1.31233 -0.7408,0 -1.4393,0.29633 -1.5663,0.65617 -0.0847,0.21166 0,0.29633 0.381,0.52916 0.42333,0.254 0.52917,0.27517 1.1218,0.27517 0.35984,-0.0212 0.762,-0.0847 0.91017,-0.14817 z m 35.7503,-0.23283 c 1.05834,-0.48683 0.52917,-1.27 -0.84666,-1.31233 -0.71967,0 -1.41817,0.29633 -1.56634,0.65616 -0.0635,0.21167 0,0.29634 0.40217,0.52917 0.42333,0.254 0.52917,0.27517 1.10067,0.27517 0.35983,-0.0212 0.78316,-0.0847 0.91016,-0.14817 z m -40.8726,-0.6985 c 1.05833,-0.48683 0.55033,-1.26997 -0.82548,-1.31231 -0.74083,0 -1.43933,0.29634 -1.5875,0.65617 -0.0635,0.21164 0,0.29631 0.40217,0.52914 0.42333,0.254 0.52917,0.29633 1.12183,0.27517 0.33867,-0.0212 0.762,-0.0847 0.88898,-0.14817 z m 45.46577,-0.95247 c 0.61383,-0.33867 0.635,-0.5715 0.10583,-0.91017 -0.3175,-0.21167 -0.508,-0.254 -1.10066,-0.27517 -0.61384,-0.0212 -0.762,0 -1.12184,0.1905 -0.91016,0.48684 -0.254,1.24884 1.05834,1.24884 0.4445,0 0.65616,-0.0423 1.05833,-0.254 z"
         id="path3477"
         inkscape:connector-curvature="0" />
    </g>
  </g>
</svg>
