<?xml version="1.0" encoding="UTF-8" standalone="no"?>
<!-- Created with Inkscape (http://www.inkscape.org/) -->

<svg
   xmlns:dc="http://purl.org/dc/elements/1.1/"
   xmlns:cc="http://creativecommons.org/ns#"
   xmlns:rdf="http://www.w3.org/1999/02/22-rdf-syntax-ns#"
   xmlns:svg="http://www.w3.org/2000/svg"
   xmlns="http://www.w3.org/2000/svg"
   xmlns:sodipodi="http://sodipodi.sourceforge.net/DTD/sodipodi-0.dtd"
   xmlns:inkscape="http://www.inkscape.org/namespaces/inkscape"
   width="200mm"
   height="100mm"
   viewBox="0 0 708.66142 354.33071"
   id="svg2"
   version="1.1"
   inkscape:version="0.91 r13725"
   sodipodi:docname="dishLabel4.svg">
  <defs
     id="defs4" />
  <sodipodi:namedview
     id="base"
     pagecolor="#ffffff"
     bordercolor="#666666"
     borderopacity="1.0"
     inkscape:pageopacity="0.0"
     inkscape:pageshadow="2"
     inkscape:zoom="0.49497475"
     inkscape:cx="292.18264"
     inkscape:cy="126.00244"
     inkscape:document-units="px"
     inkscape:current-layer="layer1"
     showgrid="false"
     inkscape:window-width="1536"
     inkscape:window-height="801"
     inkscape:window-x="-8"
     inkscape:window-y="-8"
     inkscape:window-maximized="1" />
  <metadata
     id="metadata7">
    <rdf:RDF>
      <cc:Work
         rdf:about="">
        <dc:format>image/svg+xml</dc:format>
        <dc:type
           rdf:resource="http://purl.org/dc/dcmitype/StillImage" />
        <dc:title></dc:title>
      </cc:Work>
    </rdf:RDF>
  </metadata>
  <g
     inkscape:label="Layer 1"
     inkscape:groupmode="layer"
     id="layer1"
     transform="translate(0,-698.0315)">
    <g
       transform="matrix(0.99845207,0,0,1.0015503,54.548238,-4.0406101)"
       style="font-style:normal;font-weight:normal;font-size:39.93808365px;line-height:125%;font-family:sans-serif;letter-spacing:0px;word-spacing:0px;fill:#000000;fill-opacity:1;stroke:none;stroke-width:1px;stroke-linecap:butt;stroke-linejoin:miter;stroke-opacity:1"
       id="text4136">
      <path
         d="m 128.45754,794.22284 q -0.0539,1.33299 -2.30664,2.94337 -0.82495,0.58972 -2.88744,1.7285 -2.339,1.28851 -3.29087,1.96895 l -2.09409,1.49698 q -0.92013,0.65776 -1.62721,1.21116 l -1.52298,1.08871 q -0.76149,0.54435 -1.59548,1.18848 0.27727,1.86333 2.38664,4.8141 2.58568,3.61707 3.0848,4.65061 0.47644,1.00181 1.75106,2.58366 1.25194,1.55012 -0.58833,2.86564 -1.36433,0.97531 -2.17143,0.78519 -0.79806,-0.24453 -1.77336,-1.60887 -0.52168,-0.72976 -3.0216,-5.36699 -1.22047,-2.24382 -3.50696,-5.97888 -2.16672,1.26124 -6.25973,4.18714 -0.69803,0.49899 -1.64518,1.65549 -1.03328,1.17014 -1.414028,1.44232 -0.856675,0.61239 -2.008335,0.47681 -1.142614,-0.18999 -1.755012,-1.04667 -0.453629,-0.63457 -0.508419,-1.65014 -0.04574,-1.06998 0.525374,-1.47825 1.110505,-0.79385 2.474966,-1.43364 1.396194,-0.66248 1.999034,-1.09343 l 6.15066,-4.87625 q -0.48115,-1.47787 -1.38841,-2.74702 -1.2248,-1.71335 -4.42721,-5.65663 -1.351716,-1.62263 -2.236292,-2.86005 -0.771169,-1.07877 -0.907764,-2.61118 -0.104866,-1.55508 0.878724,-2.25821 0.507659,-0.3629 1.858992,0.2532 1.38306,0.59342 1.79133,1.16454 1.17943,1.64989 2.86716,4.61442 1.68773,2.96453 2.41353,3.97985 1.15676,1.61816 2.50388,3.10024 0.79335,-0.23153 3.87103,-2.43163 l 7.17515,-5.32096 q 2.95077,-2.10938 4.26107,-2.0872 1.31031,0.0222 2.94337,2.30664 z"
         style="font-style:normal;font-variant:normal;font-weight:normal;font-stretch:normal;font-size:79.8761673px;font-family:'Segoe Print';-inkscape-font-specification:'Segoe Print'"
         id="path5977"
         inkscape:connector-curvature="0" />
      <path
         d="m 153.46934,799.81335 q 0.62535,7.24892 3.41931,19.72605 l 1.51519,7.29617 q 0.28135,1.5586 -0.29284,3.38973 -0.56074,1.86774 -1.47606,2.20377 -1.135,0.41667 -3.02963,-0.21731 -1.84457,-0.61079 -2.09994,-1.30644 -0.73926,-2.0137 -1.12771,-5.90117 -3.23274,-29.51658 -10.74625,-49.98315 l -1.16565,-3.06203 q -1.52485,-3.9273 -0.71895,-6.25897 0.80591,-2.33167 2.70977,-3.0306 0.87871,-0.32258 2.19495,0.773 1.3028,1.05898 2.23023,3.58526 1.30377,3.55144 2.42637,8.87283 1.3868,6.7201 1.69965,7.68547 1.96066,-11.52204 6.11261,-19.11215 4.15196,-7.59012 9.3876,-9.51218 3.69789,-1.35754 7.24569,0.49761 3.57097,1.80509 5.07636,5.90573 4.38176,11.93578 -1.19614,25.03504 -5.57791,13.09925 -14.25515,16.28476 -2.16016,0.79302 -3.84483,0.16507 -1.64807,-0.64139 -4.06458,-3.03649 z m 11.91657,-37.82017 q -5.1624,1.89518 -9.22945,14.35669 -4.06705,12.46151 -2.09123,17.84359 0.48388,1.31807 2.442,2.01182 1.95812,0.69376 4.26472,-0.15302 5.23564,-1.92206 9.20958,-12.14739 3.96049,-10.26194 1.21853,-17.73096 -0.98119,-2.67273 -2.60377,-3.69741 -1.59941,-1.07472 -3.21038,-0.48332 z"
         style="font-style:normal;font-variant:normal;font-weight:normal;font-stretch:normal;font-size:79.8761673px;font-family:'Segoe Print';-inkscape-font-specification:'Segoe Print'"
         id="path5979"
         inkscape:connector-curvature="0" />
      <path
         d="m 234.34774,772.53019 q -12.45799,13.33599 -23.90504,15.10933 -6.47511,1.0031 -10.88191,-2.22147 -4.41277,-3.26312 -5.46364,-10.04656 -2.52566,-16.30339 9.20278,-32.56534 11.72246,-16.30049 26.63833,-18.6112 4.39382,-0.68068 7.2595,0.49354 2.90422,1.16824 3.28038,3.59641 0.3284,2.11982 -0.89033,4.95293 -1.18616,2.7886 -2.68931,3.02146 -1.0021,0.15524 -1.90212,-1.32349 -1.46729,-2.33806 -2.88846,-3.10458 -1.42116,-0.76652 -4.04204,-0.36051 -6.70636,1.03893 -14.07887,8.73262 -7.37252,7.69369 -10.94512,16.73261 -3.54002,8.99441 -2.33988,16.7414 1.39717,9.0189 9.68377,7.73517 3.81568,-0.59111 8.49507,-3.24992 4.71195,-2.70333 9.78058,-7.43527 5.10121,-4.77646 5.84223,-7.89077 0.77957,-3.12028 0.69115,-8.27679 -0.0385,-2.79621 3.58447,-3.35747 3.89277,-0.60305 4.26296,1.78657 0.16719,1.07918 -0.55918,4.03335 -1.19596,4.76348 -1.55374,8.56829 -0.35779,3.80482 -0.38228,8.74202 0.0141,4.93124 0.33051,6.97398 0.28063,1.81148 1.52371,5.2499 0.22907,0.71439 0.30669,1.21544 0.20898,1.34898 -0.63462,2.78209 -0.80506,1.42714 -2.30821,1.66 -1.65732,0.25674 -3.47911,-0.80292 -1.77727,-1.02709 -2.02207,-2.60732 -0.19107,-1.23336 0.0593,-11.3363 0.0619,-3.16697 0.0245,-4.9372 z"
         style="font-style:normal;font-variant:normal;font-weight:normal;font-stretch:normal;font-size:79.8761673px;font-family:'Segoe Print';-inkscape-font-specification:'Segoe Print'"
         id="path5981"
         inkscape:connector-curvature="0" />
      <path
         d="m 268.77583,715.56516 q 2.80488,-0.13546 2.97796,3.44855 0.15427,3.19445 -2.6555,15.35677 -1.77763,7.66106 -2.5061,16.83335 -0.72846,9.17229 -0.47824,14.35352 0.31042,6.42785 1.43517,12.73827 0.21415,1.20013 0.24049,1.74552 0.0941,1.94784 -1.16273,3.41424 -1.2568,1.46641 -2.73715,1.5379 -2.0647,0.0997 -3.00696,-2.43192 -0.9033,-2.53351 -1.17986,-8.26014 -0.63025,-13.05047 1.55501,-32.48451 2.22422,-19.43592 3.89715,-22.7967 1.71188,-3.36267 3.62076,-3.45485 z"
         style="font-style:normal;font-variant:normal;font-weight:normal;font-stretch:normal;font-size:79.8761673px;font-family:'Segoe Print';-inkscape-font-specification:'Segoe Print'"
         id="path5983"
         inkscape:connector-curvature="0" />
      <path
         d="m 292.59597,783.25018 q -5.34234,-0.10015 -8.73688,-4.22071 -3.39455,-4.12055 -3.28271,-10.08682 0.1886,-10.06075 7.11752,-19.68309 6.96864,-9.66059 16.40547,-9.48369 6.23923,0.11696 10.00984,4.98573 3.80961,4.86951 3.68534,11.49869 -0.19006,10.13875 -8.38535,18.6451 -8.1563,8.50707 -16.81323,8.34479 z m -5.13743,-15.19275 q -0.0738,3.93852 1.51718,6.46491 1.63001,2.52713 4.35967,2.5783 5.81029,0.10892 11.77872,-6.13765 5.96916,-6.28556 6.11536,-14.0846 0.0899,-4.7964 -2.11625,-7.80244 -2.16644,-3.04429 -5.94898,-3.1152 -6.27822,-0.11769 -10.9464,7.51856 -4.62845,7.59799 -4.7593,14.57812 z"
         style="font-style:normal;font-variant:normal;font-weight:normal;font-stretch:normal;font-size:79.8761673px;font-family:'Segoe Print';-inkscape-font-specification:'Segoe Print'"
         id="path5985"
         inkscape:connector-curvature="0" />
      <path
         d="m 362.20897,774.81743 q 0.11887,-0.77093 2.6066,-9.22705 2.49368,-8.49466 5.29965,-19.7825 2.81191,-11.32639 3.28975,-12.63391 0.5164,-1.30158 1.57227,-2.00696 1.09442,-0.69944 3.09884,-0.39038 1.27203,0.19614 2.10782,1.42997 0.8358,1.23383 0.63966,2.50587 -0.25557,1.6575 -1.52592,5.28953 -1.79269,4.97215 -6.13901,20.36341 -4.30777,15.3972 -4.62872,17.47872 -0.20802,1.34912 0.10018,1.90966 0.35269,0.52794 1.47054,0.7003 1.81169,0.27934 8.72969,0.2016 4.26406,-0.0134 15.92311,1.1529 2.0934,0.24386 5.26339,-0.0961 0.60197,-0.065 0.87179,-0.0234 1.46477,0.22585 2.16421,1.32027 0.69943,1.09442 0.49141,2.44355 -0.33877,2.19715 -2.2369,3.24622 -1.89218,1.01052 -3.97369,0.68958 -0.80948,-0.12482 -3.1637,-0.72459 -2.39872,-0.56717 -3.59366,-0.75142 -12.56616,-1.93757 -24.85199,0.1933 -2.06691,0.35218 -3.64732,0.1085 -1.73459,-0.26746 -2.46646,-1.91936 -0.69332,-1.64596 -0.47341,-3.07218 0.13075,-0.84802 1.30296,-3.58754 1.32655,-3.22873 1.76891,-4.81797 z"
         style="font-style:normal;font-variant:normal;font-weight:normal;font-stretch:normal;font-size:79.8761673px;font-family:'Segoe Print';-inkscape-font-specification:'Segoe Print'"
         id="path5987"
         inkscape:connector-curvature="0" />
      <path
         d="m 451.99889,771.36689 q -0.15211,0.60521 0.55686,0.98447 3.79046,2.19935 6.07436,6.39273 2.2934,4.15555 1.12405,8.8081 -1.79681,7.14904 -12.852,12.41348 -11.05519,5.26445 -21.15462,2.72609 -2.83692,-0.71302 -4.27329,-1.87833 -1.40804,-1.11798 -1.16086,-2.10144 1.19787,-4.76603 7.93083,-3.0738 0.94564,0.23768 2.89356,0.80769 1.98574,0.57952 4.81457,0.2047 2.87617,-0.40314 5.74363,-1.41169 2.87697,-1.04637 5.05427,-2.34903 2.22463,-1.33098 3.7781,-3.03172 1.59131,-1.69123 2.09518,-3.69598 0.81759,-3.25301 -1.38236,-6.50034 -2.16213,-3.23783 -6.85251,-4.41669 -0.75651,-0.19014 -3.89765,0.30726 -3.15065,0.53522 -4.02064,0.31656 -2.9504,-0.74154 -3.51677,-1.68819 -0.52855,-0.93715 -0.0437,-2.86625 0.29472,-1.1726 7.34323,-2.17589 5.8658,-0.77775 12.06616,-4.32669 6.23819,-3.53943 7.0748,-6.86808 0.57992,-2.30736 -0.96911,-4.14443 -1.54903,-1.83707 -4.95333,-2.6927 -5.63602,-1.41653 -11.54814,-1.41451 -5.90262,-0.0358 -6.77422,1.03202 -0.83378,1.07732 -7.67474,17.57536 -6.83146,16.46021 -7.50645,19.14583 -0.66549,2.64779 -1.13194,4.98367 -0.45694,2.29806 -1.81137,3.68689 -1.32612,1.43616 -3.55784,0.87525 -2.04258,-0.51338 -2.76855,-2.42509 -0.69765,-1.86437 -0.0797,-4.32304 0.16162,-0.64303 0.83479,-1.88137 4.01093,-7.63814 8.93573,-19.8724 4.92481,-12.23426 5.41917,-14.20119 0.39929,-1.58868 0.13552,-2.45927 -0.22594,-0.86109 -1.77679,-1.25088 -0.60521,-0.15211 -1.21993,-0.26639 -0.57689,-0.10478 -0.99196,-1.01341 -0.37724,-0.89911 -0.11105,-1.95823 0.83661,-3.32865 12.34935,-3.85336 11.51274,-0.52472 22.55781,2.25131 5.67385,1.42604 8.49722,5.39308 2.8707,3.93871 1.84395,8.02388 -0.76056,3.02605 -4.89851,6.36947 -4.09063,3.3151 -10.19511,5.84255 z"
         style="font-style:normal;font-variant:normal;font-weight:normal;font-stretch:normal;font-size:79.8761673px;font-family:'Segoe Print';-inkscape-font-specification:'Segoe Print'"
         id="path5989"
         inkscape:connector-curvature="0" />
    </g>
    <flowRoot
       xml:space="preserve"
       id="flowRoot4140"
       style="font-style:normal;font-weight:normal;font-size:40px;line-height:125%;font-family:sans-serif;letter-spacing:0px;word-spacing:0px;fill:#000000;fill-opacity:1;stroke:none;stroke-width:1px;stroke-linecap:butt;stroke-linejoin:miter;stroke-opacity:1"><flowRegion
         id="flowRegion4142"><rect
           id="rect4144"
           width="122.85714"
           height="105.71429"
           x="94.285713"
           y="215.21935" /></flowRegion><flowPara
         id="flowPara4146" /></flowRoot>  </g>
</svg>
