<?xml version="1.0" encoding="UTF-8" standalone="no"?>
<!-- Created with Inkscape (http://www.inkscape.org/) -->

<svg
   xmlns:dc="http://purl.org/dc/elements/1.1/"
   xmlns:cc="http://creativecommons.org/ns#"
   xmlns:rdf="http://www.w3.org/1999/02/22-rdf-syntax-ns#"
   xmlns:svg="http://www.w3.org/2000/svg"
   xmlns="http://www.w3.org/2000/svg"
   xmlns:sodipodi="http://sodipodi.sourceforge.net/DTD/sodipodi-0.dtd"
   xmlns:inkscape="http://www.inkscape.org/namespaces/inkscape"
   width="200mm"
   height="100mm"
   viewBox="0 0 708.66142 354.33071"
   id="svg2"
   version="1.1"
   inkscape:version="0.91 r13725"
   sodipodi:docname="dishLabel3.svg">
  <defs
     id="defs4" />
  <sodipodi:namedview
     id="base"
     pagecolor="#ffffff"
     bordercolor="#666666"
     borderopacity="1.0"
     inkscape:pageopacity="0.0"
     inkscape:pageshadow="2"
     inkscape:zoom="0.49497475"
     inkscape:cx="-5.8123587"
     inkscape:cy="126.00244"
     inkscape:document-units="px"
     inkscape:current-layer="layer1"
     showgrid="false"
     inkscape:window-width="1536"
     inkscape:window-height="801"
     inkscape:window-x="-8"
     inkscape:window-y="-8"
     inkscape:window-maximized="1" />
  <metadata
     id="metadata7">
    <rdf:RDF>
      <cc:Work
         rdf:about="">
        <dc:format>image/svg+xml</dc:format>
        <dc:type
           rdf:resource="http://purl.org/dc/dcmitype/StillImage" />
        <dc:title />
      </cc:Work>
    </rdf:RDF>
  </metadata>
  <g
     inkscape:label="Layer 1"
     inkscape:groupmode="layer"
     id="layer1"
     transform="translate(0,-698.0315)">
    <g
       transform="scale(0.99845207,1.0015503)"
       style="font-style:normal;font-weight:normal;font-size:39.93808365px;line-height:125%;font-family:sans-serif;letter-spacing:0px;word-spacing:0px;fill:#000000;fill-opacity:1;stroke:none;stroke-width:1px;stroke-linecap:butt;stroke-linejoin:miter;stroke-opacity:1"
       id="text4136">
      <path
         d="m 83.58524,854.4911 2.02926,-1.99708 q 5.170445,-5.08847 7.344425,-7.93937 1.058972,-1.37051 2.282088,-2.57423 0.528164,-0.51979 2.769672,-1.46716 2.269305,-0.97473 3.012805,-0.83089 0.71614,0.11604 1.42743,0.83879 1.01222,1.02853 1.00561,1.85586 -0.007,0.82733 -1.39652,2.1952 -0.61155,0.60186 -2.079123,1.33478 -1.467569,0.73292 -2.218117,1.47157 -0.305779,0.30093 -1.892474,2.13608 -0.835265,0.98618 -3.472558,3.14389 -2.026616,1.66615 -2.943953,2.56894 -1.278712,1.25844 -3.69979,3.96947 -2.421078,2.71102 -3.755386,4.02417 -1.334309,1.31315 -2.441825,1.85589 -1.107075,0.48759 -2.119298,-0.54094 -0.437717,-0.44477 -0.650847,-1.38418 -0.212688,-0.99456 1.627274,-3.46201 1.812606,-2.49525 2.757741,-3.4254 l 2.413586,-1.77338 z"
         style="font-style:normal;font-variant:normal;font-weight:normal;font-stretch:normal;font-size:79.8761673px;font-family:'Segoe Print';-inkscape-font-specification:'Segoe Print'"
         id="path6577" />
      <path
         d="m 128.12299,843.48276 q 2.35637,6.8837 8.07907,18.31767 l 3.23131,6.7148 q 0.64919,1.44463 0.53392,3.3602 -0.0934,1.94787 -0.90056,2.49487 -1.00088,0.67828 -2.99251,0.52032 -1.93745,-0.14757 -2.35318,-0.76101 -1.2034,-1.77576 -2.5186,-5.45456 -10.26093,-27.86381 -22.49189,-45.91199 l -1.87021,-2.69019 q -2.42762,-3.44319 -2.20828,-5.90044 0.21934,-2.45724 1.89824,-3.595 0.77488,-0.52512 2.31662,0.2204 1.51987,0.71324 3.02959,2.94102 2.12237,3.13179 4.49609,8.02494 2.96768,6.18674 3.50427,7.04807 -0.87812,-11.65463 1.31925,-20.02244 2.19736,-8.36781 6.81434,-11.49666 3.26094,-2.20988 7.1516,-1.26583 3.90106,0.88989 6.35163,4.50598 7.1329,10.52542 4.88136,24.58365 -2.25154,14.05824 -9.90345,19.24382 -1.90491,1.29092 -3.69134,1.08813 -1.75415,-0.22468 -4.67727,-1.96575 z m 2.43649,-39.5782 q -4.5524,3.08509 -5.49167,16.1598 -0.93926,13.0747 2.27711,17.82082 0.78768,1.16232 2.85535,1.36298 2.06767,0.20066 4.10172,-1.17778 4.61698,-3.12885 6.00559,-14.01101 1.36672,-10.91444 -3.09681,-17.5009 -1.59725,-2.35691 -3.41917,-2.95969 -1.81151,-0.65694 -3.23212,0.30578 z"
         style="font-style:normal;font-variant:normal;font-weight:normal;font-stretch:normal;font-size:79.8761673px;font-family:'Segoe Print';-inkscape-font-specification:'Segoe Print'"
         id="path6579" />
      <path
         d="m 199.07957,796.23816 q -8.46501,16.16767 -19.0289,20.91994 -5.97554,2.68815 -11.08093,0.75094 -5.12138,-1.97278 -7.93754,-8.23287 -6.76838,-15.04554 0.21558,-33.84 6.96796,-18.83002 20.73304,-25.02237 4.05483,-1.8241 7.12953,-1.45384 3.11028,0.35425 4.11833,2.59508 0.88005,1.95627 0.45823,5.01141 -0.40226,3.00357 -1.78944,3.6276 -0.92478,0.41603 -2.18549,-0.77027 -2.03598,-1.86394 -3.60977,-2.22513 -1.57378,-0.36119 -3.99245,0.72688 -6.18895,2.78415 -11.2512,12.16074 -5.06226,9.3766 -6.10372,19.03997 -1.02189,9.61181 2.19429,16.76111 3.74421,8.32307 11.39147,4.88288 3.5213,-1.58409 7.32562,-5.39107 3.82388,-3.85855 7.45238,-9.76755 3.64808,-5.96057 3.53464,-9.15981 -0.0779,-3.21525 -1.53375,-8.16276 -0.78038,-2.68539 2.56307,-4.18947 3.59244,-1.61609 4.58449,0.58917 0.44803,0.99592 0.53303,4.03689 0.11324,4.91001 0.77968,8.67305 0.66644,3.76305 1.95517,8.52915 1.32431,4.7501 2.17236,6.63524 0.75204,1.67173 2.86436,4.65603 0.41072,0.6278 0.61873,1.09019 0.56004,1.24491 0.12771,2.8507 -0.39675,1.58979 -1.78393,2.21382 -1.52946,0.68804 -3.56737,0.15074 -1.98634,-0.51773 -2.64238,-1.97604 -0.51203,-1.1382 -2.9561,-10.94425 -0.78211,-3.06951 -1.28874,-4.7661 z"
         style="font-style:normal;font-variant:normal;font-weight:normal;font-stretch:normal;font-size:79.8761673px;font-family:'Segoe Print';-inkscape-font-specification:'Segoe Print'"
         id="path6581" />
      <path
         d="m 217.80599,732.14271 q 2.67651,-0.84971 3.76224,2.57027 0.96772,3.04825 1.36846,15.52447 0.24493,7.86078 1.89126,16.91347 1.64633,9.05269 3.21592,13.9968 1.94724,6.13366 4.65153,11.94514 0.51454,1.10518 0.67976,1.62561 0.59007,1.85869 -0.24898,3.59819 -0.83905,1.7395 -2.25165,2.18796 -1.97021,0.62548 -3.52975,-1.58016 -1.52237,-2.21743 -3.25719,-7.68197 -3.95349,-12.45319 -6.82131,-31.79829 -2.83066,-19.3569 -2.07482,-23.03416 0.79302,-3.68906 2.61453,-4.26733 z"
         style="font-style:normal;font-variant:normal;font-weight:normal;font-stretch:normal;font-size:79.8761673px;font-family:'Segoe Print';-inkscape-font-specification:'Segoe Print'"
         id="path6583" />
      <path
         d="m 258.18797,791.64384 q -5.21208,1.17684 -9.49138,-2.01526 -4.27931,-3.19209 -5.59359,-9.01287 -2.21623,-9.81543 2.21792,-20.81259 4.46361,-11.04379 13.67034,-13.12258 6.08709,-1.37441 10.91005,2.45463 4.86101,3.82044 6.32131,10.28797 2.23342,9.89153 -3.69672,20.10691 -5.8921,10.2068 -14.33793,12.11379 z m -8.61251,-13.52913 q 0.86759,3.84247 3.01522,5.91653 2.18567,2.06546 4.84877,1.46416 5.6686,-1.27992 9.97507,-8.76965 4.29788,-7.52777 2.57987,-15.13664 -1.05658,-4.67945 -3.91599,-7.07259 -2.82996,-2.43978 -6.52026,-1.60655 -6.12513,1.383 -8.83744,9.91222 -2.68286,8.48259 -1.14524,15.29252 z"
         style="font-style:normal;font-variant:normal;font-weight:normal;font-stretch:normal;font-size:79.8761673px;font-family:'Segoe Print';-inkscape-font-specification:'Segoe Print'"
         id="path6585" />
      <path
         d="m 324.56458,767.94593 q -0.0254,-0.77963 0.85912,-9.54959 0.88328,-8.80895 1.55804,-20.42073 0.6735,-11.65076 0.90185,-13.02401 0.26734,-1.37452 1.17491,-2.26263 0.94656,-0.88939 2.97358,-0.95552 1.28639,-0.042 2.33551,1.01644 1.04912,1.05841 1.09109,2.34479 0.0547,1.6762 -0.52361,5.48027 -0.84436,5.21758 -2.2758,21.14656 -1.39245,15.9277 -1.32377,18.03269 0.0445,1.36435 0.45086,1.85839 0.44405,0.45378 1.57451,0.4169 1.83212,-0.0598 8.61696,-1.4128 4.18836,-0.80004 15.8624,-1.80528 2.10245,-0.14664 5.15526,-1.06572 0.57963,-0.175 0.8525,-0.18391 1.48129,-0.0483 2.37068,0.89823 0.88938,0.94655 0.93389,2.3109 0.0725,2.22193 -1.59944,3.60325 -1.67321,1.34235 -3.7782,1.41102 -0.8186,0.0267 -3.24307,-0.12832 -2.46218,-0.11479 -3.6706,-0.0754 -12.70791,0.41461 -24.38951,4.77606 -1.96643,0.72755 -3.56466,0.77969 -1.75416,0.0572 -2.77829,-1.43124 -0.98515,-1.48975 -1.03221,-2.93206 -0.028,-0.85759 0.61855,-3.76637 0.70796,-3.41808 0.84945,-5.06165 z"
         style="font-style:normal;font-variant:normal;font-weight:normal;font-stretch:normal;font-size:79.8761673px;font-family:'Segoe Print';-inkscape-font-specification:'Segoe Print'"
         id="path6587" />
      <path
         d="m 413.26928,749.627 q -0.0608,0.62106 0.69653,0.89114 4.07437,1.61372 6.95413,5.42261 2.88356,3.77007 2.41615,8.5445 -0.71822,7.33631 -10.87182,14.17998 -10.1536,6.84368 -20.5176,5.82905 -2.91123,-0.285 -4.50434,-1.22474 -1.55809,-0.89711 -1.45929,-1.90634 0.47881,-4.89087 7.38814,-4.21446 0.97042,0.095 2.98127,0.37024 2.04967,0.27904 4.7918,-0.5106 2.78473,-0.82466 5.47121,-2.24676 2.69027,-1.46092 4.65063,-3.07167 2.00298,-1.64577 3.28745,-3.55782 1.32328,-1.90826 1.52468,-3.96553 0.32681,-3.33822 -2.32982,-6.22393 -2.61781,-2.88191 -7.43105,-3.35312 -0.77633,-0.076 -3.80917,0.88112 -3.03664,0.99594 -3.92942,0.90854 -3.02768,-0.29641 -3.72801,-1.14874 -0.66151,-0.84853 -0.4677,-2.82817 0.1178,-1.20331 6.93999,-3.23943 5.68592,-1.63791 11.29231,-6.06599 5.6452,-4.42428 5.97961,-7.84013 0.2318,-2.36781 -1.57222,-3.9552 -1.80402,-1.5874 -5.2975,-1.92941 -5.78365,-0.56621 -11.63028,0.31138 -5.84282,0.83878 -6.54667,2.02391 -0.66503,1.18893 -4.98718,18.51818 -4.31834,17.29044 -4.58814,20.04641 -0.26601,2.71715 -0.38137,5.09635 -0.11155,2.34039 -1.24537,3.9145 -1.0988,1.61672 -3.38897,1.39251 -2.09609,-0.2052 -3.09718,-1.98831 -0.96607,-1.74049 -0.71907,-4.26357 0.0646,-0.65988 0.54696,-1.98425 2.83547,-8.14794 5.89406,-20.97665 3.05858,-12.82871 3.25619,-14.84717 0.1596,-1.63029 -0.23019,-2.45222 -0.35098,-0.81813 -1.94246,-0.97393 -0.62106,-0.0608 -1.24593,-0.0828 -0.58604,-0.0182 -1.1311,-0.85531 -0.50625,-0.83334 -0.39985,-1.9202 0.33441,-3.41585 11.64248,-5.63982 11.30807,-2.22398 22.64247,-1.11435 5.82247,0.57001 9.20223,4.07515 3.42237,3.47013 3.01197,7.66231 -0.30401,3.10532 -3.90117,7.0247 -3.55454,3.88437 -9.21739,7.28803 z"
         style="font-style:normal;font-variant:normal;font-weight:normal;font-stretch:normal;font-size:79.8761673px;font-family:'Segoe Print';-inkscape-font-specification:'Segoe Print'"
         id="path6589" />
      <path
         d="m 427.35846,788.81844 q -0.94914,-0.2233 -1.70401,-1.44263 -0.75487,-1.21934 -0.52264,-2.20644 0.16077,-0.68338 2.95,-4.19413 2.8272,-3.50181 8.35434,-8.77244 5.57405,-5.29966 9.96005,-8.95561 0.44887,-0.3752 0.76598,-0.70126 3.35872,-3.37677 9.67419,-9.103 6.79337,-6.05453 12.23118,-11.62664 2.52797,-2.57054 6.50306,-5.84237 3.98402,-3.30979 5.31282,-2.99717 0.75931,0.17864 1.57672,1.81336 0.81742,1.63471 0.62092,2.46995 -0.34835,1.48066 -7.18193,7.36546 -14.74356,12.59818 -28.59382,25.48666 -1.69052,1.56555 -4.7366,4.29467 -5.11848,4.7257 -6.41818,6.5034 -1.2997,1.77771 -4.75668,4.89095 -3.42795,3.16015 -4.0354,3.01724 z"
         style="font-style:normal;font-variant:normal;font-weight:normal;font-stretch:normal;font-size:79.8761673px;font-family:'Segoe Print';-inkscape-font-specification:'Segoe Print'"
         id="path6591" />
      <path
         d="m 505.57603,791.64629 q -7.70756,4.91651 -14.00429,6.44714 -6.29672,1.53063 -10.45338,-0.0477 -2.80757,-1.06608 -3.9495,-4.21143 -1.14193,-3.14536 0.27028,-6.86447 3.64128,-9.58948 16.40492,-17.38382 12.77748,-7.8308 21.23663,-4.61872 3.0628,1.163 3.22861,5.23099 0.0309,1.34677 1.05189,1.73443 2.91695,1.10762 2.05855,3.36826 -0.4292,1.13031 -1.54146,2.96081 -6.05327,10.00862 -7.72854,14.4205 -3.35053,8.82378 -0.6606,11.84771 1.27204,1.48427 0.78746,2.76044 -0.4292,1.13032 -2.42627,1.6653 -2.0109,0.57143 -3.46938,0.0176 -2.80756,-1.06608 -3.16307,-5.6233 -0.35551,-4.55722 2.35815,-11.70375 z m 5.57065,-21.37261 q -4.81297,-1.82756 -14.6274,4.79209 -9.80059,6.58318 -12.05735,12.52647 -1.5922,4.19312 1.1789,5.24535 4.01081,1.52297 14.19451,-3.87176 10.1837,-5.39474 12.7589,-12.17665 1.97986,-5.21405 -1.44756,-6.5155 z"
         style="font-style:normal;font-variant:normal;font-weight:normal;font-stretch:normal;font-size:79.8761673px;font-family:'Segoe Print';-inkscape-font-specification:'Segoe Print'"
         id="path6593" />
      <path
         d="m 562.11075,801.6431 q -3.07994,-1.91744 -24.74563,9.50981 -7.30809,3.84598 -8.22573,4.03875 -0.89632,0.1601 -2.6758,-0.39605 -1.74682,-0.53483 -2.7266,-1.17443 -2.18816,-1.42844 3.37636,-9.95246 3.13403,-4.80089 13.39975,-16.03149 4.17505,-4.5405 5.60349,-6.72866 1.40712,-2.1555 3.33401,-0.89762 3.62516,2.36651 0.21396,7.59197 -1.599,2.44943 -7.47646,8.81294 -6.73433,7.24802 -7.91827,8.99029 3.30406,-0.63771 11.55111,-4.70911 11.479,-5.45484 15.66941,-6.16601 4.24438,-0.72252 7.05307,1.111 2.12284,1.3858 1.50905,5.0373 -0.58114,3.67282 -7.31281,14.55557 -1.68292,2.72069 -2.11116,4.30421 -0.42823,1.58352 -0.23227,1.71144 1.53498,1.00204 13.48485,-6.10164 6.34644,-3.72851 10.80267,-4.91823 4.48888,-1.1684 7.65682,0.89963 2.64539,1.72692 2.06289,5.25913 -0.56117,3.49954 -3.5351,9.19676 -3.04923,5.74121 -4.97895,10.90908 -1.89707,5.1892 0.0148,8.25378 1.28593,2.09704 0.51841,3.27276 -0.7462,1.14307 -3.10268,1.3281 -2.35647,0.18503 -3.66284,-0.66777 -2.61272,-1.7056 -2.58089,-6.24935 0.0318,-4.54375 5.93705,-15.87286 2.33569,-4.57682 3.08372,-6.65023 0.74803,-2.07341 -0.16642,-2.67037 -1.37168,-0.89544 -4.97151,0.48073 -3.56717,1.39749 -12.97093,6.67001 -7.33802,4.1059 -10.40078,5.08744 -3.00877,0.9702 -4.57641,-0.0532 -1.40434,-0.91676 -1.78987,-2.75205 -0.36421,-1.86795 0.36522,-3.62747 0.75075,-1.79217 4.47495,-8.2106 6.24723,-10.64008 6.0495,-13.19115 z"
         style="font-style:normal;font-variant:normal;font-weight:normal;font-stretch:normal;font-size:79.8761673px;font-family:'Segoe Print';-inkscape-font-specification:'Segoe Print'"
         id="path6595" />
      <path
         d="m 596.03061,861.36036 q -6.51118,3.24689 -17.08696,10.43284 l -6.22795,4.09177 q -1.34597,0.83472 -3.25995,0.97404 -1.94308,0.16528 -2.59212,-0.56236 -0.80481,-0.90229 -0.91188,-2.8973 -0.11022,-1.93994 0.4428,-2.43321 1.60082,-1.42788 5.07314,-3.2185 26.26026,-13.85921 42.53048,-28.37172 l 2.41894,-2.20988 q 3.09152,-2.86206 5.55617,-2.96993 2.46466,-0.10788 3.81466,1.40563 0.62308,0.69854 0.0882,2.32541 -0.50577,1.60091 -2.51408,3.39226 -2.82328,2.51827 -7.35913,5.51884 -5.73944,3.76056 -6.52215,4.40645 11.43582,-2.41322 20.02087,-1.34291 8.58504,1.07031 12.29755,5.23246 2.62211,2.9397 2.20141,6.92109 -0.36564,3.98453 -3.6255,6.89222 -9.48854,8.46347 -23.72111,8.09276 -14.23258,-0.37071 -20.38546,-7.26882 -1.53174,-1.71725 -1.56721,-3.51481 -0.01,-1.76845 1.32927,-4.89633 z m 39.55242,-2.82426 q -3.66058,-4.10394 -16.74455,-3.30413 -13.08398,0.79982 -17.36255,4.61617 -1.04782,0.93461 -0.97299,3.01065 0.0748,2.07604 1.7104,3.90971 3.7125,4.16215 14.6827,4.09797 10.99931,-0.0901 16.93693,-5.3863 2.12473,-1.8952 2.48102,-3.78087 0.41135,-1.88254 -0.73096,-3.1632 z"
         style="font-style:normal;font-variant:normal;font-weight:normal;font-stretch:normal;font-size:79.8761673px;font-family:'Segoe Print';-inkscape-font-specification:'Segoe Print'"
         id="path6597" />
    </g>
    <flowRoot
       xml:space="preserve"
       id="flowRoot4140"
       style="font-style:normal;font-weight:normal;font-size:40px;line-height:125%;font-family:sans-serif;letter-spacing:0px;word-spacing:0px;fill:#000000;fill-opacity:1;stroke:none;stroke-width:1px;stroke-linecap:butt;stroke-linejoin:miter;stroke-opacity:1"><flowRegion
         id="flowRegion4142"><rect
           id="rect4144"
           width="122.85714"
           height="105.71429"
           x="94.285713"
           y="215.21935" /></flowRegion><flowPara
         id="flowPara4146" /></flowRoot>  </g>
</svg>
