<?xml version="1.0" encoding="UTF-8" standalone="no"?>
<!-- Created with Inkscape (http://www.inkscape.org/) -->

<svg
   xmlns:dc="http://purl.org/dc/elements/1.1/"
   xmlns:cc="http://creativecommons.org/ns#"
   xmlns:rdf="http://www.w3.org/1999/02/22-rdf-syntax-ns#"
   xmlns:svg="http://www.w3.org/2000/svg"
   xmlns="http://www.w3.org/2000/svg"
   xmlns:sodipodi="http://sodipodi.sourceforge.net/DTD/sodipodi-0.dtd"
   xmlns:inkscape="http://www.inkscape.org/namespaces/inkscape"
   width="200mm"
   height="100mm"
   viewBox="0 0 708.66142 354.33071"
   id="svg2"
   version="1.1"
   inkscape:version="0.91 r13725"
   sodipodi:docname="dishLabel1.svg">
  <defs
     id="defs4" />
  <sodipodi:namedview
     id="base"
     pagecolor="#ffffff"
     bordercolor="#666666"
     borderopacity="1.0"
     inkscape:pageopacity="0.0"
     inkscape:pageshadow="2"
     inkscape:zoom="0.49497475"
     inkscape:cx="-5.8123587"
     inkscape:cy="126.00244"
     inkscape:document-units="px"
     inkscape:current-layer="layer1"
     showgrid="false"
     inkscape:window-width="1536"
     inkscape:window-height="801"
     inkscape:window-x="-8"
     inkscape:window-y="-8"
     inkscape:window-maximized="1" />
  <metadata
     id="metadata7">
    <rdf:RDF>
      <cc:Work
         rdf:about="">
        <dc:format>image/svg+xml</dc:format>
        <dc:type
           rdf:resource="http://purl.org/dc/dcmitype/StillImage" />
        <dc:title />
      </cc:Work>
    </rdf:RDF>
  </metadata>
  <g
     inkscape:label="Layer 1"
     inkscape:groupmode="layer"
     id="layer1"
     transform="translate(0,-698.0315)">
    <g
       transform="scale(0.99845207,1.0015503)"
       style="font-style:normal;font-weight:normal;font-size:39.93808365px;line-height:125%;font-family:sans-serif;letter-spacing:0px;word-spacing:0px;fill:#000000;fill-opacity:1;stroke:none;stroke-width:1px;stroke-linecap:butt;stroke-linejoin:miter;stroke-opacity:1"
       id="text4136">
      <path
         d="m 99.391369,846.60437 q 0.16873,1.32337 -1.784525,3.28626 -0.715276,0.71881 -2.559439,2.18502 -2.091894,1.65987 -2.917212,2.48926 l -1.815702,1.82466 q -0.797808,0.80175 -1.402906,1.46513 l -1.32051,1.32703 q -0.660255,0.66351 -1.375396,1.43747 0.583562,1.79118 3.154678,4.34967 3.151691,3.13621 3.815884,4.07225 0.636546,0.90853 2.156692,2.25614 1.492498,1.32011 -0.103118,2.9236 -1.182957,1.1888 -2.010448,1.13568 -0.827627,-0.10828 -2.016423,-1.29124 -0.635868,-0.63274 -3.872806,-4.78916 -1.576932,-2.00936 -4.453245,-5.31172 -1.926559,1.60431 -5.47543,5.17069 -0.605233,0.60822 -1.346662,1.90625 -0.824097,1.3258 -1.154225,1.65756 -0.742787,0.74645 -1.900949,0.80446 -1.158298,0.003 -1.904751,-0.73993 -0.552928,-0.55022 -0.776,-1.5425 -0.223208,-1.04744 0.271983,-1.54508 0.962872,-0.96762 2.201801,-1.82561 1.266439,-0.88564 1.789141,-1.41092 l 5.253172,-5.83203 q -0.720436,-1.37716 -1.826292,-2.47759 -1.492907,-1.48557 -5.307025,-4.84078 -1.602949,-1.37499 -2.681159,-2.4479 -0.939978,-0.93537 -1.329743,-2.42366 -0.362255,-1.51593 0.490574,-2.37297 0.44017,-0.44234 1.875204,-0.0598 1.462544,0.35492 1.96018,0.85011 1.437613,1.43055 3.595255,4.07279 2.157642,2.64225 3.042327,3.52259 1.409967,1.40304 2.984998,2.6402 0.743738,-0.36035 3.412268,-3.04205 l 6.189349,-6.44107 q 2.558488,-2.57112 3.854203,-2.76736 1.295715,-0.19624 3.286257,1.78452 z"
         style="font-style:normal;font-variant:normal;font-weight:normal;font-stretch:normal;font-size:79.8761673px;font-family:'Segoe Print';-inkscape-font-specification:'Segoe Print'"
         id="path7737" />
      <path
         d="m 123.56948,846.92053 q 2.48424,6.8386 8.41901,18.16394 l 3.35587,6.65343 q 0.676,1.43227 0.59644,3.34966 -0.0571,1.94927 -0.85391,2.51122 -0.98807,0.69681 -2.98229,0.57598 -1.93987,-0.11143 -2.36695,-0.71702 -1.23628,-1.75303 -2.61981,-5.40668 -10.77837,-27.66777 -23.34352,-45.4849 l -1.92001,-2.65488 q -2.491364,-3.39735 -2.317852,-5.85825 0.173512,-2.46091 1.830922,-3.62976 0.76496,-0.53947 2.32033,0.1772 1.53289,0.6848 3.08387,2.88405 2.18035,3.0917 4.64484,7.93977 3.08245,6.13036 3.635,6.98154 -1.09514,-11.63624 0.94591,-20.04354 2.04106,-8.4073 6.59893,-11.62164 3.2192,-2.27027 7.12677,-1.39888 3.91697,0.81704 6.43449,4.38684 7.3278,10.39067 5.33861,24.48843 -1.98918,14.09775 -9.54314,19.42501 -1.88052,1.3262 -3.67042,1.15673 -1.75802,-0.19195 -4.71309,-1.87825 z m 1.69857,-39.61673 q -4.49413,3.16939 -5.18959,16.25932 -0.69547,13.08994 2.60878,17.7753 0.80921,1.14744 2.88026,1.30953 2.07105,0.1621 4.07906,-1.25401 4.55787,-3.21434 5.74346,-14.12048 1.1631,-10.93801 -3.42239,-17.44015 -1.64089,-2.32675 -3.47372,-2.89547 -1.82344,-0.62307 -3.22586,0.36596 z"
         style="font-style:normal;font-variant:normal;font-weight:normal;font-stretch:normal;font-size:79.8761673px;font-family:'Segoe Print';-inkscape-font-specification:'Segoe Print'"
         id="path7739" />
      <path
         d="m 193.71392,798.45203 q -8.20495,16.3012 -18.69136,21.22207 -5.93171,2.78353 -11.06747,0.92835 -5.15233,-1.89049 -8.06841,-8.10466 -7.00852,-14.9352 -0.32651,-33.83911 6.66543,-18.93923 20.32955,-25.35128 4.02509,-1.88882 7.10533,-1.56786 3.11555,0.30438 4.15937,2.52877 0.91127,1.94193 0.53844,5.00343 -0.35409,3.00963 -1.73109,3.65581 -0.918,0.43078 -2.19755,-0.73517 -2.06558,-1.83109 -3.64495,-2.16702 -1.57937,-0.33593 -3.9803,0.79073 -6.14356,2.88294 -11.05496,12.33942 -4.9114,9.45648 -5.79793,19.1353 -0.8678,9.62694 2.46249,16.72381 3.87706,8.26202 11.46823,4.69977 3.49547,-1.64029 7.23832,-5.50772 3.76158,-3.91931 7.29496,-9.88567 3.55213,-6.01824 3.38746,-9.21526 -0.12937,-3.21359 -1.66432,-8.13714 -0.82329,-2.67254 2.49564,-4.22999 3.56609,-1.67343 4.59334,0.51565 0.46392,0.98862 0.59763,4.02784 0.19188,4.90757 0.91851,8.65945 0.72663,3.75189 2.09155,8.49673 1.40022,4.72828 2.27836,6.5996 0.77872,1.65946 2.93858,4.60954 0.42072,0.62115 0.63611,1.08015 0.57991,1.23577 0.17336,2.84828 -0.37124,1.59594 -1.74824,2.24212 -1.51824,0.71244 -3.5645,0.20786 -1.99438,-0.48584 -2.67369,-1.93346 -0.5302,-1.12985 -3.13103,-10.89549 -0.83118,-3.05659 -1.36492,-4.74485 z"
         style="font-style:normal;font-variant:normal;font-weight:normal;font-stretch:normal;font-size:79.8761673px;font-family:'Segoe Print';-inkscape-font-specification:'Segoe Print'"
         id="path7741" />
      <path
         d="m 211.51732,734.07603 q 2.66384,-0.8886 3.79928,2.5152 1.01203,3.03382 1.59447,15.50289 0.35942,7.85638 2.13745,16.88412 1.77803,9.02775 3.41948,13.94846 2.03639,6.10465 4.82505,11.87612 0.53059,1.09756 0.70337,1.61553 0.61709,1.84989 -0.19654,3.60144 -0.81362,1.75154 -2.21954,2.22052 -1.96088,0.65412 -3.55239,-1.52856 -1.55452,-2.19503 -3.36875,-7.63371 -4.13449,-12.39428 -7.28382,-31.69555 -3.11234,-19.31361 -2.41015,-23.00149 0.73919,-3.70022 2.55209,-4.30497 z"
         style="font-style:normal;font-variant:normal;font-weight:normal;font-stretch:normal;font-size:79.8761673px;font-family:'Segoe Print';-inkscape-font-specification:'Segoe Print'"
         id="path7743" />
      <path
         d="m 252.76315,792.99227 q -5.19532,1.24871 -9.51831,-1.88397 -4.32298,-3.13269 -5.71753,-8.93476 -2.35159,-9.78389 1.93025,-20.84124 4.31065,-11.10439 13.48778,-13.31014 6.06753,-1.45835 10.94291,2.3037 4.91332,3.75295 6.46281,10.19969 2.36982,9.85973 -3.41866,20.15605 -5.75055,10.28721 -14.16925,12.31067 z m -8.79855,-13.40889 q 0.92059,3.83013 3.09665,5.87432 2.21399,2.03508 4.86853,1.39705 5.65039,-1.35809 9.853,-8.90658 4.1935,-7.58642 2.37056,-15.17083 -1.12111,-4.66441 -4.0133,-7.01783 -2.86339,-2.40046 -6.54183,-1.51634 -6.10545,1.46747 -8.69969,10.03333 -2.56544,8.51884 -0.93392,15.30688 z"
         style="font-style:normal;font-variant:normal;font-weight:normal;font-stretch:normal;font-size:79.8761673px;font-family:'Segoe Print';-inkscape-font-specification:'Segoe Print'"
         id="path7745" />
      <path
         d="m 318.81675,768.40559 q -0.0357,-0.77923 0.73301,-9.5601 0.76694,-8.81984 1.28839,-20.43951 0.51967,-11.65864 0.72988,-13.03478 0.24917,-1.37793 1.14494,-2.27795 0.93474,-0.9018 2.96071,-0.99468 1.28572,-0.0589 2.34872,0.98553 1.063,1.04447 1.12195,2.33019 0.0768,1.67532 -0.45124,5.4867 -0.77542,5.22827 -1.9965,21.17475 -1.18212,15.9447 -1.08566,18.0486 0.0625,1.36364 0.47534,1.85227 0.45001,0.44789 1.57988,0.39609 1.83118,-0.0839 8.59757,-1.52641 4.17744,-0.85525 15.83719,-2.01448 2.10033,-0.17437 5.14075,-1.13367 0.57727,-0.18263 0.85,-0.19514 1.48052,-0.0679 2.38232,0.86686 0.9018,0.93473 0.96431,2.29837 0.10182,2.22078 -1.55174,3.62405 -1.65535,1.36431 -3.75925,1.46077 -0.81818,0.0375 -3.24449,-0.0855 -2.46348,-0.0823 -3.67127,-0.0269 -12.70133,0.5823 -24.32435,5.09754 -1.95665,0.75344 -3.55406,0.82667 -1.75325,0.0804 -2.79694,-1.39445 -1.00473,-1.47661 -1.07081,-2.91818 -0.0393,-0.85714 0.56878,-3.7742 0.66279,-3.42713 0.78257,-5.07242 z"
         style="font-style:normal;font-variant:normal;font-weight:normal;font-stretch:normal;font-size:79.8761673px;font-family:'Segoe Print';-inkscape-font-specification:'Segoe Print'"
         id="path7747" />
      <path
         d="m 407.25641,748.9002 q -0.0523,0.62184 0.70869,0.88151 4.09613,1.55766 7.02789,5.32667 2.93502,3.73015 2.53317,8.51054 -0.61747,7.34547 -10.6762,14.32784 -10.05873,6.98236 -20.43568,6.11006 -2.91487,-0.24503 -4.52072,-1.16282 -1.57025,-0.87565 -1.48531,-1.88614 0.41165,-4.89698 7.32961,-4.31544 0.97162,0.0817 2.98607,0.32929 2.05331,0.25088 4.78433,-0.57631 2.77316,-0.86279 5.43987,-2.32163 2.66997,-1.4977 4.60805,-3.1352 1.9802,-1.6731 3.23831,-3.6026 1.29697,-1.92624 1.47012,-3.98608 0.28097,-3.34238 -2.41501,-6.19137 -2.65711,-2.84571 -7.47637,-3.25083 -0.7773,-0.0653 -3.79672,0.93331 -3.02268,1.03752 -3.91657,0.96237 -3.03147,-0.25483 -3.74343,-1.09747 -0.67309,-0.83937 -0.50647,-2.82148 0.10128,-1.20482 6.89488,-3.33437 5.66292,-1.71578 11.20801,-6.22038 5.58395,-4.50133 5.87145,-7.92144 0.19929,-2.37077 -1.62634,-3.93326 -1.82563,-1.56249 -5.32348,-1.85652 -5.79088,-0.4868 -11.62491,0.47095 -5.83076,0.91888 -6.51828,2.11355 -0.64866,1.19794 -4.73259,18.58488 -4.08066,17.34807 -4.31262,20.10748 -0.2287,2.72054 -0.31139,5.10111 -0.0794,2.3417 -1.19154,3.93121 -1.07651,1.63165 -3.36954,1.4389 -2.09871,-0.17643 -3.12417,-1.94563 -0.98987,-1.72707 -0.77751,-4.2533 0.0555,-0.6607 0.51967,-1.99157 2.7234,-8.18608 5.60565,-21.05556 2.88225,-12.86947 3.05214,-14.89045 0.13722,-1.63233 -0.26382,-2.44883 -0.36218,-0.81324 -1.95564,-0.94719 -0.62184,-0.0523 -1.24695,-0.0657 -0.58624,-0.0101 -1.14274,-0.83971 -0.51763,-0.82631 -0.42615,-1.91453 0.2875,-3.42011 11.56398,-5.79906 11.27649,-2.37894 22.62506,-1.42496 5.82974,0.49006 9.25728,3.94849 3.46967,3.42284 3.11683,7.62025 -0.26137,3.1092 -3.8044,7.07758 -3.50091,3.93278 -9.11651,7.41382 z"
         style="font-style:normal;font-variant:normal;font-weight:normal;font-stretch:normal;font-size:79.8761673px;font-family:'Segoe Print';-inkscape-font-specification:'Segoe Print'"
         id="path7749" />
      <path
         d="m 421.88739,787.89406 q -0.95237,-0.20907 -1.72541,-1.41697 -0.77303,-1.2079 -0.5556,-2.19837 0.15052,-0.68571 2.8869,-4.23781 2.77447,-3.54373 8.22211,-8.89649 5.4941,-5.38249 9.82489,-9.10368 0.44321,-0.38187 0.75541,-0.71265 3.3078,-3.42666 9.53686,-9.24677 6.702,-6.15552 12.0558,-11.8084 2.48921,-2.60809 6.41489,-5.93904 3.93404,-3.36904 5.26736,-3.07635 0.7619,0.16726 1.60369,1.78956 0.84179,1.6223 0.65781,2.46039 -0.32614,1.4857 -7.07088,7.47212 -14.55336,12.81743 -28.20917,25.91175 -1.6669,1.59068 -4.67179,4.36508 -5.04718,4.80178 -6.32013,6.59874 -1.27295,1.79695 -4.68295,4.96159 -3.38027,3.2111 -3.98979,3.0773 z"
         style="font-style:normal;font-variant:normal;font-weight:normal;font-stretch:normal;font-size:79.8761673px;font-family:'Segoe Print';-inkscape-font-specification:'Segoe Print'"
         id="path7751" />
      <path
         d="m 500.1308,789.49235 q -7.62403,5.04507 -13.8942,6.68107 -6.27018,1.63601 -10.45272,0.12758 -2.82504,-1.01884 -4.01956,-4.14461 -1.19451,-3.12576 0.15513,-6.86803 3.47996,-9.64919 16.11109,-17.65647 12.64437,-8.04397 21.1562,-4.97419 3.08188,1.11147 3.31587,5.17611 0.0535,1.34606 1.08083,1.71655 2.93511,1.05854 2.11474,3.33326 -0.41018,1.13735 -1.49159,2.98624 -5.88458,10.10872 -7.48563,14.54808 -3.20209,8.87873 -0.46183,11.85712 1.29675,1.46273 0.83364,2.74685 -0.41019,1.13735 -2.398,1.70574 -2.00104,0.60508 -3.4686,0.0758 -2.82505,-1.01885 -3.25692,-5.56946 -0.43188,-4.55062 2.16155,-11.74165 z m 5.21147,-21.46302 q -4.84294,-1.74659 -14.54499,5.0367 -9.68881,6.74661 -11.8456,12.7269 -1.52165,4.21923 1.26671,5.22485 4.03578,1.4555 14.12758,-4.10925 10.0918,-5.56475 12.55292,-12.38889 1.89214,-5.24652 -1.55662,-6.49031 z"
         style="font-style:normal;font-variant:normal;font-weight:normal;font-stretch:normal;font-size:79.8761673px;font-family:'Segoe Print';-inkscape-font-specification:'Segoe Print'"
         id="path7753" />
      <path
         d="m 556.77144,798.40796 q -3.11814,-1.85465 -24.54791,10.00915 -7.22867,3.99323 -8.14222,4.20455 -0.8929,0.17823 -2.68328,-0.34176 -1.75729,-0.49933 -2.74982,-1.11895 -2.21665,-1.38382 3.17405,-10.01882 3.03614,-4.8634 13.07224,-16.29965 4.08222,-4.62414 5.46604,-6.84079 1.36316,-2.18356 3.31514,-0.96498 3.67235,2.2926 0.36771,7.58609 -1.54905,2.48132 -7.2964,8.96258 -6.58613,7.38295 -7.73453,9.14885 3.29047,-0.70451 11.45335,-4.94214 11.36615,-5.68625 15.54129,-6.48217 4.22887,-0.80835 7.07412,0.9679 2.15048,1.34251 1.61079,5.0057 -0.50661,3.68384 -7.01646,14.70072 -1.62746,2.75422 -2.02352,4.34609 -0.39606,1.59187 -0.19756,1.7158 1.55496,0.97074 13.35848,-6.37356 6.26961,-3.85631 10.70082,-5.13606 4.4643,-1.25909 7.67347,0.74434 2.67983,1.67298 2.16901,5.21626 -0.49016,3.51019 -3.34807,9.26648 -2.9323,5.8018 -4.75694,11.00771 -1.79156,5.22656 0.18202,8.25179 1.32814,2.07055 0.5846,3.26159 -0.72289,1.15795 -3.07514,1.39067 -2.35224,0.23273 -3.67561,-0.59343 -2.64675,-1.65232 -2.70696,-6.19579 -0.0602,-4.54346 5.61429,-15.98987 2.2425,-4.6232 2.94837,-6.71133 0.70587,-2.08814 -0.22049,-2.66646 -1.38954,-0.86746 -4.96075,0.58135 -3.53812,1.46946 -12.83314,6.9314 -7.25335,4.2537 -10.29559,5.29709 -2.9885,1.03095 -4.57655,0.0396 -1.42262,-0.88812 -1.84525,-2.71523 -0.40198,-1.86018 0.29166,-3.63411 0.71428,-1.80702 4.3077,-8.29958 6.03041,-10.76444 5.78104,-13.31099 z"
         style="font-style:normal;font-variant:normal;font-weight:normal;font-stretch:normal;font-size:79.8761673px;font-family:'Segoe Print';-inkscape-font-specification:'Segoe Print'"
         id="path7755" />
      <path
         d="m 591.93393,857.34929 q -6.43159,3.40184 -16.83231,10.83891 l -6.1282,4.2397 q -1.3256,0.8667 -3.2357,1.0518 -1.93857,0.21176 -2.60484,-0.50014 -0.82618,-0.88276 -0.98098,-2.87463 -0.15663,-1.93675 0.38442,-2.44312 1.56618,-1.4658 4.99464,-3.33904 25.92094,-14.4839 41.83907,-29.38177 l 2.36534,-2.26715 q 3.02211,-2.93525 5.48348,-3.1021 2.46136,-0.16685 3.84721,1.3139 0.63962,0.68343 0.14385,2.32264 -0.46729,1.61255 -2.43214,3.45147 -2.76218,2.58514 -7.2249,5.69344 -5.64776,3.89688 -6.41479,4.56133 11.37477,-2.6863 19.98298,-1.82183 8.60821,0.86447 12.41929,4.93655 2.69174,2.87609 2.36647,6.8664 -0.27014,3.99215 -3.45946,6.97705 -9.2832,8.6882 -23.52057,8.65833 -14.23737,-0.0299 -20.55363,-6.77871 -1.57241,-1.68009 -1.65091,-3.47628 -0.0519,-1.76771 1.21168,-4.92675 z m 39.47347,-3.77035 q -3.75778,-4.01512 -16.81886,-2.9023 -13.06108,1.11281 -17.24706,5.0305 -1.02514,0.95943 -0.90064,3.03308 0.1245,2.07365 1.80351,3.86765 3.81108,4.07208 14.77661,3.74528 10.994,-0.35344 16.80312,-5.79023 2.07875,-1.94552 2.38979,-3.83918 0.36617,-1.89185 -0.80647,-3.1448 z"
         style="font-style:normal;font-variant:normal;font-weight:normal;font-stretch:normal;font-size:79.8761673px;font-family:'Segoe Print';-inkscape-font-specification:'Segoe Print'"
         id="path7757" />
    </g>
    <flowRoot
       xml:space="preserve"
       id="flowRoot4140"
       style="font-style:normal;font-weight:normal;font-size:40px;line-height:125%;font-family:sans-serif;letter-spacing:0px;word-spacing:0px;fill:#000000;fill-opacity:1;stroke:none;stroke-width:1px;stroke-linecap:butt;stroke-linejoin:miter;stroke-opacity:1"><flowRegion
         id="flowRegion4142"><rect
           id="rect4144"
           width="122.85714"
           height="105.71429"
           x="94.285713"
           y="215.21935" /></flowRegion><flowPara
         id="flowPara4146" /></flowRoot>  </g>
</svg>
