<?xml version="1.0" encoding="UTF-8" standalone="no"?>
<!-- Created with Inkscape (http://www.inkscape.org/) -->

<svg
   xmlns:dc="http://purl.org/dc/elements/1.1/"
   xmlns:cc="http://creativecommons.org/ns#"
   xmlns:rdf="http://www.w3.org/1999/02/22-rdf-syntax-ns#"
   xmlns:svg="http://www.w3.org/2000/svg"
   xmlns="http://www.w3.org/2000/svg"
   xmlns:sodipodi="http://sodipodi.sourceforge.net/DTD/sodipodi-0.dtd"
   xmlns:inkscape="http://www.inkscape.org/namespaces/inkscape"
   width="200mm"
   height="100mm"
   viewBox="0 0 708.66142 354.33071"
   id="svg2"
   version="1.1"
   inkscape:version="0.91 r13725"
   sodipodi:docname="dishLabel2.svg">
  <defs
     id="defs4" />
  <sodipodi:namedview
     id="base"
     pagecolor="#ffffff"
     bordercolor="#666666"
     borderopacity="1.0"
     inkscape:pageopacity="0.0"
     inkscape:pageshadow="2"
     inkscape:zoom="0.49497475"
     inkscape:cx="292.18264"
     inkscape:cy="126.00244"
     inkscape:document-units="px"
     inkscape:current-layer="layer1"
     showgrid="false"
     inkscape:window-width="1536"
     inkscape:window-height="801"
     inkscape:window-x="-8"
     inkscape:window-y="-8"
     inkscape:window-maximized="1" />
  <metadata
     id="metadata7">
    <rdf:RDF>
      <cc:Work
         rdf:about="">
        <dc:format>image/svg+xml</dc:format>
        <dc:type
           rdf:resource="http://purl.org/dc/dcmitype/StillImage" />
        <dc:title />
      </cc:Work>
    </rdf:RDF>
  </metadata>
  <g
     inkscape:label="Layer 1"
     inkscape:groupmode="layer"
     id="layer1"
     transform="translate(0,-698.0315)">
    <g
       transform="matrix(0.99690654,0,0,1,-0.31593042,0)"
       style="font-style:normal;font-weight:normal;font-size:40px;line-height:125%;font-family:sans-serif;letter-spacing:0px;word-spacing:0px;fill:#000000;fill-opacity:1;stroke:none;stroke-width:1px;stroke-linecap:butt;stroke-linejoin:miter;stroke-opacity:1"
       id="text4136">
      <path
         d="m 50.813381,938.35527 q 0.585551,1.201 -0.636042,3.69091 -0.447344,0.9118 -1.725161,2.89552 -1.45053,2.24706 -1.966697,3.29913 l -1.135565,2.31457 q -0.498961,1.01701 -0.859619,1.8408 l -0.825866,1.68332 q -0.412933,0.84166 -0.842414,1.80574 1.129454,1.51136 4.390889,3.11147 3.997888,1.96144 4.928866,2.63574 0.89591,0.6571 2.771125,1.44658 1.840145,0.77228 0.842224,2.80629 -0.739838,1.50798 -1.541823,1.72366 -0.819848,0.1634 -2.327824,-0.57644 -0.806591,-0.39572 -5.213369,-3.29744 -2.141853,-1.39892 -5.931958,-3.60649 -1.31157,2.1412 -3.531085,6.66512 -0.378522,0.77152 -0.664435,2.24114 -0.355393,1.52255 -0.56186,1.94338 -0.464549,0.94687 -1.544455,1.37428 -1.097769,0.37513 -2.044638,-0.0894 -0.701383,-0.34411 -1.232028,-1.2136 -0.548508,-0.92176 -0.238809,-1.55301 0.602194,-1.22742 1.501489,-2.43961 0.916501,-1.24726 1.243406,-1.91357 l 3.107622,-7.22097 q -1.126163,-1.07464 -2.528931,-1.76286 -1.893736,-0.9291 -6.590375,-2.88527 -1.962559,-0.78882 -3.330257,-1.45983 -1.192353,-0.58499 -2.040595,-1.87137 -0.831036,-1.32144 -0.297664,-2.40858 0.275289,-0.56111 1.759477,-0.65964 1.501394,-0.1336 2.13264,0.1761 1.823598,0.89469 4.719768,2.70719 2.89617,1.81251 4.018384,2.36308 1.788529,0.87749 3.680291,1.54455 0.589595,-0.58094 2.258532,-3.98265 l 3.799792,-8.09967 q 1.600116,-3.26144 2.766049,-3.86419 1.165934,-0.60276 3.690916,0.63604 z"
         style="font-style:normal;font-variant:normal;font-weight:normal;font-stretch:normal;font-size:80px;font-family:'Segoe Print';-inkscape-font-specification:'Segoe Print'"
         id="path7153" />
      <path
         d="m 73.370687,930.74686 q 4.703949,5.56552 14.204999,14.15169 l 5.458873,5.08949 q 1.131512,1.11169 1.721105,2.94104 0.62176,1.85152 0.06768,2.65568 -0.687058,0.99716 -2.602906,1.57459 -1.86152,0.56743 -2.47268,0.14633 -1.76915,-1.21897 -4.335207,-4.17295 -19.71508,-22.26501 -37.696071,-34.6542 l -2.724137,-1.82954 q -3.518292,-2.32928 -4.207918,-4.70193 -0.689625,-2.37265 0.462858,-4.0453 0.531915,-0.77199 2.241826,-0.63745 1.677744,0.11237 3.897222,1.64163 3.120136,2.14982 7.11583,5.85166 5.020703,4.69272 5.834865,5.30112 -5.060943,-10.5552 -6.055987,-19.1628 -0.995043,-8.6076 2.174286,-13.20739 2.238477,-3.2488 6.212376,-3.78388 3.963896,-0.58941 7.566528,1.89287 10.48623,7.22518 13.501695,21.16216 3.015465,13.93698 -2.237198,21.56041 -1.307626,1.89781 -3.048326,2.35874 -1.718537,0.42876 -5.079715,-0.13197 z M 61.240082,892.93023 q -3.125002,4.53546 0.756982,17.07713 3.881984,12.54167 8.610438,15.79965 1.157989,0.79787 3.160333,0.2326 2.002345,-0.56528 3.398623,-2.59176 3.169328,-4.59979 0.504572,-15.25915 -2.696923,-10.68153 -9.258859,-15.20281 -2.348143,-1.61791 -4.267525,-1.51728 -1.929385,0.0463 -2.904564,1.46162 z"
         style="font-style:normal;font-variant:normal;font-weight:normal;font-stretch:normal;font-size:80px;font-family:'Segoe Print';-inkscape-font-specification:'Segoe Print'"
         id="path7155" />
      <path
         d="m 122.36113,860.78135 q -2.07264,18.16006 -10.22658,26.41291 -4.61233,4.66828 -10.08126,4.70125 -5.496712,0.006 -10.387291,-4.82644 -11.754061,-11.61319 -12.013227,-31.69272 -0.286954,-20.10698 10.337874,-30.8607 3.129794,-3.16776 6.135971,-3.93167 3.033632,-0.79171 4.784233,0.93792 1.52831,1.50999 2.23698,4.5165 0.70834,2.95127 -0.36238,4.03497 -0.71381,0.72247 -2.31982,0.0692 -2.574898,-1.00648 -4.175575,-0.77586 -1.600678,0.23063 -3.467573,2.12017 -4.777054,4.835 -6.121939,15.42228 -1.344886,10.58729 1.170154,19.99118 2.514708,9.34865 8.099971,14.86697 6.502242,6.42431 12.404932,0.45003 2.71798,-2.75095 4.898,-7.68079 2.1797,-4.98508 3.43675,-11.81525 1.25671,-6.88542 -0.004,-9.83336 -1.23331,-2.97573 -4.37927,-7.07242 -1.69836,-2.22713 0.88234,-4.83914 2.77289,-2.80653 4.49571,-1.10436 0.77804,0.76872 1.95511,3.57906 1.87807,4.54628 3.85897,7.82134 1.98089,3.27506 4.90523,7.2626 2.95179,3.95975 4.42452,5.41483 1.30601,1.29035 4.35662,3.31598 0.61033,0.43827 0.97156,0.79517 0.97256,0.96091 1.14828,2.61716 0.20317,1.62846 -0.86755,2.71217 -1.18054,1.19486 -3.27839,1.42848 -2.04261,0.23329 -3.18189,-0.89234 -0.8892,-0.87854 -6.71208,-9.15761 -1.83863,-2.58537 -2.92434,-3.98754 z"
         style="font-style:normal;font-variant:normal;font-weight:normal;font-stretch:normal;font-size:80px;font-family:'Segoe Print';-inkscape-font-specification:'Segoe Print'"
         id="path7157" />
      <path
         d="m 117.7934,793.80159 q 2.22129,-1.72511 4.4256,1.11321 1.96472,2.52981 6.6603,14.11652 2.95139,7.30294 7.63247,15.24094 4.68107,7.938 7.86774,12.04123 3.95338,5.09046 8.50672,9.61607 0.86616,0.86055 1.2016,1.29247 1.19799,1.54256 1.01161,3.46784 -0.18639,1.92529 -1.35874,2.83576 -1.63512,1.26988 -3.86435,-0.26315 -2.19838,-1.55699 -5.72048,-6.09213 -8.02656,-10.33519 -17.41861,-27.52337 -9.36118,-17.21214 -9.9238,-20.92977 -0.53177,-3.74158 0.97994,-4.91562 z"
         style="font-style:normal;font-variant:normal;font-weight:normal;font-stretch:normal;font-size:80px;font-family:'Segoe Print';-inkscape-font-specification:'Segoe Print'"
         id="path7159" />
      <path
         d="m 176.42175,835.91532 q -4.54271,2.82894 -9.64134,1.21824 -5.09864,-1.6107 -8.25797,-6.68395 -5.32751,-8.5549 -4.7534,-20.41685 0.58662,-11.91576 8.61098,-16.91288 5.30536,-3.30388 11.12791,-1.26966 5.85571,2.01358 9.36608,7.65052 5.36881,8.62122 3.12229,20.23615 -2.21336,11.59429 -9.57455,16.17843 z m -12.60029,-9.9621 q 2.08557,3.34901 4.79978,4.60388 2.74737,1.23423 5.06847,-0.21122 4.94061,-3.07674 6.54856,-11.57896 1.5873,-8.53539 -2.54255,-15.16709 -2.53986,-4.0785 -6.0324,-5.40089 -3.48002,-1.3762 -6.6964,0.62678 -5.33852,3.32453 -5.09636,12.28523 0.25468,8.90689 3.9509,14.84227 z"
         style="font-style:normal;font-variant:normal;font-weight:normal;font-stretch:normal;font-size:80px;font-family:'Segoe Print';-inkscape-font-specification:'Segoe Print'"
         id="path7161" />
      <path
         d="m 232.32813,792.38615 q -0.24784,-0.7409 -1.91228,-9.4107 -1.67683,-8.70684 -4.35702,-20.04374 -2.69258,-11.37394 -2.86698,-12.75725 -0.13736,-1.3957 0.47909,-2.5081 0.6535,-1.12478 2.57983,-1.76916 1.22248,-0.40893 2.53262,0.30613 1.31014,0.71507 1.71907,1.93755 0.53286,1.59293 1.06806,5.40933 0.68496,5.24915 3.87623,20.94599 3.22831,15.68445 3.89747,17.68487 0.43372,1.29657 0.96526,1.65424 0.5562,0.30822 1.6305,-0.0511 1.74111,-0.58242 7.86459,-3.82531 3.79018,-1.96809 14.70535,-6.27838 1.97564,-0.74325 4.64195,-2.50015 0.50611,-0.33406 0.76542,-0.4208 1.4077,-0.47089 2.53249,0.1826 1.12478,0.6535 1.5585,1.95007 0.70634,2.11156 -0.50231,3.91633 -1.22104,1.76772 -3.22146,2.43688 -0.77794,0.26023 -3.14907,0.80626 -2.39579,0.59547 -3.54418,0.97962 -12.07661,4.03976 -22.03722,11.57308 -1.67862,1.26175 -3.19746,1.76982 -1.66702,0.55764 -3.07642,-0.57732 -1.37236,-1.14734 -1.83086,-2.518 -0.27263,-0.81498 -0.48578,-3.79175 -0.30015,-3.48313 -0.63539,-5.10097 z"
         style="font-style:normal;font-variant:normal;font-weight:normal;font-stretch:normal;font-size:80px;font-family:'Segoe Print';-inkscape-font-specification:'Segoe Print'"
         id="path7163" />
      <path
         d="m 313.2273,750.2884 q 0.10411,0.61627 0.90698,0.67871 4.36152,0.49128 8.14403,3.41771 3.776,2.88792 4.57635,7.62548 1.2298,7.27967 -6.78987,16.55768 -8.01968,9.27801 -18.30365,11.01535 -2.88875,0.48802 -4.67511,-0.003 -1.74133,-0.45853 -1.91051,-1.45996 -0.81987,-4.85311 6.03611,-6.01134 0.96292,-0.16267 2.9788,-0.424 2.0544,-0.26783 4.49786,-1.75025 2.47546,-1.52744 4.69925,-3.60661 2.21729,-2.11768 3.68974,-4.18877 1.50446,-2.11611 2.24457,-4.30117 0.77863,-2.19157 0.43377,-4.23296 -0.5596,-3.31244 -3.88431,-5.40504 -3.2862,-2.09912 -8.06228,-1.29226 -0.77033,0.13013 -3.45087,1.85069 -2.67403,1.75906 -3.55991,1.90872 -3.00431,0.50754 -3.90478,-0.13266 -0.86196,-0.6467 -1.19381,-2.61106 -0.20171,-1.19401 5.85864,-4.95133 5.06648,-3.07441 9.32431,-8.82495 4.29636,-5.75704 3.72375,-9.14651 -0.39692,-2.34952 -2.557,-3.41078 -2.16009,-1.06126 -5.6266,-0.47564 -5.73899,0.96953 -11.1602,3.35116 -5.42771,2.34311 -5.79724,3.67325 -0.33101,1.32363 0.036,19.20768 0.36049,17.84553 0.82248,20.58022 0.45548,2.69617 0.96795,5.02617 0.50597,2.29148 -0.17716,4.11037 -0.6381,1.85091 -2.91058,2.23481 -2.07991,0.35137 -3.51521,-1.10964 -1.39027,-1.429 -1.81322,-3.93259 -0.11062,-0.65479 0.008,-2.06143 0.6039,-8.61946 0.19586,-21.82189 -0.40804,-13.20242 -0.74639,-15.20529 -0.27329,-1.61771 -0.86563,-2.30996 -0.55382,-0.69876 -2.13301,-0.43197 -0.61627,0.10411 -1.22603,0.24673 -0.57124,0.13612 -1.31765,-0.5301 -0.70789,-0.67273 -0.89008,-1.7512 -0.57261,-3.38948 9.77455,-8.50485 10.34715,-5.11537 21.59404,-7.01538 5.77751,-0.97603 9.96366,1.52567 4.21815,2.45668 4.9209,6.61649 0.52055,3.08134 -1.92857,7.81323 -2.41712,4.68686 -6.9982,9.46199 z"
         style="font-style:normal;font-variant:normal;font-weight:normal;font-stretch:normal;font-size:80px;font-family:'Segoe Print';-inkscape-font-specification:'Segoe Print'"
         id="path7165" />
      <path
         d="m 337.07202,784.63192 q -0.9764,0.0176 -2.01017,-0.97954 -1.03378,-0.99714 -1.05209,-2.0126 -0.0127,-0.70301 1.82781,-4.79937 1.87955,-4.09706 5.94303,-10.57764 4.10184,-6.52034 7.45636,-11.1519 0.34305,-0.47501 0.57035,-0.8698 2.42633,-4.10692 7.1425,-11.22437 5.09898,-7.55412 9.00131,-14.30528 1.81904,-3.11924 4.86957,-7.27649 3.04983,-4.19631 4.41679,-4.22096 0.78112,-0.0141 1.97817,1.3708 1.19704,1.38489 1.21254,2.24412 0.0275,1.52319 -5.15244,8.92249 -11.20004,15.86862 -21.46132,31.79844 -1.25434,1.93699 -3.53712,5.33809 -3.80137,5.85075 -4.62397,7.89716 -0.82261,2.04642 -3.40939,5.92182 -2.54703,3.91376 -3.17193,3.92503 z"
         style="font-style:normal;font-variant:normal;font-weight:normal;font-stretch:normal;font-size:80px;font-family:'Segoe Print';-inkscape-font-specification:'Segoe Print'"
         id="path7167" />
      <path
         d="m 413.73086,768.24991 q -6.29202,6.65195 -12.03717,9.67109 -5.74514,3.01914 -10.16756,2.49705 -2.98707,-0.35263 -4.8618,-3.13065 -1.87474,-2.77801 -1.40761,-6.73491 1.20446,-10.20259 11.70848,-20.88068 10.5086,-10.71688 19.5086,-9.65439 3.25863,0.38469 4.40949,4.2966 0.35776,1.30091 1.44397,1.42914 3.10345,0.36638 2.81951,2.77155 -0.14197,1.20259 -0.7772,3.25162 -3.44584,11.19666 -3.99998,15.89063 -1.10828,9.38793 2.24086,11.67133 1.59699,1.13254 1.4367,2.4903 -0.14197,1.20259 -1.95204,2.20825 -1.81466,1.04445 -3.36638,0.86126 -2.98707,-0.35263 -4.44128,-4.69369 -1.45421,-4.34105 -0.55659,-11.9445 z m 0.21197,-22.11988 q -5.12069,-0.60452 -13.04524,8.21473 -7.91998,8.78046 -8.66646,15.10373 -0.52667,4.46121 2.42161,4.80927 4.26724,0.50376 12.84859,-7.21527 8.58134,-7.71904 9.43316,-14.93456 0.6549,-5.54741 -2.99166,-5.9779 z"
         style="font-style:normal;font-variant:normal;font-weight:normal;font-stretch:normal;font-size:80px;font-family:'Segoe Print';-inkscape-font-specification:'Segoe Print'"
         id="path7169" />
      <path
         d="m 470.64007,763.82581 q -3.47741,-1.05408 -21.46306,15.63012 -6.069,5.61948 -6.90647,6.04444 -0.82534,0.38784 -2.69107,0.31243 -1.8286,-0.0633 -2.94252,-0.42725 -2.48774,-0.81289 0.67889,-10.50396 1.7835,-5.45819 8.79381,-18.98909 2.85809,-5.47692 3.67098,-7.96466 0.80076,-2.45062 2.99146,-1.73479 4.12149,1.34673 2.18026,7.28761 -0.90995,2.78479 -4.94084,10.46747 -4.62978,8.76093 -5.32208,10.75385 3.03006,-1.47561 9.94865,-7.55718 9.68508,-8.25974 13.55334,-10.03678 3.91753,-1.80205 7.11075,-0.75864 2.41349,0.78863 2.76891,4.48003 0.39254,3.70353 -3.28993,15.97941 -0.92062,3.06897 -0.92323,4.71191 -0.003,1.64295 0.22017,1.71575 1.74514,0.57023 11.45709,-9.40671 5.16939,-5.25592 9.17038,-7.56492 4.03812,-2.29687 7.63978,-1.12 3.00757,0.98274 3.36226,4.55062 0.36682,3.53074 -1.02886,9.81427 -1.45706,6.34566 -1.98033,11.84579 -0.48613,5.51226 2.15966,7.9795 1.78886,1.69409 1.35208,3.03078 -0.42464,1.29957 -2.65582,2.09103 -2.23117,0.79147 -3.71639,0.30616 -2.97045,-0.97062 -4.12067,-5.37377 -1.15022,-4.40315 1.61686,-16.89595 1.06955,-5.03396 1.25415,-7.23386 0.1846,-2.19991 -0.85505,-2.53962 -1.55948,-0.50958 -4.68367,1.75717 -3.08706,2.27888 -10.81227,9.82288 -6.0304,5.87866 -8.73768,7.62412 -2.65801,1.72046 -4.44028,1.13809 -1.59661,-0.52171 -2.44654,-2.19666 -0.83779,-1.71208 -0.5896,-3.60354 0.26033,-1.92859 2.19423,-9.10472 3.27697,-11.91524 2.42265,-14.33133 z"
         style="font-style:normal;font-variant:normal;font-weight:normal;font-stretch:normal;font-size:80px;font-family:'Segoe Print';-inkscape-font-specification:'Segoe Print'"
         id="path7171" />
      <path
         d="m 519.07058,812.06119 q -5.23728,5.06686 -13.16646,15.12273 l -4.71166,5.78813 q -1.03325,1.20357 -2.81891,1.9146 -1.80561,0.74462 -2.64514,0.24576 -1.04102,-0.61859 -1.74573,-2.49137 -0.69108,-1.81924 -0.31194,-2.45728 1.09749,-1.84697 3.8726,-4.60549 20.89168,-21.16488 32.04621,-39.93679 l 1.64259,-2.84078 q 2.08791,-3.66669 4.40893,-4.51399 2.32102,-0.8473 4.06724,0.19033 0.80595,0.4789 0.78647,2.19399 4.7e-4,1.6815 -1.37638,3.99861 -1.93558,3.25738 -5.36092,7.4925 -4.34518,5.32432 -4.89757,6.17748 10.19175,-5.75792 18.71316,-7.32839 8.52142,-1.57047 13.32353,1.28301 3.39171,2.0154 4.19228,5.94443 0.85411,3.9154 -1.38079,7.6765 -6.50514,10.94749 -20.20833,14.89149 -13.70319,3.94401 -21.66194,-0.78519 -1.98129,-1.17731 -2.55801,-2.88316 -0.54312,-1.68588 -0.20923,-5.07712 z m 36.91726,-14.6412 q -4.73495,-2.81357 -16.98782,1.90135 -12.25287,4.71493 -15.18617,9.65138 -0.71836,1.20892 -0.02,3.16881 0.69839,1.9599 2.814,3.21703 4.80212,2.85348 15.25862,-0.52064 10.47644,-3.4077 14.54715,-10.25828 1.45667,-2.45143 1.22745,-4.35973 -0.17567,-1.92193 -1.65325,-2.79992 z"
         style="font-style:normal;font-variant:normal;font-weight:normal;font-stretch:normal;font-size:80px;font-family:'Segoe Print';-inkscape-font-specification:'Segoe Print'"
         id="path7173" />
      <path
         d="m 548.73622,841.53975 q -0.74218,-0.6347 -0.85397,-2.06665 -0.11179,-1.43195 0.5483,-2.20383 0.45698,-0.53437 4.55199,-2.37785 4.1247,-1.81809 11.46485,-3.97032 7.39522,-2.15652 12.97808,-3.39581 0.57184,-0.12776 1.00384,-0.27231 4.54032,-1.46266 12.79136,-3.65829 8.82717,-2.26831 16.22628,-4.7299 3.43063,-1.12669 8.47134,-2.21283 5.0661,-1.11583 6.10515,-0.22726 0.59375,0.50776 0.57041,2.33814 -0.0233,1.83037 -0.58188,2.4835 -0.99012,1.1578 -9.77512,3.25659 -18.90859,4.4406 -37.15546,9.54989 -2.22368,0.61688 -6.18828,1.64672 -6.72613,1.85494 -8.69941,2.84015 -1.97329,0.98521 -6.48004,2.1682 -4.50244,1.23806 -4.97744,0.83186 z"
         style="font-style:normal;font-variant:normal;font-weight:normal;font-stretch:normal;font-size:80px;font-family:'Segoe Print';-inkscape-font-specification:'Segoe Print'"
         id="path7175" />
      <path
         d="m 616.51667,881.17246 q -9.14186,0.51394 -15.39131,-1.23715 -6.24945,-1.75108 -9.10543,-5.16776 -1.92903,-2.30776 -1.38386,-5.61454 0.54517,-3.30678 3.6022,-5.86212 7.88234,-6.5888 22.85085,-7.13652 14.99847,-0.57279 20.81063,6.38046 2.10441,2.51756 0.25435,6.1514 -0.63338,1.1913 0.0681,2.03048 2.00419,2.39767 0.146,3.95092 -0.9291,0.77663 -2.79806,1.82975 -10.19424,5.77204 -13.82072,8.80339 -7.25295,6.06269 -6.38673,10.02253 0.383,1.91997 -0.66598,2.79681 -0.92909,0.77662 -2.93545,0.2645 -2.03632,-0.48707 -3.03842,-1.6859 -1.92904,-2.30776 -0.005,-6.46187 1.92429,-4.1541 7.79858,-9.06438 z m 15.34542,-15.93274 q -3.30692,-3.95616 -15.12388,-2.98806 -11.78699,0.94304 -16.67224,5.02659 -3.44666,2.88103 -1.54267,5.15882 2.75577,3.2968 14.29453,3.57948 11.53876,0.28268 17.11335,-4.37707 4.28584,-3.5825 1.93091,-6.39976 z"
         style="font-style:normal;font-variant:normal;font-weight:normal;font-stretch:normal;font-size:80px;font-family:'Segoe Print';-inkscape-font-specification:'Segoe Print'"
         id="path7177" />
      <path
         d="m 635.41611,905.65554 q 0.80389,-0.027 2.15708,-0.20146 6.59179,-0.85896 10.68501,-0.71919 4.12671,0.11967 8.20665,0.76858 4.10004,0.6824 6.63255,1.71351 2.55262,1.06459 4.01331,2.28352 1.49418,1.19881 2.35869,2.63894 1.74913,2.91375 1.07986,5.82133 -0.63577,2.88749 -2.98017,4.29483 -1.03823,0.62326 -2.27761,0.45605 -1.21928,-0.13371 -2.02348,-1.47336 -0.84441,-1.40664 -0.3089,-3.32272 0.5154,-1.94957 -0.26869,-3.25573 -2.09092,-3.4831 -14.23004,-4.57906 -12.13913,-1.09596 -23.09121,3.65619 -2.81337,1.23327 -4.21359,0.79813 -1.40023,-0.43513 -2.42558,-2.14319 -0.98514,-1.64107 1.01742,-3.84554 2.00256,-2.20448 7.79656,-5.68263 1.57409,-0.94493 7.03323,-3.99427 6.45049,-3.59889 10.69738,-5.32822 0.69665,-0.28152 3.18178,-1.45442 2.71957,-1.31365 3.92536,-1.58188 1.22589,-0.23474 2.74002,0.31425 1.53424,0.58248 2.29823,1.85516 0.74388,1.23918 0.30198,2.32454 -0.38831,1.09875 -1.29257,1.64158 -1.30617,0.78409 -4.08615,1.54172 -3.10823,0.81799 -4.19339,1.28717 -1.19902,0.5831 -2.59904,1.05905 -1.64118,0.5296 -7.97114,3.87389 l -1.25929,0.71039 -0.90426,0.54284 z"
         style="font-style:normal;font-variant:normal;font-weight:normal;font-stretch:normal;font-size:80px;font-family:'Segoe Print';-inkscape-font-specification:'Segoe Print'"
         id="path7179" />
      <path
         d="m 661.76934,961.05415 q -8.87788,-2.24082 -14.31873,-5.77905 -5.44084,-3.53822 -7.14559,-7.65212 -1.15145,-2.77869 0.35677,-5.77156 1.50823,-2.99286 5.18908,-4.51816 9.49084,-3.93288 23.93932,0.0165 14.48457,3.93442 17.95388,12.30656 1.25612,3.0313 -1.5951,5.94643 -0.96038,0.94766 -0.54167,1.95809 1.19632,2.88694 -1.04107,3.81409 -1.11869,0.46357 -3.21692,0.91021 -11.45312,2.46272 -15.81963,4.27214 -8.73301,3.61885 -9.08942,7.65663 -0.20811,1.94671 -1.47115,2.4701 -1.11869,0.46357 -2.8804,-0.62459 -1.7978,-1.07321 -2.39596,-2.51668 -1.15145,-2.77869 1.92606,-6.16815 3.07751,-3.38945 10.15053,-6.32042 z m 19.40469,-10.62035 q -1.97392,-4.76346 -13.54038,-7.37009 -11.53039,-2.62157 -17.41254,-0.18409 -4.14999,1.7197 -3.01349,4.4623 1.64493,3.96955 12.57222,7.68672 10.92729,3.71716 17.63944,0.93573 5.16042,-2.13841 3.75475,-5.53057 z"
         style="font-style:normal;font-variant:normal;font-weight:normal;font-stretch:normal;font-size:80px;font-family:'Segoe Print';-inkscape-font-specification:'Segoe Print'"
         id="path7181" />
    </g>
    <flowRoot
       xml:space="preserve"
       id="flowRoot4140"
       style="font-style:normal;font-weight:normal;font-size:40px;line-height:125%;font-family:sans-serif;letter-spacing:0px;word-spacing:0px;fill:#000000;fill-opacity:1;stroke:none;stroke-width:1px;stroke-linecap:butt;stroke-linejoin:miter;stroke-opacity:1"><flowRegion
         id="flowRegion4142"><rect
           id="rect4144"
           width="122.85714"
           height="105.71429"
           x="94.285713"
           y="215.21935" /></flowRegion><flowPara
         id="flowPara4146" /></flowRoot>  </g>
</svg>
