<?xml version="1.0" encoding="UTF-8" standalone="no"?>
<!-- Created with Inkscape (http://www.inkscape.org/) -->

<svg
   xmlns:dc="http://purl.org/dc/elements/1.1/"
   xmlns:cc="http://creativecommons.org/ns#"
   xmlns:rdf="http://www.w3.org/1999/02/22-rdf-syntax-ns#"
   xmlns:svg="http://www.w3.org/2000/svg"
   xmlns="http://www.w3.org/2000/svg"
   xmlns:sodipodi="http://sodipodi.sourceforge.net/DTD/sodipodi-0.dtd"
   xmlns:inkscape="http://www.inkscape.org/namespaces/inkscape"
   width="83.717476mm"
   height="126.96575mm"
   viewBox="0 0 296.63673 449.87865"
   id="svg2"
   version="1.1"
   inkscape:version="0.91 r13725"
   sodipodi:docname="lb broth container.svg">
  <defs
     id="defs4">
    <pattern
       y="0"
       x="0"
       height="6"
       width="6"
       patternUnits="userSpaceOnUse"
       id="EMFhbasepattern" />
  </defs>
  <sodipodi:namedview
     id="base"
     pagecolor="#ffffff"
     bordercolor="#666666"
     borderopacity="1.0"
     inkscape:pageopacity="0.0"
     inkscape:pageshadow="2"
     inkscape:zoom="0.71590909"
     inkscape:cx="-415.09074"
     inkscape:cy="440.13322"
     inkscape:document-units="px"
     inkscape:current-layer="layer1"
     showgrid="false"
     inkscape:window-width="1600"
     inkscape:window-height="837"
     inkscape:window-x="-8"
     inkscape:window-y="-8"
     inkscape:window-maximized="1"
     fit-margin-top="0"
     fit-margin-left="0"
     fit-margin-right="0"
     fit-margin-bottom="0" />
  <metadata
     id="metadata7">
    <rdf:RDF>
      <cc:Work
         rdf:about="">
        <dc:format>image/svg+xml</dc:format>
        <dc:type
           rdf:resource="http://purl.org/dc/dcmitype/StillImage" />
        <dc:title></dc:title>
      </cc:Work>
    </rdf:RDF>
  </metadata>
  <g
     inkscape:label="Layer 1"
     inkscape:groupmode="layer"
     id="layer1"
     transform="translate(-259.32544,-288.27137)">
    <rect
       style="opacity:0.85;fill:#f2f2f2;stroke:#000000;stroke-width:0.58306414;stroke-miterlimit:4;stroke-dasharray:none;stroke-opacity:1"
       id="rect3336"
       width="296.05365"
       height="341.42276"
       x="259.61697"
       y="396.43573"
       rx="0"
       ry="77.24498" />
    <path
       style="fill:none;fill-rule:evenodd;stroke:#000000;stroke-width:1.30396414px;stroke-linecap:butt;stroke-linejoin:miter;stroke-opacity:1"
       d="m 295.94243,372.92849 0,35.13331"
       id="path4146"
       inkscape:connector-curvature="0" />
    <path
       style="fill:none;fill-rule:evenodd;stroke:#000000;stroke-width:1.43169582px;stroke-linecap:butt;stroke-linejoin:miter;stroke-opacity:1"
       d="m 519.74205,370.58779 -0.36032,37.18828"
       id="path4148"
       inkscape:connector-curvature="0" />
    <rect
       style="opacity:0.85;fill:#f2f2f2;stroke:none;stroke-width:0.60000002;stroke-miterlimit:4;stroke-dasharray:none;stroke-opacity:1"
       id="rect4140"
       width="222.21361"
       height="57.588463"
       x="296.39999"
       y="370.7569"
       ry="4.2351675" />
    <path
       style="opacity:0.70999995;fill:#008000"
       d="m 305.64221,288.68689 199.36307,0.70794 c 2.55766,0.008 11.00538,4.31054 11.18271,7.88685 l 3.53554,71.30227 c 0.17733,3.5763 -2.05906,6.47098 -4.61672,6.47098 l -216.03059,0 c -2.55766,0 -4.76733,-2.89227 -4.61672,-6.47098 l 3.03046,-72.01021 c 0.1506,-3.5787 5.5946,-7.89594 8.15225,-7.88685 z"
       id="rect3392"
       inkscape:connector-curvature="0"
       sodipodi:nodetypes="sssssssss" />
    <path
       inkscape:connector-curvature="0"
       id="path3402"
       d="m 264.66239,462.4117 283.80384,0 c 2.29155,0 4.05434,0.70053 4.05434,1.68121 l 0,184.79256 c 0,0.91067 -1.76279,1.68121 -4.05434,1.68121 l -283.80384,0 c -2.46786,0 -4.23058,-0.77054 -4.23058,-1.68121 l 0,-184.79256 c 0,-0.98068 1.76272,-1.68121 4.23058,-1.68121 z"
       style="fill:#ffff00;fill-opacity:1;fill-rule:nonzero;stroke:none" />
    <rect
       style="opacity:0.70999995;fill:#006800;fill-opacity:1"
       id="rect3410"
       width="11.174603"
       height="85.206352"
       x="315.51639"
       y="283.04074"
       ry="3.610512"
       transform="matrix(0.99986365,0.01651304,-0.01651304,0.99986365,0,0)" />
    <rect
       transform="matrix(0.99986365,0.01651304,-0.01651304,0.99986365,0,0)"
       ry="3.610512"
       y="282.64862"
       x="339.25919"
       height="85.206352"
       width="11.174603"
       id="rect4212"
       style="opacity:0.70999995;fill:#006800;fill-opacity:1" />
    <rect
       style="opacity:0.70999995;fill:#006800;fill-opacity:1"
       id="rect4214"
       width="11.174603"
       height="85.206352"
       x="364.39859"
       y="282.23343"
       ry="3.610512"
       transform="matrix(0.99986365,0.01651304,-0.01651304,0.99986365,0,0)" />
    <rect
       transform="matrix(0.99986365,0.01651304,-0.01651304,0.99986365,0,0)"
       ry="3.610512"
       y="281.81827"
       x="389.53806"
       height="85.206352"
       width="11.174603"
       id="rect4216"
       style="opacity:0.70999995;fill:#006800;fill-opacity:1" />
    <rect
       style="opacity:0.70999995;fill:#006800;fill-opacity:1"
       id="rect4218"
       width="11.174603"
       height="85.206352"
       x="416.07413"
       y="281.38"
       ry="3.610512"
       transform="matrix(0.99986365,0.01651304,-0.01651304,0.99986365,0,0)" />
    <rect
       transform="matrix(0.99986365,0.01651304,-0.01651304,0.99986365,0,0)"
       ry="3.610512"
       y="281.46451"
       x="441.2218"
       height="85.206352"
       width="11.174603"
       id="rect4220"
       style="opacity:0.70999995;fill:#006800;fill-opacity:1" />
    <rect
       style="opacity:0.70999995;fill:#006800;fill-opacity:1"
       id="rect4222"
       width="11.174603"
       height="85.206352"
       x="467.35007"
       y="280.53314"
       ry="3.610512"
       transform="matrix(0.99986365,0.01651304,-0.01651304,0.99986365,0,0)" />
    <rect
       transform="matrix(0.99986365,0.01651304,-0.01651304,0.99986365,0,0)"
       ry="3.610512"
       y="280.91104"
       x="492.90225"
       height="85.206352"
       width="11.174603"
       id="rect4224"
       style="opacity:0.70999995;fill:#006800;fill-opacity:1" />
    <path
       sodipodi:nodetypes="sssssssss"
       inkscape:connector-curvature="0"
       id="path4226"
       d="m 305.64221,358.52815 199.36307,0.13546 c 2.55766,0.002 11.00538,0.82484 11.18271,1.50918 l 3.53554,13.6439 c 0.17733,0.68433 -2.05906,1.23824 -4.61672,1.23824 l -216.03059,0 c -2.55766,0 -4.76733,-0.55344 -4.61672,-1.23824 l 3.03046,-13.77937 c 0.1506,-0.68479 5.5946,-1.51091 8.15225,-1.50917 z"
       style="opacity:1;fill:#008d00;fill-opacity:1" />
    <text
       xml:space="preserve"
       style="font-style:normal;font-weight:normal;font-size:40px;line-height:125%;font-family:sans-serif;letter-spacing:0px;word-spacing:0px;fill:#000000;fill-opacity:1;stroke:none;stroke-width:1px;stroke-linecap:butt;stroke-linejoin:miter;stroke-opacity:1"
       x="317.07938"
       y="522.96539"
       id="text4228"
       sodipodi:linespacing="125%"><tspan
         sodipodi:role="line"
         id="tspan4230"
         x="317.07938"
         y="522.96539">LB-Broth</tspan></text>
    <text
       xml:space="preserve"
       style="font-style:normal;font-weight:normal;font-size:40px;line-height:125%;font-family:sans-serif;letter-spacing:0px;word-spacing:0px;fill:#000000;fill-opacity:1;stroke:none;stroke-width:1px;stroke-linecap:butt;stroke-linejoin:miter;stroke-opacity:1"
       x="213.71429"
       y="339.98126"
       id="text4232"
       sodipodi:linespacing="125%"><tspan
         sodipodi:role="line"
         id="tspan4234"
         x="213.71429"
         y="339.98126" /></text>
  </g>
</svg>
