<?xml version="1.0" encoding="UTF-8" standalone="no"?>
<!-- Created with Inkscape (http://www.inkscape.org/) -->

<svg
   xmlns:dc="http://purl.org/dc/elements/1.1/"
   xmlns:cc="http://creativecommons.org/ns#"
   xmlns:rdf="http://www.w3.org/1999/02/22-rdf-syntax-ns#"
   xmlns:svg="http://www.w3.org/2000/svg"
   xmlns="http://www.w3.org/2000/svg"
   xmlns:sodipodi="http://sodipodi.sourceforge.net/DTD/sodipodi-0.dtd"
   xmlns:inkscape="http://www.inkscape.org/namespaces/inkscape"
   width="96.761917mm"
   height="115.10636mm"
   viewBox="0 0 342.85719 407.85718"
   id="svg2"
   version="1.1"
   inkscape:version="0.91 r13725"
   sodipodi:docname="open centrifuge tube without fluid P.svg"
   inkscape:export-filename="C:\Users\Jason Meurlin\Tube1.png"
   inkscape:export-xdpi="90"
   inkscape:export-ydpi="90">
  <sodipodi:namedview
     id="base"
     pagecolor="#ffffff"
     bordercolor="#666666"
     borderopacity="1.0"
     inkscape:pageopacity="0.0"
     inkscape:pageshadow="2"
     inkscape:zoom="1.7040537"
     inkscape:cx="22.216136"
     inkscape:cy="129.44486"
     inkscape:document-units="px"
     inkscape:current-layer="layer1"
     showgrid="false"
     inkscape:window-width="1920"
     inkscape:window-height="1017"
     inkscape:window-x="-8"
     inkscape:window-y="-8"
     inkscape:window-maximized="1"
     showborder="true"
     fit-margin-top="0"
     fit-margin-left="0"
     fit-margin-right="0"
     fit-margin-bottom="0" />
  <defs
     id="defs4">
    <inkscape:path-effect
       effect="bend_path"
       id="path-effect5145"
       is_visible="true"
       bendpath="m 276.9307,898.94007 c 44.83847,-9.48108 85.32937,-12.00606 116.73837,0"
       prop_scale="1"
       scale_y_rel="false"
       vertical="true"
       bendpath-nodetypes="cc" />
  </defs>
  <metadata
     id="metadata7">
    <rdf:RDF>
      <cc:Work
         rdf:about="">
        <dc:format>image/svg+xml</dc:format>
        <dc:type
           rdf:resource="http://purl.org/dc/dcmitype/StillImage" />
        <dc:title></dc:title>
      </cc:Work>
    </rdf:RDF>
  </metadata>
  <g
     inkscape:label="Layer 1"
     inkscape:groupmode="layer"
     id="layer1"
     transform="translate(-74.285717,-89.505023)">
    <g
       id="g3356"
       transform="translate(391.42858,-74.285714)"
       style="opacity:0.93999999" />
    <g
       id="g5018"
       transform="matrix(0.43956048,0,0,0.47307377,704.74103,141.7773)">
      <g
         style="opacity:0.7"
         transform="translate(-1102.8571,-411.42857)"
         id="g3511">
        <path
           style="opacity:0.93999999;fill:#cccccc"
           d="m 153.57144,438.07649 0,539.9991 0.81836,0 c -0.21685,44.68451 98.6529,185.00091 134.18164,185.00091 35.52874,0 134.39848,-140.3164 134.18164,-185.00091 l 0.81836,0 0,-539.9991 z"
           id="rect3336"
           inkscape:connector-curvature="0"
           sodipodi:nodetypes="cccscccc" />
        <path
           style="opacity:0.93999999;fill:#999999"
           d="m 448.57144,423.07649 c 0,27.61424 -70.05648,50 -160,50 -89.94352,0 -160,-22.38576 -160,-50 0,-27.61424 70.05648,-50 160,-50 89.94352,0 160,22.38576 160,50 z"
           id="path3352"
           inkscape:connector-curvature="0"
           sodipodi:nodetypes="sssss" />
        <path
           style="opacity:0.93999999;fill:#999999"
           d="m 160.14286,586.64795 142.71429,0 0,22.85714 -142.71429,0 z"
           id="rect3360"
           inkscape:connector-curvature="0"
           sodipodi:nodetypes="ccccc" />
        <path
           style="opacity:0.93999999;fill:#999999"
           d="m 160.14286,712.36224 137,0 0,22.85715 -137,0 z"
           id="rect3362"
           inkscape:connector-curvature="0"
           sodipodi:nodetypes="ccccc" />
        <ellipse
           style="opacity:1;fill:#cccccc"
           id="path3507"
           cx="287.14285"
           cy="420.93359"
           rx="130"
           ry="34.285713" />
      </g>
      <path
         inkscape:connector-curvature="0"
         id="rect3518"
         d="m -966.87037,-2.3247289 c -41.13253,1.303451 -81.06593,15.0450129 -120.88133,26.8342529 -28.7247,-14.128463 -59.5808,-19.2295219 -90.1119,-21.9831799 -0.7468,23.1073499 17.3506,42.6855009 35.0853,37.1503079 19.4244,0.986337 42.7732,0.887712 59.1551,9.999165 5.5753,-2.039378 16.8915,-7.374748 25.5845,-7.932937 29.4174,-3.448999 59.06457,-2.675984 88.49593,-5.025759 9.92492,0.504739 15.76418,-10.505486 14.61366,-22.351396 0.12329,-8.5246389 -4.33542,-18.1640599 -11.94126,-16.6904539 z"
         style="opacity:0.92000002;fill:#999999" />
      <ellipse
         cx="-1288.5714"
         cy="25.21932"
         rx="145.71429"
         ry="41.428574"
         id="path3524"
         style="opacity:1;fill:#999999" />
      <rect
         rx="72.503883"
         ry="35.263157"
         y="-110.49498"
         x="-1400.0001"
         height="140"
         width="225.71429"
         id="rect3542"
         style="opacity:1;fill:#8d8d99;fill-opacity:1" />
      <path
         transform="matrix(0.53552542,-0.15750803,0.12357247,0.68259176,-1405.334,145.29581)"
         inkscape:transform-center-y="14.449342"
         inkscape:transform-center-x="4.9612324"
         d="M 1108.5714,760.93359 C 1130.3953,833.67973 934.44486,1041.6117 860.53293,1024.1387 786.62101,1006.6656 704.5218,733.00158 756.60988,677.72851 c 52.08808,-55.27307 330.13772,10.45895 351.96152,83.20508 z"
         inkscape:randomized="0"
         inkscape:rounded="0.21"
         inkscape:flatsided="true"
         sodipodi:arg2="0.75574076"
         sodipodi:arg1="-0.29145679"
         sodipodi:r2="104.40307"
         sodipodi:r1="208.80614"
         sodipodi:cy="820.93359"
         sodipodi:cx="908.57141"
         sodipodi:sides="3"
         id="path3557"
         style="opacity:1;fill:#e6e6e6"
         sodipodi:type="star" />
    </g>
    <g
       style="font-style:normal;font-weight:normal;font-size:40px;line-height:125%;font-family:sans-serif;letter-spacing:0px;word-spacing:0px;fill:#000000;fill-opacity:1;stroke:none;stroke-width:1px;stroke-linecap:butt;stroke-linejoin:miter;stroke-opacity:1"
       id="text4824"
       transform="matrix(-0.83526537,0,0,1.6413919,631.52278,-1185.5704)"
       inkscape:path-effect="#path-effect5145">
      <path
         d="m 384.45673,848.90269 c -1.83726,-0.43503 -3.43711,-0.75221 -4.77509,-0.96786 -1.4287,-0.20558 -2.73331,-0.35831 -3.90564,-0.46589 -1.26033,-0.0952 -2.47484,-0.16998 -3.64124,-0.22718 -1.24593,-0.0426 -2.62927,-0.0896 -4.10591,-0.13163 -1.05808,-0.14999 -2.0747,-0.27282 -3.04838,-0.37055 -0.80921,-0.10746 -1.61792,-0.19641 -2.42569,-0.26691 -0.87882,-0.0767 -1.62284,-0.13538 -2.17597,-0.1772 -0.65141,-0.0493 -1.59586,-0.15701 -2.8785,-0.31325 -1.27307,-0.15507 -2.62487,-0.31519 -4.04603,-0.47468 -1.4213,-0.15951 -2.76159,-0.28699 -4.01508,-0.38726 -1.32612,-0.10119 -2.31509,-0.14502 -2.93164,-0.14637 l 0.0162,-1.52633 c 0.83115,-0.74199 1.67259,-1.4789 2.52462,-2.21034 0.004,-0.20863 0.0898,-0.49484 0.25767,-0.85754 0.0874,-0.33791 0.21573,-0.70146 0.38559,-1.09001 0.089,-0.36393 0.17823,-0.72781 0.26777,-1.09165 0.0891,-0.33782 0.13651,-0.61087 0.14164,-0.81973 l 0.0173,-0.70462 c 0.0103,-0.41745 -0.22451,-0.81408 -0.70645,-1.18715 -0.56215,-0.37337 -1.49604,-0.77892 -2.79114,-1.19692 -1.58243,-0.23585 -3.15716,-0.45181 -4.72318,-0.64835 -0.83016,0.0202 -1.65674,0.0457 -2.47965,0.0765 -1.43623,0.032 -2.86726,0.073 -4.29306,0.12283 -1.51606,0.5609 -3.01819,1.13154 -4.50681,1.7115 0.008,0.18216 -0.0942,0.48636 -0.30645,0.91387 -0.28941,0.43116 -0.57606,0.88865 -0.85974,1.37245 -0.35908,0.51365 -0.64138,0.98524 -0.84815,1.41339 -0.2817,0.45828 -0.41582,0.79208 -0.40443,0.99973 0.01,0.18204 -0.011,0.49567 -0.0625,0.94181 -0.05,0.47197 -0.0989,0.95693 -0.14654,1.45487 -0.0464,0.52394 -0.0937,1.02189 -0.14209,1.49387 -0.0485,0.47181 -0.0666,0.81205 -0.0547,1.01973 -2.57107,0.27935 -5.12303,0.58795 -7.65604,0.92379 -3.57587,0.28981 -7.12044,0.63388 -10.63316,1.02671 -0.77896,0.24428 -1.55817,0.4651 -2.33822,0.66246 -0.63597,0.18028 -1.30777,0.35345 -2.01539,0.52011 -0.70769,0.16668 -1.3464,0.28752 -1.91835,0.36164 -0.85766,0.11116 -1.76968,0.35055 -2.73207,0.7192 -0.4119,0.16166 -0.85503,0.35467 -1.32851,0.57923 0.0259,0.18056 -0.049,0.41458 -0.22379,0.70251 -0.17106,0.31368 -0.34155,0.62746 -0.51146,0.94135 -0.16992,0.3139 -0.34114,0.615 -0.51372,0.90333 -0.16875,0.31405 -0.23934,0.56149 -0.2126,0.74181 0.70292,0.3975 1.40452,0.79675 2.10469,1.19776 0.77374,0.16701 1.54727,0.33622 2.32052,0.50767 2.69875,-0.36478 5.41523,-0.70186 8.14918,-1.00848 0.49869,-0.0559 1.23565,-0.19005 2.22408,-0.39931 0.92299,-0.17642 1.90483,-0.3672 2.97437,-0.57573 0.9959,-0.17481 1.99349,-0.35836 2.99326,-0.55057 0.92893,-0.15977 1.65094,-0.2586 2.15608,-0.2996 2.28381,-0.1201 4.57789,-0.21734 6.88192,-0.29023 0.0108,0.18212 0.10619,0.55382 0.28524,1.11698 0.179,0.563 0.39583,1.16265 0.64986,1.79979 0.25388,0.63692 0.46743,1.22463 0.64127,1.76215 0.17516,0.56337 0.26719,0.9368 0.27701,1.11841 l 0.0443,0.81852 c 0.01,0.18197 -0.0855,0.40857 -0.28509,0.68041 -0.19958,0.27181 -0.39776,0.55679 -0.59448,0.85494 -0.19672,0.29815 -0.39345,0.58349 -0.59028,0.85602 -0.19683,0.27251 -0.28846,0.51289 -0.27583,0.72063 l 0.13745,2.25973 c 0.64606,0.22119 1.29108,0.44444 1.93502,0.66978 2.7295,-0.14956 5.4716,-0.2619 8.22601,-0.33416 0.49085,-0.16918 0.87661,-0.33423 1.15714,-0.49679 0.28088,-0.13644 0.52618,-0.31075 0.73591,-0.52322 0.011,-0.01 0.0217,-0.0195 0.0321,-0.0292 0,0 0,0 0,0 0.18924,-0.17808 0.28294,-0.35325 0.28036,-0.52607 -0.003,-0.20796 0.24264,-0.48898 0.74103,-0.839 0.42644,-0.34825 0.92779,-0.72383 1.50423,-1.12357 0.50457,-0.37279 1.01231,-0.74383 1.52329,-1.11301 0.43816,-0.34265 0.6592,-0.61677 0.65986,-0.82574 5.8e-4,-0.18249 -0.0719,-0.44314 -0.2181,-0.78124 -0.14626,-0.33816 -0.29304,-0.70219 -0.44049,-1.09208 -0.22122,-0.38931 -0.40635,-0.75226 -0.55502,-1.08955 -0.14862,-0.33727 -0.22352,-0.59684 -0.22402,-0.77942 -5.6e-4,-0.20839 0.0727,-0.52261 0.22092,-0.94145 0.14825,-0.419 0.29737,-0.85091 0.44742,-1.29575 0.225,-0.4977 0.41411,-1.04701 0.5667,-1.64798 3.62953,-0.0274 7.31258,0.0475 11.04094,0.23622 0.54117,0.0274 1.32203,0.10827 2.32895,0.25014 1.0047,0.14154 2.10386,0.29844 3.2697,0.47103 1.16588,0.19884 2.26484,0.39119 3.27937,0.57007 1.02002,0.20638 1.79304,0.35583 2.3488,0.44462 0.94502,0.13219 1.97241,0.29427 3.07682,0.4897 1.10555,0.19565 2.21392,0.38895 3.32698,0.58051 1.03314,0.17971 2.03348,0.32423 3.00276,0.43204 0.96626,0.1337 1.73729,0.20349 2.3189,0.20175 1.61421,0.0116 3.24037,0.0472 4.87844,0.10784 0.65001,0.13469 1.27546,0.18841 1.87857,0.16041 0.60326,-0.028 1.12929,-0.0831 1.5784,-0.16769 0.54209,-0.1167 1.08945,-0.24328 1.64252,-0.37964 0.39996,-0.22588 0.76669,-0.48532 1.0997,-0.77906 0.24396,-0.28851 0.40904,-0.60919 0.49364,-0.96293 0.0786,-0.32844 0.0706,-0.66455 -0.0254,-1.00846 -0.10193,-0.31854 -0.33988,-0.62982 -0.7146,-0.93199 -1.58535,-0.64173 -3.17363,-1.26049 -4.76383,-1.85669 0,0 1.3e-4,1.8e-4 1.3e-4,1.8e-4 z"
         style="font-size:79.99995422px"
         id="path5121"
         inkscape:connector-curvature="0"
         inkscape:original-d="m -139.84654,959.12896 q -0.0781,-0.85937 -0.0391,-1.48437 0.0781,-0.66406 0.19532,-1.21094 0.15625,-0.58594 0.3125,-1.13281 0.19531,-0.58594 0.39062,-1.28906 -0.0391,-0.50782 -0.0391,-0.97656 -0.0391,-0.39063 -0.0391,-0.78125 0,-0.42969 0,-0.70313 0,-0.3125 -0.11719,-0.9375 -0.11719,-0.625 -0.27344,-1.32812 -0.15625,-0.70313 -0.27344,-1.32813 -0.11718,-0.66406 -0.11718,-0.97656 l -1.52344,0 -2.22656,0.82031 q -0.3125,0 -0.85938,0.0781 -0.50781,0.0391 -1.09375,0.11719 -0.54687,0.0391 -1.09375,0.0781 -0.50781,0.0391 -0.82031,0.0391 l -0.70312,0 q -0.625,0 -1.17188,-0.23437 -0.54687,-0.27344 -1.17187,-0.89844 l -0.70313,-1.52344 0,-2.22656 1.52344,-1.52343 q 0.27344,0 0.89844,-0.11719 0.625,-0.15625 1.32812,-0.3125 0.74219,-0.19531 1.36719,-0.3125 0.66406,-0.15625 0.97656,-0.15625 0.27344,0 0.9375,-0.0391 0.70313,-0.0391 1.44531,-0.0781 0.78125,-0.0391 1.48438,-0.0781 0.70312,-0.0391 1.01562,-0.0391 l 0.39063,-2.69531 0,-3.78906 q 0.23437,-0.42968 0.39062,-0.85937 0.15625,-0.35156 0.27344,-0.74219 0.11719,-0.39062 0.11719,-0.70312 0,-0.46875 0.35156,-1.01563 0.15625,-0.23437 0.39062,-0.50781 0.27344,0 0.66406,-0.11719 0.42969,-0.11718 0.85938,-0.23437 0.42969,-0.11719 0.82031,-0.23438 0.42969,-0.11718 0.70313,-0.11718 l 1.48437,0.70312 0.82031,0.82031 0,3.00781 q 0,0.27344 -0.15625,0.82032 -0.11719,0.50781 -0.27344,1.09374 -0.11718,0.54688 -0.27343,1.09375 -0.11719,0.50782 -0.11719,0.78125 l 0.19531,2.46094 q 0.27344,0 1.13281,0.0781 0.85938,0.0781 1.83594,0.19532 0.97656,0.11718 1.79687,0.19531 0.85938,0.0781 1.13282,0.0781 l 0.82031,0 q 0.27344,0 0.66406,-0.11718 0.39063,-0.11719 0.82031,-0.23438 0.42969,-0.11719 0.82031,-0.23437 0.39063,-0.11719 0.70313,-0.11719 l 2.26562,0 0.78125,0.70312 0,3.04688 q -0.23437,0.27344 -0.46875,0.42969 -0.19531,0.15625 -0.50781,0.27343 -0.27344,0.11719 -0.54687,0.11719 -0.3125,0 -0.82032,0.27344 -0.50781,0.23437 -1.09375,0.54687 -0.54687,0.27344 -1.09375,0.54688 -0.50781,0.23437 -0.82031,0.23437 -0.27343,0 -0.78125,-0.0781 -0.50781,-0.0781 -1.09375,-0.15625 -0.58593,-0.11719 -1.09375,-0.19532 -0.50781,-0.0781 -0.78124,-0.0781 -0.3125,0 -0.9375,0.0781 -0.625,0.0781 -1.28907,0.15625 -0.74218,0.11719 -1.64062,0.19532 l 0,3.74999 q 0,0.27344 0.11719,0.78125 0.11718,0.50782 0.23437,1.09375 0.15625,0.58594 0.27344,1.09375 0.15625,0.50781 0.19531,0.78125 0.0391,0.46875 0.11719,1.01563 0.0781,0.54687 0.11719,1.09375 0.0391,0.50781 -0.0391,0.97656 -0.0391,0.46875 -0.19531,0.74219 l -0.82031,1.52343 q 0,0.3125 -0.23438,0.58594 -0.23437,0.27344 -0.50781,0.46875 -0.35156,0.23437 -0.74218,0.46875 -0.46875,0.15625 -1.01563,0.27344 -0.50781,0.0781 -1.05469,0.0781 -0.50781,0 -0.97656,-0.0781 -0.42968,-0.0781 -0.74218,-0.27344 l -0.78125,-1.52344 z" />
      <path
         d="m 393.40941,875.77918 c -0.60345,-0.13296 -1.20649,-0.26168 -1.80908,-0.38624 -0.50335,-0.11291 -1.06392,-0.23877 -1.65738,-0.37049 -0.55278,-0.12021 -1.03129,-0.23334 -1.4395,-0.34262 -1.11213,-0.19689 -2.22235,-0.38 -3.33052,-0.54975 -0.76876,-0.18731 -1.53761,-0.36821 -2.30647,-0.54282 -1.06283,-0.24137 -2.12567,-0.47073 -3.18829,-0.68838 -0.22842,-0.0468 -0.60487,-0.14008 -1.14374,-0.27946 -0.53616,-0.13868 -1.11895,-0.28367 -1.74607,-0.43283 -0.58173,-0.14069 -1.14275,-0.27422 -1.67964,-0.40059 -0.49097,-0.11827 -0.85282,-0.19551 -1.07773,-0.23302 -0.23061,-0.0385 -0.64884,-0.12439 -1.28147,-0.2578 -0.58221,-0.12514 -1.23466,-0.25827 -1.95264,-0.39598 -0.67314,-0.13111 -1.32497,-0.25484 -1.95288,-0.3716 -0.58076,-0.11035 -0.99011,-0.17872 -1.21346,-0.20691 -0.63566,-0.0802 -1.45971,-0.21354 -2.49343,-0.39414 -0.98699,-0.15875 -1.9716,-0.32482 -2.95492,-0.49863 -0.92661,-0.14827 -1.93706,-0.30742 -2.6831,-0.42621 -0.75608,-0.10767 -1.25695,-0.1671 -1.47705,-0.18239 -1.04169,-0.26864 -2.08462,-0.52799 -3.12837,-0.77824 -0.51568,-0.0268 -1.03081,-0.0513 -1.54538,-0.0736 -0.53692,-0.0233 -1.07322,-0.0443 -1.60887,-0.0629 -0.56148,0.0785 -1.12148,0.15947 -1.67997,0.24297 -0.17776,-0.005 -0.42301,0.006 -0.73436,0.0314 -0.35598,0.0248 -0.71149,0.0506 -1.06654,0.0775 -0.44397,0.0417 -0.88716,0.0849 -1.32955,0.12961 -0.773,-0.007 -1.54446,-0.01 -2.31426,-0.008 -1.03374,0.002 -2.06452,0.0131 -3.09208,0.0315 -0.18282,0.003 -0.62644,-0.005 -1.37618,-0.0194 -0.057,-9.5e-4 -0.11431,-0.002 -0.1718,-0.003 -0.73227,-0.0164 -1.502,-0.0291 -2.30784,-0.0374 -0.86177,-0.009 -1.67979,-0.0154 -2.41015,-0.0214 -0.77644,-0.004 -1.28397,2.7e-4 -1.49575,0.009 -3.3105,0.13684 -6.60461,0.33143 -9.88184,0.57845 -0.61084,0.046 -1.48898,0.0975 -2.69918,0.16658 -1.24184,0.072 -2.52416,0.15497 -3.84681,0.25008 -1.36191,0.0991 -2.64581,0.19914 -3.83322,0.29552 -1.18363,0.0961 -2.06665,0.18153 -2.6093,0.2448 -0.17021,0.0199 -0.50827,0.043 -1.01996,0.0714 -0.51077,0.0284 -1.04327,0.0523 -1.59768,0.072 -0.59544,0.0412 -1.12438,0.0758 -1.59276,0.10332 -0.50859,0.0329 -0.84914,0.0613 -1.01647,0.0834 -0.41206,0.12001 -0.82357,0.24076 -1.23453,0.36223 -0.32701,0.11002 -0.65364,0.22051 -0.9799,0.33146 -0.3262,0.11094 -0.58817,0.22167 -0.78589,0.33167 -0.19547,0.12617 -0.3907,0.2525 -0.58568,0.37897 0.009,0.0645 -0.0581,0.18911 -0.20183,0.37423 -0.1437,0.18507 -0.28588,0.37827 -0.42653,0.5796 -0.17996,0.22341 -0.34122,0.42802 -0.48366,0.61336 -0.14237,0.18538 -0.20742,0.31845 -0.19549,0.39895 l 0.1253,0.8456 0.0859,0.57984 c 1.02781,0.23555 2.05417,0.47519 3.07887,0.71908 0.53151,0.033 1.06297,0.0671 1.59436,0.10244 0.27449,0.16019 0.54866,0.32069 0.8225,0.48149 l 0.0323,0.24202 0.042,0.31462 c 0.009,0.0645 -0.0361,0.20172 -0.13374,0.41182 -0.13901,0.21553 -0.27656,0.43919 -0.41261,0.671 -0.17502,0.25343 -0.33129,0.48823 -0.46886,0.70405 -0.13766,0.21585 -0.20073,0.36424 -0.18963,0.44483 0.009,0.0645 -0.0188,0.16682 -0.0828,0.3071 -0.0618,0.15636 -0.12354,0.31274 -0.18527,0.46916 -0.10257,0.16205 -0.18557,0.31326 -0.24909,0.45356 -0.0636,0.1403 -0.0908,0.24274 -0.0817,0.30722 0.0316,0.22578 0.0337,0.53764 0.007,0.93599 -0.0247,0.41439 -0.0492,0.82879 -0.0735,1.2432 -0.0241,0.41439 -0.0548,0.78041 -0.0921,1.09807 -0.035,0.33369 -0.0478,0.53301 -0.0386,0.59739 0.009,0.0645 0.0701,0.20375 0.1826,0.41812 0.11477,0.23042 0.23053,0.46895 0.34726,0.71559 0.119,0.26275 0.23676,0.51749 0.3533,0.76419 0.11862,0.26282 0.18798,0.46692 0.20829,0.61198 0.0226,0.16128 0.18979,0.33503 0.50099,0.52206 0.27117,0.19254 0.41647,0.36169 0.43645,0.50678 0.26729,0.16869 0.53421,0.33767 0.80073,0.50696 0.21024,0.0537 0.44256,0.12103 0.69669,0.2021 0.25631,0.0972 0.49249,0.19738 0.70853,0.30035 0.25803,0.11391 0.53658,0.23349 0.8359,0.35905 0.19885,-0.0256 0.42182,-0.0214 0.66866,0.0129 0.24688,0.0343 0.51344,0.0664 0.79987,0.0964 0.24864,0.0511 0.49614,0.0943 0.74255,0.1298 0.24641,0.0355 0.46887,0.0414 0.66762,0.0175 0.9341,-0.11215 1.86879,-0.22017 2.80406,-0.32389 0.97506,-0.10813 1.95075,-0.21159 2.92704,-0.31021 0.78575,-0.19387 1.53225,-0.38038 2.24073,-0.56074 0.62989,-0.15667 1.26069,-0.31127 1.89241,-0.46375 0.59236,-0.14918 1.06432,-0.27759 1.41902,-0.3881 0.49431,-0.12168 0.98923,-0.24205 1.48475,-0.36108 0.54872,-0.20435 1.22044,-0.43339 2.01129,-0.6826 0.7515,-0.24675 1.5056,-0.48226 2.26217,-0.70642 0.8955,-0.27314 1.79385,-0.54177 2.69514,-0.80572 0.2038,-0.01 0.7016,-0.16466 1.50384,-0.45997 0.77133,-0.28059 1.65535,-0.61009 2.71536,-1.00573 1.01256,-0.3754 2.04194,-0.75873 3.10552,-1.1551 0.21862,-0.0781 0.43062,-0.15303 0.63583,-0.2248 0.79072,-0.27855 1.48474,-0.51085 2.07397,-0.69777 0.26842,-0.0842 0.53726,-0.16798 0.80651,-0.25121 0.97271,-0.51151 1.95363,-1.01662 2.94304,-1.51461 8.2e-4,-0.0814 0.19045,-0.2027 0.57028,-0.36181 0.37698,-0.1418 0.82646,-0.30945 1.33314,-0.49548 0.46716,-0.17153 0.89299,-0.33376 1.27798,-0.48792 0.38488,-0.15412 0.57916,-0.27086 0.58144,-0.35259 0.34256,-0.10517 0.62155,-0.20283 0.83733,-0.29415 0.21512,-0.0749 0.40954,-0.15834 0.58327,-0.25038 0.13068,-0.0772 0.19761,-0.15642 0.20053,-0.23798 0.13002,-0.0445 0.36842,-0.1664 0.71918,-0.36529 0.30646,-0.19958 0.68314,-0.43892 1.12475,-0.71236 0.39862,-0.25949 0.84453,-0.54111 1.33617,-0.84202 0.44892,-0.30345 0.89942,-0.5889 1.35126,-0.85633 0.40833,-0.26998 0.79464,-0.49915 1.15771,-0.68785 0.31727,-0.17469 0.52495,-0.2843 0.61466,-0.32652 0.26992,-0.0877 0.54038,-0.17468 0.81138,-0.26106 0.76831,0.0566 1.53739,0.11828 2.30715,0.18527 2.77011,0.24107 5.65286,0.67407 8.62072,1.31981 2.97027,0.64628 5.82219,1.32053 8.56701,2.01343 0.21665,0.0429 0.59555,0.12663 1.11672,0.25049 0.52067,0.1404 1.06446,0.28867 1.62816,0.44476 0.5649,0.15637 1.08497,0.29807 1.56478,0.42486 0.52239,0.15338 0.8634,0.25082 1.04183,0.29317 0.21841,0.0518 0.54525,0.14657 0.97493,0.28509 0.42956,0.13849 0.88337,0.28535 1.35573,0.43946 0.46945,0.17012 0.91793,0.32918 1.34653,0.47685 0.47431,0.15994 0.79294,0.26379 0.96969,0.31219 0.99978,0.37478 1.99626,0.76122 2.98909,1.15956 0.54302,0.16227 1.08567,0.32809 1.62792,0.49753 0.47719,0.1491 0.95406,0.301 1.4306,0.45573 0.36713,0.0508 0.66885,0.0821 0.90662,0.0925 0.23756,0.0104 0.43186,0.007 0.58317,-0.0107 0.19469,-0.003 0.30541,-0.0426 0.33188,-0.1195 0.31898,-0.0807 0.63901,-0.1602 0.96009,-0.23848 0.86321,-0.02 1.73122,-0.0309 2.60411,-0.0325 0.32584,-0.0715 0.65275,-0.14174 0.98075,-0.21071 l 0.21793,-0.57012 0.21792,-0.57012 c -0.49184,-0.37375 -0.9866,-0.74438 -1.48416,-1.11191 -0.32675,-0.20214 -0.78938,-0.47955 -1.37152,-0.81677 -0.58523,-0.33901 -1.19541,-0.68161 -1.83048,-1.0267 -0.58965,-0.33013 -1.14271,-0.62649 -1.65576,-0.88954 -0.51269,-0.26285 -0.88531,-0.42774 -1.11107,-0.49652 0,0 -3.2e-4,-1.6e-4 -3.2e-4,-1.6e-4 z m -78.94647,5.99446 c -0.0808,-0.7277 0.008,-1.41689 0.26911,-2.06728 0.21993,-0.64506 0.47557,-1.36954 0.76688,-2.16839 -0.007,-0.0647 0.0466,-0.1522 0.16047,-0.26226 0.0725,-0.10576 0.14608,-0.20341 0.22065,-0.29295 0.11413,-0.11002 0.22762,-0.22807 0.3405,-0.35416 -0.008,-0.0809 0.1044,-0.20708 0.33893,-0.37806 0.19459,-0.15056 0.43036,-0.31336 0.70737,-0.48793 0.23541,-0.17047 0.47207,-0.33258 0.70992,-0.48633 0.19613,-0.14972 0.29129,-0.25676 0.28504,-0.32156 0.19247,-0.0966 0.51187,-0.25658 0.90687,-0.45297 0.36344,-0.18069 0.74685,-0.37877 1.15101,-0.59423 0.44432,-0.23516 0.95238,-0.49169 1.52312,-0.76761 6.0145,-0.50118 12.07999,-0.82519 18.19314,-0.93764 2.00941,-0.0485 4.03026,-0.0679 6.06071,-0.0555 0.25925,0.0994 0.51832,0.1994 0.77719,0.2999 l -0.004,0.29355 -0.008,0.61156 c -0.26156,0.17672 -0.52233,0.35394 -0.78233,0.53165 -0.3717,0.2154 -0.92552,0.53557 -1.55029,0.90083 -0.68514,0.37561 -1.34513,0.74676 -1.97935,1.11186 -0.67591,0.38148 -1.24431,0.72564 -1.70322,1.02679 -0.41282,0.24883 -0.65464,0.42434 -0.7262,0.52343 -0.0154,0.0213 -0.023,0.0391 -0.0227,0.0535 -0.20759,0.0685 -0.56382,0.20588 -1.06088,0.41182 -0.4974,0.20603 -1.03671,0.43144 -1.61348,0.67541 -0.61834,0.26154 -1.21468,0.51689 -1.7878,0.76487 -0.57355,0.2647 -1.04114,0.46965 -1.40917,0.61514 -0.57275,0.18606 -1.08244,0.37158 -1.52873,0.55513 -0.40663,0.14918 -0.79197,0.29837 -1.15592,0.44719 -0.40472,0.15078 -0.70832,0.27332 -0.909,0.36552 -0.75024,0.22815 -1.49833,0.45942 -2.24431,0.69372 -0.95025,0.2553 -1.89757,0.51552 -2.84202,0.78051 -0.16318,0.012 -0.40456,0.0787 -0.72309,0.20078 -0.31869,0.1221 -0.65722,0.24625 -1.01568,0.37273 -0.35741,0.14278 -0.6938,0.27621 -1.01087,0.40065 -0.31688,0.12437 -0.57637,0.19551 -0.77933,0.213 -0.45967,0.12124 -0.91876,0.24358 -1.37726,0.36699 -0.48616,0.0443 -0.97212,0.0897 -1.45787,0.13642 -0.26312,0.0253 -0.52617,0.0509 -0.78916,0.0769 -0.45309,-0.037 -0.90636,-0.073 -1.35982,-0.10793 -0.41977,-0.10388 -0.7791,-0.21314 -1.07822,-0.32854 -0.33952,-0.11104 -0.51836,-0.24697 -0.53595,-0.40877 -0.009,-0.0809 -0.0607,-0.18164 -0.15596,-0.30222 -0.0935,-0.10442 -0.1879,-0.21687 -0.28331,-0.33737 -0.13796,-0.13222 -0.27688,-0.27244 -0.41677,-0.42068 l -0.0997,-0.89749 c 0,0 -2e-4,3e-5 -2e-4,3e-5 z"
         style="font-style:normal;font-variant:normal;font-weight:normal;font-stretch:normal;font-size:49.99996948px;line-height:125%;font-family:'Buxton Sketch';-inkscape-font-specification:'Buxton Sketch, Normal';text-align:start;writing-mode:lr-tb;text-anchor:start"
         id="path5123"
         inkscape:connector-curvature="0"
         inkscape:original-d="m -115.92265,964.02423 q 0.0732,-0.31738 0.14648,-0.63477 0.0488,-0.26855 0.0977,-0.58593 0.0488,-0.29297 0.0488,-0.5127 l 0.29297,-1.17187 0,-0.83008 0,-1.14746 q 0,-0.12207 -0.0488,-0.41504 -0.0488,-0.29297 -0.0977,-0.63476 -0.0488,-0.31739 -0.0977,-0.61036 -0.0488,-0.26855 -0.0488,-0.39062 0,-0.12207 -0.0488,-0.46387 -0.0488,-0.31738 -0.0977,-0.708 -0.0488,-0.36622 -0.0976,-0.70801 -0.0488,-0.31738 -0.0488,-0.43945 0,-0.3418 -0.0977,-0.90332 -0.0732,-0.53711 -0.19531,-1.07422 -0.0977,-0.53711 -0.19531,-0.97656 -0.0732,-0.41504 -0.0732,-0.53711 l -0.58594,-1.14746 0,-0.56153 0,-0.58593 0.29297,-0.61036 q 0,-0.0977 0.0488,-0.26855 0.0488,-0.19531 0.0977,-0.39062 l 0.14649,-0.48829 0,-0.85449 0,-1.14746 q 0,-0.0977 -0.0488,-0.51269 -0.0488,-0.43946 -0.0977,-0.92774 -0.0488,-0.48828 -0.0977,-0.90332 -0.0488,-0.43945 -0.0488,-0.56152 l 0,-3.73535 q 0,-0.34179 -0.0488,-1.02539 -0.0488,-0.70801 -0.0977,-1.46484 -0.0488,-0.78125 -0.0976,-1.46484 -0.0488,-0.6836 -0.0488,-1.00098 0,-0.0977 -0.0488,-0.39062 -0.0488,-0.29297 -0.12207,-0.61036 -0.0488,-0.34179 -0.0977,-0.61035 -0.0488,-0.29297 -0.0488,-0.39062 0.0976,-0.24414 0.19531,-0.48828 0.0976,-0.19531 0.19531,-0.39063 0.0977,-0.19531 0.21973,-0.31738 l 0.29297,-0.24414 q 0.0976,0 0.34179,-0.0977 0.24414,-0.0977 0.5127,-0.19531 0.29297,-0.12207 0.53711,-0.21973 0.24414,-0.0976 0.36621,-0.0976 l 0.85449,0 0.58594,0 1.14746,1.14746 0.31738,0.61035 0.58594,0.29297 0.24414,0 0.31738,0 q 0.0976,0 0.39062,-0.0732 0.29297,-0.0977 0.61035,-0.19532 0.3418,-0.12207 0.63477,-0.21972 0.29297,-0.0977 0.41504,-0.0977 0.0976,0 0.29297,-0.0488 0.21972,-0.0488 0.43945,-0.0977 0.21973,-0.0733 0.41504,-0.12207 0.19531,-0.0488 0.29297,-0.0488 0.34179,0 0.92773,-0.0488 0.61035,-0.0488 1.2207,-0.0977 0.61035,-0.0488 1.07422,-0.0976 0.48828,-0.0488 0.58594,-0.0488 0.0976,0 0.43945,0.0488 0.36621,0.0488 0.75684,0.0976 0.41504,0.0488 0.80566,0.0977 0.41504,0.0488 0.63477,0.0488 0.24414,0 0.58593,0.1709 0.341803,0.14648 0.561533,0.14648 l 0.61035,0.29297 q 0.12207,0.12207 0.29297,0.26855 0.19531,0.14649 0.39062,0.26856 0.21973,0.14648 0.46387,0.31738 0,0.12207 0.0976,0.26856 0.0977,0.14648 0.19532,0.31738 0.12207,0.14648 0.21972,0.29297 0.0977,0.14648 0.0977,0.26855 l 0,1.14746 0,1.19629 q -0.1709,0.48828 -0.3418,0.92773 -0.14648,0.39063 -0.29297,0.78125 -0.14648,0.36621 -0.26855,0.58594 l -0.24414,0.61035 q -0.24414,0.3418 -0.53711,0.83008 -0.29297,0.46387 -0.56152,0.92773 l -0.659183,1.09864 q 0,0.12207 -0.39063,0.61035 -0.36621,0.46386 -0.90332,1.09863 -0.51269,0.61035 -1.07422,1.24512 -0.5371,0.63476 -0.8789,1.07421 l -0.24414,0.31739 -1.51367,1.14746 q -0.12207,0 -0.36621,0.21972 -0.21973,0.21973 -0.5127,0.5127 -0.26855,0.26855 -0.51269,0.48828 -0.24414,0.21972 -0.36621,0.21972 -0.1709,0.19532 -0.31739,0.31739 -0.12207,0.12207 -0.26855,0.21972 -0.12207,0.0733 -0.24414,0.0733 -0.0732,0.0732 -0.39063,0.26855 -0.31738,0.1709 -0.75683,0.41504 -0.41504,0.21973 -0.90332,0.48828 -0.48828,0.24414 -0.92774,0.48828 -0.43945,0.21973 -0.75683,0.41504 -0.29297,0.1709 -0.36621,0.21973 l -0.31738,0.29297 0,0.85449 q 0,1.53808 0.34179,3.19824 0.3418,1.66015 0.56153,3.19824 0,0.12207 0.0244,0.41504 0.0488,0.29296 0.0977,0.61035 0.0488,0.31738 0.0732,0.58593 0.0488,0.29297 0.0488,0.39063 0,0.12207 0.0488,0.36621 0.0488,0.24414 0.0977,0.51269 0.0732,0.26856 0.12207,0.5127 0.0488,0.26855 0.0488,0.36621 l 0.29297,1.14746 0,0.61035 0,0.53711 q -0.0977,0.19531 -0.19532,0.31738 -0.0976,0.12207 -0.19531,0.19532 -0.0976,0.0977 -0.21972,0.0977 l -0.53711,0.29297 -0.90332,0.85449 -0.53711,0.29297 -0.61035,0 -0.61035,0 -0.53711,-0.61035 q -0.12207,-0.19531 -0.31739,-0.53711 -0.19531,-0.3418 -0.39062,-0.70801 -0.19531,-0.34179 -0.3418,-0.63476 -0.14648,-0.29297 -0.14648,-0.41504 z m 11.08398,-29.541 q -1.09864,0 -2.02637,0.19531 -0.92773,0.1709 -2.07519,0.39063 -0.0977,0 -0.24414,0.0732 -0.14649,0.0488 -0.26856,0.0977 -0.14648,0.0732 -0.31738,0.14648 -0.12207,0 -0.3418,0.14649 -0.19531,0.12207 -0.41504,0.29296 -0.21972,0.14649 -0.41504,0.29297 -0.19531,0.12207 -0.29296,0.12207 -0.12207,0.12207 -0.36622,0.36621 -0.21972,0.21973 -0.48828,0.46387 -0.29296,0.26856 -0.63476,0.61035 l 0,9.25293 0.29297,0.29296 0.29297,0 0.61035,0 0.53711,-0.29296 q 0.34179,-0.21973 0.90332,-0.58594 0.56152,-0.39063 1.09863,-0.75684 0.56152,-0.39062 1.00097,-0.65918 0.43946,-0.29296 0.56153,-0.29296 0.0976,-0.12207 0.39062,-0.41504 0.29297,-0.29297 0.63477,-0.63477 0.36621,-0.36621 0.708,-0.70801 0.36621,-0.34179 0.56153,-0.56152 0.24414,-0.3418 0.48828,-0.61035 0.19531,-0.24414 0.39062,-0.46387 0.19532,-0.24414 0.31739,-0.36621 l 0.56152,-0.90332 0.58594,-1.14746 q 0,-0.0977 0.14648,-0.29297 0.14648,-0.19531 0.29297,-0.41503 0.1709,-0.21973 0.31738,-0.41504 0.14649,-0.19532 0.14649,-0.31739 l 0.24414,-0.56152 0,-0.58594 0,-0.31738 -0.24414,-0.53711 q -0.21973,-0.24414 -0.43946,-0.41504 -0.21972,-0.19531 -0.46386,-0.19531 -0.12207,0 -0.31739,-0.0488 -0.1709,-0.0488 -0.36621,-0.0976 -0.21972,-0.0733 -0.46386,-0.14649 l -0.90332,0 z" />
      <path
         d="m 354.73713,910.34821 0.0204,-0.31751 c 0.005,-0.0813 0.15631,-0.22757 0.45448,-0.4371 0.26147,-0.19535 0.56166,-0.4129 0.89936,-0.65063 0.33689,-0.2217 0.65651,-0.43538 0.9588,-0.64147 0.26552,-0.19254 0.40141,-0.32061 0.40671,-0.38577 0.11601,-0.10543 0.23229,-0.21072 0.34882,-0.31586 0.0794,-0.0918 0.15904,-0.18348 0.23885,-0.27512 0.0797,-0.0916 0.12307,-0.17804 0.13004,-0.25929 0.25569,-0.46159 0.51332,-0.9225 0.77291,-1.3827 0.007,-0.0811 0.0919,-0.21306 0.25438,-0.39501 0.12636,-0.18517 0.29075,-0.38333 0.4935,-0.59387 0.16497,-0.19769 0.32981,-0.38697 0.49446,-0.56784 0.12816,-0.18439 0.19568,-0.30875 0.20211,-0.37372 0.008,-0.0811 0.0549,-0.18309 0.14086,-0.30576 0.0844,-0.10647 0.16974,-0.22096 0.2562,-0.34347 0.12455,-0.13514 0.25028,-0.27822 0.37725,-0.42922 l 0.18135,-1.75105 0.1486,-1.43489 c 0.008,-0.081 -0.0148,-0.22276 -0.07,-0.42489 -0.0552,-0.20215 -0.12794,-0.42252 -0.21849,-0.66083 -0.13003,-0.22589 -0.2615,-0.44352 -0.39434,-0.65288 -0.17089,-0.21304 -0.34895,-0.36092 -0.53343,-0.44355 0.008,-0.0811 -0.038,-0.20828 -0.13752,-0.38112 -0.13784,-0.17637 -0.29456,-0.36252 -0.47034,-0.55814 -0.21425,-0.19907 -0.41016,-0.396 -0.58756,-0.59106 -0.21728,-0.18205 -0.4203,-0.31333 -0.60819,-0.39394 0.007,-0.0813 -0.044,-0.17541 -0.15227,-0.2822 -0.14708,-0.10989 -0.31444,-0.21301 -0.5021,-0.30916 -0.18635,-0.11234 -0.43101,-0.23718 -0.73384,-0.3734 -0.14891,-0.092 -0.39488,-0.23314 -0.73396,-0.41907 -0.38021,-0.17281 -0.77936,-0.37003 -1.19838,-0.59142 -0.4595,-0.20761 -0.88088,-0.40241 -1.2657,-0.58628 -0.37173,-0.17762 -0.66745,-0.31718 -0.8091,-0.38394 -0.3885,-0.13306 -0.77784,-0.26486 -1.16799,-0.39541 -0.3119,-0.11098 -0.60446,-0.22029 -0.87785,-0.32832 -0.31304,-0.10952 -0.54736,-0.20707 -0.70332,-0.29391 -1.10034,-0.31375 -2.16944,-0.51863 -3.2012,-0.61691 -1.0322,-0.082 -2.10407,-0.19725 -3.21765,-0.3444 -0.69593,-0.098 -1.39258,-0.19257 -2.08979,-0.28367 -0.50631,0.005 -1.01242,0.0114 -1.5183,0.0197 -0.18985,0.003 -0.37968,0.006 -0.5695,0.01 -0.73534,0.0137 -1.47049,0.0308 -2.20544,0.0514 -0.50998,0.0143 -1.37633,0.0643 -2.55875,0.15846 -1.188,0.11101 -2.43458,0.23301 -3.73838,0.36819 -1.3394,0.15322 -2.60802,0.30586 -3.78664,0.45167 -1.18951,0.14719 -2.02111,0.2437 -2.54232,0.28445 -1.36208,0.384 -2.89534,0.77517 -4.60433,1.18313 -1.74623,0.41121 -3.31004,0.85488 -4.6852,1.31942 -0.68548,0.25673 -1.36952,0.51585 -2.05216,0.77727 -0.20256,0.1306 -0.40489,0.26141 -0.60698,0.39242 -1.01938,0.41848 -2.13354,0.84561 -3.34286,1.28457 -1.24515,0.45989 -2.35259,0.90994 -3.31895,1.34368 -0.18305,0.10862 -0.53304,0.28151 -1.05254,0.52214 -0.51888,0.24035 -1.05513,0.49278 -1.60853,0.7575 -0.58979,0.28674 -1.143,0.54478 -1.66113,0.77398 -0.51489,0.24497 -0.86329,0.42449 -1.04279,0.53525 -0.62366,0.30535 -1.24615,0.61231 -1.86753,0.92084 -0.33585,0.12121 -0.71881,0.31674 -1.14788,0.58689 -0.42641,0.2862 -0.83148,0.57795 -1.21522,0.87498 -0.38089,0.31299 -0.72572,0.60421 -1.03411,0.87276 -0.30859,0.26871 -0.5524,0.45205 -0.73255,0.54996 -0.14168,0.0911 -0.31326,0.23723 -0.51431,0.43833 -0.20098,0.20111 -0.38114,0.407 -0.54053,0.61757 -0.19468,0.2334 -0.35527,0.4362 -0.48178,0.60795 -0.12372,0.18784 -0.17821,0.32191 -0.16371,0.40204 l 0.16102,0.88959 0.15231,0.84151 c 0.0116,0.0642 0.10352,0.13853 0.27557,0.22333 0.17204,0.0848 0.3614,0.15831 0.56807,0.22057 0.17177,0.085 0.34192,0.1622 0.51045,0.23145 0.13368,0.092 0.20758,0.17817 0.22181,0.25835 0.38655,0.0885 0.77266,0.1775 1.15831,0.26708 0.32478,0.0754 0.64783,0.14325 0.9692,0.20343 0.32081,0.0755 0.59049,0.13935 0.78942,0.18662 0.20233,0.0481 0.46223,0.0946 0.77998,0.14004 0.28,0.0518 0.57724,0.0927 0.89175,0.12279 0.35475,0.0399 0.72957,0.0852 1.12387,0.13608 0.22561,-0.037 0.45119,-0.0737 0.67675,-0.1103 0.41352,-0.067 0.82696,-0.13331 1.24033,-0.19887 0.4418,-0.25145 0.8842,-0.50205 1.32723,-0.75177 0.17993,-0.33265 0.36043,-0.66515 0.54149,-0.9975 l -0.57169,-3.76724 c 0.39565,-0.34851 0.79234,-0.69633 1.1901,-1.04343 0.21499,-0.13067 0.43017,-0.26113 0.64554,-0.39139 0.85764,-0.41348 1.71749,-0.82362 2.57967,-1.23026 0.19174,-0.0265 0.43199,-0.12522 0.72146,-0.29594 0.29168,-0.15459 0.59951,-0.33554 0.92391,-0.54277 0.32636,-0.19098 0.63559,-0.37114 0.92646,-0.54001 0.29312,-0.15282 0.5362,-0.24129 0.7286,-0.26573 0.18147,-0.0877 0.61334,-0.27571 1.28044,-0.55346 0.63058,-0.27383 1.34006,-0.57238 2.12426,-0.89181 0.78696,-0.30362 1.55722,-0.59372 2.31071,-0.87071 0.75283,-0.25998 1.30728,-0.44009 1.64721,-0.53939 0.4166,-0.1402 0.83367,-0.27947 1.25122,-0.4178 0.52765,-0.1314 1.2517,-0.30834 2.12614,-0.51524 0.84494,-0.18913 1.69027,-0.38239 2.5364,-0.57969 0.84689,-0.18097 1.6199,-0.33583 2.31531,-0.46591 0.69444,-0.1299 1.14352,-0.19971 1.33697,-0.21222 0.19588,-0.0127 0.52457,-0.05 0.99161,-0.11101 0.46661,-0.0609 0.9707,-0.13089 1.515,-0.20952 0.54477,-0.0623 1.08979,-0.12281 1.63507,-0.18153 0.54488,-0.0586 0.9944,-0.0947 1.34564,-0.1095 0.72287,-0.0306 1.44582,-0.0579 2.16884,-0.0818 0.66439,-0.022 1.32884,-0.0412 1.99334,-0.0575 0.19506,-0.005 0.48941,0.004 0.88056,0.0289 0.3517,0.022 0.7332,0.044 1.14752,0.0668 0,0 0,0 0,0 0.0475,0.003 0.0954,0.005 0.14375,0.008 0.43043,0.0429 0.84086,0.0791 1.23167,0.10842 0.39134,0.0293 0.66351,0.0442 0.82025,0.0435 0.1952,-9.1e-4 0.4101,0.0228 0.64439,0.0712 0.23424,0.0485 0.48804,0.10548 0.7609,0.17122 0.23395,0.0657 0.48712,0.12361 0.75963,0.17401 0.23358,0.0502 0.42805,0.0761 0.58386,0.0774 0.38824,0.1663 0.75606,0.33359 1.10348,0.50152 0.30903,0.13478 0.61751,0.26212 0.92554,0.38205 0.26903,0.13554 0.49912,0.23821 0.69124,0.30776 0.19146,0.0857 0.44048,0.21409 0.74491,0.38511 0.26623,0.17026 0.55022,0.34937 0.85277,0.53831 0.34024,0.20623 0.69831,0.43047 1.07304,0.67266 0.18912,0.0722 0.41441,0.20321 0.67463,0.39325 0.22142,0.20487 0.44168,0.41829 0.66066,0.64025 0.18018,0.23654 0.34139,0.45638 0.48374,0.65902 0.14241,0.20263 0.2117,0.33685 0.20856,0.40197 l -0.0577,1.19807 -0.0553,1.14917 c -0.003,0.0653 -0.0475,0.21005 -0.13265,0.4348 -0.0851,0.2247 -0.17086,0.46575 -0.25707,0.72317 -0.0861,0.25742 -0.17072,0.49045 -0.25411,0.69907 -0.0839,0.22487 -0.12753,0.37829 -0.13113,0.45973 -0.2697,0.26567 -0.50071,0.50939 -0.69315,0.73013 -0.1912,0.1882 -0.36325,0.36934 -0.51625,0.54314 -0.15365,0.19008 -0.23137,0.31801 -0.23372,0.38317 -0.15446,0.22312 -0.3645,0.49276 -0.6298,0.81052 -0.30159,0.31636 -0.60175,0.63341 -0.90053,0.95109 -0.33635,0.36556 -0.70733,0.739 -1.11237,1.12084 -0.001,0.0653 -0.0937,0.16089 -0.27638,0.28721 -0.21903,0.14183 -0.45551,0.27542 -0.70949,0.40093 -0.29022,0.14111 -0.57983,0.27462 -0.86899,0.40053 -0.28556,0.12434 -0.5273,0.2303 -0.70407,0.30795 -0.43208,0.0923 -0.864,0.18586 -1.29575,0.28054 -0.35974,-0.003 -0.75586,0.0361 -1.18772,0.11656 -0.21591,0.0484 -0.44972,0.0969 -0.70157,0.14594 -0.45862,2e-4 -0.91775,0.002 -1.37737,0.004 -0.39013,0.005 -0.78044,0.0114 -1.17092,0.0188 -0.85162,0.0162 -1.70406,0.0379 -2.55731,0.0648 -0.1819,0.006 -0.45406,-0.002 -0.81899,-0.0213 -0.36402,-0.003 -0.74697,-0.0214 -1.14927,-0.0538 -0.43858,-0.0146 -0.82119,-0.0301 -1.15118,-0.0475 -0.36447,6.4e-4 -0.63952,0.006 -0.82117,0.0152 -0.22368,-0.0865 -0.44769,-0.17266 -0.67202,-0.25847 l -0.0615,-1.14499 -0.0641,-1.19371 c 0.21126,-0.19854 0.42301,-0.39678 0.63526,-0.59473 0.1809,-0.0906 0.44905,-0.27467 0.80721,-0.552 0.32148,-0.25905 0.69892,-0.54486 1.13195,-0.85564 0.39604,-0.30935 0.77582,-0.60077 1.13861,-0.87424 0.3627,-0.27342 0.63741,-0.44537 0.82163,-0.51635 0.17707,-0.29055 0.35483,-0.58089 0.53327,-0.87103 l -0.0279,-0.90254 -0.0173,-0.56103 c -0.19448,-0.18953 -0.38947,-0.37878 -0.58496,-0.56777 -0.47922,-0.18792 -0.95978,-0.37425 -1.44166,-0.55902 -0.19275,-0.0739 -0.40435,-0.13871 -0.63477,-0.19425 -0.23038,-0.0555 -0.44179,-0.10335 -0.63383,-0.14369 -0.23081,-0.0549 -0.48009,-0.0924 -0.74772,-0.11218 -0.22805,0.0109 -0.45613,0.022 -0.68421,0.0336 -0.47518,0.024 -0.95042,0.0495 -1.42573,0.0763 -0.34149,0.0193 -0.85402,0.0897 -1.53253,0.2138 -0.33994,0.054 -0.71774,0.11924 -1.13237,0.19619 -0.40435,0.23111 -0.80773,0.46322 -1.21017,0.69632 -0.2134,0.2112 -0.4263,0.42268 -0.6387,0.63443 0.005,0.065 -0.0581,0.24079 -0.18824,0.52807 -0.12891,0.30346 -0.25601,0.62322 -0.38121,0.95928 -0.16145,0.35482 -0.30646,0.67713 -0.43429,0.96437 -0.12804,0.28759 -0.18847,0.47219 -0.18193,0.55316 0.005,0.065 -0.11275,0.23746 -0.35302,0.5185 -0.27779,0.28428 -0.58957,0.5959 -0.93582,0.9363 -0.34602,0.34019 -0.67301,0.67151 -0.981,0.99349 -0.33761,0.31826 -0.61055,0.57729 -0.77476,0.73336 -0.39836,0.33982 -0.79541,0.68058 -1.19119,1.02228 -0.20435,0.2001 -0.40829,0.40045 -0.61185,0.60104 0.008,0.0809 -0.0198,0.1737 -0.0836,0.27835 -0.0639,0.10465 -0.12779,0.20933 -0.19169,0.31404 -0.0989,0.12468 -0.2162,0.25131 -0.35178,0.37999 l 0.11803,1.14084 0.0929,0.8981 c 0.25673,0.16123 0.51291,0.32283 0.76853,0.4848 0.19038,0.0624 0.39873,0.12304 0.62507,0.18222 0.2279,0.0754 0.43734,0.15285 0.62834,0.23231 0.22733,0.0759 0.47418,0.1666 0.74013,0.27214 0.51357,0.0168 0.97265,0.0403 1.37635,0.0696 0.36626,0.0163 0.73287,0.0416 1.09971,0.0759 0.33058,0.0373 0.58883,0.0815 0.77441,0.13154 0.69763,0.0901 1.46121,0.12869 2.29221,0.11804 0.83082,-0.0107 1.59188,0.0371 2.28208,0.14122 0.67321,-0.0415 1.56618,-0.11027 2.84423,-0.20539 1.20553,-0.0906 2.59676,-0.18879 4.11905,-0.28038 0.9853,-0.0493 2.01124,-0.096 3.07136,-0.13771 0.54643,-0.0167 1.10336,-0.0328 1.66865,-0.0479 1.66235,-0.0445 3.23983,-0.0731 4.74619,-0.0878 1.4698,8.6e-4 2.80702,0.0137 4.0197,0.033 1.17147,0.0177 2.07737,0.0508 2.68906,0.0862 0.60021,0.0348 1.1986,0.0726 1.79506,0.11372 0.42605,0.0293 0.85112,0.0603 1.27517,0.093 0.30038,0.0231 0.83444,0.0813 1.56822,0.17808 0.73753,0.0973 1.50792,0.20327 2.30399,0.31901 0.82994,0.11923 1.58942,0.23894 2.27761,0.3557 0.731,0.12242 1.20101,0.20141 1.47253,0.23788 0.39559,0.15169 0.78894,0.30518 1.17998,0.46049 0.35707,0.0517 0.71314,0.10506 1.0682,0.15997 0.2098,0.0324 0.41925,0.0654 0.62833,0.099 0.23596,-0.028 0.47189,-0.0553 0.7078,-0.0818 0.20381,-0.0319 0.39154,-0.0659 0.56338,-0.10225 0.20102,-0.0149 0.38882,-0.0479 0.5637,-0.0994 0.1909,-0.0486 0.38193,-0.0967 0.57309,-0.14431 0.17516,-0.0505 0.33599,-0.11153 0.48258,-0.18322 0.1786,-0.0657 0.32539,-0.13691 0.44039,-0.21413 0.15022,-0.087 0.28463,-0.17676 0.40321,-0.26947 l 0.16831,-0.83622 0.12023,-0.5973 c -0.075,-0.13059 -0.16992,-0.24838 -0.28481,-0.35324 -0.0821,-0.0985 -0.19883,-0.19535 -0.3504,-0.29007 -0.12189,-0.0726 -0.26509,-0.12422 -0.42942,-0.15449 -0.35992,-0.16544 -0.72191,-0.32918 -1.08594,-0.49124 -0.16576,-0.0287 -0.34538,-0.0759 -0.53933,-0.14149 -0.19392,-0.0656 -0.38829,-0.13066 -0.58309,-0.19533 -0.2255,-0.0861 -0.453,-0.1635 -0.68237,-0.2323 -0.13573,-0.0212 -0.39803,-0.0785 -0.79825,-0.17123 -0.36488,-0.0873 -0.76526,-0.17817 -1.20035,-0.2714 -0.4347,-0.0931 -0.85594,-0.18218 -1.25951,-0.26683 -0.40325,-0.0845 -0.69369,-0.13646 -0.86352,-0.15709 -0.32086,-0.039 -0.85647,-0.11973 -1.69157,-0.24369 -0.8221,-0.12203 -1.68266,-0.24066 -2.58287,-0.3545 -0.93129,-0.11651 -1.80873,-0.21959 -2.60872,-0.3105 -0.83172,-0.093 -1.42605,-0.14688 -1.736,-0.16615 0,0 -1.3e-4,10e-5 -1.3e-4,10e-5 z"
         style="font-style:normal;font-variant:normal;font-weight:normal;font-stretch:normal;font-size:49.99996948px;line-height:125%;font-family:'Buxton Sketch';-inkscape-font-specification:'Buxton Sketch, Normal';text-align:start;writing-mode:lr-tb;text-anchor:start"
         id="path5125"
         inkscape:connector-curvature="0"
         inkscape:original-d="m -74.931467,951.05593 -0.31738,0 q -0.12207,0 -0.46387,0.19531 -0.31738,0.1709 -0.708,0.39062 -0.36621,0.21973 -0.70801,0.41504 -0.31738,0.1709 -0.41504,0.1709 -0.1709,0.0732 -0.3418,0.14648 -0.14648,0.0488 -0.29297,0.0977 -0.14648,0.0488 -0.26855,0.0488 l -1.44043,0.29297 q -0.12207,0 -0.41504,0.0977 -0.29297,0.0733 -0.63476,0.19532 -0.31739,0.0976 -0.61035,0.19531 -0.29297,0.0732 -0.39063,0.0732 -0.12207,0 -0.31738,0.0488 -0.1709,0.0488 -0.36621,0.0977 -0.21973,0.0732 -0.46387,0.14649 l -1.75781,0 -1.44043,0 q -0.12207,0 -0.41504,-0.0488 -0.29297,-0.0488 -0.63476,-0.12207 -0.31739,-0.0977 -0.61035,-0.19531 -0.29297,-0.12207 -0.39063,-0.24414 -0.12207,0 -0.36621,-0.0732 -0.24414,-0.0977 -0.51269,-0.21973 -0.26856,-0.14649 -0.53711,-0.26856 -0.24414,-0.14648 -0.3418,-0.26855 -0.12207,0 -0.26855,-0.0732 -0.14649,-0.0977 -0.26856,-0.21973 -0.14648,-0.12207 -0.31738,-0.31738 -0.12207,-0.0977 -0.36621,-0.31738 -0.21973,-0.24414 -0.5127,-0.5127 -0.26855,-0.29297 -0.51269,-0.53711 -0.24414,-0.24414 -0.3418,-0.34179 -0.1709,-0.24415 -0.3418,-0.48829 -0.14648,-0.19531 -0.29296,-0.36621 -0.14649,-0.19531 -0.26856,-0.29297 -0.41504,-0.68359 -0.53711,-1.31835 -0.0976,-0.63477 -0.31738,-1.31836 l -0.29297,-0.85449 0,-0.8545 0,-0.90332 q 0,-0.31738 0.0732,-1.0498 0.0977,-0.73242 0.19532,-1.53808 0.12207,-0.83008 0.21972,-1.5625 0.0977,-0.73242 0.0977,-1.04981 0.41504,-0.85449 0.78125,-1.92871 0.36621,-1.09863 0.83007,-1.97753 l 0.53711,-0.87891 0.31739,-0.26856 q 0.43945,-0.65917 0.85449,-1.44042 0.43945,-0.80567 0.8789,-1.44043 0.12207,-0.12207 0.36621,-0.46387 0.24415,-0.3418 0.5127,-0.70801 0.29297,-0.39062 0.51269,-0.73242 0.24415,-0.3418 0.36622,-0.46387 l 0.61035,-0.83007 q 0.0976,-0.21973 0.39062,-0.5127 0.31738,-0.29297 0.65918,-0.56152 0.36621,-0.26856 0.68359,-0.48828 0.31739,-0.21973 0.41504,-0.3418 0.0977,-0.0976 0.3418,-0.24414 0.24414,-0.14648 0.51269,-0.26855 0.29297,-0.14649 0.5127,-0.24414 0.24414,-0.0977 0.36621,-0.0977 l 0.90332,0 0.85449,0 q 0.0977,0 0.26856,0.0977 0.17089,0.0977 0.31738,0.21972 0.1709,0.0977 0.31738,0.19531 0.1709,0.0733 0.29297,0.0733 l 0.46387,0.46386 q 0.19531,0.19532 0.36621,0.39063 0.19531,0.19531 0.31738,0.31738 0.12207,0.12207 0.26855,0.31738 0.14649,0.1709 0.26856,0.36621 0.14648,0.21973 0.31738,0.46387 l 0,0.29297 0,0.53711 -0.53711,0.61035 -0.90332,0.29297 -3.80859,0 -0.85449,0.56152 -0.29297,0.29297 -0.85449,1.14746 q 0,0.12207 -0.19531,0.31738 -0.1709,0.19532 -0.41504,0.41504 -0.21973,0.21973 -0.41504,0.41504 -0.1709,0.19531 -0.1709,0.31738 -0.0976,0.12207 -0.39062,0.56153 -0.29297,0.41504 -0.63477,0.92773 -0.31738,0.5127 -0.61035,1.00098 -0.26855,0.48828 -0.36621,0.708 l -0.29297,0.53711 q -0.12207,0.3418 -0.31738,0.90332 -0.1709,0.53711 -0.36621,1.07422 -0.1709,0.53711 -0.29297,0.97656 -0.12207,0.43946 -0.12207,0.56153 0,0.12207 -0.0488,0.41503 -0.0488,0.29297 -0.12207,0.63477 -0.0488,0.3418 -0.0977,0.68359 -0.0488,0.3418 -0.0488,0.56153 l 0,0.90332 0,0.83007 q 0,0.12207 0.0488,0.36621 0.0488,0.24414 0.0977,0.53711 0.0732,0.26856 0.12207,0.5127 0.0488,0.24414 0.0488,0.34179 0,0.12208 0.0732,0.26856 0.0732,0.14648 0.1709,0.31738 0.0977,0.14649 0.1709,0.31738 0.0732,0.14649 0.0732,0.24414 0.24414,0.24415 0.48828,0.46387 0.19531,0.19531 0.36621,0.39063 0.19531,0.17089 0.29297,0.29297 0.12207,0.12207 0.36621,0.31738 0.24414,0.1709 0.5127,0.36621 0.29296,0.21972 0.63476,0.46387 0.0977,0.12207 0.36621,0.29296 0.29297,0.14649 0.61035,0.29297 0.3418,0.12207 0.63477,0.21973 0.29297,0.0977 0.39062,0.0977 l 1.19629,0 1.14746,0 q 0.0977,0 0.43945,-0.0488 0.3418,-0.0488 0.73243,-0.0977 0.39062,-0.0488 0.708,-0.0977 0.3418,-0.0488 0.46387,-0.0488 0.41504,-0.1709 0.75684,-0.29297 0.29296,-0.12207 0.56152,-0.21973 0.29297,-0.0977 0.39062,-0.0977 0.3418,-0.0977 0.83008,-0.26856 0.48828,-0.19531 0.97656,-0.39062 0.56153,-0.21973 1.14746,-0.48828 0.0977,0 0.29297,-0.12208 0.21973,-0.14648 0.41504,-0.31738 0.21973,-0.19531 0.41504,-0.39062 0.19531,-0.19531 0.31738,-0.31739 l 0.29297,-0.58593 q 0,-0.24414 0.12207,-0.53711 0.0732,-0.14649 0.14648,-0.31738 l 0,-1.14746 0,-1.14746 q 0,-0.12207 -0.0488,-0.36621 -0.0244,-0.24415 -0.0977,-0.5127 -0.0488,-0.29297 -0.0977,-0.51269 -0.0244,-0.24415 -0.0244,-0.36622 l -0.29297,-0.29296 -1.14746,0 -1.19629,0 -0.56152,0.29296 q -0.12207,0.12207 -0.51269,0.36622 -0.36622,0.21972 -0.80567,0.51269 -0.43945,0.26855 -0.83008,0.5127 -0.39062,0.24414 -0.48828,0.36621 l -0.85449,0.24414 -0.90332,0 -0.56152,0 -0.58594,-0.24414 -0.61035,-0.61036 q -0.12207,-0.12207 -0.21973,-0.26855 -0.0976,-0.14648 -0.17089,-0.26855 -0.0977,-0.14649 -0.14649,-0.31739 l 0,-0.29297 0,-0.61035 q 0,-0.21972 0.12207,-0.65918 0.0488,-0.21972 0.12207,-0.48828 l 0.61035,-0.53711 0.58594,-0.29296 q 0.0977,0 0.51269,-0.0977 0.43946,-0.0977 0.92774,-0.19531 0.51269,-0.12207 0.92773,-0.21973 0.41504,-0.0977 0.53711,-0.0977 0.0977,0 0.48828,-0.17089 0.39063,-0.19532 0.85449,-0.43946 0.46387,-0.24414 0.90332,-0.46386 0.43946,-0.24414 0.65918,-0.36621 l 0.90332,-0.56153 0.53711,-0.29297 q 0.12207,0 0.26856,-0.0488 0.14648,-0.0488 0.29297,-0.0977 0.17089,-0.0732 0.34179,-0.1709 l 1.14746,0 0.90332,0 0.56152,0.31738 q 0.12208,0.12207 0.24415,0.26856 0.14648,0.14648 0.29296,0.26855 0.14649,0.14649 0.3418,0.31739 0.0977,0.34179 0.19531,0.61035 0.0732,0.24414 0.1709,0.48828 0.0977,0.21972 0.19531,0.34179 0.21973,0.46387 0.29297,1.02539 0.0732,0.56153 0.29297,1.02539 0,0.43946 -0.0488,1.29395 -0.0488,0.83008 -0.12207,1.87988 -0.0488,1.02539 -0.12207,2.17285 -0.0732,1.14746 -0.14648,2.19726 -0.0488,1.02539 -0.0977,1.87989 -0.0488,0.83007 -0.0488,1.26953 l 0,0.85449 0,0.61035 q 0,0.21973 0.0488,0.75684 0.0488,0.5371 0.0977,1.12304 0.0488,0.61035 0.0976,1.12305 0.0488,0.53711 0.0488,0.73242 l 0.29297,0.61035 0,0.53711 0,0.31738 -0.19531,0.3418 q -0.0977,0.14648 -0.19531,0.26855 -0.0733,0.14649 -0.19532,0.26856 l -0.24414,0.26855 q -0.12207,0.12207 -0.26855,0.21973 -0.14649,0.12207 -0.29297,0.19531 -0.1709,0.0977 -0.3418,0.1709 l -0.85449,0 -0.61035,0 q -0.1709,-0.0732 -0.29297,-0.1709 -0.12207,-0.0732 -0.21972,-0.19531 -0.0733,-0.0977 -0.0733,-0.21973 l -0.29297,-0.56152 q 0,-0.12207 -0.0488,-0.26856 -0.0488,-0.14648 -0.0977,-0.29296 -0.0732,-0.1709 -0.12207,-0.3418 0,-0.0977 -0.0488,-0.39063 -0.0488,-0.26855 -0.0976,-0.58593 -0.0488,-0.31739 -0.0977,-0.61035 -0.0488,-0.29297 -0.0488,-0.41504 0,-0.21973 -0.0488,-0.80567 -0.0488,-0.58593 -0.0976,-1.2207 -0.0488,-0.65918 -0.0977,-1.2207 -0.0488,-0.58594 -0.0488,-0.80566 z" />
      <path
         d="m 359.02785,921.64973 c -0.27689,-0.10738 -0.71736,-0.25558 -1.31531,-0.43661 -0.63211,-0.18435 -1.3016,-0.36759 -2.00943,-0.54864 -0.70762,-0.18099 -1.39022,-0.33908 -2.04426,-0.47522 -0.65333,-0.13598 -1.13494,-0.20967 -1.43301,-0.22457 -0.21612,-0.0108 -0.43252,-0.0212 -0.64921,-0.0313 -0.40005,-0.0186 -0.80107,-0.0359 -1.20302,-0.052 -0.16742,-0.007 -0.38608,0.001 -0.6557,0.0238 -0.30326,0.0215 -0.60686,0.0437 -0.91077,0.0666 -0.30384,0.0228 -0.59141,0.0469 -0.86209,0.072 -0.2709,0.025 -0.47373,0.0361 -0.60912,0.0326 -0.13683,-0.003 -0.43775,-0.0274 -0.91364,-0.0702 -0.47445,-0.0427 -0.98446,-0.0847 -1.53011,-0.12546 -0.54732,-0.0408 -1.04034,-0.0787 -1.48785,-0.1154 -0.47919,-0.0368 -0.8083,-0.0548 -0.97921,-0.0557 -0.27249,-0.001 -0.80172,-0.0192 -1.62704,-0.0495 0,0 0,0 0,0 0.003,8e-5 -0.0844,-0.002 -0.0811,-0.002 -0.90054,-0.0216 -1.87902,-0.0439 -2.92388,-0.0637 -1.04576,-0.004 -2.06142,5.9e-4 -3.04215,0.0104 -0.97525,0.01 -1.70804,0.0317 -2.15804,0.0559 -0.87752,0.0472 -1.75645,0.10003 -2.63678,0.1583 -0.14544,0.01 -0.52478,0.0184 -1.16632,0.0314 -0.63701,0.013 -1.31073,0.0312 -2.02054,0.0556 -0.6767,0.0233 -1.40121,0.0492 -1.97368,0.0691 -0.60278,0.0211 -0.98314,0.0404 -1.12223,0.0534 -0.83458,0.078 -1.67033,0.16053 -2.50726,0.24728 -0.19005,0.0197 -0.70186,0.0562 -1.60928,0.1228 -0.93116,0.0696 -1.9179,0.15026 -2.96011,0.24345 -1.07078,0.0969 -2.07633,0.19152 -2.97147,0.2765 -0.89439,0.085 -1.45311,0.14517 -1.62486,0.16867 -0.34833,0.0477 -1.07578,0.13082 -2.33154,0.2786 -1.26781,0.15017 -2.62833,0.32128 -4.08322,0.51633 -1.44807,0.19419 -2.81096,0.38368 -4.047,0.55843 -1.26446,0.17978 -2.09953,0.30879 -2.41297,0.3634 -0.87536,0.045 -1.75243,0.0931 -2.63114,0.14417 -0.89651,0.16183 -1.79407,0.3267 -2.69268,0.49444 -0.1469,0.0274 -0.40939,0.0433 -0.78865,0.0484 -0.37966,0.005 -0.79651,0.01 -1.2535,0.0139 -0.45358,0.0202 -0.87048,0.0342 -1.25122,0.0415 -0.37736,0.0233 -0.6403,0.0496 -0.78752,0.0783 -0.68165,0.13293 -1.36387,0.26735 -2.04664,0.40319 -0.40597,0.0808 -0.81214,0.16204 -1.2185,0.24379 -1.21137,0.84995 -2.42022,1.70395 -3.62716,2.56139 l 0.12626,0.59714 0.24748,1.17042 c 0.25629,0.12137 0.51232,0.24292 0.76806,0.36466 0.0168,0.0797 0.10873,0.15206 0.27581,0.21736 0.13022,0.0729 0.29714,0.13827 0.50071,0.1962 0.20683,0.0739 0.43184,0.14411 0.67498,0.21078 0.71793,0.0528 1.43441,0.10706 2.14937,0.16287 0.40195,-0.0807 0.80363,-0.16084 1.20506,-0.24052 0.45615,-0.0906 0.91198,-0.18047 1.36746,-0.26972 0.18226,-0.0357 0.44903,-0.12108 0.8007,-0.25577 0.35163,-0.13475 0.71972,-0.28056 1.10452,-0.43738 0.38788,-0.14082 0.77565,-0.28116 1.16332,-0.42102 0.35433,-0.11689 0.6406,-0.19563 0.8585,-0.23654 0.14583,-0.0274 0.43244,-0.0977 0.86241,-0.2108 0.39343,-0.10625 0.82102,-0.22659 1.28365,-0.36093 0.46544,-0.11824 0.91241,-0.23237 1.34116,-0.34259 0.42827,-0.11002 0.71576,-0.17767 0.86,-0.2033 2.1525,-0.38242 4.29727,-0.74657 6.43408,-1.08996 2.35228,-0.37802 4.69491,-0.73089 7.02756,-1.05527 0.10399,-0.0145 0.4134,-0.0493 0.91087,-0.10066 0.47109,-0.0474 1.02887,-0.10629 1.71177,-0.17861 0.679,-0.0555 1.40738,-0.12342 2.18834,-0.20258 0.78277,-0.063 1.50867,-0.12394 2.18119,-0.18438 0.67603,-0.0444 1.2553,-0.0837 1.7518,-0.12059 0.49801,-0.037 0.78999,-0.0591 0.89916,-0.0705 0.59739,-0.0621 1.19406,-0.12189 1.79001,-0.17943 0.44814,-0.0433 1.21826,-0.1003 2.26183,-0.15866 1.05027,-0.0587 2.13511,-0.11323 3.24935,-0.16137 1.11387,-0.0482 2.12376,-0.0802 3.02433,-0.10003 0.91996,-0.0204 1.40147,-0.028 1.55805,-0.036 0.13708,-0.007 0.41593,-0.005 0.83032,0.009 0.38179,0.0149 0.81166,0.0285 1.29552,0.0419 0.44837,0.0147 0.87906,0.0317 1.29185,0.0506 0.41383,0.0189 0.68633,0.0273 0.82439,0.0234 0.16945,-0.005 0.51616,0.002 1.02816,0.0222 0.52954,0.0213 1.0622,0.0417 1.69214,0.0665 0.16549,0.006 0.32843,0.0133 0.48881,0.0203 0.433,0.0245 0.84679,0.05 1.24164,0.0761 0.50817,0.0356 0.82471,0.0549 0.96082,0.0561 0.16787,0.002 0.45453,0.0369 0.85646,0.10714 0.40252,0.0703 0.83622,0.14175 1.30245,0.21521 0.4325,0.0892 0.8466,0.171 1.24291,0.24531 0.39664,0.0743 0.65896,0.11379 0.79132,0.11727 0.32751,0.12285 0.63741,0.22963 0.93039,0.32021 0.26017,0.0896 0.51967,0.17144 0.77864,0.24563 0.22636,0.0731 0.42043,0.11279 0.58303,0.11882 0.59471,0.21804 1.18456,0.43858 1.76931,0.66171 0.5939,0.0275 1.18509,0.0577 1.77346,0.0908 0.74738,0.042 1.49021,0.0886 2.22825,0.1402 0.12584,0.009 0.31506,0.006 0.56828,-0.008 0.25302,-0.0141 0.52159,-0.0264 0.805,-0.0368 0.28347,-0.0103 0.56645,-0.0199 0.84892,-0.0287 0.25133,-0.0114 0.45444,-0.01 0.60907,0.004 0.16427,-0.0835 0.32868,-0.16677 0.49322,-0.24972 0.60295,-0.40236 0.97248,-0.77389 1.10498,-1.12113 0.13051,-0.33064 0.22167,-0.72291 0.27217,-1.17624 l 0.10014,-0.89886 c -0.36068,-0.20082 -0.72412,-0.40032 -1.09025,-0.59851 0,0 -10e-6,6e-5 -10e-6,6e-5 z"
         style="font-style:normal;font-variant:normal;font-weight:normal;font-stretch:normal;font-size:49.99996948px;line-height:125%;font-family:'Buxton Sketch';-inkscape-font-specification:'Buxton Sketch, Normal';text-align:start;writing-mode:lr-tb;text-anchor:start"
         id="path5127"
         inkscape:connector-curvature="0"
         inkscape:original-d="m -64.018387,953.57057 q -0.12207,-0.21972 -0.31738,-0.68359 -0.19531,-0.48828 -0.39062,-1.02539 -0.19532,-0.53711 -0.3418,-1.02539 -0.14648,-0.48828 -0.14648,-0.70801 l 0,-0.31738 0,-0.58594 q 0,-0.12207 0.0488,-0.31738 0.0488,-0.21973 0.0977,-0.43945 0.0488,-0.21973 0.0977,-0.41504 0.0488,-0.19531 0.0488,-0.29297 0,-0.0977 -0.0488,-0.43945 -0.0488,-0.3418 -0.0977,-0.73243 -0.0488,-0.39062 -0.0977,-0.708 -0.0488,-0.3418 -0.0488,-0.46387 0,-0.19531 -0.0488,-0.80566 -0.0488,-0.63477 -0.12207,-1.36719 -0.0488,-0.73242 -0.0977,-1.41601 -0.0488,-0.6836 -0.0488,-1.00098 l 0,-1.2207 q 0,-0.0977 -0.0488,-0.53711 -0.0488,-0.43945 -0.0977,-0.92774 -0.0488,-0.48828 -0.0977,-0.90332 -0.0488,-0.41503 -0.0488,-0.51269 l 0,-1.14746 q 0,-0.12207 -0.0488,-0.73242 -0.0488,-0.63477 -0.0977,-1.34277 -0.0488,-0.73243 -0.0977,-1.34278 -0.0488,-0.61035 -0.0488,-0.73242 0,-0.21973 -0.0488,-1.0498 -0.0488,-0.85449 -0.0977,-1.83106 -0.0488,-0.97656 -0.0977,-1.80664 -0.0488,-0.85449 -0.0488,-1.07421 l -0.31738,-1.14746 0,-1.19629 q 0,-0.0977 -0.0977,-0.3418 -0.0977,-0.24414 -0.21973,-0.53711 -0.0977,-0.29297 -0.19531,-0.53711 -0.0732,-0.24414 -0.0732,-0.34179 l 0,-0.90332 0,-0.53711 1.78222,-1.75781 0.61035,0 1.19629,0 0.5127,0.29296 q 0.12207,0 0.26855,0.0977 0.14649,0.0732 0.29297,0.19531 0.1709,0.12207 0.3418,0.26856 l 0.58593,0.90332 0,0.53711 0,0.61035 q 0,0.12207 -0.0976,0.36621 -0.0977,0.24414 -0.21973,0.51269 -0.0976,0.26856 -0.19531,0.53711 -0.0732,0.24414 -0.0732,0.39063 0,0.0977 -0.0488,0.39062 -0.0488,0.26856 -0.12207,0.58594 -0.0488,0.31738 -0.0977,0.61035 -0.0488,0.29297 -0.0488,0.39062 l 0,2.90528 0,3.19824 q 0,0.0732 0.0244,0.41504 0.0244,0.31738 0.0488,0.78125 0.0488,0.46386 0.0732,1.00097 0.0488,0.53711 0.0732,1.00098 0.0488,0.46386 0.0732,0.80566 0.0244,0.3418 0.0244,0.41504 l 0,0.83008 q 0,0.31738 0.0488,1.0498 0.0488,0.73242 0.0977,1.51367 0.0488,0.78125 0.0977,1.41602 0.0488,0.63476 0.0488,0.73242 0,0.0976 0.0488,0.39062 0.0488,0.26856 0.0977,0.61035 0.0488,0.31739 0.0977,0.61036 0.0488,0.29296 0.0488,0.39062 0,0.12207 0.0488,0.48828 0.0488,0.36621 0.0977,0.80566 0.0488,0.43946 0.0977,0.83008 0.0488,0.36621 0.0488,0.46387 0,0.12207 0.0977,0.41504 0.0977,0.29297 0.19531,0.63476 0.12207,0.31739 0.21973,0.61035 0.0976,0.29297 0.0976,0.39063 0.1709,0.24414 0.29297,0.46387 0.12207,0.19531 0.21973,0.39062 0.0977,0.1709 0.0977,0.29297 l 0.58593,0.90332 0,0.90332 0,1.14746 q 0,0.0977 -0.0488,0.29297 -0.0488,0.19531 -0.0977,0.41504 -0.0488,0.21972 -0.0977,0.43945 -0.0488,0.19531 -0.0488,0.31738 l -0.29296,0.24414 q -0.6836,0.43946 -1.22071,0.5127 -0.51269,0.0732 -1.19628,0.0732 l -0.90332,0 -0.48829,-0.58594 z" />
      <path
         d="m 338.52545,928.80354 c -0.61584,0.0148 -1.2328,0.0329 -1.85086,0.0541 -0.6662,0.0717 -1.29992,0.15418 -1.89982,0.24615 -0.50028,0.0713 -1.00055,0.15264 -1.50065,0.24408 -0.53241,0.1094 -0.96547,0.21595 -1.29639,0.31696 -0.1681,0.01 -0.35213,0.0374 -0.552,0.0824 -0.19982,0.045 -0.38294,0.0893 -0.54914,0.13271 -0.19882,0.0618 -0.41402,0.1331 -0.64537,0.21409 -0.28729,0.0822 -0.90716,0.26841 -1.79067,0.54575 -0.92756,0.29976 -1.90457,0.61777 -2.93188,0.956 -1.04971,0.35414 -2.04654,0.69418 -2.9315,0.99634 -0.92185,0.3234 -1.52762,0.54965 -1.78547,0.6586 -0.1934,0.11978 -0.38669,0.2398 -0.57987,0.36008 -0.58487,0.46785 -1.16801,0.93795 -1.74954,1.41021 -0.36863,0.2333 -0.73691,0.46746 -1.10485,0.70246 0.0179,0.14544 0.0126,0.38379 -0.0154,0.71547 -0.026,0.34776 -0.0508,0.70362 -0.0744,1.06755 -0.0215,0.38007 -0.0458,0.73591 -0.0729,1.06755 -0.027,0.33154 -0.0323,0.5621 -0.0161,0.69122 0.008,0.0646 -0.0134,0.16575 -0.0643,0.30364 -0.0489,0.15399 -0.0977,0.30801 -0.14649,0.46205 -0.0466,0.17017 -0.0953,0.32421 -0.14595,0.46214 -0.0485,0.15405 -0.0675,0.27147 -0.0573,0.35219 l 0.10484,0.82339 0.11408,0.89606 c 0.12022,0.14838 0.23925,0.28876 0.35712,0.42114 0.0826,0.12055 0.1641,0.23306 0.24457,0.33753 0.0824,0.12061 0.1285,0.22135 0.1386,0.30208 0.22354,0.17629 0.44647,0.35286 0.66879,0.52973 0.01,0.0808 0.0867,0.16121 0.23009,0.24157 0.11039,0.0845 0.25255,0.15683 0.42635,0.21719 0.17585,0.0766 0.36831,0.15921 0.57814,0.24837 0.17081,0.0445 0.43016,0.12795 0.77448,0.25057 0.31402,0.14282 0.67571,0.2803 1.08485,0.41338 0.37845,0.15297 0.73737,0.29254 1.07743,0.41856 0.33955,0.12583 0.57831,0.22323 0.71493,0.29005 0.36532,0.0751 0.69719,0.14658 0.99489,0.21381 0.59532,0.13447 1.04341,0.27046 1.34467,0.40429 0.15907,-0.0155 0.33625,-0.008 0.53123,0.0223 0.19649,0.0466 0.39339,0.10172 0.59065,0.16523 0.22891,0.0606 0.45952,0.1458 0.6916,0.25579 0.16373,0.0509 0.40647,0.11084 0.72937,0.18127 0.32392,0.0866 0.67685,0.15512 1.05874,0.20612 0.35063,0.0535 0.68384,0.10116 1.00023,0.14273 0.31651,0.0416 0.53591,0.0585 0.66041,0.0496 0.3141,0.0265 0.61206,0.055 0.89382,0.0852 0.24979,0.016 0.49913,0.0326 0.74802,0.0498 0.21806,0.019 0.40382,0.0242 0.55779,0.0151 0.27526,-0.0162 0.71059,-0.025 1.29272,-0.0224 0.55296,0.004 1.12012,0.0105 1.69955,0.0194 0.54909,0.0101 1.06631,0.0245 1.55123,0.0421 0.48771,0.0177 0.78399,0.0266 0.90728,0.0236 0.91237,-0.0226 1.81999,-0.0367 2.72285,-0.0419 0.16915,0.003 0.33796,0.007 0.50641,0.0103 0.86858,0.018 1.72767,0.0376 2.57679,0.0595 0.14394,0.004 0.33076,-0.008 0.56017,-0.0341 0.22938,-0.0264 0.47259,-0.0685 0.72966,-0.1263 0.2284,-0.0423 0.47067,-0.10028 0.72691,-0.17394 0.2276,-0.0582 0.39824,-0.11799 0.51244,-0.17951 0.1411,0.005 0.35364,-0.0537 0.63771,-0.17443 0.2837,-0.10445 0.59537,-0.23195 0.93545,-0.38235 0.31207,-0.15142 0.60996,-0.3029 0.89374,-0.45444 0.28386,-0.15158 0.48258,-0.26531 0.59682,-0.342 0.24224,-0.12884 0.63691,-0.33847 1.10543,-0.5857 0.45254,-0.23878 0.92095,-0.48468 1.40111,-0.735 0.45242,-0.23588 0.87718,-0.4637 1.27389,-0.68348 0.3682,-0.2051 0.62325,-0.33521 0.76277,-0.39083 0.35399,-0.35987 0.70948,-0.71848 1.06655,-1.07569 0.007,-0.0811 0.12727,-0.21124 0.3606,-0.38923 0.20632,-0.18002 0.44169,-0.3739 0.70583,-0.58081 0.23574,-0.19298 0.45772,-0.37833 0.66586,-0.55625 0.23499,-0.17555 0.35623,-0.29516 0.36321,-0.36005 0.005,-0.0487 0.0256,-0.11226 0.0612,-0.19078 0.0607,-0.0598 0.12762,-0.17641 0.20104,-0.34962 0.0733,-0.17311 0.14229,-0.42863 0.20696,-0.76614 0.0899,-0.31853 0.16599,-0.75379 0.2273,-1.30414 0.0217,-0.19434 0.0579,-0.39548 0.10896,-0.60336 0.0492,-0.19166 0.0849,-0.38466 0.10668,-0.57898 0.0345,-0.30768 0.0396,-0.60187 0.0144,-0.88261 -0.0251,-0.28061 -0.13459,-0.5698 -0.33104,-0.8664 -0.25294,-0.30193 -0.49782,-0.57788 -0.73303,-0.82754 -0.20988,-0.21481 -0.40723,-0.4279 -0.59172,-0.63958 -0.21484,-0.19771 -0.39293,-0.34308 -0.53156,-0.43574 0.007,-0.0811 -0.0716,-0.18572 -0.23772,-0.31303 -0.16759,-0.11111 -0.33528,-0.2301 -0.50316,-0.35697 -0.19747,-0.12908 -0.38118,-0.25668 -0.55093,-0.38305 -0.17104,-0.11014 -0.2546,-0.19742 -0.24965,-0.26255 -0.14265,-0.0997 -0.28586,-0.19921 -0.42964,-0.29856 -0.14391,-0.0909 -0.34801,-0.2109 -0.61111,-0.35767 -0.29384,-0.14891 -0.58956,-0.29712 -0.88712,-0.44464 -0.32605,-0.18178 -0.70052,-0.36545 -1.12437,-0.54998 -0.38098,-0.11707 -0.76421,-0.23305 -1.14961,-0.34795 -0.27656,-0.0772 -0.66601,-0.17594 -1.16439,-0.2926 -0.5326,-0.11851 -1.04836,-0.23346 -1.55592,-0.34732 -0.51121,-0.0933 -1.04321,-0.18935 -1.43198,-0.25996 -0.44729,-0.0762 -0.73838,-0.11506 -0.86657,-0.11777 -0.16203,-0.003 -0.46623,-0.0261 -0.92015,-0.0668 -0.45297,-0.0406 -0.95659,-0.081 -1.51115,-0.1205 -0.55349,-0.0393 -1.09665,-0.0772 -1.6218,-0.11352 -0.22605,-0.0148 -0.43118,-0.0265 -0.61468,-0.0353 0,0 0,0 0,0 -0.27157,-0.009 -0.49696,-0.0117 -0.67457,-0.009 -0.58055,0.008 -1.1621,0.0192 -1.74465,0.0332 0,0 1.3e-4,10e-6 1.3e-4,10e-6 z m 3.61217,3.7532 c 0.25894,0.0847 0.6744,0.19462 1.24947,0.33394 0.5654,0.13697 1.19971,0.29048 1.85065,0.44939 0.62765,0.16022 1.23501,0.31419 1.82182,0.46147 0.55461,0.14609 0.96979,0.26652 1.24277,0.35703 0.15155,0.0703 0.34842,0.17526 0.5883,0.3146 0.23955,0.15573 0.49293,0.31231 0.75993,0.47005 0.23605,0.1728 0.4864,0.33025 0.75091,0.47254 0.23423,0.14082 0.40894,0.25536 0.52419,0.34226 0.19639,0.27051 0.36174,0.53185 0.49682,0.78355 0.13761,0.20283 0.24481,0.40439 0.32218,0.60441 0.0773,0.19993 0.11336,0.3409 0.10887,0.42227 l -0.0135,0.24441 -0.0162,0.29328 c -0.008,0.14676 -0.0348,0.36574 -0.0798,0.65765 -0.0748,0.30661 -0.14888,0.60512 -0.22222,0.89552 -0.0758,0.33936 -0.16697,0.70232 -0.27304,1.08927 -0.21194,0.2183 -0.42209,0.41248 -0.63081,0.58254 -0.17934,0.15508 -0.35805,0.30223 -0.53625,0.44144 -0.1789,0.15553 -0.34146,0.27111 -0.48814,0.34668 -0.19066,0.0982 -0.38135,0.1967 -0.57207,0.29539 -0.11801,0.077 -0.30836,0.16762 -0.57151,0.27221 -0.26367,0.1209 -0.55642,0.24115 -0.87852,0.36093 -0.32248,0.13608 -0.7036,0.27895 -1.14399,0.42905 -0.29375,0.10553 -0.57296,0.19553 -0.83785,0.26993 -0.23554,0.0752 -0.45651,0.13467 -0.663,0.17839 -0.23606,0.0593 -0.42805,0.0872 -0.5759,0.0837 -0.14784,-0.003 -0.31078,0.009 -0.48884,0.0376 -0.17803,0.0286 -0.34152,0.0577 -0.49027,0.0871 -0.17848,0.0451 -0.37202,0.0981 -0.58072,0.15909 -0.1193,-0.002 -0.38862,0.009 -0.80855,0.0333 -0.25683,0.0139 -0.5195,0.0278 -0.7875,0.0419 -0.20341,0.0153 -0.40981,0.0311 -0.61919,0.0474 -0.51787,0.0382 -1.02201,0.079 -1.51139,0.12191 -0.52156,0.0436 -0.91784,0.0707 -1.19615,0.0787 -0.19999,0.006 -0.40018,0.0119 -0.60058,0.0185 -0.15416,0.005 -0.30843,0.0103 -0.46282,0.0158 -0.27817,0.01 -0.65051,-0.025 -1.12043,-0.10272 -0.50048,-0.0763 -0.89289,-0.10641 -1.17297,-0.0925 -0.3638,-0.0878 -0.72881,-0.17447 -1.09501,-0.25992 -0.93503,-0.14329 -1.87683,-0.27883 -2.82523,-0.40692 -0.32485,-0.091 -0.6501,-0.17301 -0.97563,-0.24605 -0.26068,-0.0617 -0.52254,-0.13092 -0.78567,-0.20771 -0.26324,-0.0768 -0.47822,-0.14876 -0.6451,-0.21651 -0.58502,-0.25318 -1.17371,-0.50373 -1.76596,-0.75168 -0.16882,-0.0662 -0.35619,-0.15503 -0.56252,-0.26634 -0.20483,-0.0951 -0.39463,-0.19952 -0.56933,-0.31339 -0.20868,-0.12689 -0.43503,-0.26009 -0.67901,-0.39927 l -0.0282,-0.29145 -0.0587,-0.60718 c 0.14654,-0.19437 0.29334,-0.38859 0.44041,-0.58264 0.20312,-0.12595 0.40636,-0.2516 0.60971,-0.37694 0.75231,-0.26687 1.50427,-0.52956 2.25599,-0.78791 0.18738,-0.12167 0.37488,-0.24307 0.56252,-0.36419 0.18187,-0.19408 0.36406,-0.3879 0.54658,-0.58145 -0.006,-0.081 0.0474,-0.24027 0.16109,-0.47726 0.11499,-0.2206 0.24514,-0.46738 0.38995,-0.73882 0.11223,-0.26926 0.226,-0.52218 0.34122,-0.75878 0.11536,-0.23666 0.17097,-0.38721 0.16637,-0.45217 0.18329,-0.21685 0.36698,-0.43343 0.55109,-0.64975 0.36556,-0.22868 0.73168,-0.45631 1.09839,-0.68287 0.22791,-0.0631 0.45631,-0.11763 0.6851,-0.16368 0.42366,-0.10634 0.80026,-0.16778 1.12919,-0.18513 0.26349,-0.0139 0.62275,-0.0649 1.07953,-0.15142 0.42447,-0.0687 0.86414,-0.15297 1.31943,-0.2524 0.52084,-0.10199 1.05689,-0.21853 1.6088,-0.34921 0.16377,-0.005 0.40769,-0.0284 0.73345,-0.0695 0.29422,-0.0403 0.63279,-0.0888 1.02403,-0.14565 0.35789,-0.0397 0.69848,-0.0779 1.02337,-0.11501 0.32422,-0.037 0.55221,-0.0556 0.68176,-0.0568 -10e-6,0 0.076,-7.2e-4 0.076,-7.2e-4 0.18474,0.001 0.36923,0.003 0.55347,0.005 0.19327,0.002 0.38626,0.004 0.57897,0.006 0,0 1.6e-4,-6e-5 1.6e-4,-6e-5 z"
         style="font-style:normal;font-variant:normal;font-weight:normal;font-stretch:normal;font-size:49.99996948px;line-height:125%;font-family:'Buxton Sketch';-inkscape-font-specification:'Buxton Sketch, Normal';text-align:start;writing-mode:lr-tb;text-anchor:start"
         id="path5129"
         inkscape:connector-curvature="0"
         inkscape:original-d="m -56.157057,943.46316 0,-0.90332 q 0.0732,-0.48828 0.17089,-0.92774 0.0733,-0.36621 0.1709,-0.73242 0.12207,-0.39062 0.24414,-0.63476 0,-0.12207 0.0488,-0.26856 0.0488,-0.14648 0.0977,-0.26855 0.0732,-0.14649 0.1709,-0.31739 0.0976,-0.21972 0.41503,-0.8789 0.3418,-0.68359 0.70801,-1.44043 0.39063,-0.78125 0.70801,-1.44043 0.3418,-0.68359 0.46387,-0.8789 l 0.29297,-0.29297 1.19628,-0.90332 0.56153,-0.56153 q 0.21972,0 0.708,-0.0488 0.5127,-0.0488 1.04981,-0.0977 0.56152,-0.0488 1.0498,-0.0977 0.48828,-0.0488 0.6836,-0.0488 0.0976,0 0.29296,-0.0488 0.21973,-0.0488 0.43946,-0.0977 0.24414,-0.0488 0.43945,-0.0977 0.21973,-0.0488 0.3418,-0.0488 l 0.83007,0 0.90332,0 q 0.24414,0.0732 0.46387,0.14648 0.19531,0.0488 0.36621,0.0977 0.19531,0.0488 0.31738,0.0488 l 0.61036,0.29296 q 0.12207,0 0.26855,0.0977 0.14648,0.0732 0.26855,0.19531 0.14649,0.12207 0.31739,0.26856 0.0976,0.12207 0.34179,0.36621 0.26856,0.21972 0.53711,0.51269 0.29297,0.26856 0.53711,0.5127 0.24414,0.24414 0.36621,0.34179 0.1709,0.26856 0.31738,0.48829 0.29297,0.43945 0.53711,0.65918 0,0.12207 0.0732,0.26855 0.0976,0.14648 0.21972,0.29297 0.12207,0.1709 0.31739,0.34179 0.0977,0.12208 0.24414,0.36622 0.17089,0.24414 0.29296,0.5371 0.12207,0.26856 0.21973,0.5127 0.0977,0.24414 0.0977,0.3418 0.0732,0.24414 0.14648,0.46386 0.0488,0.19532 0.0977,0.39063 0.0488,0.1709 0.0488,0.29297 0,0.21972 0.0488,0.68359 0.0488,0.43945 0.0977,0.90332 0.0488,0.43945 0.0977,0.83008 0.0488,0.39062 0.0488,0.48828 l 0,1.75781 0,1.44043 q 0,0.12207 -0.0488,0.31738 -0.0488,0.19531 -0.14649,0.41504 -0.0732,0.19531 -0.19531,0.41504 -0.0977,0.19531 -0.19531,0.29297 0,0.12207 -0.19532,0.36621 -0.17089,0.24414 -0.41503,0.53711 -0.24414,0.26855 -0.48829,0.51269 -0.24414,0.24414 -0.36621,0.3418 -0.21972,0.21972 -0.63476,0.63476 -0.39063,0.39063 -0.80566,0.80567 -0.39063,0.39062 -0.75684,0.73242 -0.3418,0.31738 -0.43945,0.43945 l -1.14746,0.58594 q -0.12207,0 -0.41504,0.19531 -0.29297,0.1709 -0.63477,0.39063 -0.31738,0.19531 -0.61035,0.36621 -0.29297,0.19531 -0.39062,0.19531 -0.0733,0 -0.19532,0.0244 -0.0976,0.0488 -0.36621,0.0977 -0.26855,0.0488 -0.78125,0.0732 -0.48828,0.0488 -1.31835,0.0488 -0.29297,0 -0.61036,0.0244 -0.29296,0.0244 -0.58593,0.0244 -0.46387,0 -0.87891,-0.0488 -0.41504,-0.0488 -0.83008,-0.24414 -0.41504,-0.24414 -0.75683,-0.46387 -0.29297,-0.19531 -0.58594,-0.36621 -0.26855,-0.19531 -0.39062,-0.31738 -0.12207,0 -0.29297,-0.14649 -0.14649,-0.14648 -0.31738,-0.29296 -0.1709,-0.1709 -0.3418,-0.31739 -0.14649,-0.14648 -0.24414,-0.14648 l -0.26856,-0.24414 q -0.12207,-0.12207 -0.31738,-0.3418 -0.19531,-0.24414 -0.39062,-0.48828 -0.24414,-0.26855 -0.48828,-0.61035 l -0.29297,-0.61035 q -0.0977,-0.21973 -0.24414,-0.61035 -0.14649,-0.41504 -0.29297,-0.80567 -0.12207,-0.41504 -0.21973,-0.73242 -0.0977,-0.34179 -0.0977,-0.43945 0,-0.12207 -0.0488,-0.46387 -0.0488,-0.34179 -0.0977,-0.75683 -0.0488,-0.41504 -0.0977,-0.80567 -0.0488,-0.41504 -0.0488,-0.63476 l 0,-0.85449 z m 3.78417,1.75781 q 0.12207,0.19531 0.31739,0.63476 0.19531,0.43946 0.41504,0.95215 0.21972,0.48828 0.41503,0.95215 0.19532,0.43945 0.31739,0.65918 0.0976,0.12207 0.29297,0.31738 0.21972,0.19531 0.43945,0.41504 0.24414,0.19531 0.43945,0.41504 0.19531,0.19531 0.31738,0.29297 0.39063,0.1709 0.75684,0.29297 0.29297,0.12207 0.58594,0.19531 0.29296,0.0732 0.41503,0.0732 l 0.24415,0 0.29296,0 q 0.21973,0 0.65918,-0.0244 0.46387,-0.0488 0.90332,-0.0977 0.5127,-0.0488 1.09864,-0.12207 0.34179,-0.1709 0.61035,-0.3418 0.24414,-0.14648 0.46386,-0.29297 0.24414,-0.14648 0.36621,-0.26855 l 0.31739,-0.31738 q 0.12207,-0.0977 0.29297,-0.31739 0.19531,-0.21972 0.39062,-0.48828 0.21973,-0.26855 0.46387,-0.63476 0.1709,-0.24414 0.29297,-0.46387 0.12207,-0.19531 0.19531,-0.36621 0.0976,-0.19531 0.0976,-0.31738 0,-0.12207 0.0488,-0.26856 0.0488,-0.14648 0.0977,-0.26855 0.0732,-0.14648 0.1709,-0.31738 0,-0.0977 0.0488,-0.43946 0.0488,-0.36621 0.0977,-0.75683 0.0488,-0.41504 0.0977,-0.80567 0.0488,-0.41503 0.0488,-0.63476 l 0,-0.31738 0,-0.24414 q 0,-0.21973 -0.14649,-0.58594 -0.14648,-0.39063 -0.14648,-0.61035 l -0.31739,-0.56152 -0.58593,-1.44043 q -0.1709,-0.24414 -0.31739,-0.48828 -0.12207,-0.19532 -0.26855,-0.39063 -0.14648,-0.19531 -0.26855,-0.31738 l -0.90332,-0.85449 q -0.12207,-0.12207 -0.31739,-0.26856 -0.1709,-0.14648 -0.36621,-0.26855 -0.21972,-0.14649 -0.46386,-0.31739 l -0.29297,0 -0.61035,0 -0.53711,0.24415 -0.31739,0.31738 -0.58593,1.14746 -0.31739,0.29297 -0.53711,0.29297 q -0.12207,0 -0.46386,0.0976 -0.31738,0.0977 -0.70801,0.21973 -0.39062,0.0977 -0.73242,0.19531 -0.3418,0.0977 -0.43945,0.0977 l -0.61035,0.29296 -0.61036,0.56153 q -0.0732,0.1709 -0.12207,0.34179 -0.12207,0.31739 -0.12207,0.56153 0,0.19531 -0.0976,0.53711 -0.0732,0.31738 -0.19532,0.65918 -0.12207,0.39062 -0.29296,0.80566 0,0.12207 -0.0488,0.36621 -0.0488,0.21973 -0.12207,0.5127 -0.0488,0.26855 -0.0977,0.51269 -0.0488,0.24414 -0.0488,0.3418 l 0,0.31738 0,0.29297 z" />
    </g>
  </g>
</svg>
