<?xml version="1.0" encoding="UTF-8" standalone="no"?>
<!-- Created with Inkscape (http://www.inkscape.org/) -->

<svg
   xmlns:dc="http://purl.org/dc/elements/1.1/"
   xmlns:cc="http://creativecommons.org/ns#"
   xmlns:rdf="http://www.w3.org/1999/02/22-rdf-syntax-ns#"
   xmlns:svg="http://www.w3.org/2000/svg"
   xmlns="http://www.w3.org/2000/svg"
   xmlns:sodipodi="http://sodipodi.sourceforge.net/DTD/sodipodi-0.dtd"
   xmlns:inkscape="http://www.inkscape.org/namespaces/inkscape"
   width="96.761917mm"
   height="115.10636mm"
   viewBox="0 0 342.85719 407.85718"
   id="svg2"
   version="1.1"
   inkscape:version="0.91 r13725"
   sodipodi:docname="open centrifuge tube without fluid M.svg"
   inkscape:export-filename="C:\Users\Jason Meurlin\Tube1.png"
   inkscape:export-xdpi="90"
   inkscape:export-ydpi="90">
  <sodipodi:namedview
     id="base"
     pagecolor="#ffffff"
     bordercolor="#666666"
     borderopacity="1.0"
     inkscape:pageopacity="0.0"
     inkscape:pageshadow="2"
     inkscape:zoom="1.2049479"
     inkscape:cx="-86.147748"
     inkscape:cy="244.87856"
     inkscape:document-units="px"
     inkscape:current-layer="layer1"
     showgrid="false"
     inkscape:window-width="1920"
     inkscape:window-height="1017"
     inkscape:window-x="-8"
     inkscape:window-y="-8"
     inkscape:window-maximized="1"
     showborder="true"
     fit-margin-top="0"
     fit-margin-left="0"
     fit-margin-right="0"
     fit-margin-bottom="0" />
  <defs
     id="defs4">
    <inkscape:path-effect
       effect="bend_path"
       id="path-effect6082-7"
       is_visible="true"
       bendpath="m 276.46206,898.94007 c 19.7513,-7.58676 95.35692,-8.86247 108.41918,0.0621"
       prop_scale="1"
       scale_y_rel="false"
       vertical="true"
       bendpath-nodetypes="cc" />
  </defs>
  <metadata
     id="metadata7">
    <rdf:RDF>
      <cc:Work
         rdf:about="">
        <dc:format>image/svg+xml</dc:format>
        <dc:type
           rdf:resource="http://purl.org/dc/dcmitype/StillImage" />
        <dc:title></dc:title>
      </cc:Work>
    </rdf:RDF>
  </metadata>
  <g
     inkscape:label="Layer 1"
     inkscape:groupmode="layer"
     id="layer1"
     transform="translate(-74.285717,-89.505023)">
    <g
       id="g3356"
       transform="translate(391.42858,-74.285714)"
       style="opacity:0.93999999" />
    <g
       id="g5018"
       transform="matrix(0.43956048,0,0,0.47307377,704.74103,141.7773)">
      <g
         style="opacity:0.7"
         transform="translate(-1102.8571,-411.42857)"
         id="g3511">
        <path
           style="opacity:0.93999999;fill:#cccccc"
           d="m 153.57144,438.07649 0,539.9991 0.81836,0 c -0.21685,44.68451 98.6529,185.00091 134.18164,185.00091 35.52874,0 134.39848,-140.3164 134.18164,-185.00091 l 0.81836,0 0,-539.9991 z"
           id="rect3336"
           inkscape:connector-curvature="0"
           sodipodi:nodetypes="cccscccc" />
        <path
           style="opacity:0.93999999;fill:#999999"
           d="m 448.57144,423.07649 c 0,27.61424 -70.05648,50 -160,50 -89.94352,0 -160,-22.38576 -160,-50 0,-27.61424 70.05648,-50 160,-50 89.94352,0 160,22.38576 160,50 z"
           id="path3352"
           inkscape:connector-curvature="0"
           sodipodi:nodetypes="sssss" />
        <path
           style="opacity:0.93999999;fill:#999999"
           d="m 160.14286,586.64795 142.71429,0 0,22.85714 -142.71429,0 z"
           id="rect3360"
           inkscape:connector-curvature="0"
           sodipodi:nodetypes="ccccc" />
        <path
           style="opacity:0.93999999;fill:#999999"
           d="m 160.14286,712.36224 137,0 0,22.85715 -137,0 z"
           id="rect3362"
           inkscape:connector-curvature="0"
           sodipodi:nodetypes="ccccc" />
        <ellipse
           style="opacity:1;fill:#cccccc"
           id="path3507"
           cx="287.14285"
           cy="420.93359"
           rx="130"
           ry="34.285713" />
      </g>
      <path
         inkscape:connector-curvature="0"
         id="rect3518"
         d="m -966.87037,-2.3247289 c -41.13253,1.303451 -81.06593,15.0450129 -120.88133,26.8342529 -28.7247,-14.128463 -59.5808,-19.2295219 -90.1119,-21.9831799 -0.7468,23.1073499 17.3506,42.6855009 35.0853,37.1503079 19.4244,0.986337 42.7732,0.887712 59.1551,9.999165 5.5753,-2.039378 16.8915,-7.374748 25.5845,-7.932937 29.4174,-3.448999 59.06457,-2.675984 88.49593,-5.025759 9.92492,0.504739 15.76418,-10.505486 14.61366,-22.351396 0.12329,-8.5246389 -4.33542,-18.1640599 -11.94126,-16.6904539 z"
         style="opacity:0.92000002;fill:#999999" />
      <ellipse
         cx="-1288.5714"
         cy="25.21932"
         rx="145.71429"
         ry="41.428574"
         id="path3524"
         style="opacity:1;fill:#999999" />
      <rect
         rx="72.503883"
         ry="35.263157"
         y="-110.49498"
         x="-1400.0001"
         height="140"
         width="225.71429"
         id="rect3542"
         style="opacity:1;fill:#8d8d99;fill-opacity:1" />
      <path
         transform="matrix(0.53552542,-0.15750803,0.12357247,0.68259176,-1405.334,145.29581)"
         inkscape:transform-center-y="14.449342"
         inkscape:transform-center-x="4.9612324"
         d="M 1108.5714,760.93359 C 1130.3953,833.67973 934.44486,1041.6117 860.53293,1024.1387 786.62101,1006.6656 704.5218,733.00158 756.60988,677.72851 c 52.08808,-55.27307 330.13772,10.45895 351.96152,83.20508 z"
         inkscape:randomized="0"
         inkscape:rounded="0.21"
         inkscape:flatsided="true"
         sodipodi:arg2="0.75574076"
         sodipodi:arg1="-0.29145679"
         sodipodi:r2="104.40307"
         sodipodi:r1="208.80614"
         sodipodi:cy="820.93359"
         sodipodi:cx="908.57141"
         sodipodi:sides="3"
         id="path3557"
         style="opacity:1;fill:#e6e6e6"
         sodipodi:type="star" />
    </g>
    <g
       style="font-style:normal;font-weight:normal;font-size:40px;line-height:125%;font-family:sans-serif;letter-spacing:0px;word-spacing:0px;fill:#000000;fill-opacity:1;stroke:none;stroke-width:1px;stroke-linecap:butt;stroke-linejoin:miter;stroke-opacity:1"
       id="text4824"
       inkscape:path-effect="#path-effect6082-7"
       transform="matrix(-0.8328959,-0.09347847,-0.00636933,1.8254984,637.40097,-1316.1107)">
      <path
         d="m 351.61676,839.02053 c -0.59489,-0.23089 -1.11729,-0.58071 -1.56924,-1.05051 -0.5188,-0.4723 -1.13837,-0.94703 -1.85783,-1.42264 -0.71933,-0.47551 -1.67386,-0.8945 -2.85642,-1.25102 -1.1817,-0.35625 -2.76088,-0.55153 -4.70793,-0.56997 -1.5296,0.43839 -3.03964,0.88664 -4.53095,1.34357 -0.31717,0.7006 -0.60066,1.40168 -0.85114,2.10261 -0.25074,0.57753 -0.50015,1.17583 -0.74819,1.79493 -0.24789,0.61875 -0.43275,1.13542 -0.55521,1.54766 -0.18472,0.41303 -0.27559,0.82559 -0.27351,1.2371 -0.06,0.41211 -0.0886,0.84456 -0.0863,1.29728 0.005,0.90549 0.0716,1.8721 0.19957,2.90007 0.12803,1.02835 0.19473,2.26186 0.20124,3.70282 0.006,1.31772 -0.079,2.81944 -0.25207,4.50898 -0.1602,1.18835 -0.41826,2.4831 -0.77122,3.88682 0,0 0,0 0,0 -0.16226,0.64031 -0.34446,1.30296 -0.54637,1.98827 0.20345,0.464 0.3929,0.91918 0.56849,1.36536 0.0879,0.22429 0.1723,0.44634 0.25332,0.66614 0.24145,0.57417 0.45256,1.14875 0.6335,1.72374 0.12151,0.57533 0.18285,1.04841 0.18452,1.41878 0.68319,0.44835 1.36617,0.89841 2.04867,1.35026 0.35605,0.0818 0.71233,0.12293 1.06913,0.12339 0.29732,3.9e-4 0.59494,0.001 0.89284,0.002 0.77465,0.003 1.46183,-0.0335 2.06133,-0.11033 0.53922,-0.0363 1.01973,-0.0924 1.44141,-0.16919 0.48201,-0.1171 0.90557,-0.21359 1.26842,-0.28979 0.37057,-0.52902 0.77262,-1.01577 1.20643,-1.45989 0.37223,-0.40412 0.80705,-0.8066 1.30528,-1.20627 0.49831,-0.39971 0.99675,-0.69535 1.49411,-0.88694 0.009,-0.32827 0.0593,-1.02877 0.15123,-2.09591 0.0908,-1.02648 0.21599,-2.15617 0.37666,-3.38639 0.0971,-1.19139 0.19305,-2.321 0.2877,-3.38885 0.0949,-1.06872 0.14818,-1.78603 0.15923,-2.15722 0.52,-0.35441 0.98301,-0.83304 1.38884,-1.43647 0.40591,-0.60351 0.78173,-1.18659 1.12675,-1.74995 0.34954,-0.68668 0.67009,-1.39461 0.96091,-2.12398 -0.1159,-0.37557 -0.19956,-0.74974 -0.25071,-1.12256 -0.0528,-0.33169 -0.0729,-0.66207 -0.0602,-0.99109 0.0317,-0.82243 0.19403,-1.61947 0.49013,-2.38969 0.22829,-0.73208 0.35779,-1.44714 0.38627,-2.1464 0,0 0.0327,-0.80191 0.0327,-0.80191 -0.057,-0.24963 -0.14744,-0.50065 -0.27159,-0.75302 0,0 2.5e-4,10e-6 2.5e-4,10e-6 z"
         style="font-size:79.99995422px"
         id="path6072"
         inkscape:original-d="m 271.59028,907.61807 q -0.30868,-0.35156 -0.98774,-0.625 -0.67908,-0.3125 -1.35816,-0.74218 -0.67908,-0.42969 -1.17296,-1.13282 -0.49386,-0.70312 -0.49386,-1.875 l 1.35815,-1.83593 q 1.04948,-0.19531 2.09895,-0.35156 0.86429,-0.15625 1.79029,-0.3125 0.92601,-0.15625 1.54335,-0.23438 0.61733,-0.11719 1.23468,-0.11719 0.61733,-0.0391 1.2964,-0.0391 1.35814,0 2.9015,0.0781 1.54334,0.0781 3.70402,0.0781 1.97549,0 4.50659,-0.11719 2.59282,-0.15625 5.8647,-0.58593 1.04949,0.19531 2.03723,0.35156 0.86428,0.15625 1.72854,0.27344 0.86428,0.0781 1.41988,0.0781 l 1.35815,0.89844 q 0.12342,0.23437 0.12342,0.46875 0,0.19531 0,0.39062 0,0.50782 -0.12342,0.89844 -0.0618,0.35156 -0.1852,0.625 -0.1852,0.3125 -0.30868,0.54687 -0.80253,0.23438 -1.4816,0.50782 -0.61734,0.23437 -1.23469,0.54687 -0.61732,0.3125 -0.92599,0.625 -0.49387,0 -2.09896,0.0391 -1.54335,0.0391 -3.39536,0.11719 -1.7903,0.0391 -3.39536,0.0781 -1.60509,0.0391 -2.1607,0.0391 -0.5556,0.3125 -1.48161,0.54687 -0.926,0.23438 -1.79028,0.42969 -1.04948,0.19531 -2.16068,0.35156 -0.55561,-0.0781 -1.11121,-0.11719 -0.49388,-0.0391 -0.98775,-0.0391 -1.23469,0 -2.40763,0.15625 -1.11119,0.11719 -2.16067,0.11719 -0.37041,0 -0.80253,0 -0.37042,-0.0391 -0.74081,-0.11719 z"
         inkscape:connector-curvature="0" />
      <path
         d="m 384.62478,876.17248 c -0.67001,-0.12507 -1.28583,-0.20557 -1.84616,-0.24582 -0.21494,-0.0194 -0.4304,-0.0342 -0.64423,-0.0432 -0.29759,-0.0514 -0.60744,-0.10424 -0.9289,-0.15818 -0.54649,-0.0892 -1.01451,-0.17333 -1.4139,-0.2573 -1.08228,-0.12779 -2.14535,-0.23469 -3.18933,-0.32323 -0.72741,-0.13082 -1.44668,-0.2527 -2.15757,-0.36646 -0.9827,-0.15725 -1.94938,-0.29898 -2.8994,-0.42734 -0.20358,-0.0275 -0.54158,-0.0892 -1.01817,-0.18258 -0.47528,-0.0931 -0.98545,-0.1879 -1.52989,-0.28335 -0.50263,-0.0904 -0.98774,-0.17641 -1.44213,-0.25651 -0.0288,-0.005 -0.057,-0.0104 -0.0846,-0.0153 0,0 0,0 0,0 -0.37667,-0.0692 -0.65576,-0.11276 -0.83471,-0.13149 -0.19431,-0.0203 -0.55519,-0.0743 -1.09234,-0.16077 -0.49659,-0.0823 -1.05179,-0.16887 -1.66296,-0.25825 -0.57238,-0.0857 -1.1275,-0.16784 -1.66068,-0.24621 -0.49457,-0.075 -0.84009,-0.11959 -1.0305,-0.13511 -0.53724,-0.0438 -1.24018,-0.13205 -2.11504,-0.26127 -0.83673,-0.10998 -1.67124,-0.23197 -2.50395,-0.36619 -0.83627,-0.11835 -1.58776,-0.22674 -2.27039,-0.32955 -0.64114,-0.0838 -1.0606,-0.12939 -1.24836,-0.13883 -0.88129,-0.23983 -1.76254,-0.47542 -2.64356,-0.707 -0.43496,-0.0178 -0.86944,-0.0346 -1.30344,-0.0505 -0.45285,-0.0166 -0.90518,-0.0321 -1.35697,-0.0466 -0.47369,0.0825 -0.94635,0.16613 -1.41802,0.25082 -0.1501,-0.004 -0.35698,0.007 -0.62,0.0323 -0.30062,0.0248 -0.60092,0.0501 -0.9009,0.0759 -0.37515,0.0403 -0.74978,0.0812 -1.12388,0.12275 -0.65302,-0.0127 -1.30491,-0.0235 -1.95563,-0.0325 -0.87383,-0.0121 -1.74556,-0.0208 -2.61515,-0.0265 -0.15023,-9.8e-4 -0.53437,-0.0198 -1.16413,-0.0546 -0.66464,-0.0349 -1.36483,-0.0681 -2.10063,-0.0992 -0.73881,-0.0313 -1.41168,-0.0604 -2.03787,-0.0889 -0.31145,-0.0133 -0.57078,-0.023 -0.77542,-0.0293 -0.22951,-0.008 -0.39322,-0.0111 -0.48994,-0.0104 -2.81228,0.0197 -5.63379,0.0664 -8.4636,0.14359 -0.52343,0.0143 -1.28979,0.0198 -2.33391,0.0217 -1.07507,0.003 -2.19035,0.012 -3.34261,0.0277 -1.18912,0.0173 -2.3082,0.0373 -3.35148,0.058 -1.04013,0.0206 -1.81348,0.0479 -2.29415,0.0755 -0.14993,0.009 -0.44774,0.009 -0.89805,0.004 -0.44974,-0.006 -0.91879,-0.0174 -1.40758,-0.0351 -0.52552,10e-4 -0.99399,-4.2e-4 -1.40803,-0.005 -0.45032,-0.002 -0.75216,0.003 -0.90117,0.0136 -0.36963,0.0914 -0.73916,0.18343 -1.10858,0.27602 -0.29458,0.0871 -0.58906,0.17459 -0.88345,0.26243 -0.29435,0.0878 -0.5319,0.1799 -0.71251,0.2758 -0.17936,0.1121 -0.35858,0.22435 -0.53766,0.33675 0.005,0.065 -0.0604,0.18447 -0.19673,0.35882 -0.13628,0.17436 -0.27162,0.35691 -0.40599,0.54765 -0.17036,0.21 -0.32321,0.40251 -0.45849,0.57718 -0.13522,0.1747 -0.19923,0.3027 -0.19234,0.38375 l 0.0723,0.85137 0.0496,0.58378 c 0.90272,0.30717 1.80185,0.61821 2.69751,0.93296 0.46893,0.0701 0.9373,0.14115 1.40511,0.21324 0.235,0.17874 0.46958,0.35773 0.70374,0.53697 l 0.0172,0.24352 0.0223,0.31659 c 0.005,0.0649 -0.0413,0.19862 -0.1373,0.4013 -0.13277,0.20524 -0.26467,0.41867 -0.39564,0.64029 -0.1664,0.24047 -0.31538,0.46361 -0.44699,0.66914 -0.13169,0.20555 -0.19434,0.34903 -0.18829,0.43015 0.005,0.0649 -0.0244,0.16496 -0.0874,0.30029 -0.0619,0.15153 -0.12374,0.30308 -0.18558,0.45465 -0.0982,0.15431 -0.17858,0.29919 -0.24125,0.43456 -0.0627,0.13536 -0.0915,0.23553 -0.0865,0.30043 0.0174,0.22725 0.005,0.5382 -0.0375,0.9333 -0.0411,0.41124 -0.0819,0.8225 -0.12263,1.23376 -0.0405,0.41126 -0.0846,0.77384 -0.13221,1.08775 -0.0464,0.33004 -0.0668,0.52776 -0.0617,0.59256 0.005,0.0649 0.0525,0.208 0.14194,0.4296 0.0907,0.23775 0.18188,0.48365 0.27351,0.7377 0.0929,0.27028 0.18503,0.53248 0.27645,0.7866 0.0925,0.27032 0.14424,0.47863 0.15545,0.62462 0.0125,0.16233 0.15192,0.34734 0.41766,0.55577 0.23018,0.21108 0.35041,0.38992 0.3613,0.53594 0.22779,0.18701 0.45517,0.37427 0.68214,0.56178 0.18276,0.0683 0.3843,0.15178 0.60438,0.25042 0.22126,0.11488 0.42461,0.23126 0.61006,0.34899 0.22192,0.13157 0.46166,0.27021 0.71933,0.41617 0.17628,-0.0118 0.37237,0.008 0.58808,0.0591 0.21572,0.0513 0.44889,0.10159 0.69959,0.15106 0.21647,0.0679 0.43228,0.12799 0.64749,0.18013 0.21521,0.0522 0.41071,0.0731 0.58671,0.0627 0.82721,-0.0489 1.65453,-0.0946 2.48193,-0.13736 0.86261,-0.0446 1.7253,-0.0859 2.58805,-0.12404 0.69958,-0.14505 1.36368,-0.28627 1.9941,-0.42472 0.56024,-0.11938 1.12093,-0.23747 1.68205,-0.35431 0.52621,-0.1157 0.94618,-0.21834 1.26177,-0.30954 0.43877,-0.0949 0.87782,-0.18902 1.31713,-0.28241 0.48975,-0.17606 1.08662,-0.37073 1.78915,-0.58193 0.66752,-0.2105 1.33613,-0.41119 2.00565,-0.60209 0.79273,-0.23377 1.5866,-0.46524 2.38151,-0.69448 0.17767,-0.002 0.61819,-0.1376 1.32556,-0.4044 0.32302,-0.12026 0.67445,-0.25343 1.05519,-0.3996 0.41132,-0.15841 0.85459,-0.33115 1.33409,-0.51942 0.88726,-0.34586 1.79316,-0.7048 2.72221,-1.07754 0.92771,-0.35595 1.71793,-0.64469 2.36383,-0.86709 0.23349,-0.0795 0.4672,-0.15878 0.70112,-0.23783 0.84784,-0.49619 1.69992,-0.98942 2.55666,-1.47935 0.001,-0.0813 0.16584,-0.20081 0.49409,-0.35745 0.32552,-0.13932 0.71372,-0.30475 1.15034,-0.48932 0.40257,-0.17019 0.76943,-0.33221 1.10057,-0.48657 0.33113,-0.15437 0.4982,-0.27171 0.50039,-0.35317 0.29423,-0.10599 0.53391,-0.20485 0.71906,-0.29712 0.18463,-0.076 0.35144,-0.16044 0.50043,-0.2535 0.11209,-0.0779 0.16948,-0.15753 0.17203,-0.23889 0.11127,-0.0454 0.31589,-0.16903 0.61598,-0.3707 0.26258,-0.20232 0.58409,-0.44467 0.96139,-0.72337 0.34039,-0.26409 0.72033,-0.55127 1.13893,-0.85976 0.382,-0.31021 0.76481,-0.60336 1.14833,-0.87945 0.34643,-0.27773 0.67383,-0.51501 0.98147,-0.71199 0.26913,-0.18215 0.4441,-0.29638 0.52046,-0.34106 0.22887,-0.0945 0.45809,-0.18864 0.68767,-0.28251 0.65364,0.0343 1.30809,0.0711 1.96332,0.11033 2.35771,0.14122 4.81614,0.43431 7.35881,0.89153 1.42479,0.25621 2.81632,0.50944 4.18615,0.76111 1.07514,0.19401 2.14283,0.39013 3.21969,0.59406 0.19181,0.0247 0.52858,0.0766 0.99565,0.15682 0.46664,0.0966 0.9602,0.2 1.473,0.30957 0.51406,0.10983 0.99315,0.20985 1.43516,0.29839 0.48282,0.11179 0.80069,0.18281 0.96639,0.21134 0.20287,0.0349 0.50825,0.10453 0.91216,0.2107 0.40342,0.10605 0.83348,0.21983 1.28185,0.34013 0.4467,0.13656 0.87622,0.2648 1.28771,0.38381 0.45597,0.12843 0.76302,0.21194 0.93386,0.24932 0.46483,0.14966 0.93132,0.30344 1.39932,0.46156 0.4476,0.11385 0.932,0.25425 1.45013,0.42343 0.54301,0.12246 1.12251,0.27519 1.73635,0.46132 0.54018,0.16379 1.10695,0.35346 1.69885,0.57114 0.45513,0.0972 0.83241,0.17763 1.14246,0.23211 0.30712,0.054 0.56115,0.0912 0.76173,0.10605 0.25903,0.04 0.40618,0.0262 0.43668,-0.0496 0.42601,-0.008 0.86484,-0.004 1.31714,0.0134 1.22958,0.25096 2.5518,0.60066 3.97351,1.06646 0.52677,0.0952 1.06854,0.20592 1.62597,0.333 l 0.34433,-0.50396 0.34432,-0.50396 c -0.88976,-0.74257 -1.7627,-1.44185 -2.61282,-2.09835 -0.55472,-0.38757 -1.32753,-0.90981 -2.25011,-1.49278 -0.9275,-0.58606 -1.84616,-1.13096 -2.74556,-1.62881 -0.83263,-0.47067 -1.56873,-0.85227 -2.20578,-1.15847 -0.63384,-0.30465 -1.0665,-0.47225 -1.31467,-0.53739 0,0 -3.9e-4,-4e-5 -3.9e-4,-4e-5 z m -69.27726,7.18413 c -0.0378,-0.73151 0.0714,-1.41349 0.32984,-2.04596 0.22205,-0.63005 0.47842,-1.33635 0.76914,-2.11577 -0.003,-0.0651 0.0475,-0.149 0.15209,-0.25173 0.0682,-0.10102 0.13683,-0.1939 0.206,-0.27863 0.10469,-0.1027 0.20913,-0.21349 0.31335,-0.33236 -0.004,-0.0813 0.10042,-0.20023 0.31281,-0.35649 0.17659,-0.13834 0.38955,-0.28638 0.63887,-0.44385 0.21284,-0.1559 0.42625,-0.30347 0.64019,-0.44273 0.1774,-0.13774 0.26488,-0.23901 0.26223,-0.30409 0.17236,-0.0852 0.4563,-0.22551 0.80881,-0.3988 0.32381,-0.15918 0.66552,-0.33488 1.02544,-0.52704 0.39583,-0.20966 0.84686,-0.43715 1.35267,-0.68152 3.64603,-0.11833 7.28126,-0.18473 10.90364,-0.20652 3.26877,-0.0267 6.56506,-0.018 9.8863,0.04 0.21959,0.10153 0.43911,0.20327 0.65855,0.30523 l -0.006,0.29301 -0.0116,0.61042 c -0.22415,0.17477 -0.44784,0.34977 -0.6711,0.525 -0.37044,0.24623 -0.74272,0.49202 -1.33216,0.88307 -0.58956,0.36638 -1.15878,0.72669 -1.70715,1.07992 -0.5846,0.36901 -1.07698,0.70035 -1.47628,0.99112 -0.43577,0.29081 -0.65305,0.47777 -0.65334,0.55899 -0.18036,0.0644 -0.48872,0.19406 -0.92114,0.38876 -0.43271,0.19486 -0.90104,0.40686 -1.40363,0.63588 -0.53818,0.24525 -1.05847,0.48396 -1.55834,0.71457 -0.2803,0.13846 -0.53197,0.259 -0.75575,0.36173 0,0 0,0 0,0 0,0 0,0 0,0 -0.17606,0.0804 -0.33473,0.14981 -0.47616,0.20813 -0.50038,0.16643 -0.94671,0.33337 -1.33885,0.50023 -0.35671,0.13394 -0.69529,0.26815 -1.01572,0.40249 -0.35604,0.13474 -0.62319,0.24455 -0.80068,0.32849 -0.65904,0.19694 -1.31741,0.39544 -1.97506,0.59554 -0.83623,0.21174 -1.67156,0.42606 -2.50589,0.64304 -0.1429,0.004 -0.35605,0.0581 -0.63895,0.16361 -0.28302,0.1055 -0.58364,0.21177 -0.90195,0.319 -0.31788,0.12351 -0.61771,0.23867 -0.89996,0.34552 -0.28222,0.10682 -0.51227,0.1634 -0.69058,0.16947 -0.40729,0.0953 -0.81435,0.1913 -1.22118,0.28795 -0.4277,0.016 -0.85542,0.0327 -1.28319,0.0502 -0.2317,0.009 -0.46341,0.0192 -0.69514,0.0291 -0.39562,-0.0645 -0.79153,-0.1284 -1.18775,-0.1916 -0.36355,-0.1299 -0.67395,-0.26168 -0.93118,-0.39584 -0.29292,-0.13241 -0.44371,-0.27958 -0.4518,-0.44218 -0.004,-0.0813 -0.0451,-0.18518 -0.12315,-0.31162 -0.0773,-0.1102 -0.15504,-0.2285 -0.23328,-0.3549 -0.11505,-0.14084 -0.23057,-0.28974 -0.34658,-0.44671 l -0.0466,-0.90214 c 0,0 -1.7e-4,1e-5 -1.7e-4,1e-5 z"
         style="font-style:normal;font-variant:normal;font-weight:normal;font-stretch:normal;font-size:49.99996948px;line-height:125%;font-family:'Buxton Sketch';-inkscape-font-specification:'Buxton Sketch, Normal';text-align:start;writing-mode:lr-tb;text-anchor:start"
         id="path6074"
         inkscape:original-d="m 304.61635,921.53521 q 0.0732,-0.31738 0.14648,-0.63477 0.0488,-0.26855 0.0977,-0.58593 0.0488,-0.29297 0.0488,-0.5127 l 0.29297,-1.17187 0,-0.83008 0,-1.14746 q 0,-0.12207 -0.0488,-0.41504 -0.0488,-0.29297 -0.0977,-0.63476 -0.0488,-0.31739 -0.0977,-0.61036 -0.0488,-0.26855 -0.0488,-0.39062 0,-0.12207 -0.0488,-0.46387 -0.0488,-0.31738 -0.0977,-0.708 -0.0488,-0.36622 -0.0977,-0.70801 -0.0488,-0.31738 -0.0488,-0.43945 0,-0.3418 -0.0977,-0.90332 -0.0732,-0.53711 -0.19531,-1.07422 -0.0977,-0.53711 -0.19532,-0.97656 -0.0732,-0.41504 -0.0732,-0.53711 l -0.58593,-1.14746 0,-0.56153 0,-0.58593 0.29296,-0.61036 q 0,-0.0977 0.0488,-0.26855 0.0488,-0.19531 0.0977,-0.39062 l 0.14648,-0.48829 0,-0.85449 0,-1.14746 q 0,-0.0977 -0.0488,-0.51269 -0.0488,-0.43946 -0.0976,-0.92774 -0.0488,-0.48828 -0.0977,-0.90332 -0.0488,-0.43945 -0.0488,-0.56152 l 0,-3.73535 q 0,-0.34179 -0.0488,-1.02539 -0.0488,-0.70801 -0.0977,-1.46484 -0.0488,-0.78125 -0.0977,-1.46484 -0.0488,-0.6836 -0.0488,-1.00098 0,-0.0977 -0.0488,-0.39062 -0.0488,-0.29297 -0.12207,-0.61036 -0.0488,-0.34179 -0.0977,-0.61035 -0.0488,-0.29297 -0.0488,-0.39062 0.0977,-0.24414 0.19532,-0.48828 0.0977,-0.19531 0.19531,-0.39063 0.0976,-0.19531 0.21972,-0.31738 l 0.29297,-0.24414 q 0.0977,0 0.3418,-0.0977 0.24414,-0.0977 0.51269,-0.19531 0.29297,-0.12207 0.53711,-0.21973 0.24414,-0.0976 0.36621,-0.0976 l 0.8545,0 0.58593,0 1.14746,1.14746 0.31739,0.61035 0.58593,0.29297 0.24414,0 0.31739,0 q 0.0976,0 0.39062,-0.0732 0.29297,-0.0977 0.61035,-0.19532 0.3418,-0.12207 0.63477,-0.21972 0.29297,-0.0977 0.41504,-0.0977 0.0976,0 0.29296,-0.0488 0.21973,-0.0488 0.43946,-0.0977 0.21972,-0.0733 0.41504,-0.12207 0.19531,-0.0488 0.29296,-0.0488 0.3418,0 0.92774,-0.0488 0.61035,-0.0488 1.2207,-0.0977 0.61035,-0.0488 1.07422,-0.0976 0.48828,-0.0488 0.58594,-0.0488 0.0976,0 0.43945,0.0488 0.36621,0.0488 0.75683,0.0976 0.41504,0.0488 0.80567,0.0977 0.41504,0.0488 0.63476,0.0488 0.24414,0 0.58594,0.1709 0.3418,0.14648 0.56152,0.14648 l 0.61035,0.29297 q 0.12208,0.12207 0.29297,0.26855 0.19532,0.14649 0.39063,0.26856 0.21972,0.14648 0.46387,0.31738 0,0.12207 0.0976,0.26856 0.0977,0.14648 0.19531,0.31738 0.12207,0.14648 0.21973,0.29297 0.0977,0.14648 0.0977,0.26855 l 0,1.14746 0,1.19629 q -0.1709,0.48828 -0.3418,0.92773 -0.14648,0.39063 -0.29297,0.78125 -0.14648,0.36621 -0.26855,0.58594 l -0.24414,0.61035 q -0.24414,0.3418 -0.53711,0.83008 -0.29297,0.46387 -0.56153,0.92773 l -0.65918,1.09864 q 0,0.12207 -0.39062,0.61035 -0.36621,0.46386 -0.90332,1.09863 -0.51269,0.61035 -1.07422,1.24512 -0.53711,0.63476 -0.8789,1.07421 l -0.24414,0.31739 -1.51368,1.14746 q -0.12207,0 -0.36621,0.21972 -0.21972,0.21973 -0.51269,0.5127 -0.26856,0.26855 -0.5127,0.48828 -0.24414,0.21972 -0.36621,0.21972 -0.17089,0.19532 -0.31738,0.31739 -0.12207,0.12207 -0.26855,0.21972 -0.12207,0.0733 -0.24414,0.0733 -0.0733,0.0732 -0.39063,0.26855 -0.31738,0.1709 -0.75683,0.41504 -0.41504,0.21973 -0.90332,0.48828 -0.48829,0.24414 -0.92774,0.48828 -0.43945,0.21973 -0.75683,0.41504 -0.29297,0.1709 -0.36621,0.21973 l -0.31739,0.29297 0,0.85449 q 0,1.53808 0.3418,3.19824 0.3418,1.66015 0.56152,3.19824 0,0.12207 0.0244,0.41504 0.0488,0.29296 0.0976,0.61035 0.0488,0.31738 0.0733,0.58593 0.0488,0.29297 0.0488,0.39063 0,0.12207 0.0488,0.36621 0.0488,0.24414 0.0977,0.51269 0.0732,0.26856 0.12207,0.5127 0.0488,0.26855 0.0488,0.36621 l 0.29296,1.14746 0,0.61035 0,0.53711 q -0.0976,0.19531 -0.19531,0.31738 -0.0976,0.12207 -0.19531,0.19532 -0.0977,0.0977 -0.21973,0.0977 l -0.53711,0.29297 -0.90332,0.85449 -0.5371,0.29297 -0.61036,0 -0.61035,0 -0.53711,-0.61035 q -0.12207,-0.19531 -0.31738,-0.53711 -0.19531,-0.3418 -0.39062,-0.70801 -0.19532,-0.34179 -0.3418,-0.63476 -0.14648,-0.29297 -0.14648,-0.41504 z m 11.08397,-29.541 q -1.09863,0 -2.02636,0.19531 -0.92774,0.1709 -2.0752,0.39063 -0.0977,0 -0.24414,0.0732 -0.14648,0.0488 -0.26855,0.0977 -0.14649,0.0732 -0.31738,0.14648 -0.12207,0 -0.3418,0.14649 -0.19531,0.12207 -0.41504,0.29296 -0.21973,0.14649 -0.41504,0.29297 -0.19531,0.12207 -0.29297,0.12207 -0.12207,0.12207 -0.36621,0.36621 -0.21972,0.21973 -0.48828,0.46387 -0.29297,0.26856 -0.63476,0.61035 l 0,9.25293 0.29296,0.29296 0.29297,0 0.61035,0 0.53711,-0.29296 q 0.3418,-0.21973 0.90332,-0.58594 0.56153,-0.39063 1.09864,-0.75684 0.56152,-0.39062 1.00097,-0.65918 0.43945,-0.29296 0.56152,-0.29296 0.0977,-0.12207 0.39063,-0.41504 0.29297,-0.29297 0.63476,-0.63477 0.36622,-0.36621 0.70801,-0.70801 0.36621,-0.34179 0.56152,-0.56152 0.24415,-0.3418 0.48829,-0.61035 0.19531,-0.24414 0.39062,-0.46387 0.19531,-0.24414 0.31738,-0.36621 l 0.56153,-0.90332 0.58593,-1.14746 q 0,-0.0977 0.14649,-0.29297 0.14648,-0.19531 0.29297,-0.41503 0.17089,-0.21973 0.31738,-0.41504 0.14648,-0.19532 0.14648,-0.31739 l 0.24414,-0.56152 0,-0.58594 0,-0.31738 -0.24414,-0.53711 q -0.21972,-0.24414 -0.43945,-0.41504 -0.21973,-0.19531 -0.46387,-0.19531 -0.12207,0 -0.31738,-0.0488 -0.1709,-0.0488 -0.36621,-0.0976 -0.21973,-0.0733 -0.46387,-0.14649 l -0.90332,0 z"
         inkscape:connector-curvature="0" />
      <path
         d="m 345.6952,912.88545 0.009,-0.31731 c 0.002,-0.0813 0.1376,-0.23243 0.40635,-0.45256 0.23538,-0.20469 0.50506,-0.43298 0.80836,-0.6837 0.30294,-0.23459 0.58973,-0.46106 0.86029,-0.67957 0.2372,-0.20343 0.35726,-0.33734 0.3597,-0.40246 0.10266,-0.11027 0.20547,-0.22048 0.30843,-0.33063 0.0694,-0.0951 0.13894,-0.19021 0.2086,-0.28527 0.0695,-0.0951 0.10594,-0.18323 0.10917,-0.26455 0.21638,-0.47214 0.43374,-0.94401 0.65211,-1.41558 0.003,-0.0813 0.0753,-0.21687 0.21602,-0.40643 0.10765,-0.19094 0.24925,-0.39676 0.42497,-0.61716 0.14186,-0.20561 0.28372,-0.40296 0.42555,-0.59206 0.10852,-0.19062 0.16442,-0.31831 0.16744,-0.38339 0.004,-0.0813 0.0419,-0.18546 0.11454,-0.31243 0.0719,-0.11073 0.14425,-0.22955 0.2172,-0.35646 0.10688,-0.14161 0.21437,-0.29127 0.32249,-0.44898 l 0.0859,-1.75563 0.0704,-1.43865 c 0.004,-0.0812 -0.023,-0.22114 -0.0812,-0.41944 -0.0582,-0.19831 -0.13279,-0.41374 -0.22388,-0.64613 -0.12584,-0.21775 -0.25239,-0.42728 -0.37957,-0.62859 -0.16131,-0.20287 -0.32603,-0.34055 -0.49378,-0.41303 0.004,-0.0813 -0.0422,-0.20552 -0.13761,-0.37252 -0.1297,-0.16848 -0.27638,-0.34577 -0.44014,-0.53172 -0.1981,-0.18738 -0.37951,-0.37382 -0.54414,-0.55947 -0.19959,-0.17072 -0.38437,-0.29176 -0.55389,-0.3632 0.003,-0.0813 -0.0452,-0.17273 -0.14481,-0.27411 -0.13419,-0.10264 -0.286,-0.19768 -0.45546,-0.28503 -0.16889,-0.10361 -0.38955,-0.21709 -0.66197,-0.33994 -0.1351,-0.0856 -0.35643,-0.21536 -0.66223,-0.38725 -0.34137,-0.15691 -0.69988,-0.33814 -1.07593,-0.54358 -0.41128,-0.19014 -0.7885,-0.3702 -1.13223,-0.541 -0.33193,-0.16494 -0.59631,-0.29548 -0.72239,-0.3577 -0.34544,-0.12112 -0.69129,-0.24169 -1.03755,-0.36172 -0.27691,-0.10254 -0.53662,-0.20442 -0.77919,-0.30581 -0.27746,-0.10192 -0.48542,-0.19426 -0.62396,-0.27756 -0.97325,-0.28979 -1.91558,-0.47745 -2.82388,-0.56402 -0.90844,-0.0703 -1.8523,-0.17835 -2.83202,-0.32366 -0.61237,-0.0969 -1.22514,-0.1926 -1.83825,-0.28704 -0.21216,0.001 -0.42431,0.002 -0.63645,0.004 -0.40041,0.003 -0.80082,0.006 -1.20123,0.01 -0.64755,0.006 -1.29509,0.0136 -1.94262,0.0226 -0.45162,0.006 -1.21064,0.0418 -2.25611,0.11073 -1.0446,0.0851 -2.15285,0.17632 -3.30104,0.27308 -1.1857,0.11428 -2.30351,0.22424 -3.34819,0.32771 -1.04863,0.10388 -1.7917,0.16772 -2.24863,0.18737 -1.21146,0.32937 -2.57319,0.65418 -4.09255,0.98255 -1.55252,0.32993 -2.94288,0.69464 -4.16984,1.0881 -0.61194,0.22112 -1.22263,0.44403 -1.83202,0.66874 -0.18243,0.11961 -0.36464,0.23938 -0.54663,0.35931 -0.91106,0.36325 -1.9044,0.7284 -2.98204,1.09935 -1.10984,0.38984 -2.09587,0.77591 -2.95769,1.1539 -0.16395,0.098 -0.47623,0.25049 -0.93915,0.46093 -0.28776,0.13082 -0.5815,0.26593 -0.881,0.40532 -0.18164,0.0846 -0.36538,0.17079 -0.55109,0.25855 -0.52428,0.25227 -1.01504,0.47817 -1.47257,0.67713 -0.45514,0.21486 -0.76259,0.37422 -0.92108,0.47441 -0.54937,0.26915 -1.09561,0.54023 -1.63831,0.8135 -0.29251,0.10238 -0.62666,0.27639 -0.99969,0.52242 -0.371,0.26226 -0.72189,0.53145 -1.05286,0.8074 -0.32866,0.292 -0.62433,0.5644 -0.88764,0.8164 -0.26351,0.25217 -0.47012,0.42266 -0.62288,0.51151 -0.11999,0.0838 -0.26517,0.2211 -0.4342,0.4117 -0.16899,0.19065 -0.31962,0.38714 -0.45208,0.58931 -0.16191,0.22317 -0.2947,0.41784 -0.39868,0.58293 -0.1015,0.18124 -0.14524,0.31226 -0.13212,0.39248 l 0.14584,0.89136 0.13795,0.84318 c 0.0105,0.0643 0.0876,0.14231 0.23102,0.23446 0.14342,0.0922 0.30095,0.17405 0.47267,0.24572 0.14311,0.0927 0.28471,0.17756 0.42489,0.25463 0.11152,0.098 0.17338,0.18728 0.1858,0.26769 0.32067,0.10703 0.64125,0.21515 0.96182,0.32428 0.26998,0.0919 0.53873,0.17647 0.80645,0.25364 0.26618,0.092 0.49326,0.17106 0.65822,0.22869 0.16885,0.059 0.38598,0.11973 0.65196,0.18281 0.23432,0.0673 0.48352,0.12488 0.74785,0.17286 0.29822,0.0601 0.61358,0.12677 0.94655,0.2004 0.19132,-0.0237 0.38304,-0.0471 0.57515,-0.0703 0.35221,-0.0425 0.70574,-0.0843 1.06059,-0.12532 0.38267,-0.22453 0.76809,-0.44827 1.15606,-0.67132 0.16272,-0.32096 0.32659,-0.64183 0.49152,-0.96258 l -0.40652,-3.7871 c 0.26381,-0.24251 0.5289,-0.4847 0.79517,-0.72657 0.0902,-0.0819 0.18045,-0.1637 0.27081,-0.24548 0.19153,-0.11794 0.38332,-0.23566 0.57537,-0.35319 0.76198,-0.36313 1.52715,-0.72303 2.29538,-1.07977 0.16904,-0.0156 0.38272,-0.10047 0.64182,-0.25444 0.26057,-0.13775 0.53623,-0.30095 0.82736,-0.48952 0.29226,-0.17219 0.56966,-0.33486 0.83033,-0.48715 0.26229,-0.13623 0.47879,-0.21111 0.64879,-0.22493 0.16269,-0.0777 0.54745,-0.24125 1.14361,-0.48244 0.56387,-0.23929 1.19719,-0.49898 1.89856,-0.77689 0.70281,-0.2618 1.39129,-0.51198 2.06442,-0.75069 0.6725,-0.22193 1.16682,-0.37465 1.47024,-0.45744 0.37205,-0.11987 0.74453,-0.23911 1.11743,-0.35771 0.47215,-0.107 1.11275,-0.24933 1.89379,-0.41795 0.75228,-0.1517 1.50524,-0.30903 2.25898,-0.47207 0.75391,-0.14667 1.44213,-0.27198 2.06075,-0.37658 0.6184,-0.10456 1.01654,-0.15894 1.18865,-0.16484 0.17335,-0.006 0.46604,-0.0322 0.88063,-0.0779 0.41432,-0.0458 0.86287,-0.10008 1.34638,-0.16265 0.48387,-0.0462 0.96795,-0.0916 1.45222,-0.13609 0.48406,-0.0444 0.88276,-0.0696 1.19449,-0.0763 0.64124,-0.0138 1.28261,-0.026 1.92409,-0.0367 0.58947,-0.01 1.17903,-0.0185 1.76868,-0.0258 0.17329,-0.002 0.43392,0.0109 0.78099,0.0398 0.34733,0.0289 0.72892,0.0578 1.14551,0.087 0.19327,0.0231 0.38205,0.0444 0.56636,0.0637 0.18007,0.0189 0.35586,0.036 0.52737,0.0512 0.34738,0.0308 0.58991,0.0461 0.72885,0.0456 0.17346,-6.3e-4 0.36435,0.0232 0.57254,0.0715 0.20817,0.0483 0.43368,0.10491 0.67632,0.16985 0.20802,0.0649 0.43321,0.12184 0.6756,0.1709 0.20778,0.049 0.38082,0.0736 0.51929,0.0739 0.34591,0.16348 0.674,0.32735 0.98434,0.49152 0.27593,0.13145 0.55156,0.25505 0.82694,0.3708 0.24076,0.13182 0.44686,0.23104 0.61874,0.29757 0.17161,0.0828 0.39477,0.20688 0.66845,0.37235 0.23943,0.16525 0.49538,0.33887 0.76813,0.5213 0.30677,0.19904 0.6301,0.41508 0.96931,0.64803 0.17033,0.0677 0.37403,0.19295 0.61048,0.37595 0.20199,0.19875 0.40343,0.40582 0.60425,0.62121 0.16637,0.23101 0.31564,0.44564 0.44789,0.64364 0.13229,0.198 0.19759,0.3297 0.19624,0.39477 l -0.0247,1.19637 -0.0238,1.14754 c -0.001,0.0652 -0.0381,0.2109 -0.11012,0.43744 -0.072,0.22653 -0.14426,0.46936 -0.21676,0.72849 -0.0723,0.25914 -0.14414,0.49388 -0.2154,0.70423 -0.0714,0.2266 -0.10782,0.3807 -0.10935,0.46205 -0.23978,0.27235 -0.44524,0.5213 -0.61641,0.74636 -0.17065,0.19255 -0.32422,0.3774 -0.46076,0.55442 -0.13683,0.19327 -0.20561,0.3226 -0.20657,0.38768 -0.13715,0.22602 -0.32472,0.5 -0.56256,0.8226 -0.27119,0.32209 -0.54181,0.64449 -0.81188,0.96719 -0.30391,0.37115 -0.64053,0.7505 -1.00966,1.13819 -5.2e-4,0.0652 -0.0845,0.16212 -0.25179,0.29107 -0.20065,0.145 -0.41776,0.28188 -0.65138,0.41072 -0.26698,0.14492 -0.53382,0.28195 -0.8006,0.4111 -0.2631,0.12737 -0.48715,0.23609 -0.65019,0.31527 -0.39989,0.0966 -0.79999,0.1938 -1.20033,0.29146 -0.33372,-10e-6 -0.70112,0.041 -1.10211,0.12332 -0.20047,0.0493 -0.4177,0.0987 -0.65177,0.14835 -0.2029,7e-4 -0.40593,0.002 -0.60909,0.002 -0.58188,0.004 -1.16333,0.01 -1.74433,0.0163 -0.78293,0.009 -1.56503,0.0199 -2.34629,0.0332 -0.16637,0.003 -0.41566,-0.009 -0.74867,-0.0354 -0.33259,-0.01 -0.68193,-0.0356 -1.0482,-0.0765 -0.39929,-0.024 -0.74816,-0.0485 -1.0477,-0.0738 -0.33193,-0.008 -0.58137,-0.01 -0.7469,-0.006 -0.20148,-0.0924 -0.40307,-0.18472 -0.60476,-0.27684 l -0.0319,-1.14715 -0.0332,-1.19598 c 0.19506,-0.19267 0.39048,-0.3852 0.58625,-0.57757 0.16523,-0.0858 0.41145,-0.26298 0.74039,-0.53153 0.29561,-0.25131 0.64186,-0.52814 1.03881,-0.82964 0.36336,-0.30079 0.7115,-0.58465 1.04364,-0.85131 0.33214,-0.26666 0.58279,-0.43387 0.75042,-0.50178 0.16407,-0.28767 0.32853,-0.57523 0.49337,-0.8627 l -0.0139,-0.9033 -0.009,-0.5615 c -0.17286,-0.19266 -0.34594,-0.38521 -0.51925,-0.57765 -0.42854,-0.19629 -0.85758,-0.3919 -1.28715,-0.58683 -0.17182,-0.078 -0.36059,-0.14736 -0.56628,-0.20808 -0.20566,-0.0607 -0.39426,-0.11349 -0.56564,-0.15846 -0.20583,-0.0605 -0.42839,-0.10406 -0.66759,-0.13073 -0.20435,0.005 -0.40867,0.0102 -0.61295,0.0155 -0.42559,0.0111 -0.85105,0.023 -1.27636,0.0355 -0.30581,0.009 -0.76472,0.0636 -1.37345,0.16521 -0.30469,0.0427 -0.64328,0.095 -1.01496,0.1573 -0.36618,0.2168 -0.73161,0.43416 -1.09626,0.65207 -0.19558,0.20314 -0.39078,0.40645 -0.5856,0.60991 0.003,0.0651 -0.058,0.23847 -0.18158,0.52065 -0.12287,0.29835 -0.24464,0.61301 -0.36524,0.944 -0.1535,0.34838 -0.29142,0.66452 -0.41328,0.94656 -0.12201,0.28228 -0.18097,0.46429 -0.17734,0.54552 0.003,0.0652 -0.10707,0.23278 -0.32922,0.50364 -0.25572,0.27254 -0.54252,0.57072 -0.86091,0.89589 -0.3182,0.32497 -0.61909,0.6415 -0.90282,0.94937 -0.31058,0.30337 -0.55999,0.54842 -0.71134,0.69733 -0.36459,0.32105 -0.72789,0.6427 -1.08987,0.96497 -0.18761,0.19005 -0.37481,0.38025 -0.56161,0.57062 0.005,0.0812 -0.0228,0.17253 -0.0826,0.27391 -0.0599,0.10138 -0.11977,0.20279 -0.17965,0.3042 -0.0916,0.11964 -0.1995,0.24028 -0.3237,0.36202 l 0.0704,1.14527 0.0554,0.9016 c 0.22313,0.17389 0.44595,0.34802 0.66846,0.52239 0.16747,0.0717 0.3511,0.14247 0.55093,0.21255 0.20075,0.0863 0.38514,0.1738 0.55315,0.26228 0.20053,0.0867 0.41815,0.18893 0.65267,0.30679 0.45842,0.0407 0.86863,0.085 1.22963,0.1323 0.32779,0.0326 0.65603,0.0739 0.98466,0.12383 0.29601,0.0514 0.52704,0.10627 0.69273,0.16403 0.62536,0.11888 1.31342,0.18781 2.06559,0.20787 0.75213,0.02 1.4417,0.0938 2.06723,0.22014 0.59464,-0.0193 1.44758,-0.0619 2.60048,-0.12383 1.10962,-0.0605 2.3813,-0.1288 3.79256,-0.19966 1.11472,-0.0437 2.28106,-0.0889 3.5076,-0.13491 0.2974,-0.0101 0.59929,-0.0204 0.90232,-0.0307 1.56378,-0.053 3.03738,-0.0984 4.4528,-0.13735 1.38187,-0.0228 2.6286,-0.0392 3.76966,-0.052 1.10127,-0.0132 1.94665,-0.009 2.52395,0.005 0.564,0.0145 1.12659,0.0305 1.68776,0.0482 0.40083,0.0127 0.80093,0.0262 1.2003,0.0406 0.28472,0.0103 0.78475,0.045 1.48016,0.10668 0.6967,0.0618 1.42684,0.12825 2.18122,0.19968 0.7871,0.0731 1.50842,0.14703 2.16393,0.22005 0.69119,0.0754 1.14917,0.12292 1.40276,0.14036 0.38281,0.1242 0.76426,0.24948 1.14435,0.37587 0.34092,0.0256 0.68122,0.052 1.0209,0.0794 0.20072,0.0162 0.40122,0.0327 0.6015,0.0495 0.22113,-0.0467 0.44222,-0.0931 0.66329,-0.13902 0.1903,-0.0487 0.36519,-0.0983 0.52478,-0.1492 0.18887,-0.0319 0.36379,-0.081 0.52495,-0.14765 0.1765,-0.0652 0.35308,-0.13006 0.52974,-0.19469 0.1613,-0.0661 0.30811,-0.14159 0.44049,-0.22654 0.16309,-0.0819 0.29559,-0.16664 0.39749,-0.25442 0.1343,-0.10084 0.25334,-0.20309 0.3571,-0.30686 l 0.0868,-0.84997 0.062,-0.60712 c -0.0814,-0.12297 -0.18022,-0.23129 -0.29652,-0.3249 -0.0851,-0.0904 -0.20232,-0.17588 -0.35183,-0.25614 -0.11995,-0.0609 -0.25799,-0.099 -0.41403,-0.11412 -0.3497,-0.13192 -0.70058,-0.2628 -1.05263,-0.39265 -0.15687,-0.0142 -0.32805,-0.0458 -0.51383,-0.0947 -0.18575,-0.0489 -0.37176,-0.0975 -0.55802,-0.14582 -0.21641,-0.0672 -0.43388,-0.12593 -0.65233,-0.17621 -0.12718,-0.0102 -0.37694,-0.0466 -0.75505,-0.10824 -0.34561,-0.0591 -0.72396,-0.11972 -1.13462,-0.18137 -0.41437,-0.0621 -0.80303,-0.12035 -1.18725,-0.17815 -0.38012,-0.0571 -0.65199,-0.0901 -0.81131,-0.0997 -0.29309,-0.0178 -0.8093,-0.065 -1.58358,-0.1392 -0.76929,-0.0737 -1.57286,-0.14519 -2.41236,-0.21394 -0.86397,-0.0695 -1.68955,-0.13361 -2.4293,-0.19076 -0.77623,-0.0585 -1.32262,-0.0902 -1.61282,-0.0983 0,0 -1.2e-4,-8e-5 -1.2e-4,-8e-5 z"
         style="font-style:normal;font-variant:normal;font-weight:normal;font-stretch:normal;font-size:49.99996948px;line-height:125%;font-family:'Buxton Sketch';-inkscape-font-specification:'Buxton Sketch, Normal';text-align:start;writing-mode:lr-tb;text-anchor:start"
         id="path6076"
         inkscape:original-d="m 345.60753,906.12995 -0.31738,0 q -0.12207,0 -0.46387,0.19531 -0.31738,0.1709 -0.70801,0.39062 -0.36621,0.21973 -0.708,0.41504 -0.31739,0.1709 -0.41504,0.1709 -0.1709,0.0732 -0.3418,0.14648 -0.14648,0.0488 -0.29297,0.0977 -0.14648,0.0488 -0.26855,0.0488 l -1.44043,0.29297 q -0.12207,0 -0.41504,0.0977 -0.29297,0.0733 -0.63476,0.19532 -0.31739,0.0976 -0.61036,0.19531 -0.29296,0.0732 -0.39062,0.0732 -0.12207,0 -0.31738,0.0488 -0.1709,0.0488 -0.36621,0.0977 -0.21973,0.0732 -0.46387,0.14649 l -1.75781,0 -1.44043,0 q -0.12207,0 -0.41504,-0.0488 -0.29297,-0.0488 -0.63477,-0.12207 -0.31738,-0.0977 -0.61035,-0.19531 -0.29297,-0.12207 -0.39062,-0.24414 -0.12207,0 -0.36621,-0.0732 -0.24414,-0.0977 -0.5127,-0.21973 -0.26855,-0.14649 -0.53711,-0.26856 -0.24414,-0.14648 -0.34179,-0.26855 -0.12207,0 -0.26856,-0.0732 -0.14648,-0.0977 -0.26855,-0.21973 -0.14649,-0.12207 -0.31738,-0.31738 -0.12207,-0.0977 -0.36622,-0.31738 -0.21972,-0.24414 -0.51269,-0.5127 -0.26855,-0.29297 -0.5127,-0.53711 -0.24414,-0.24414 -0.34179,-0.34179 -0.1709,-0.24415 -0.3418,-0.48829 -0.14648,-0.19531 -0.29297,-0.36621 -0.14648,-0.19531 -0.26855,-0.29297 -0.41504,-0.68359 -0.53711,-1.31835 -0.0977,-0.63477 -0.31738,-1.31836 l -0.29297,-0.85449 0,-0.8545 0,-0.90332 q 0,-0.31738 0.0732,-1.0498 0.0977,-0.73242 0.19531,-1.53808 0.12207,-0.83008 0.21973,-1.5625 0.0977,-0.73242 0.0977,-1.04981 0.41503,-0.85449 0.78124,-1.92871 0.36622,-1.09863 0.83008,-1.97753 l 0.53711,-0.87891 0.31738,-0.26856 q 0.43946,-0.65917 0.8545,-1.44042 0.43945,-0.80567 0.8789,-1.44043 0.12207,-0.12207 0.36621,-0.46387 0.24414,-0.3418 0.5127,-0.70801 0.29297,-0.39062 0.51269,-0.73242 0.24414,-0.3418 0.36621,-0.46387 l 0.61035,-0.83007 q 0.0977,-0.21973 0.39063,-0.5127 0.31738,-0.29297 0.65918,-0.56152 0.36621,-0.26856 0.68359,-0.48828 0.31738,-0.21973 0.41504,-0.3418 0.0977,-0.0976 0.3418,-0.24414 0.24414,-0.14648 0.51269,-0.26855 0.29297,-0.14649 0.5127,-0.24414 0.24414,-0.0977 0.36621,-0.0977 l 0.90332,0 0.85449,0 q 0.0977,0 0.26855,0.0977 0.1709,0.0977 0.31739,0.21972 0.17089,0.0977 0.31738,0.19531 0.1709,0.0733 0.29297,0.0733 l 0.46386,0.46386 q 0.19532,0.19532 0.36622,0.39063 0.19531,0.19531 0.31738,0.31738 0.12207,0.12207 0.26855,0.31738 0.14649,0.1709 0.26856,0.36621 0.14648,0.21973 0.31738,0.46387 l 0,0.29297 0,0.53711 -0.53711,0.61035 -0.90332,0.29297 -3.80859,0 -0.85449,0.56152 -0.29297,0.29297 -0.85449,1.14746 q 0,0.12207 -0.19532,0.31738 -0.17089,0.19532 -0.41503,0.41504 -0.21973,0.21973 -0.41504,0.41504 -0.1709,0.19531 -0.1709,0.31738 -0.0977,0.12207 -0.39063,0.56153 -0.29296,0.41504 -0.63476,0.92773 -0.31738,0.5127 -0.61035,1.00098 -0.26856,0.48828 -0.36621,0.708 l -0.29297,0.53711 q -0.12207,0.3418 -0.31738,0.90332 -0.1709,0.53711 -0.36621,1.07422 -0.1709,0.53711 -0.29297,0.97656 -0.12207,0.43946 -0.12207,0.56153 0,0.12207 -0.0488,0.41503 -0.0488,0.29297 -0.12207,0.63477 -0.0488,0.3418 -0.0977,0.68359 -0.0488,0.3418 -0.0488,0.56153 l 0,0.90332 0,0.83007 q 0,0.12207 0.0488,0.36621 0.0488,0.24414 0.0977,0.53711 0.0732,0.26856 0.12207,0.5127 0.0488,0.24414 0.0488,0.34179 0,0.12208 0.0732,0.26856 0.0732,0.14648 0.1709,0.31738 0.0976,0.14649 0.1709,0.31738 0.0732,0.14649 0.0732,0.24414 0.24414,0.24415 0.48828,0.46387 0.19531,0.19531 0.36621,0.39063 0.19531,0.17089 0.29297,0.29297 0.12207,0.12207 0.36621,0.31738 0.24414,0.1709 0.51269,0.36621 0.29297,0.21972 0.63477,0.46387 0.0977,0.12207 0.36621,0.29296 0.29297,0.14649 0.61035,0.29297 0.3418,0.12207 0.63477,0.21973 0.29296,0.0977 0.39062,0.0977 l 1.19629,0 1.14746,0 q 0.0977,0 0.43945,-0.0488 0.3418,-0.0488 0.73242,-0.0977 0.39063,-0.0488 0.70801,-0.0977 0.3418,-0.0488 0.46387,-0.0488 0.41504,-0.1709 0.75683,-0.29297 0.29297,-0.12207 0.56153,-0.21973 0.29296,-0.0977 0.39062,-0.0977 0.3418,-0.0977 0.83008,-0.26856 0.48828,-0.19531 0.97656,-0.39062 0.56152,-0.21973 1.14746,-0.48828 0.0977,0 0.29297,-0.12208 0.21973,-0.14648 0.41504,-0.31738 0.21972,-0.19531 0.41504,-0.39062 0.19531,-0.19531 0.31738,-0.31739 l 0.29297,-0.58593 q 0,-0.24414 0.12207,-0.53711 0.0732,-0.14649 0.14648,-0.31738 l 0,-1.14746 0,-1.14746 q 0,-0.12207 -0.0488,-0.36621 -0.0244,-0.24415 -0.0976,-0.5127 -0.0488,-0.29297 -0.0977,-0.51269 -0.0244,-0.24415 -0.0244,-0.36622 l -0.29297,-0.29296 -1.14746,0 -1.19629,0 -0.56152,0.29296 q -0.12207,0.12207 -0.5127,0.36622 -0.36621,0.21972 -0.80566,0.51269 -0.43945,0.26855 -0.83008,0.5127 -0.39062,0.24414 -0.48828,0.36621 l -0.85449,0.24414 -0.90332,0 -0.56152,0 -0.58594,-0.24414 -0.61035,-0.61036 q -0.12207,-0.12207 -0.21973,-0.26855 -0.0976,-0.14648 -0.1709,-0.26855 -0.0977,-0.14649 -0.14648,-0.31739 l 0,-0.29297 0,-0.61035 q 0,-0.21972 0.12207,-0.65918 0.0488,-0.21972 0.12207,-0.48828 l 0.61035,-0.53711 0.58594,-0.29296 q 0.0976,0 0.51269,-0.0977 0.43946,-0.0977 0.92774,-0.19531 0.51269,-0.12207 0.92773,-0.21973 0.41504,-0.0977 0.53711,-0.0977 0.0977,0 0.48828,-0.17089 0.39062,-0.19532 0.85449,-0.43946 0.46387,-0.24414 0.90332,-0.46386 0.43945,-0.24414 0.65918,-0.36621 l 0.90332,-0.56153 0.53711,-0.29297 q 0.12207,0 0.26855,-0.0488 0.14649,-0.0488 0.29297,-0.0977 0.1709,-0.0732 0.3418,-0.1709 l 1.14746,0 0.90332,0 0.56152,0.31738 q 0.12207,0.12207 0.24414,0.26856 0.14649,0.14648 0.29297,0.26855 0.14649,0.14649 0.3418,0.31739 0.0976,0.34179 0.19531,0.61035 0.0732,0.24414 0.1709,0.48828 0.0977,0.21972 0.19531,0.34179 0.21973,0.46387 0.29297,1.02539 0.0732,0.56153 0.29297,1.02539 0,0.43946 -0.0488,1.29395 -0.0488,0.83008 -0.12207,1.87988 -0.0488,1.02539 -0.12207,2.17285 -0.0732,1.14746 -0.14648,2.19726 -0.0488,1.02539 -0.0977,1.87989 -0.0488,0.83007 -0.0488,1.26953 l 0,0.85449 0,0.61035 q 0,0.21973 0.0488,0.75684 0.0488,0.5371 0.0977,1.12304 0.0488,0.61035 0.0976,1.12305 0.0488,0.53711 0.0488,0.73242 l 0.29297,0.61035 0,0.53711 0,0.31738 -0.19531,0.3418 q -0.0977,0.14648 -0.19532,0.26855 -0.0732,0.14649 -0.19531,0.26856 l -0.24414,0.26855 q -0.12207,0.12207 -0.26855,0.21973 -0.14649,0.12207 -0.29297,0.19531 -0.1709,0.0977 -0.3418,0.1709 l -0.85449,0 -0.61035,0 q -0.1709,-0.0732 -0.29297,-0.1709 -0.12207,-0.0732 -0.21973,-0.19531 -0.0732,-0.0977 -0.0732,-0.21973 l -0.29297,-0.56152 q 0,-0.12207 -0.0488,-0.26856 -0.0488,-0.14648 -0.0976,-0.29296 -0.0732,-0.1709 -0.12207,-0.3418 0,-0.0977 -0.0488,-0.39063 -0.0488,-0.26855 -0.0977,-0.58593 -0.0488,-0.31739 -0.0977,-0.61035 -0.0488,-0.29297 -0.0488,-0.41504 0,-0.21973 -0.0488,-0.80567 -0.0488,-0.58593 -0.0976,-1.2207 -0.0488,-0.65918 -0.0977,-1.2207 -0.0488,-0.58594 -0.0488,-0.80566 z"
         inkscape:connector-curvature="0" />
      <path
         d="m 350.18873,923.972 c -0.27219,-0.0938 -0.70121,-0.21988 -1.28366,-0.37377 -0.61468,-0.15548 -1.26364,-0.30994 -1.94781,-0.46288 -0.68397,-0.15288 -1.34156,-0.28602 -1.97032,-0.39997 -0.62843,-0.1139 -1.08887,-0.17286 -1.37402,-0.17893 -0.20642,-0.004 -0.41308,-0.009 -0.61997,-0.0126 -0.38195,-0.007 -0.7647,-0.0141 -1.14823,-0.0201 -0.15977,-0.003 -0.36797,0.0106 -0.62461,0.0395 -0.2887,0.0285 -0.57776,0.0574 -0.86715,0.0866 -0.28937,0.0292 -0.56317,0.0589 -0.82099,0.0891 -0.25794,0.0301 -0.4514,0.0448 -0.5805,0.0438 -0.12979,-0.001 -0.41858,-0.0196 -0.872,-0.0548 -0.45288,-0.0352 -0.93924,-0.0699 -1.45965,-0.10383 -0.52101,-0.0339 -0.99283,-0.0667 -1.41845,-0.0992 -0.45723,-0.0323 -0.76981,-0.048 -0.93322,-0.0476 -0.17472,3.7e-4 -0.4707,-0.006 -0.89238,-0.0189 -0.21227,-0.006 -0.45444,-0.0127 -0.72925,-0.0211 -0.85145,-0.0247 -1.75929,-0.0543 -2.73852,-0.0878 -0.97667,-0.0171 -1.91832,-0.0313 -2.82689,-0.0432 -0.90574,-0.0117 -1.5743,-0.01 -1.99202,0.002 -0.80817,0.0228 -1.61495,0.0482 -2.4203,0.0764 -0.13103,0.005 -0.48174,5.4e-4 -1.06412,-0.01 -0.57995,-0.0104 -1.19249,-0.0182 -1.83541,-0.0228 -0.64414,-0.005 -1.23669,-0.009 -1.78344,-0.0152 -0.54421,-0.006 -0.88389,-0.004 -1.01019,0.002 -0.75126,0.0393 -1.5012,0.0814 -2.24979,0.12614 -0.16668,0.01 -0.63072,0.0213 -1.43501,0.0405 -0.82781,0.021 -1.70425,0.0487 -2.62406,0.0843 -0.94855,0.0378 -1.82716,0.075 -2.61451,0.10856 -0.785,0.0335 -1.27024,0.0607 -1.4216,0.0743 -0.30481,0.0273 -0.93934,0.0677 -2.03039,0.14098 -0.55831,0.038 -1.13678,0.0798 -1.73384,0.12581 -0.57889,0.0458 -1.17421,0.0947 -1.77765,0.14661 -1.23771,0.10659 -2.32456,0.20574 -3.33324,0.30327 -1.01522,0.0992 -1.66473,0.17577 -1.90949,0.21088 -0.68299,-0.009 -1.35704,-0.0136 -2.02226,-0.0132 -0.67589,0.10928 -1.34018,0.22379 -1.99264,0.34447 -0.0847,0.0157 -0.22279,0.0205 -0.41428,0.0152 0,0 0,0 0,0 -0.0547,0.001 -0.11302,0.002 -0.17474,0.002 -0.29936,-2.2e-4 -0.61611,-0.006 -0.9449,-0.0193 -0.32453,0.003 -0.60823,-0.005 -0.85489,-0.0201 -0.24424,7.8e-4 -0.40124,0.008 -0.48873,0.0263 -0.40121,0.0829 -0.75951,0.15672 -1.0737,0.2245 -0.18682,0.0403 -0.35804,0.0784 -0.51341,0.11505 -0.3511,0.69238 -0.48682,1.35435 -0.3682,1.99457 l 0.21885,0.56977 0.42896,1.11674 c 0.0659,0.14901 0.13422,0.29899 0.20509,0.44972 0.0269,0.0743 0.0629,0.15949 0.10444,0.24291 0.0398,0.0865 0.0835,0.17377 0.1319,0.25753 0.0539,0.0996 0.11231,0.19946 0.17645,0.29789 0.15006,0.15605 0.34414,0.31055 0.58365,0.45954 0.11164,-0.0233 0.24206,-0.0495 0.39102,-0.079 0.16926,-0.0335 0.36245,-0.0714 0.5792,-0.11458 0.0871,-0.0173 0.21242,-0.0756 0.39485,-0.17916 0.18982,-0.10779 0.38174,-0.21703 0.62379,-0.35412 0.23803,-0.11707 0.49448,-0.23924 0.76878,-0.36699 0.24862,-0.10482 0.46485,-0.1793 0.63376,-0.21893 0,0 0,0 0,0 0,0 0,0 0,0 0,0 0.005,-9.4e-4 0.005,-9.4e-4 0.10199,-0.0195 0.29815,-0.0734 0.60001,-0.16163 0.27554,-0.0833 0.57757,-0.17808 0.90913,-0.28411 0.33326,-0.0897 0.66001,-0.1764 0.97433,-0.2593 0.3143,-0.0828 0.53021,-0.13228 0.63734,-0.14861 1.60951,-0.24539 3.29567,-0.46462 5.05511,-0.67121 0.91944,-0.10795 1.85888,-0.21245 2.81786,-0.31543 1.06037,-0.1114 2.12419,-0.21584 3.19138,-0.31361 0.0909,-0.008 0.35948,-0.0248 0.79368,-0.047 0.40852,-0.0196 0.90076,-0.0461 1.49716,-0.0789 0.5946,-0.0164 1.23558,-0.0428 1.9245,-0.0782 0.69065,-0.0192 1.33292,-0.0405 1.93047,-0.0648 0.59955,-0.008 1.11623,-0.0171 1.55895,-0.0284 0.44348,-0.0114 0.70699,-0.0189 0.80372,-0.0247 0.53517,-0.032 1.07112,-0.0625 1.60783,-0.0917 0.40654,-0.0221 1.09436,-0.0425 2.04234,-0.0553 0.95214,-0.0128 1.93741,-0.0229 2.95741,-0.0297 1.01791,-0.007 1.9483,-0.005 2.77852,0.002 0.83963,0.007 1.3059,0.0112 1.44144,0.008 0.12771,-0.003 0.38518,0.006 0.77052,0.0291 0.35379,0.0239 0.75526,0.0471 1.20587,0.07 0.41822,0.0236 0.82092,0.0482 1.20752,0.0736 0.38707,0.0255 0.64422,0.0375 0.77344,0.0353 0.16042,-0.003 0.48408,0.008 0.96766,0.034 0.48456,0.0257 1.01694,0.0516 1.59938,0.0782 0.38404,0.0175 0.75451,0.0356 1.11086,0.0543 0.18515,0.0105 0.36631,0.021 0.54353,0.0317 0.48902,0.0314 0.7958,0.0475 0.92624,0.0474 0.162,-1.2e-4 0.43806,0.0323 0.82593,0.0978 0.38819,0.0655 0.80711,0.13131 1.25733,0.19807 0.41787,0.0829 0.81839,0.15808 1.20185,0.22559 0.38365,0.0675 0.63801,0.10205 0.76576,0.10308 0.31794,0.11653 0.61912,0.21702 0.90391,0.30138 0.25304,0.084 0.50558,0.16017 0.75766,0.22842 0.22048,0.0678 0.4093,0.10291 0.56695,0.10511 0.58046,0.2035 1.15766,0.40839 1.73147,0.61479 0.57773,0.0111 1.15324,0.0236 1.7265,0.0379 0.72819,0.0181 1.45276,0.0388 2.17366,0.0625 0.12285,0.004 0.3072,-0.006 0.55326,-0.0301 0.24596,-0.024 0.50707,-0.047 0.78283,-0.0691 0.27582,-0.022 0.55121,-0.0437 0.82618,-0.0648 0.24452,-0.0224 0.44256,-0.03 0.59408,-0.0234 0.15607,-0.0908 0.31216,-0.18154 0.46829,-0.27207 0.56697,-0.42988 0.90604,-0.81976 1.01576,-1.17278 0.10877,-0.33659 0.17556,-0.73257 0.19971,-1.18754 l 0.0479,-0.90197 c -0.35844,-0.18143 -0.71858,-0.36202 -1.08037,-0.54177 z"
         style="font-style:normal;font-variant:normal;font-weight:normal;font-stretch:normal;font-size:49.99996948px;line-height:125%;font-family:'Buxton Sketch';-inkscape-font-specification:'Buxton Sketch, Normal';text-align:start;writing-mode:lr-tb;text-anchor:start"
         id="path6078"
         inkscape:original-d="m 356.52061,908.64459 q -0.12207,-0.21972 -0.31738,-0.68359 -0.19531,-0.48828 -0.39063,-1.02539 -0.19531,-0.53711 -0.34179,-1.02539 -0.14649,-0.48828 -0.14649,-0.70801 l 0,-0.31738 0,-0.58594 q 0,-0.12207 0.0488,-0.31738 0.0488,-0.21973 0.0977,-0.43945 0.0488,-0.21973 0.0977,-0.41504 0.0488,-0.19531 0.0488,-0.29297 0,-0.0977 -0.0488,-0.43945 -0.0488,-0.3418 -0.0977,-0.73243 -0.0488,-0.39062 -0.0977,-0.708 -0.0488,-0.3418 -0.0488,-0.46387 0,-0.19531 -0.0488,-0.80566 -0.0488,-0.63477 -0.12207,-1.36719 -0.0488,-0.73242 -0.0977,-1.41601 -0.0488,-0.6836 -0.0488,-1.00098 l 0,-1.2207 q 0,-0.0977 -0.0488,-0.53711 -0.0488,-0.43945 -0.0976,-0.92774 -0.0488,-0.48828 -0.0977,-0.90332 -0.0488,-0.41503 -0.0488,-0.51269 l 0,-1.14746 q 0,-0.12207 -0.0488,-0.73242 -0.0488,-0.63477 -0.0976,-1.34277 -0.0488,-0.73243 -0.0977,-1.34278 -0.0488,-0.61035 -0.0488,-0.73242 0,-0.21973 -0.0488,-1.0498 -0.0488,-0.85449 -0.0977,-1.83106 -0.0488,-0.97656 -0.0977,-1.80664 -0.0488,-0.85449 -0.0488,-1.07421 l -0.31739,-1.14746 0,-1.19629 q 0,-0.0977 -0.0976,-0.3418 -0.0977,-0.24414 -0.21973,-0.53711 -0.0977,-0.29297 -0.19531,-0.53711 -0.0732,-0.24414 -0.0732,-0.34179 l 0,-0.90332 0,-0.53711 1.78222,-1.75781 0.61035,0 1.19629,0 0.5127,0.29296 q 0.12207,0 0.26855,0.0977 0.14648,0.0732 0.29297,0.19531 0.1709,0.12207 0.3418,0.26856 l 0.58593,0.90332 0,0.53711 0,0.61035 q 0,0.12207 -0.0977,0.36621 -0.0977,0.24414 -0.21973,0.51269 -0.0977,0.26856 -0.19531,0.53711 -0.0732,0.24414 -0.0732,0.39063 0,0.0977 -0.0488,0.39062 -0.0488,0.26856 -0.12207,0.58594 -0.0488,0.31738 -0.0977,0.61035 -0.0488,0.29297 -0.0488,0.39062 l 0,2.90528 0,3.19824 q 0,0.0732 0.0244,0.41504 0.0244,0.31738 0.0488,0.78125 0.0488,0.46386 0.0732,1.00097 0.0488,0.53711 0.0732,1.00098 0.0488,0.46386 0.0732,0.80566 0.0244,0.3418 0.0244,0.41504 l 0,0.83008 q 0,0.31738 0.0488,1.0498 0.0488,0.73242 0.0977,1.51367 0.0488,0.78125 0.0977,1.41602 0.0488,0.63476 0.0488,0.73242 0,0.0976 0.0488,0.39062 0.0488,0.26856 0.0977,0.61035 0.0488,0.31739 0.0976,0.61036 0.0488,0.29296 0.0488,0.39062 0,0.12207 0.0488,0.48828 0.0488,0.36621 0.0977,0.80566 0.0488,0.43946 0.0976,0.83008 0.0488,0.36621 0.0488,0.46387 0,0.12207 0.0977,0.41504 0.0976,0.29297 0.19531,0.63476 0.12207,0.31739 0.21973,0.61035 0.0976,0.29297 0.0976,0.39063 0.1709,0.24414 0.29297,0.46387 0.12207,0.19531 0.21973,0.39062 0.0976,0.1709 0.0976,0.29297 l 0.58594,0.90332 0,0.90332 0,1.14746 q 0,0.0977 -0.0488,0.29297 -0.0488,0.19531 -0.0976,0.41504 -0.0488,0.21972 -0.0977,0.43945 -0.0488,0.19531 -0.0488,0.31738 l -0.29297,0.24414 q -0.68359,0.43946 -1.2207,0.5127 -0.51269,0.0732 -1.19629,0.0732 l -0.90332,0 -0.48828,-0.58594 z"
         inkscape:connector-curvature="0" />
      <path
         d="m 330.47786,931.57102 c -0.58789,0.009 -1.17484,0.0188 -1.76081,0.0301 -0.63255,0.061 -1.23194,0.13106 -1.79831,0.20978 -0.4721,0.0601 -0.94317,0.12929 -1.41309,0.20752 -0.50071,0.0953 -0.90658,0.18909 -1.21734,0.28017 -0.15674,0.005 -0.3286,0.0266 -0.51541,0.0653 -0.18678,0.0387 -0.35779,0.077 -0.51301,0.11492 -0.18592,0.0552 -0.38708,0.11923 -0.6032,0.19218 -0.26918,0.0727 -0.8446,0.23638 -1.66542,0.47951 -0.85628,0.26216 -1.76675,0.54141 -2.70548,0.83158 -0.9678,0.30762 -1.8689,0.59629 -2.67601,0.85466 -0.83732,0.27657 -1.38214,0.46964 -1.61576,0.565 -0.17584,0.10929 -0.35138,0.21875 -0.5266,0.32838 -0.53366,0.43543 -1.06373,0.87237 -1.5901,1.31085 -0.33168,0.21203 -0.66217,0.42467 -0.99144,0.63793 0.0114,0.14613 -2.4e-4,0.38353 -0.0345,0.71277 -0.033,0.34538 -0.0651,0.69887 -0.0964,1.06048 -0.0299,0.37783 -0.0615,0.73132 -0.0949,1.06048 -0.0332,0.32905 -0.0445,0.55873 -0.0341,0.68841 0.005,0.0649 -0.0165,0.16459 -0.0649,0.29906 -0.0471,0.15072 -0.0941,0.30145 -0.14105,0.45219 -0.0455,0.16695 -0.0923,0.31771 -0.14034,0.45226 -0.0466,0.15074 -0.0665,0.26672 -0.0599,0.3478 l 0.0678,0.82723 0.0738,0.90023 c 0.10033,0.15507 0.19992,0.30209 0.29877,0.44105 0.0685,0.12509 0.13627,0.24209 0.20341,0.351 0.0683,0.12513 0.10567,0.22829 0.11215,0.3094 0.18987,0.18894 0.37947,0.3781 0.5688,0.56747 0.006,0.0811 0.0711,0.16587 0.19433,0.25434 0.0942,0.0907 0.21666,0.17112 0.36743,0.24136 0.15199,0.0865 0.31888,0.1801 0.50088,0.281 0.14925,0.0543 0.37495,0.15222 0.67588,0.29398 0.27331,0.16016 0.58981,0.31764 0.94972,0.47294 0.33206,0.1735 0.64823,0.3323 0.94885,0.47632 0.30041,0.14392 0.51159,0.25349 0.63258,0.3275 0.32631,0.0942 0.62359,0.18264 0.89097,0.26494 0.53488,0.16465 0.93858,0.32222 1.2096,0.47061 0.14572,-0.008 0.30746,0.008 0.48514,0.0478 0.17855,0.056 0.35756,0.12021 0.537,0.19271 0.20865,0.0711 0.41857,0.16673 0.62961,0.287 0.1495,0.0581 0.3726,0.12892 0.67005,0.21314 0.29813,0.10047 0.62485,0.18378 0.98054,0.25018 0.32638,0.0677 0.6379,0.12827 0.93471,0.18177 0.29687,0.0535 0.50416,0.0783 0.62211,0.0739 0.29651,0.0377 0.57865,0.0765 0.84616,0.11607 0.23744,0.0243 0.47508,0.0489 0.71291,0.0736 0.20825,0.0258 0.38647,0.0364 0.53469,0.0318 0.26608,-0.008 0.68322,-0.005 1.24876,0.0123 0.53668,0.0178 1.08889,0.0364 1.65797,0.056 0.53875,0.0202 1.04952,0.0422 1.53047,0.0656 0.48215,0.0235 0.78175,0.0348 0.90312,0.0327 1.08419,-0.0181 2.17377,-0.0319 3.26864,-0.0418 2e-5,0 0.086,-7.7e-4 0.086,-7.7e-4 0.88088,-4.9e-4 1.75341,5.1e-4 2.61752,0.003 0.15131,5.1e-4 0.3477,-0.015 0.58881,-0.0465 0.24108,-0.0315 0.49664,-0.079 0.76658,-0.14254 0.23991,-0.0474 0.49429,-0.11083 0.76305,-0.19024 0.23882,-0.0634 0.4176,-0.12696 0.53691,-0.19102 0.14852,0.001 0.37149,-0.0618 0.66843,-0.18903 0.2968,-0.11093 0.62257,-0.24562 0.97726,-0.40393 0.32525,-0.15866 0.63517,-0.31713 0.9299,-0.47542 0.29473,-0.15829 0.50076,-0.27693 0.61869,-0.35632 0.2454,-0.13167 0.6658,-0.35718 1.14433,-0.61337 0.46721,-0.25014 0.95164,-0.50909 1.44556,-0.77249 0.46596,-0.24848 0.90221,-0.48856 1.30875,-0.72028 0.37745,-0.21628 0.63827,-0.35422 0.7822,-0.41441 0.35414,-0.37071 0.70857,-0.74064 1.06338,-1.10975 0.003,-0.0813 0.12213,-0.21526 0.35634,-0.40135 0.20592,-0.18718 0.44093,-0.38931 0.70478,-0.60592 0.23497,-0.20159 0.45559,-0.3953 0.66183,-0.58122 0.2343,-0.1846 0.35317,-0.30911 0.35649,-0.37416 0.002,-0.0487 0.0198,-0.11308 0.0521,-0.19301 0.0595,-0.0623 0.12192,-0.18148 0.1875,-0.35745 0.0654,-0.17597 0.12125,-0.43398 0.16738,-0.77383 0.0734,-0.32206 0.12501,-0.75975 0.15433,-1.31215 0.0104,-0.19502 0.0353,-0.39745 0.075,-0.60727 0.0388,-0.19357 0.0635,-0.38787 0.0739,-0.58288 0.0165,-0.30876 0.004,-0.60275 -0.0389,-0.88193 -0.0426,-0.27909 -0.1713,-0.56283 -0.38785,-0.85029 -0.27418,-0.29027 -0.53732,-0.55512 -0.7884,-0.79437 -0.22358,-0.20551 -0.43371,-0.40999 -0.63019,-0.61369 -0.22638,-0.18857 -0.41231,-0.32643 -0.55607,-0.41344 0.003,-0.0813 -0.0809,-0.18243 -0.25347,-0.30298 -0.17328,-0.10434 -0.34675,-0.21662 -0.52045,-0.33686 -0.2034,-0.12131 -0.39259,-0.24182 -0.56747,-0.36169 -0.17547,-0.10362 -0.26239,-0.18776 -0.26014,-0.25287 -0.14639,-0.0943 -0.29314,-0.18854 -0.44024,-0.28263 -0.14706,-0.0858 -0.35457,-0.19822 -0.62168,-0.33591 -0.29758,-0.13871 -0.59639,-0.27696 -0.8964,-0.41477 -0.32943,-0.17108 -0.70607,-0.34284 -1.13062,-0.51467 -0.38018,-0.10577 -0.76193,-0.21086 -1.1452,-0.3153 -0.27532,-0.0698 -0.6611,-0.15798 -1.15508,-0.26256 -0.52616,-0.10523 -1.03832,-0.20887 -1.53819,-0.31164 -0.53703,-0.0877 -0.99573,-0.16266 -1.41107,-0.23148 -0.44047,-0.068 -0.726,-0.10192 -0.85217,-0.1025 -0.1587,-7.4e-4 -0.45841,-0.0184 -0.90373,-0.0521 -0.44487,-0.0338 -0.93896,-0.0671 -1.48307,-0.0996 -0.53131,-0.0317 -1.04273,-0.0623 -1.54743,-0.0928 6e-5,0 -0.0426,-0.002 -0.0425,-0.002 -0.54283,-0.0281 -0.95834,-0.0401 -1.24482,-0.0369 -0.5578,0.006 -1.11477,0.0133 -1.67088,0.0216 0,0 1.2e-4,1.7e-4 1.2e-4,1.7e-4 z m 3.46709,3.74936 c 0.25626,0.0812 0.66934,0.18602 1.24049,0.31676 0.57601,0.13185 1.17945,0.26883 1.84281,0.41937 0.62618,0.14909 1.23331,0.29129 1.82106,0.42635 0.55602,0.13463 0.97226,0.24539 1.2473,0.3297 0.15289,0.0668 0.35162,0.16699 0.59472,0.30032 0.24301,0.14972 0.5004,0.29982 0.77202,0.4505 0.2409,0.16649 0.49635,0.31716 0.76619,0.45214 0.23942,0.13435 0.41846,0.24375 0.53713,0.32734 0.20548,0.26445 0.38009,0.52045 0.52428,0.76768 0.14528,0.19842 0.26014,0.39636 0.34491,0.59361 0.0847,0.19722 0.12589,0.33668 0.12393,0.418 l -0.006,0.24413 -0.007,0.29296 c -0.004,0.14653 -0.0237,0.36581 -0.0603,0.65816 -0.0666,0.30792 -0.13287,0.60773 -0.19886,0.89941 -0.067,0.34054 -0.1492,0.70514 -0.24641,1.09394 -0.21135,0.22358 -0.42208,0.42295 -0.63238,0.59811 -0.18043,0.15944 -0.36072,0.3109 -0.54093,0.45436 -0.18051,0.15974 -0.34549,0.27917 -0.49511,0.35824 -0.19449,0.10279 -0.38917,0.20574 -0.58405,0.30884 -0.12021,0.0797 -0.315,0.17474 -0.5849,0.28535 -0.27016,0.12689 -0.57063,0.25371 -0.90176,0.3806 -0.33126,0.14315 -0.7234,0.29429 -1.17726,0.45371 -0.30266,0.11174 -0.59073,0.20758 -0.8642,0.28746 -0.24311,0.0801 -0.47141,0.14408 -0.68485,0.19202 -0.24394,0.0641 -0.44256,0.0959 -0.59554,0.0954 -0.15298,-4.8e-4 -0.3215,0.0153 -0.50565,0.0475 -0.18412,0.0321 -0.35322,0.0644 -0.5071,0.0968 -0.18464,0.0485 -0.38492,0.10532 -0.601,0.17035 -0.12351,-5e-5 -0.40199,0.0161 -0.83652,0.0489 -0.0636,0.004 -0.12747,0.009 -0.1917,0.0135 -0.40209,0.0317 -0.81253,0.0638 -1.23591,0.0968 -0.51998,0.0385 -1.0234,0.0778 -1.51048,0.11762 -0.51794,0.0403 -0.91175,0.0634 -1.18549,0.0684 -0.19736,0.004 -0.39456,0.007 -0.59159,0.0111 -0.15157,0.003 -0.30303,0.006 -0.4544,0.009 -0.27255,0.006 -0.63632,-0.0354 -1.09155,-0.12245 -0.48524,-0.0863 -0.86337,-0.12536 -1.13421,-0.11816 -0.34903,-0.0966 -0.69786,-0.19262 -1.0465,-0.28818 -0.89207,-0.16908 -1.78227,-0.33483 -2.67065,-0.49703 -0.30297,-0.10267 -0.60555,-0.1968 -0.90769,-0.28238 -0.24185,-0.0717 -0.48396,-0.15129 -0.7264,-0.23872 -0.24246,-0.0874 -0.43981,-0.16836 -0.59228,-0.24306 -0.53427,-0.27766 -1.0689,-0.55396 -1.60393,-0.82883 -0.15264,-0.0739 -0.32137,-0.17131 -0.50634,-0.29218 -0.1841,-0.10461 -0.35386,-0.21795 -0.50932,-0.34008 -0.18601,-0.13679 -0.38751,-0.28078 -0.60439,-0.4318 l -0.0164,-0.29251 -0.0342,-0.60939 c 0.13885,-0.18698 0.27808,-0.37386 0.41768,-0.56065 0.18839,-0.11606 0.37716,-0.23194 0.56631,-0.34764 0.69365,-0.23141 1.3908,-0.46044 2.09136,-0.68718 0.17633,-0.11376 0.35298,-0.22738 0.52995,-0.34085 0.17379,-0.18665 0.34802,-0.37317 0.52269,-0.55954 -0.003,-0.0813 0.0508,-0.23838 0.16299,-0.47093 0.11291,-0.21617 0.24058,-0.45787 0.38264,-0.7239 0.11175,-0.26502 0.22444,-0.51373 0.33804,-0.74611 0.11373,-0.23244 0.16955,-0.381 0.16707,-0.44613 0.17628,-0.21024 0.35303,-0.42034 0.53026,-0.63031 0.34649,-0.21605 0.69409,-0.43157 1.04278,-0.64659 0.21474,-0.0559 0.43,-0.10344 0.64572,-0.14271 0.39999,-0.0938 0.75569,-0.14482 1.06616,-0.15348 0.24854,-0.007 0.58908,-0.0488 1.02338,-0.12485 0.40347,-0.0589 0.82279,-0.13394 1.25831,-0.22484 0.49797,-0.0922 1.01235,-0.20013 1.54354,-0.32354 0.15693,-0.003 0.39167,-0.0231 0.7054,-0.0607 0.28256,-0.0371 0.61139,-0.0827 0.98895,-0.13675 0.34602,-0.0373 0.67648,-0.0739 0.99182,-0.11008 0.3151,-0.0361 0.53651,-0.0546 0.66276,-0.0558 0.20542,-0.002 0.41097,-0.004 0.61665,-0.006 10e-6,0 0.0896,-7.4e-4 0.0896,-7.4e-4 0.16158,-3.8e-4 0.32298,-6.9e-4 0.48419,-9.5e-4 0,0 1.6e-4,1.4e-4 1.6e-4,1.4e-4 z"
         style="font-style:normal;font-variant:normal;font-weight:normal;font-stretch:normal;font-size:49.99996948px;line-height:125%;font-family:'Buxton Sketch';-inkscape-font-specification:'Buxton Sketch, Normal';text-align:start;writing-mode:lr-tb;text-anchor:start"
         id="path6080"
         inkscape:original-d="m 364.38193,898.53718 0,-0.90332 q 0.0732,-0.48828 0.1709,-0.92774 0.0732,-0.36621 0.1709,-0.73242 0.12207,-0.39062 0.24414,-0.63476 0,-0.12207 0.0488,-0.26856 0.0488,-0.14648 0.0977,-0.26855 0.0732,-0.14649 0.17089,-0.31739 0.0977,-0.21972 0.41504,-0.8789 0.3418,-0.68359 0.70801,-1.44043 0.39062,-0.78125 0.70801,-1.44043 0.34179,-0.68359 0.46386,-0.8789 l 0.29297,-0.29297 1.19629,-0.90332 0.56152,-0.56153 q 0.21973,0 0.70801,-0.0488 0.5127,-0.0488 1.04981,-0.0977 0.56152,-0.0488 1.0498,-0.0977 0.48828,-0.0488 0.68359,-0.0488 0.0977,0 0.29297,-0.0488 0.21973,-0.0488 0.43945,-0.0977 0.24414,-0.0488 0.43946,-0.0977 0.21972,-0.0488 0.34179,-0.0488 l 0.83008,0 0.90332,0 q 0.24414,0.0732 0.46387,0.14648 0.19531,0.0488 0.36621,0.0977 0.19531,0.0488 0.31738,0.0488 l 0.61035,0.29296 q 0.12207,0 0.26856,0.0977 0.14648,0.0732 0.26855,0.19531 0.14649,0.12207 0.31738,0.26856 0.0977,0.12207 0.3418,0.36621 0.26856,0.21972 0.53711,0.51269 0.29297,0.26856 0.53711,0.5127 0.24414,0.24414 0.36621,0.34179 0.1709,0.26856 0.31738,0.48829 0.29297,0.43945 0.53711,0.65918 0,0.12207 0.0732,0.26855 0.0977,0.14648 0.21973,0.29297 0.12207,0.1709 0.31738,0.34179 0.0977,0.12208 0.24414,0.36622 0.1709,0.24414 0.29297,0.5371 0.12207,0.26856 0.21973,0.5127 0.0977,0.24414 0.0977,0.3418 0.0732,0.24414 0.14649,0.46386 0.0488,0.19532 0.0976,0.39063 0.0488,0.1709 0.0488,0.29297 0,0.21972 0.0488,0.68359 0.0488,0.43945 0.0977,0.90332 0.0488,0.43945 0.0976,0.83008 0.0488,0.39062 0.0488,0.48828 l 0,1.75781 0,1.44043 q 0,0.12207 -0.0488,0.31738 -0.0488,0.19531 -0.14648,0.41504 -0.0732,0.19531 -0.19531,0.41504 -0.0977,0.19531 -0.19532,0.29297 0,0.12207 -0.19531,0.36621 -0.1709,0.24414 -0.41504,0.53711 -0.24414,0.26855 -0.48828,0.51269 -0.24414,0.24414 -0.36621,0.3418 -0.21972,0.21972 -0.63476,0.63476 -0.39063,0.39063 -0.80567,0.80567 -0.39062,0.39062 -0.75683,0.73242 -0.3418,0.31738 -0.43946,0.43945 l -1.14746,0.58594 q -0.12207,0 -0.41503,0.19531 -0.29297,0.1709 -0.63477,0.39063 -0.31738,0.19531 -0.61035,0.36621 -0.29297,0.19531 -0.39063,0.19531 -0.0732,0 -0.19531,0.0244 -0.0977,0.0488 -0.36621,0.0977 -0.26855,0.0488 -0.78125,0.0732 -0.48828,0.0488 -1.31836,0.0488 -0.29297,0 -0.61035,0.0244 -0.29297,0.0244 -0.58594,0.0244 -0.46386,0 -0.8789,-0.0488 -0.41504,-0.0488 -0.83008,-0.24414 -0.41504,-0.24414 -0.75683,-0.46387 -0.29297,-0.19531 -0.58594,-0.36621 -0.26856,-0.19531 -0.39063,-0.31738 -0.12207,0 -0.29296,-0.14649 -0.14649,-0.14648 -0.31739,-0.29296 -0.1709,-0.1709 -0.34179,-0.31739 -0.14649,-0.14648 -0.24414,-0.14648 l -0.26856,-0.24414 q -0.12207,-0.12207 -0.31738,-0.3418 -0.19531,-0.24414 -0.39063,-0.48828 -0.24414,-0.26855 -0.48828,-0.61035 l -0.29297,-0.61035 q -0.0976,-0.21973 -0.24414,-0.61035 -0.14648,-0.41504 -0.29296,-0.80567 -0.12208,-0.41504 -0.21973,-0.73242 -0.0977,-0.34179 -0.0977,-0.43945 0,-0.12207 -0.0488,-0.46387 -0.0488,-0.34179 -0.0977,-0.75683 -0.0488,-0.41504 -0.0977,-0.80567 -0.0488,-0.41504 -0.0488,-0.63476 l 0,-0.85449 z m 3.78418,1.75781 q 0.12207,0.19531 0.31738,0.63476 0.19532,0.43946 0.41504,0.95215 0.21973,0.48828 0.41504,0.95215 0.19531,0.43945 0.31738,0.65918 0.0977,0.12207 0.29297,0.31738 0.21973,0.19531 0.43946,0.41504 0.24414,0.19531 0.43945,0.41504 0.19531,0.19531 0.31738,0.29297 0.39063,0.1709 0.75684,0.29297 0.29297,0.12207 0.58593,0.19531 0.29297,0.0732 0.41504,0.0732 l 0.24414,0 0.29297,0 q 0.21973,0 0.65918,-0.0244 0.46387,-0.0488 0.90332,-0.0977 0.5127,-0.0488 1.09863,-0.12207 0.3418,-0.1709 0.61035,-0.3418 0.24414,-0.14648 0.46387,-0.29297 0.24414,-0.14648 0.36621,-0.26855 l 0.31738,-0.31738 q 0.12207,-0.0977 0.29297,-0.31739 0.19532,-0.21972 0.39063,-0.48828 0.21972,-0.26855 0.46386,-0.63476 0.1709,-0.24414 0.29297,-0.46387 0.12207,-0.19531 0.19532,-0.36621 0.0976,-0.19531 0.0976,-0.31738 0,-0.12207 0.0488,-0.26856 0.0488,-0.14648 0.0977,-0.26855 0.0732,-0.14648 0.17089,-0.31738 0,-0.0977 0.0488,-0.43946 0.0488,-0.36621 0.0977,-0.75683 0.0488,-0.41504 0.0976,-0.80567 0.0488,-0.41503 0.0488,-0.63476 l 0,-0.31738 0,-0.24414 q 0,-0.21973 -0.14648,-0.58594 -0.14649,-0.39063 -0.14649,-0.61035 l -0.31738,-0.56152 -0.58594,-1.44043 q -0.17089,-0.24414 -0.31738,-0.48828 -0.12207,-0.19532 -0.26855,-0.39063 -0.14649,-0.19531 -0.26856,-0.31738 l -0.90332,-0.85449 q -0.12207,-0.12207 -0.31738,-0.26856 -0.1709,-0.14648 -0.36621,-0.26855 -0.21973,-0.14649 -0.46387,-0.31739 l -0.29297,0 -0.61035,0 -0.53711,0.24415 -0.31738,0.31738 -0.58594,1.14746 -0.31738,0.29297 -0.53711,0.29297 q -0.12207,0 -0.46386,0.0976 -0.31739,0.0977 -0.70801,0.21973 -0.39063,0.0977 -0.73242,0.19531 -0.3418,0.0977 -0.43946,0.0977 l -0.61035,0.29296 -0.61035,0.56153 q -0.0732,0.1709 -0.12207,0.34179 -0.12207,0.31739 -0.12207,0.56153 0,0.19531 -0.0977,0.53711 -0.0732,0.31738 -0.19531,0.65918 -0.12207,0.39062 -0.29297,0.80566 0,0.12207 -0.0488,0.36621 -0.0488,0.21973 -0.12207,0.5127 -0.0488,0.26855 -0.0977,0.51269 -0.0488,0.24414 -0.0488,0.3418 l 0,0.31738 0,0.29297 z"
         inkscape:connector-curvature="0" />
    </g>
  </g>
</svg>
