<?xml version="1.0" encoding="UTF-8" standalone="no"?>
<!-- Created with Inkscape (http://www.inkscape.org/) -->

<svg
   xmlns:dc="http://purl.org/dc/elements/1.1/"
   xmlns:cc="http://creativecommons.org/ns#"
   xmlns:rdf="http://www.w3.org/1999/02/22-rdf-syntax-ns#"
   xmlns:svg="http://www.w3.org/2000/svg"
   xmlns="http://www.w3.org/2000/svg"
   xmlns:sodipodi="http://sodipodi.sourceforge.net/DTD/sodipodi-0.dtd"
   xmlns:inkscape="http://www.inkscape.org/namespaces/inkscape"
   width="70.434616mm"
   height="202.75258mm"
   viewBox="0 0 249.57147 718.41465"
   id="svg2"
   version="1.1"
   inkscape:version="0.91 r13725"
   sodipodi:docname="redesigned transformation solution.svg">
  <defs
     id="defs4" />
  <sodipodi:namedview
     id="base"
     pagecolor="#ffffff"
     bordercolor="#666666"
     borderopacity="1.0"
     inkscape:pageopacity="0.0"
     inkscape:pageshadow="2"
     inkscape:zoom="0.70710678"
     inkscape:cx="-3.7410036"
     inkscape:cy="340.54436"
     inkscape:document-units="px"
     inkscape:current-layer="layer1"
     showgrid="false"
     inkscape:window-width="1600"
     inkscape:window-height="837"
     inkscape:window-x="-8"
     inkscape:window-y="-8"
     inkscape:window-maximized="1"
     fit-margin-top="0"
     fit-margin-left="0"
     fit-margin-right="0"
     fit-margin-bottom="0" />
  <metadata
     id="metadata7">
    <rdf:RDF>
      <cc:Work
         rdf:about="">
        <dc:format>image/svg+xml</dc:format>
        <dc:type
           rdf:resource="http://purl.org/dc/dcmitype/StillImage" />
        <dc:title></dc:title>
      </cc:Work>
    </rdf:RDF>
  </metadata>
  <g
     inkscape:label="Layer 1"
     inkscape:groupmode="layer"
     id="layer1"
     transform="translate(-246.74336,-100.39161)">
    <g
       id="g4243"
       transform="translate(-9.8994949,-22.627417)">
      <g
         id="g4149">
        <rect
           style="opacity:1;fill:#ececec;stroke:#000000;stroke-opacity:1"
           id="rect3336"
           width="248.57143"
           height="531.42859"
           x="257.14285"
           y="286.64792"
           ry="32.6534" />
        <ellipse
           style="opacity:1;fill:#ececec;stroke:#000000;stroke-width:0.87191749;stroke-opacity:1"
           id="path4138"
           cx="381.42859"
           cy="786.64795"
           rx="124.34977"
           ry="54.349754" />
        <ellipse
           style="opacity:1;fill:#000000;stroke:#000000;stroke-width:0.69722509;stroke-opacity:1"
           id="path4142"
           cx="381.42859"
           cy="791.87195"
           rx="101.57997"
           ry="45.375465" />
        <path
           style="opacity:0.65;fill:#ececec;stroke:none;stroke-opacity:1"
           d="m 291.03762,286.64792 180.78189,0 c 18.7777,0 33.95752,15.11717 33.89477,33.89477 l -1.59099,476.06394 c -0.0627,18.7776 -72.57035,46.62018 -83.7458,43.61748 l -86.20636,-4.59619 c -24.72293,-1.31813 -73.39957,-40.8765 -73.54325,-59.65366 l -3.48503,-455.43157 c -0.14369,-18.77715 15.11707,-33.89477 33.89477,-33.89477 z"
           id="rect4144"
           inkscape:connector-curvature="0"
           sodipodi:nodetypes="sssscssss" />
        <ellipse
           ry="54.351761"
           rx="123.20273"
           cy="786.64795"
           cx="382.29987"
           id="ellipse4146"
           style="opacity:0.65;fill:#ececec;stroke:#000000;stroke-width:0.86790276;stroke-opacity:1" />
      </g>
      <path
         sodipodi:nodetypes="ccssssssc"
         inkscape:connector-curvature="0"
         id="rect4161"
         d="M 307.65625,416.8617 457.75,414.69765 C 519,395.78335 503,370.9222 503,401.19351 l 0,315.23849 c 0,30.2713 -101.51881,39.93021 -112.54688,39.93021 l -6.125,0 C 373.30006,756.36221 258,746.7033 258,716.432 l 0,-315.23849 c 0,-30.27131 -7,-3.2461 49.65625,15.66819 z"
         style="opacity:1;fill:#ffff00;stroke:#000000;stroke-width:0.69999999;stroke-miterlimit:4;stroke-dasharray:none;stroke-opacity:1" />
      <g
         id="g4204">
        <rect
           style="opacity:0.95999995;fill:#999999;stroke:#000000;stroke-opacity:1"
           id="rect4166"
           width="75"
           height="43"
           x="348"
           y="256.36221"
           ry="19.5" />
        <g
           id="g4199"
           transform="translate(0,14)">
          <g
             transform="matrix(1.0536923,0,0,1.0615431,-55.94309,48.638607)"
             id="g4184">
            <path
               inkscape:connector-curvature="0"
               style="opacity:0.95999995;fill:#e6e6e6;stroke:#000000;stroke-width:0.97877836;stroke-opacity:1"
               d="m 417.35352,71.710938 c -56.10258,0.209348 -101.47525,15.256739 -101.34375,33.609372 0.003,0.38259 0.0302,0.7426 0.0703,1.0918 -0.0504,0.4761 -0.0801,0.95933 -0.0801,1.44922 l 0,46.15429 c -0.002,0.11484 -0.01,0.22274 -0.01,0.33985 0,0.11691 0.008,0.2329 0.01,0.34961 l 0,0.15625 c 0,0.0646 0.009,0.12701 0.01,0.1914 0.009,0.28064 0.0227,0.56045 0.043,0.83985 0.013,0.17364 0.0235,0.34782 0.043,0.51953 2.37476,24.45957 46.86294,43.96094 101.4043,43.96094 49.41953,0 90.5851,-16.0105 99.64844,-37.21289 C 518.9307,160.87274 520,157.99873 520,154.86133 l 0,-47 c 0,-1.78575 -0.35216,-3.48362 -0.97656,-5.04102 -2.89717,-17.531992 -47.3548,-31.312043 -101.66992,-31.109372 z"
               id="path4168" />
            <path
               style="opacity:0.95999995;fill:#e6e6e6;stroke:#000000;stroke-width:1.00747395;stroke-opacity:1"
               d="M 517.99627,105.86221 A 100.49627,34.496263 0 0 1 417.5,140.35848 100.49627,34.496263 0 0 1 317.00373,105.86221 100.49627,34.496263 0 0 1 417.5,71.365943 100.49627,34.496263 0 0 1 517.99627,105.86221 Z"
               id="path4170"
               inkscape:connector-curvature="0" />
          </g>
        </g>
        <g
           id="g4195"
           transform="matrix(1.8564,0,0,1.0849392,46.578196,22.26917)">
          <path
             sodipodi:nodetypes="sssss"
             inkscape:connector-curvature="0"
             id="path4190"
             d="m 199.3033,109.75777 c 0,14.30837 -3.07673,25.90759 -18.3033,25.90759 -15.22657,0 -18.3033,-11.59922 -18.3033,-25.90759 0,-14.308382 3.07673,8.92718 18.3033,8.92718 15.22657,0 18.3033,-23.235562 18.3033,-8.92718 z"
             style="opacity:0.95999995;fill:#e6e6e6;stroke:#000000;stroke-width:1.19408488;stroke-miterlimit:4;stroke-dasharray:none;stroke-opacity:1" />
          <ellipse
             ry="16.05143"
             rx="18.05143"
             cy="109.36221"
             cx="181"
             id="path4193"
             style="opacity:0.95999995;fill:#e6e6e6;stroke:#000000;stroke-width:0.89714241;stroke-opacity:1" />
        </g>
      </g>
      <g
         id="g4234">
        <g
           id="g4224"
           transform="matrix(1.0622375,0,0,1.0620756,1.1576937,-37.918684)">
          <text
             transform="scale(0.95630727,1.045689)"
             sodipodi:linespacing="125%"
             id="text4216"
             y="481.65851"
             x="280.51077"
             style="font-style:normal;font-weight:normal;font-size:27.30529022px;line-height:125%;font-family:sans-serif;letter-spacing:0px;word-spacing:0px;fill:#000000;fill-opacity:1;stroke:none;stroke-width:1px;stroke-linecap:butt;stroke-linejoin:miter;stroke-opacity:1"
             xml:space="preserve"><tspan
               y="481.65851"
               x="280.51077"
               id="tspan4218"
               sodipodi:role="line">pGLO Plasmid</tspan></text>
          <text
             transform="scale(1.0240355,0.97652865)"
             sodipodi:linespacing="125%"
             id="text4220"
             y="553.87457"
             x="268.53107"
             style="font-style:normal;font-weight:normal;font-size:28.17346382px;line-height:125%;font-family:sans-serif;letter-spacing:0px;word-spacing:0px;fill:#000000;fill-opacity:1;stroke:none;stroke-width:1px;stroke-linecap:butt;stroke-linejoin:miter;stroke-opacity:1"
             xml:space="preserve"><tspan
               y="553.87457"
               x="268.53107"
               id="tspan4222"
               sodipodi:role="line">(lypholized)</tspan></text>
        </g>
        <text
           xml:space="preserve"
           style="font-style:normal;font-weight:normal;font-size:25.73892593px;line-height:125%;font-family:sans-serif;letter-spacing:0px;word-spacing:0px;fill:#000000;fill-opacity:1;stroke:none;stroke-width:1px;stroke-linecap:butt;stroke-linejoin:miter;stroke-opacity:1"
           x="359.08612"
           y="560.14642"
           id="text4230"
           sodipodi:linespacing="125%"
           transform="scale(0.96820173,1.0328426)"><tspan
             sodipodi:role="line"
             id="tspan4232"
             x="359.08612"
             y="560.14642">20 μg</tspan></text>
      </g>
    </g>
  </g>
</svg>
