<?xml version="1.0" encoding="UTF-8" standalone="no"?>
<!-- Created with Inkscape (http://www.inkscape.org/) -->

<svg
   xmlns:dc="http://purl.org/dc/elements/1.1/"
   xmlns:cc="http://creativecommons.org/ns#"
   xmlns:rdf="http://www.w3.org/1999/02/22-rdf-syntax-ns#"
   xmlns:svg="http://www.w3.org/2000/svg"
   xmlns="http://www.w3.org/2000/svg"
   xmlns:sodipodi="http://sodipodi.sourceforge.net/DTD/sodipodi-0.dtd"
   xmlns:inkscape="http://www.inkscape.org/namespaces/inkscape"
   width="142mm"
   height="61mm"
   viewBox="0 0 503.14941 216.1416"
   id="svg2"
   version="1.1"
   inkscape:version="0.91 r13725"
   sodipodi:docname="resized ice bucket 2.svg">
  <defs
     id="defs4" />
  <sodipodi:namedview
     id="base"
     pagecolor="#ffffff"
     bordercolor="#666666"
     borderopacity="1.0"
     inkscape:pageopacity="0.0"
     inkscape:pageshadow="2"
     inkscape:zoom="0.35"
     inkscape:cx="375"
     inkscape:cy="520"
     inkscape:document-units="px"
     inkscape:current-layer="layer1"
     showgrid="false"
     inkscape:window-width="1600"
     inkscape:window-height="837"
     inkscape:window-x="-8"
     inkscape:window-y="-8"
     inkscape:window-maximized="1" />
  <metadata
     id="metadata7">
    <rdf:RDF>
      <cc:Work
         rdf:about="">
        <dc:format>image/svg+xml</dc:format>
        <dc:type
           rdf:resource="http://purl.org/dc/dcmitype/StillImage" />
        <dc:title></dc:title>
      </cc:Work>
    </rdf:RDF>
  </metadata>
  <g
     inkscape:label="Layer 1"
     inkscape:groupmode="layer"
     id="layer1"
     transform="translate(0,-836.22108)">
    <g
       id="g4137"
       transform="translate(-56.056195,735.53026)">
      <path
         inkscape:connector-curvature="0"
         id="path3480"
         d="m 165.97573,309.17187 301.37035,-2.6213 57.74759,-131.33419 -422.98451,0 z"
         style="fill:#ff0000;fill-opacity:1;fill-rule:evenodd;stroke:#000000;stroke-width:0.56600499px;stroke-linecap:butt;stroke-linejoin:miter;stroke-opacity:1" />
      <path
         inkscape:connector-curvature="0"
         id="path3484"
         d="m 76.689776,174.38945 479.755434,0 -59.25721,-47.19769 -369.21797,0 -58.117617,46.29005 z"
         style="opacity:1;fill:#f10000;fill-opacity:1;fill-rule:evenodd;stroke:#000000;stroke-width:0.50339931px;stroke-linecap:butt;stroke-linejoin:miter;stroke-opacity:1" />
      <path
         inkscape:connector-curvature="0"
         id="path3341"
         d="m 136.99444,127.19176 c 0,-2.81604 0,-5.63265 0,-8.4487 0,-0.53735 -0.48082,-1.37218 0,-1.61263 0.96164,-0.48091 2.15029,0 3.22544,0 0.53757,0 1.6127,-0.53736 1.6127,0 0,0.53735 -2.15027,0 -1.6127,0 4.30057,0 8.60115,0 12.90173,0 1.07514,0 2.15029,0 3.22543,0 1.07515,0 2.26379,0.48091 3.22544,0 0.48082,-0.24046 -0.24041,-1.13173 0,-1.61264 0.33998,-0.68016 1.27272,-0.93304 1.61271,-1.61263 0.24041,-0.48092 -0.48082,-1.37218 0,-1.61264 1.44246,-0.72137 3.22543,0 4.83816,0 0.60586,0 8.02333,-0.0395 8.06358,0 0.38012,0.37988 -0.38013,1.2322 0,1.61264 0.38012,0.37987 1.23259,-0.38044 1.61271,0 0.38013,0.37987 -0.2404,1.13172 0,1.61263 0.33999,0.68016 1.27273,0.93248 1.61272,1.61264 0.24041,0.48091 -0.38012,1.23276 0,1.61263 2.36532,2.36561 1.45144,-3.06384 1.61272,-3.22527 0.38012,-0.38044 1.07515,0 1.61272,0 0.7263,0 4.34734,-0.24553 4.83815,0 0.67998,0.3398 0.93273,1.27284 1.61271,1.61264 1.29017,0.64517 3.54798,-0.64517 4.83815,0 0.67998,0.3398 0.93274,1.27283 1.61272,1.61263 0.48082,0.24046 1.07514,0 1.61271,0 1.07515,0 2.2638,0.48091 3.22544,0 0.48082,-0.24045 -0.38012,-1.23276 0,-1.61263 0.38012,-0.37988 1.1319,0.24045 1.61272,0 1.35996,-0.68016 1.86547,-2.54568 3.22542,-3.22527 0.48083,-0.24046 1.23261,0.37987 1.61272,0 0.38012,-0.38044 -0.38011,-1.23276 0,-1.61264 0.76025,-0.76032 2.4652,0.76032 3.22544,0 0.38012,-0.38044 -0.38013,-1.23276 0,-1.6132 0.38012,-0.37988 1.07514,0 1.61271,0 1.51406,0 7.13952,-0.30763 8.06359,0 0.72123,0.24046 0.93274,1.27284 1.61272,1.6132 0.48082,0.24046 1.23259,-0.38044 1.61271,0 0.38013,0.37988 -0.38012,1.2322 0,1.61264 0.38013,0.37987 1.1319,-0.24046 1.61272,0 0.92146,0.46059 3.2678,4.79557 4.83815,3.22527 0.38012,-0.37988 -0.38012,-1.23276 0,-1.61264 0.002,0 4.83084,0 4.83815,0 0.72124,-0.24045 0.93274,-1.27284 1.61272,-1.61263 0.48082,-0.24046 1.07514,0 1.61271,0 1.07515,0 2.2638,-0.48092 3.22544,0 0.48082,0.24045 -0.38012,1.23219 0,1.61263 0.76024,0.76032 2.26379,-0.48091 3.22543,0 0.67999,0.3398 0.93274,1.27284 1.61271,1.61264 0.48082,0.24045 1.61273,-0.53736 1.61273,0 0,0.53735 -2.1503,0 -1.61273,0 1.07515,0 2.1503,0 3.22545,0 0.53757,0 1.23259,0.37987 1.61271,0 3.33676,-3.33647 -5.09902,0.13039 1.61271,-3.22527 0.48082,-0.24046 1.07515,0 1.61272,0 1.66839,0 2.22902,-0.38044 3.22544,1.61263 0.2404,0.48091 -0.38013,1.23276 0,1.61264 0.38012,0.37987 1.61271,-0.53736 1.61271,0 0,0.53735 -2.15028,0 -1.61271,0 1.07514,0 2.15029,0 3.22543,0 1.07514,0 2.15029,0 3.22543,0 0.53758,0 1.1319,0.24045 1.61272,0 0.67998,-0.3398 1.27273,-0.93248 1.61272,-1.61264 0.24041,-0.48091 -0.53758,-1.61263 0,-1.61263 0.53757,0 -0.53758,1.61263 0,1.61263 1.11849,0 3.18066,-2.44125 4.83814,-1.61263 1.35997,0.67959 1.78298,2.74436 3.22544,3.22527 1.01997,0.3398 2.1503,0 3.22543,0 1.07515,0 2.15029,0 3.22544,0 0.7263,0 4.34734,0.24553 4.83814,0 6.71175,-3.35566 -1.72404,0.11119 1.61273,-3.22527 0.38011,-0.38044 1.13189,0.24045 1.61272,0 1.35995,-0.68016 1.86546,-2.54568 3.22543,-3.22584 0.42405,-0.21167 5.60755,0 6.45086,0 0.53758,0 1.2326,-0.37988 1.61272,0 0.38012,0.38044 -0.16999,1.10293 0,1.6132 0.38012,1.14019 1.2326,2.08508 1.61272,3.22527 0.73276,2.19797 -1.87891,2.51011 1.61272,4.83791 0.89457,0.59663 2.15028,0 3.22543,0 0.53757,0 1.07514,0 1.61271,0 1.61273,0 3.3957,0.72137 4.83815,0 0.48082,-0.24046 -0.38011,-1.2322 0,-1.61264 0.38012,-0.37987 1.10274,0.16991 1.61273,0 1.14036,-0.37987 2.37545,-0.76257 3.22542,-1.61263 0.38013,-0.37988 -0.38011,-1.23276 0,-1.61264 0.38013,-0.38044 1.2326,0.37988 1.61272,0 3.33677,-3.33703 -5.09902,0.13039 1.61272,-3.22527 0.48082,-0.24046 1.23259,0.37988 1.61272,0 0.38011,-0.38044 -0.38013,-1.23276 0,-1.6132 0.38011,-0.37988 1.07514,0 1.61271,0 1.61272,0 3.22544,0 4.83816,0 0.61455,0 7.90704,0.15692 8.06358,0 0.38012,-0.37988 -0.38013,-1.23219 0,-1.61264 0.38012,-0.37987 1.61271,-0.53735 1.61271,0 0,0.53793 -2.15028,0 -1.61271,0 2.15028,0 4.30057,0 6.45087,0 3.1623,0 7.15856,-0.90481 9.67629,1.61264 0.38012,0.38044 -0.38011,1.23276 0,1.6132 2.1503,2.14999 1.61273,-2.68791 1.61273,1.61264 0,0.53735 0.53757,1.61263 0,1.61263 -0.53758,0 -0.53758,-1.61263 0,-1.61263 0.76023,0 0.93273,1.27283 1.61271,1.61263 0.49081,0.24554 4.11185,0 4.83815,0 1.61272,0 3.39569,-0.72136 4.83815,0 0.48081,0.24046 -0.38012,1.23276 0,1.61264 0.16127,0.16143 4.67688,0.16143 4.83815,0 0.38012,-0.37988 -0.38012,-1.23276 0,-1.61264 0.38012,-0.38044 1.07514,0 1.61272,0 0.53757,0 1.61271,-0.53736 1.61271,0 0,0.53736 -2.15029,0 -1.61271,0 1.61271,0 3.22543,0 4.83815,0 0.53757,0 1.07514,0 1.61271,0 0.53757,0 1.2326,0.37988 1.61272,0 0.38012,-0.38044 -0.38012,-1.23276 0,-1.61263 0.38012,-0.38044 1.2326,0.37987 1.61272,0 0.76024,-0.76032 -0.76024,-2.46553 0,-3.22584 1.2607,-1.26042 2.80557,1.40323 3.22543,1.6132 0.48082,0.24046 1.07514,0 1.61272,0 0.53757,0 1.07515,0 1.61272,0 1.07514,0 2.15029,0 3.22542,0 1.07515,0 3.22545,-1.07528 3.22545,0 0,1.07471 -3.22545,1.07471 -3.22545,0 0,-1.07528 2.20547,0.3398 3.22545,0 0.72123,-0.24046 0.93273,-1.27284 1.61271,-1.6132 0.48082,-0.23989 1.07515,0 1.61271,0 0.53758,0 1.07515,0 1.61272,0 3.76301,0 7.52602,0 11.28902,0 0.53757,0 1.07514,0 1.61272,0 0.53757,0 1.61271,-0.53736 1.61271,0 0,0.53792 -1.99284,-0.37988 -1.61271,0 0.84998,0.85006 2.37545,0.76314 3.22544,1.6132 0.38011,0.37988 -0.38013,1.2322 0,1.61264 0.38011,0.37987 1.61271,0.53735 1.61271,0 0,-0.76032 -2.15029,-1.07528 -1.61271,-1.61264 0.53757,-0.53792 0.89149,1.37218 1.61271,1.61264 1.01997,0.33979 2.20546,0.33979 3.22543,0 1.44246,-0.48092 1.86547,-2.54568 3.22544,-3.22584 0.48082,-0.23989 1.23259,0.38044 1.61271,0 0.38013,-0.37988 -0.2404,-1.13172 0,-1.61264 0.99642,-1.99251 1.55705,-1.61263 3.22544,-1.61263 0.53757,0 1.13189,-0.24046 1.61272,0 0.67998,0.34036 0.93273,1.27284 1.61271,1.61263 0.48082,0.24046 1.2326,-0.37987 1.61272,0 0.38011,0.38045 -0.24041,1.13229 0,1.61264 0.33999,0.68016 1.27272,0.93304 1.61272,1.6132 0.48082,0.96126 -0.76025,2.46495 0,3.22527 0.38012,0.37988 1.07514,0 1.61271,0 0.53758,0 1.07515,0 1.61272,0 2.73594,0 5.84764,0.6034 8.06358,-1.61263 0.38012,-0.38044 -0.38012,-1.23276 0,-1.61264 0.38012,-0.38044 1.07515,0 1.61272,0 0.53757,0 1.07514,0 1.61272,0 4.30057,0 8.60115,0 12.90173,0 0.53758,0 1.07515,0 1.61272,0 0.53757,0 1.23259,-0.38044 1.61271,0 2.15029,2.14999 -2.68785,1.61264 1.61272,1.61264 2.68786,0 5.37572,0 8.06359,0 1.07514,0 2.26379,-0.48092 3.22543,0 0.48082,0.24045 0,1.07527 0,1.61263 0,1.9688 -0.6258,3.71861 1.61271,4.83791 2.22452,1.11253 1.44254,-1.953 3.22545,1.61263 0.24039,0.48092 -0.38013,1.23276 0,1.6132 0.38011,0.37988 1.23258,-0.38044 1.6127,0 0.38013,0.37988 -0.2404,1.13173 0,1.61264 1.70347,3.40703 1.61272,0.56502 1.61272,1.99759"
         style="fill:#8ce6e6;fill-opacity:1;fill-rule:evenodd;stroke:#000000;stroke-width:0.56445086px;stroke-linecap:butt;stroke-linejoin:miter;stroke-opacity:1" />
      <path
         inkscape:connector-curvature="0"
         id="path4138"
         d="m 138.07763,122.6152 c 0,-3.52387 4.09659,-4.95023 14.51446,-5.05579 3.99147,-0.0395 8.66594,-1.1385 10.38772,-2.44125 4.487,-3.39348 6.9495,-2.95828 11.68733,2.06759 2.83914,3.01134 4.41713,3.76771 4.91637,2.35657 0.54675,-1.54602 3.14993,-1.80567 10.15487,-1.01318 8.13015,0.92005 10.01523,0.59775 13.77035,-2.35658 4.80087,-3.77618 13.45374,-4.52803 16.54444,-1.4371 1.41231,1.41226 11.12152,2.08057 33.6623,2.31651 29.57399,0.30988 31.95138,0.11627 35.80137,-2.912 l 4.12384,-3.2439 2.72711,3.36808 c 1.49992,1.85196 3.01419,4.22886 3.36502,5.28156 1.09673,3.29018 12.07152,2.24934 16.10277,-1.52684 5.40089,-5.05973 11.5022,-6.88121 23.05015,-6.88121 8.13071,0 10.6297,0.59379 11.87603,2.82224 1.97226,3.52669 13.38639,3.73441 36.29008,0.66154 8.97609,-1.20454 19.939,-1.67359 25.10031,-1.07471 7.29943,0.84724 9.59295,0.54639 11.27385,-1.47886 2.77158,-3.33986 6.01004,-3.2264 7.97512,0.2794 1.37627,2.45536 4.22901,2.82225 21.93455,2.82225 19.8195,0 20.43255,0.10556 23.40778,4.03188 l 3.05524,4.03187 -39.02093,0.98779 c -21.46151,0.543 -98.34874,1.08769 -170.86052,1.20962 -128.12149,0.21562 -131.83961,0.13603 -131.83961,-2.81548 z"
         style="opacity:1;fill:none;stroke:none;stroke-width:0;stroke-linecap:round;stroke-linejoin:bevel;stroke-miterlimit:4;stroke-dasharray:none;stroke-opacity:1" />
    </g>
  </g>
</svg>
