<?xml version="1.0" encoding="UTF-8" standalone="no"?>
<!-- Created with Inkscape (http://www.inkscape.org/) -->

<svg
   xmlns:dc="http://purl.org/dc/elements/1.1/"
   xmlns:cc="http://creativecommons.org/ns#"
   xmlns:rdf="http://www.w3.org/1999/02/22-rdf-syntax-ns#"
   xmlns:svg="http://www.w3.org/2000/svg"
   xmlns="http://www.w3.org/2000/svg"
   xmlns:sodipodi="http://sodipodi.sourceforge.net/DTD/sodipodi-0.dtd"
   xmlns:inkscape="http://www.inkscape.org/namespaces/inkscape"
   width="71mm"
   height="44mm"
   viewBox="0 0 251.5747 155.90542"
   id="svg3394"
   version="1.1"
   inkscape:version="0.91 r13725"
   sodipodi:docname="starter plate.svg">
  <defs
     id="defs3396" />
  <sodipodi:namedview
     id="base"
     pagecolor="#ffffff"
     bordercolor="#666666"
     borderopacity="1.0"
     inkscape:pageopacity="0.0"
     inkscape:pageshadow="2"
     inkscape:zoom="2.9861665"
     inkscape:cx="162.83005"
     inkscape:cy="87.601834"
     inkscape:document-units="px"
     inkscape:current-layer="layer1"
     showgrid="false"
     inkscape:window-width="1536"
     inkscape:window-height="801"
     inkscape:window-x="-8"
     inkscape:window-y="-8"
     inkscape:window-maximized="1" />
  <metadata
     id="metadata3399">
    <rdf:RDF>
      <cc:Work
         rdf:about="">
        <dc:format>image/svg+xml</dc:format>
        <dc:type
           rdf:resource="http://purl.org/dc/dcmitype/StillImage" />
        <dc:title></dc:title>
      </cc:Work>
    </rdf:RDF>
  </metadata>
  <g
     inkscape:label="Layer 1"
     inkscape:groupmode="layer"
     id="layer1"
     transform="translate(0,-896.45686)">
    <ellipse
       style="fill:#ffffff;fill-rule:evenodd;stroke:#000000;stroke-width:0.94624209;stroke-linecap:butt;stroke-linejoin:miter;stroke-miterlimit:4;stroke-dasharray:none;stroke-opacity:1"
       id="path3408"
       cx="126.51595"
       cy="-941.44556"
       rx="115.90973"
       ry="38.935226"
       transform="scale(1,-1)" />
    <ellipse
       style="opacity:1;fill:none;fill-rule:evenodd;stroke:#000000;stroke-width:1.6559236;stroke-linecap:butt;stroke-linejoin:miter;stroke-miterlimit:4;stroke-dasharray:none;stroke-opacity:1"
       id="path3408-9"
       cx="126.73601"
       cy="943.02087"
       rx="123.1789"
       ry="43.640579" />
    <path
       style="fill:none;fill-rule:evenodd;stroke:#000000;stroke-width:1.6559236;stroke-linecap:butt;stroke-linejoin:miter;stroke-miterlimit:4;stroke-dasharray:none;stroke-opacity:1"
       d="m 2.7925941,942.13263 0,61.51207"
       id="path4268"
       inkscape:connector-curvature="0" />
    <path
       style="fill:none;fill-rule:evenodd;stroke:#000000;stroke-width:1.6559236;stroke-linecap:butt;stroke-linejoin:miter;stroke-miterlimit:4;stroke-dasharray:none;stroke-opacity:1"
       d="m 249.45549,942.46694 0,61.51206"
       id="path4268-2"
       inkscape:connector-curvature="0" />
    <path
       style="color:#000000;clip-rule:nonzero;display:inline;overflow:visible;visibility:visible;opacity:1;isolation:auto;mix-blend-mode:normal;color-interpolation:sRGB;color-interpolation-filters:linearRGB;solid-color:#000000;solid-opacity:1;fill:none;fill-opacity:1;fill-rule:evenodd;stroke:#000000;stroke-width:1.70725572;stroke-linecap:butt;stroke-linejoin:miter;stroke-miterlimit:4;stroke-dasharray:none;stroke-dashoffset:0;stroke-opacity:1;color-rendering:auto;image-rendering:auto;shape-rendering:auto;text-rendering:auto;enable-background:accumulate"
       id="path4297"
       sodipodi:type="arc"
       sodipodi:cx="126.21954"
       sodipodi:cy="1003.493"
       sodipodi:rx="123.06791"
       sodipodi:ry="46.603531"
       sodipodi:start="0"
       sodipodi:end="3.1614106"
       sodipodi:open="true"
       d="M 249.28745,1003.493 A 123.06791,46.603531 0 0 1 187.0481,1044.0059 123.06791,46.603531 0 0 1 63.28287,1043.5414 123.06791,46.603531 0 0 1 3.1758009,1002.5695" />
    <path
       style="color:#000000;clip-rule:nonzero;display:inline;overflow:visible;visibility:visible;opacity:1;isolation:auto;mix-blend-mode:normal;color-interpolation:sRGB;color-interpolation-filters:linearRGB;solid-color:#000000;solid-opacity:1;fill:none;fill-opacity:1;fill-rule:evenodd;stroke:#000000;stroke-width:1.18280256;stroke-linecap:butt;stroke-linejoin:miter;stroke-miterlimit:4;stroke-dasharray:none;stroke-dashoffset:0;stroke-opacity:1;color-rendering:auto;image-rendering:auto;shape-rendering:auto;text-rendering:auto;enable-background:accumulate"
       id="path4297-1"
       sodipodi:type="arc"
       sodipodi:cx="127.43039"
       sodipodi:cy="1003.8957"
       sodipodi:rx="116.09906"
       sodipodi:ry="39.281036"
       sodipodi:start="0"
       sodipodi:end="3.1614106"
       sodipodi:open="true"
       d="m 243.52945,1003.8957 a 116.09906,39.281036 0 0 1 -58.71499,34.1474 116.09906,39.281036 0 0 1 -116.756889,-0.3915 116.09906,39.281036 0 0 1 -56.703443,-34.5343" />
    <path
       style="fill:none;fill-rule:evenodd;stroke:#000000;stroke-width:1.18280256;stroke-linecap:butt;stroke-linejoin:miter;stroke-miterlimit:4;stroke-dasharray:none;stroke-opacity:1"
       d="m 243.06326,976.43739 0,27.54161"
       id="path4268-2-6"
       inkscape:connector-curvature="0" />
    <path
       style="fill:none;fill-rule:evenodd;stroke:#000000;stroke-width:1.18280256;stroke-linecap:butt;stroke-linejoin:miter;stroke-miterlimit:4;stroke-dasharray:none;stroke-opacity:1"
       d="m 10.783729,975.45823 0,27.85217"
       id="path4268-2-6-7"
       inkscape:connector-curvature="0" />
    <ellipse
       style="color:#000000;clip-rule:nonzero;display:inline;overflow:visible;visibility:visible;opacity:1;isolation:auto;mix-blend-mode:normal;color-interpolation:sRGB;color-interpolation-filters:linearRGB;solid-color:#000000;solid-opacity:1;fill:none;fill-opacity:1;fill-rule:evenodd;stroke:#000000;stroke-width:1.18280256;stroke-linecap:butt;stroke-linejoin:miter;stroke-miterlimit:4;stroke-dasharray:none;stroke-dashoffset:0;stroke-opacity:1;color-rendering:auto;image-rendering:auto;shape-rendering:auto;text-rendering:auto;enable-background:accumulate"
       id="path4208"
       cx="126.94253"
       cy="972.74091"
       rx="115.29335"
       ry="43.477501" />
    <ellipse
       style="color:#000000;clip-rule:nonzero;display:inline;overflow:visible;visibility:visible;opacity:1;isolation:auto;mix-blend-mode:normal;color-interpolation:sRGB;color-interpolation-filters:linearRGB;solid-color:#000000;solid-opacity:1;fill:#ffffff;fill-opacity:1;fill-rule:evenodd;stroke:#000000;stroke-width:0.98066574px;stroke-linecap:butt;stroke-linejoin:miter;stroke-miterlimit:4;stroke-dasharray:none;stroke-dashoffset:0;stroke-opacity:1;color-rendering:auto;image-rendering:auto;shape-rendering:auto;text-rendering:auto;enable-background:accumulate"
       id="path4226"
       cx="79.799461"
       cy="947.74542"
       rx="6.0930138"
       ry="3.8675261" />
    <ellipse
       style="color:#000000;clip-rule:nonzero;display:inline;overflow:visible;visibility:visible;opacity:1;isolation:auto;mix-blend-mode:normal;color-interpolation:sRGB;color-interpolation-filters:linearRGB;solid-color:#000000;solid-opacity:1;fill:#ffffff;fill-opacity:1;fill-rule:evenodd;stroke:#000000;stroke-width:0.98066574px;stroke-linecap:butt;stroke-linejoin:miter;stroke-miterlimit:4;stroke-dasharray:none;stroke-dashoffset:0;stroke-opacity:1;color-rendering:auto;image-rendering:auto;shape-rendering:auto;text-rendering:auto;enable-background:accumulate"
       id="path4226-4"
       cx="181.34499"
       cy="1001.6422"
       rx="6.0930138"
       ry="3.8675261" />
    <ellipse
       style="color:#000000;clip-rule:nonzero;display:inline;overflow:visible;visibility:visible;opacity:1;isolation:auto;mix-blend-mode:normal;color-interpolation:sRGB;color-interpolation-filters:linearRGB;solid-color:#000000;solid-opacity:1;fill:#ffffff;fill-opacity:1;fill-rule:evenodd;stroke:#000000;stroke-width:0.98066574px;stroke-linecap:butt;stroke-linejoin:miter;stroke-miterlimit:4;stroke-dasharray:none;stroke-dashoffset:0;stroke-opacity:1;color-rendering:auto;image-rendering:auto;shape-rendering:auto;text-rendering:auto;enable-background:accumulate"
       id="path4226-2"
       cx="150.81496"
       cy="947.27271"
       rx="6.0930138"
       ry="3.8675261" />
    <ellipse
       style="color:#000000;clip-rule:nonzero;display:inline;overflow:visible;visibility:visible;opacity:1;isolation:auto;mix-blend-mode:normal;color-interpolation:sRGB;color-interpolation-filters:linearRGB;solid-color:#000000;solid-opacity:1;fill:#ffffff;fill-opacity:1;fill-rule:evenodd;stroke:#000000;stroke-width:0.98066574px;stroke-linecap:butt;stroke-linejoin:miter;stroke-miterlimit:4;stroke-dasharray:none;stroke-dashoffset:0;stroke-opacity:1;color-rendering:auto;image-rendering:auto;shape-rendering:auto;text-rendering:auto;enable-background:accumulate"
       id="path4226-45"
       cx="116.30276"
       cy="954.36438"
       rx="6.0930138"
       ry="3.8675261" />
    <ellipse
       style="color:#000000;clip-rule:nonzero;display:inline;overflow:visible;visibility:visible;opacity:1;isolation:auto;mix-blend-mode:normal;color-interpolation:sRGB;color-interpolation-filters:linearRGB;solid-color:#000000;solid-opacity:1;fill:#ffffff;fill-opacity:1;fill-rule:evenodd;stroke:#000000;stroke-width:0.98066574px;stroke-linecap:butt;stroke-linejoin:miter;stroke-miterlimit:4;stroke-dasharray:none;stroke-dashoffset:0;stroke-opacity:1;color-rendering:auto;image-rendering:auto;shape-rendering:auto;text-rendering:auto;enable-background:accumulate"
       id="path4226-9"
       cx="183.99979"
       cy="952.94598"
       rx="6.0930138"
       ry="3.8675261" />
    <ellipse
       style="color:#000000;clip-rule:nonzero;display:inline;overflow:visible;visibility:visible;opacity:1;isolation:auto;mix-blend-mode:normal;color-interpolation:sRGB;color-interpolation-filters:linearRGB;solid-color:#000000;solid-opacity:1;fill:#ffffff;fill-opacity:1;fill-rule:evenodd;stroke:#000000;stroke-width:0.98066574px;stroke-linecap:butt;stroke-linejoin:miter;stroke-miterlimit:4;stroke-dasharray:none;stroke-dashoffset:0;stroke-opacity:1;color-rendering:auto;image-rendering:auto;shape-rendering:auto;text-rendering:auto;enable-background:accumulate"
       id="path4226-44"
       cx="110.99322"
       cy="992.65936"
       rx="6.0930138"
       ry="3.8675261" />
    <ellipse
       style="color:#000000;clip-rule:nonzero;display:inline;overflow:visible;visibility:visible;opacity:1;isolation:auto;mix-blend-mode:normal;color-interpolation:sRGB;color-interpolation-filters:linearRGB;solid-color:#000000;solid-opacity:1;fill:#ffffff;fill-opacity:1;fill-rule:evenodd;stroke:#000000;stroke-width:0.98066574px;stroke-linecap:butt;stroke-linejoin:miter;stroke-miterlimit:4;stroke-dasharray:none;stroke-dashoffset:0;stroke-opacity:1;color-rendering:auto;image-rendering:auto;shape-rendering:auto;text-rendering:auto;enable-background:accumulate"
       id="path4226-27"
       cx="142.85063"
       cy="1008.7338"
       rx="6.0930138"
       ry="3.8675261" />
    <ellipse
       style="color:#000000;clip-rule:nonzero;display:inline;overflow:visible;visibility:visible;opacity:1;isolation:auto;mix-blend-mode:normal;color-interpolation:sRGB;color-interpolation-filters:linearRGB;solid-color:#000000;solid-opacity:1;fill:#ffffff;fill-opacity:1;fill-rule:evenodd;stroke:#000000;stroke-width:0.98066574px;stroke-linecap:butt;stroke-linejoin:miter;stroke-miterlimit:4;stroke-dasharray:none;stroke-dashoffset:0;stroke-opacity:1;color-rendering:auto;image-rendering:auto;shape-rendering:auto;text-rendering:auto;enable-background:accumulate"
       id="path4226-1"
       cx="209.88393"
       cy="985.09497"
       rx="6.0930138"
       ry="3.8675261" />
    <ellipse
       style="color:#000000;clip-rule:nonzero;display:inline;overflow:visible;visibility:visible;opacity:1;isolation:auto;mix-blend-mode:normal;color-interpolation:sRGB;color-interpolation-filters:linearRGB;solid-color:#000000;solid-opacity:1;fill:#ffffff;fill-opacity:1;fill-rule:evenodd;stroke:#000000;stroke-width:0.98066574px;stroke-linecap:butt;stroke-linejoin:miter;stroke-miterlimit:4;stroke-dasharray:none;stroke-dashoffset:0;stroke-opacity:1;color-rendering:auto;image-rendering:auto;shape-rendering:auto;text-rendering:auto;enable-background:accumulate"
       id="path4226-40"
       cx="162.76154"
       cy="1002.5876"
       rx="6.0930138"
       ry="3.8675261" />
    <ellipse
       style="color:#000000;clip-rule:nonzero;display:inline;overflow:visible;visibility:visible;opacity:1;isolation:auto;mix-blend-mode:normal;color-interpolation:sRGB;color-interpolation-filters:linearRGB;solid-color:#000000;solid-opacity:1;fill:#ffffff;fill-opacity:1;fill-rule:evenodd;stroke:#000000;stroke-width:0.98066574px;stroke-linecap:butt;stroke-linejoin:miter;stroke-miterlimit:4;stroke-dasharray:none;stroke-dashoffset:0;stroke-opacity:1;color-rendering:auto;image-rendering:auto;shape-rendering:auto;text-rendering:auto;enable-background:accumulate"
       id="path4226-3"
       cx="146.1691"
       cy="963.81989"
       rx="6.0930138"
       ry="3.8675261" />
    <ellipse
       style="color:#000000;clip-rule:nonzero;display:inline;overflow:visible;visibility:visible;opacity:1;isolation:auto;mix-blend-mode:normal;color-interpolation:sRGB;color-interpolation-filters:linearRGB;solid-color:#000000;solid-opacity:1;fill:#ffffff;fill-opacity:1;fill-rule:evenodd;stroke:#000000;stroke-width:0.98066574px;stroke-linecap:butt;stroke-linejoin:miter;stroke-miterlimit:4;stroke-dasharray:none;stroke-dashoffset:0;stroke-opacity:1;color-rendering:auto;image-rendering:auto;shape-rendering:auto;text-rendering:auto;enable-background:accumulate"
       id="path4226-28"
       cx="106.34733"
       cy="1008.7339"
       rx="6.0930138"
       ry="3.8675261" />
    <ellipse
       style="color:#000000;clip-rule:nonzero;display:inline;overflow:visible;visibility:visible;opacity:1;isolation:auto;mix-blend-mode:normal;color-interpolation:sRGB;color-interpolation-filters:linearRGB;solid-color:#000000;solid-opacity:1;fill:#ffffff;fill-opacity:1;fill-rule:evenodd;stroke:#000000;stroke-width:0.98066574px;stroke-linecap:butt;stroke-linejoin:miter;stroke-miterlimit:4;stroke-dasharray:none;stroke-dashoffset:0;stroke-opacity:1;color-rendering:auto;image-rendering:auto;shape-rendering:auto;text-rendering:auto;enable-background:accumulate"
       id="path4226-30"
       cx="47.278366"
       cy="954.8371"
       rx="6.0930138"
       ry="3.8675261" />
    <ellipse
       style="color:#000000;clip-rule:nonzero;display:inline;overflow:visible;visibility:visible;opacity:1;isolation:auto;mix-blend-mode:normal;color-interpolation:sRGB;color-interpolation-filters:linearRGB;solid-color:#000000;solid-opacity:1;fill:#ffffff;fill-opacity:1;fill-rule:evenodd;stroke:#000000;stroke-width:0.98066574px;stroke-linecap:butt;stroke-linejoin:miter;stroke-miterlimit:4;stroke-dasharray:none;stroke-dashoffset:0;stroke-opacity:1;color-rendering:auto;image-rendering:auto;shape-rendering:auto;text-rendering:auto;enable-background:accumulate"
       id="path4226-48"
       cx="110.32951"
       cy="972.80267"
       rx="6.0930138"
       ry="3.8675261" />
    <ellipse
       style="color:#000000;clip-rule:nonzero;display:inline;overflow:visible;visibility:visible;opacity:1;isolation:auto;mix-blend-mode:normal;color-interpolation:sRGB;color-interpolation-filters:linearRGB;solid-color:#000000;solid-opacity:1;fill:#ffffff;fill-opacity:1;fill-rule:evenodd;stroke:#000000;stroke-width:0.98066574px;stroke-linecap:butt;stroke-linejoin:miter;stroke-miterlimit:4;stroke-dasharray:none;stroke-dashoffset:0;stroke-opacity:1;color-rendering:auto;image-rendering:auto;shape-rendering:auto;text-rendering:auto;enable-background:accumulate"
       id="path4226-47"
       cx="79.135765"
       cy="997.85992"
       rx="6.0930138"
       ry="3.8675261" />
    <ellipse
       style="color:#000000;clip-rule:nonzero;display:inline;overflow:visible;visibility:visible;opacity:1;isolation:auto;mix-blend-mode:normal;color-interpolation:sRGB;color-interpolation-filters:linearRGB;solid-color:#000000;solid-opacity:1;fill:#ffffff;fill-opacity:1;fill-rule:evenodd;stroke:#000000;stroke-width:0.98066574px;stroke-linecap:butt;stroke-linejoin:miter;stroke-miterlimit:4;stroke-dasharray:none;stroke-dashoffset:0;stroke-opacity:1;color-rendering:auto;image-rendering:auto;shape-rendering:auto;text-rendering:auto;enable-background:accumulate"
       id="path4226-8"
       cx="24.049"
       cy="980.8399"
       rx="6.0930138"
       ry="3.8675261" />
    <ellipse
       style="color:#000000;clip-rule:nonzero;display:inline;overflow:visible;visibility:visible;opacity:1;isolation:auto;mix-blend-mode:normal;color-interpolation:sRGB;color-interpolation-filters:linearRGB;solid-color:#000000;solid-opacity:1;fill:#ffffff;fill-opacity:1;fill-rule:evenodd;stroke:#000000;stroke-width:0.98066574px;stroke-linecap:butt;stroke-linejoin:miter;stroke-miterlimit:4;stroke-dasharray:none;stroke-dashoffset:0;stroke-opacity:1;color-rendering:auto;image-rendering:auto;shape-rendering:auto;text-rendering:auto;enable-background:accumulate"
       id="path4226-6"
       cx="156.78825"
       cy="951.52771"
       rx="6.0930138"
       ry="3.8675261" />
    <ellipse
       style="color:#000000;clip-rule:nonzero;display:inline;overflow:visible;visibility:visible;opacity:1;isolation:auto;mix-blend-mode:normal;color-interpolation:sRGB;color-interpolation-filters:linearRGB;solid-color:#000000;solid-opacity:1;fill:#ffffff;fill-opacity:1;fill-rule:evenodd;stroke:#000000;stroke-width:0.98066574px;stroke-linecap:butt;stroke-linejoin:miter;stroke-miterlimit:4;stroke-dasharray:none;stroke-dashoffset:0;stroke-opacity:1;color-rendering:auto;image-rendering:auto;shape-rendering:auto;text-rendering:auto;enable-background:accumulate"
       id="path4226-6-0"
       cx="106.34733"
       cy="1008.261"
       rx="6.0930138"
       ry="3.8675261" />
    <ellipse
       style="color:#000000;clip-rule:nonzero;display:inline;overflow:visible;visibility:visible;opacity:1;isolation:auto;mix-blend-mode:normal;color-interpolation:sRGB;color-interpolation-filters:linearRGB;solid-color:#000000;solid-opacity:1;fill:#ffffff;fill-opacity:1;fill-rule:evenodd;stroke:#000000;stroke-width:0.98066574px;stroke-linecap:butt;stroke-linejoin:miter;stroke-miterlimit:4;stroke-dasharray:none;stroke-dashoffset:0;stroke-opacity:1;color-rendering:auto;image-rendering:auto;shape-rendering:auto;text-rendering:auto;enable-background:accumulate"
       id="path4226-6-3"
       cx="122.93974"
       cy="938.28992"
       rx="6.0930138"
       ry="3.8675261" />
    <ellipse
       style="color:#000000;clip-rule:nonzero;display:inline;overflow:visible;visibility:visible;opacity:1;isolation:auto;mix-blend-mode:normal;color-interpolation:sRGB;color-interpolation-filters:linearRGB;solid-color:#000000;solid-opacity:1;fill:#ffffff;fill-opacity:1;fill-rule:evenodd;stroke:#000000;stroke-width:0.98066574px;stroke-linecap:butt;stroke-linejoin:miter;stroke-miterlimit:4;stroke-dasharray:none;stroke-dashoffset:0;stroke-opacity:1;color-rendering:auto;image-rendering:auto;shape-rendering:auto;text-rendering:auto;enable-background:accumulate"
       id="path4226-6-1"
       cx="138.86844"
       cy="994.0777"
       rx="6.0930138"
       ry="3.8675261" />
    <ellipse
       style="color:#000000;clip-rule:nonzero;display:inline;overflow:visible;visibility:visible;opacity:1;isolation:auto;mix-blend-mode:normal;color-interpolation:sRGB;color-interpolation-filters:linearRGB;solid-color:#000000;solid-opacity:1;fill:#ffffff;fill-opacity:1;fill-rule:evenodd;stroke:#000000;stroke-width:0.98066574px;stroke-linecap:butt;stroke-linejoin:miter;stroke-miterlimit:4;stroke-dasharray:none;stroke-dashoffset:0;stroke-opacity:1;color-rendering:auto;image-rendering:auto;shape-rendering:auto;text-rendering:auto;enable-background:accumulate"
       id="path4226-6-8"
       cx="79.799461"
       cy="962.87439"
       rx="6.0930138"
       ry="3.8675261" />
    <ellipse
       style="color:#000000;clip-rule:nonzero;display:inline;overflow:visible;visibility:visible;opacity:1;isolation:auto;mix-blend-mode:normal;color-interpolation:sRGB;color-interpolation-filters:linearRGB;solid-color:#000000;solid-opacity:1;fill:#ffffff;fill-opacity:1;fill-rule:evenodd;stroke:#000000;stroke-width:0.98066574px;stroke-linecap:butt;stroke-linejoin:miter;stroke-miterlimit:4;stroke-dasharray:none;stroke-dashoffset:0;stroke-opacity:1;color-rendering:auto;image-rendering:auto;shape-rendering:auto;text-rendering:auto;enable-background:accumulate"
       id="path4226-6-2"
       cx="72.498802"
       cy="989.34991"
       rx="6.0930138"
       ry="3.8675261" />
    <ellipse
       style="color:#000000;clip-rule:nonzero;display:inline;overflow:visible;visibility:visible;opacity:1;isolation:auto;mix-blend-mode:normal;color-interpolation:sRGB;color-interpolation-filters:linearRGB;solid-color:#000000;solid-opacity:1;fill:#ffffff;fill-opacity:1;fill-rule:evenodd;stroke:#000000;stroke-width:0.98066574px;stroke-linecap:butt;stroke-linejoin:miter;stroke-miterlimit:4;stroke-dasharray:none;stroke-dashoffset:0;stroke-opacity:1;color-rendering:auto;image-rendering:auto;shape-rendering:auto;text-rendering:auto;enable-background:accumulate"
       id="path4226-6-16"
       cx="168.73477"
       cy="992.18652"
       rx="6.0930138"
       ry="3.8675261" />
    <ellipse
       style="color:#000000;clip-rule:nonzero;display:inline;overflow:visible;visibility:visible;opacity:1;isolation:auto;mix-blend-mode:normal;color-interpolation:sRGB;color-interpolation-filters:linearRGB;solid-color:#000000;solid-opacity:1;fill:#ffffff;fill-opacity:1;fill-rule:evenodd;stroke:#000000;stroke-width:0.98066574px;stroke-linecap:butt;stroke-linejoin:miter;stroke-miterlimit:4;stroke-dasharray:none;stroke-dashoffset:0;stroke-opacity:1;color-rendering:auto;image-rendering:auto;shape-rendering:auto;text-rendering:auto;enable-background:accumulate"
       id="path4226-6-07"
       cx="163.42522"
       cy="971.85712"
       rx="6.0930138"
       ry="3.8675261" />
    <ellipse
       style="color:#000000;clip-rule:nonzero;display:inline;overflow:visible;visibility:visible;opacity:1;isolation:auto;mix-blend-mode:normal;color-interpolation:sRGB;color-interpolation-filters:linearRGB;solid-color:#000000;solid-opacity:1;fill:#ffffff;fill-opacity:1;fill-rule:evenodd;stroke:#000000;stroke-width:0.98066574px;stroke-linecap:butt;stroke-linejoin:miter;stroke-miterlimit:4;stroke-dasharray:none;stroke-dashoffset:0;stroke-opacity:1;color-rendering:auto;image-rendering:auto;shape-rendering:auto;text-rendering:auto;enable-background:accumulate"
       id="path4226-6-31"
       cx="205.23804"
       cy="958.14655"
       rx="6.0930138"
       ry="3.8675261" />
    <ellipse
       style="color:#000000;clip-rule:nonzero;display:inline;overflow:visible;visibility:visible;opacity:1;isolation:auto;mix-blend-mode:normal;color-interpolation:sRGB;color-interpolation-filters:linearRGB;solid-color:#000000;solid-opacity:1;fill:#ffffff;fill-opacity:1;fill-rule:evenodd;stroke:#000000;stroke-width:0.98066574px;stroke-linecap:butt;stroke-linejoin:miter;stroke-miterlimit:4;stroke-dasharray:none;stroke-dashoffset:0;stroke-opacity:1;color-rendering:auto;image-rendering:auto;shape-rendering:auto;text-rendering:auto;enable-background:accumulate"
       id="path4226-6-38"
       cx="200.59216"
       cy="995.49603"
       rx="6.0930138"
       ry="3.8675261" />
    <ellipse
       style="color:#000000;clip-rule:nonzero;display:inline;overflow:visible;visibility:visible;opacity:1;isolation:auto;mix-blend-mode:normal;color-interpolation:sRGB;color-interpolation-filters:linearRGB;solid-color:#000000;solid-opacity:1;fill:#ffffff;fill-opacity:1;fill-rule:evenodd;stroke:#000000;stroke-width:0.98066574px;stroke-linecap:butt;stroke-linejoin:miter;stroke-miterlimit:4;stroke-dasharray:none;stroke-dashoffset:0;stroke-opacity:1;color-rendering:auto;image-rendering:auto;shape-rendering:auto;text-rendering:auto;enable-background:accumulate"
       id="path4226-6-4"
       cx="47.278366"
       cy="986.51324"
       rx="6.0930138"
       ry="3.8675261" />
    <ellipse
       style="color:#000000;clip-rule:nonzero;display:inline;overflow:visible;visibility:visible;opacity:1;isolation:auto;mix-blend-mode:normal;color-interpolation:sRGB;color-interpolation-filters:linearRGB;solid-color:#000000;solid-opacity:1;fill:#ffffff;fill-opacity:1;fill-rule:evenodd;stroke:#000000;stroke-width:0.98066574px;stroke-linecap:butt;stroke-linejoin:miter;stroke-miterlimit:4;stroke-dasharray:none;stroke-dashoffset:0;stroke-opacity:1;color-rendering:auto;image-rendering:auto;shape-rendering:auto;text-rendering:auto;enable-background:accumulate"
       id="path4226-6-12"
       cx="61.879684"
       cy="961.45599"
       rx="6.0930138"
       ry="3.8675261" />
    <ellipse
       style="color:#000000;clip-rule:nonzero;display:inline;overflow:visible;visibility:visible;opacity:1;isolation:auto;mix-blend-mode:normal;color-interpolation:sRGB;color-interpolation-filters:linearRGB;solid-color:#000000;solid-opacity:1;fill:#ffffff;fill-opacity:1;fill-rule:evenodd;stroke:#000000;stroke-width:0.98066574px;stroke-linecap:butt;stroke-linejoin:miter;stroke-miterlimit:4;stroke-dasharray:none;stroke-dashoffset:0;stroke-opacity:1;color-rendering:auto;image-rendering:auto;shape-rendering:auto;text-rendering:auto;enable-background:accumulate"
       id="path4226-6-26"
       cx="99.046669"
       cy="971.85712"
       rx="6.0930138"
       ry="3.8675261" />
    <ellipse
       style="color:#000000;clip-rule:nonzero;display:inline;overflow:visible;visibility:visible;opacity:1;isolation:auto;mix-blend-mode:normal;color-interpolation:sRGB;color-interpolation-filters:linearRGB;solid-color:#000000;solid-opacity:1;fill:#ffffff;fill-opacity:1;fill-rule:evenodd;stroke:#000000;stroke-width:0.98066574px;stroke-linecap:butt;stroke-linejoin:miter;stroke-miterlimit:4;stroke-dasharray:none;stroke-dashoffset:0;stroke-opacity:1;color-rendering:auto;image-rendering:auto;shape-rendering:auto;text-rendering:auto;enable-background:accumulate"
       id="path4226-6-32"
       cx="129.57671"
       cy="969.966"
       rx="6.0930138"
       ry="3.8675261" />
    <ellipse
       style="color:#000000;clip-rule:nonzero;display:inline;overflow:visible;visibility:visible;opacity:1;isolation:auto;mix-blend-mode:normal;color-interpolation:sRGB;color-interpolation-filters:linearRGB;solid-color:#000000;solid-opacity:1;fill:#ffffff;fill-opacity:1;fill-rule:evenodd;stroke:#000000;stroke-width:0.98066574px;stroke-linecap:butt;stroke-linejoin:miter;stroke-miterlimit:4;stroke-dasharray:none;stroke-dashoffset:0;stroke-opacity:1;color-rendering:auto;image-rendering:auto;shape-rendering:auto;text-rendering:auto;enable-background:accumulate"
       id="path4226-6-35"
       cx="176.03543"
       cy="965.711"
       rx="6.0930138"
       ry="3.8675261" />
    <ellipse
       style="color:#000000;clip-rule:nonzero;display:inline;overflow:visible;visibility:visible;opacity:1;isolation:auto;mix-blend-mode:normal;color-interpolation:sRGB;color-interpolation-filters:linearRGB;solid-color:#000000;solid-opacity:1;fill:#ffffff;fill-opacity:1;fill-rule:evenodd;stroke:#000000;stroke-width:0.98066574px;stroke-linecap:butt;stroke-linejoin:miter;stroke-miterlimit:4;stroke-dasharray:none;stroke-dashoffset:0;stroke-opacity:1;color-rendering:auto;image-rendering:auto;shape-rendering:auto;text-rendering:auto;enable-background:accumulate"
       id="path4226-6-86"
       cx="230.07826"
       cy="975.62866"
       rx="6.0930138"
       ry="3.8675261" />
    <ellipse
       style="color:#000000;clip-rule:nonzero;display:inline;overflow:visible;visibility:visible;opacity:1;isolation:auto;mix-blend-mode:normal;color-interpolation:sRGB;color-interpolation-filters:linearRGB;solid-color:#000000;solid-opacity:1;fill:#ffffff;fill-opacity:1;fill-rule:evenodd;stroke:#000000;stroke-width:0.98066574px;stroke-linecap:butt;stroke-linejoin:miter;stroke-miterlimit:4;stroke-dasharray:none;stroke-dashoffset:0;stroke-opacity:1;color-rendering:auto;image-rendering:auto;shape-rendering:auto;text-rendering:auto;enable-background:accumulate"
       id="path4226-6-04"
       cx="101.03777"
       cy="943.96326"
       rx="6.0930138"
       ry="3.8675261" />
    <ellipse
       style="color:#000000;clip-rule:nonzero;display:inline;overflow:visible;visibility:visible;opacity:1;isolation:auto;mix-blend-mode:normal;color-interpolation:sRGB;color-interpolation-filters:linearRGB;solid-color:#000000;solid-opacity:1;fill:#ffffff;fill-opacity:1;fill-rule:evenodd;stroke:#000000;stroke-width:0.98066574px;stroke-linecap:butt;stroke-linejoin:miter;stroke-miterlimit:4;stroke-dasharray:none;stroke-dashoffset:0;stroke-opacity:1;color-rendering:auto;image-rendering:auto;shape-rendering:auto;text-rendering:auto;enable-background:accumulate"
       id="path4226-6-125"
       cx="97.05558"
       cy="956.72821"
       rx="6.0930138"
       ry="3.8675261" />
    <ellipse
       style="color:#000000;clip-rule:nonzero;display:inline;overflow:visible;visibility:visible;opacity:1;isolation:auto;mix-blend-mode:normal;color-interpolation:sRGB;color-interpolation-filters:linearRGB;solid-color:#000000;solid-opacity:1;fill:#ffffff;fill-opacity:1;fill-rule:evenodd;stroke:#000000;stroke-width:0.98066574px;stroke-linecap:butt;stroke-linejoin:miter;stroke-miterlimit:4;stroke-dasharray:none;stroke-dashoffset:0;stroke-opacity:1;color-rendering:auto;image-rendering:auto;shape-rendering:auto;text-rendering:auto;enable-background:accumulate"
       id="path4226-6-03"
       cx="57.233803"
       cy="999.27826"
       rx="6.0930138"
       ry="3.8675261" />
    <ellipse
       style="color:#000000;clip-rule:nonzero;display:inline;overflow:visible;visibility:visible;opacity:1;isolation:auto;mix-blend-mode:normal;color-interpolation:sRGB;color-interpolation-filters:linearRGB;solid-color:#000000;solid-opacity:1;fill:#ffffff;fill-opacity:1;fill-rule:evenodd;stroke:#000000;stroke-width:0.98066574px;stroke-linecap:butt;stroke-linejoin:miter;stroke-miterlimit:4;stroke-dasharray:none;stroke-dashoffset:0;stroke-opacity:1;color-rendering:auto;image-rendering:auto;shape-rendering:auto;text-rendering:auto;enable-background:accumulate"
       id="path4226-6-00"
       cx="164.75258"
       cy="938.28992"
       rx="6.0930138"
       ry="3.8675261" />
    <ellipse
       style="color:#000000;clip-rule:nonzero;display:inline;overflow:visible;visibility:visible;opacity:1;isolation:auto;mix-blend-mode:normal;color-interpolation:sRGB;color-interpolation-filters:linearRGB;solid-color:#000000;solid-opacity:1;fill:#ffffff;fill-opacity:1;fill-rule:evenodd;stroke:#000000;stroke-width:0.98066574px;stroke-linecap:butt;stroke-linejoin:miter;stroke-miterlimit:4;stroke-dasharray:none;stroke-dashoffset:0;stroke-opacity:1;color-rendering:auto;image-rendering:auto;shape-rendering:auto;text-rendering:auto;enable-background:accumulate"
       id="path4226-6-5"
       cx="134.22258"
       cy="952.00049"
       rx="6.0930138"
       ry="3.8675261" />
    <ellipse
       style="color:#000000;clip-rule:nonzero;display:inline;overflow:visible;visibility:visible;opacity:1;isolation:auto;mix-blend-mode:normal;color-interpolation:sRGB;color-interpolation-filters:linearRGB;solid-color:#000000;solid-opacity:1;fill:#ffffff;fill-opacity:1;fill-rule:evenodd;stroke:#000000;stroke-width:0.98066574px;stroke-linecap:butt;stroke-linejoin:miter;stroke-miterlimit:4;stroke-dasharray:none;stroke-dashoffset:0;stroke-opacity:1;color-rendering:auto;image-rendering:auto;shape-rendering:auto;text-rendering:auto;enable-background:accumulate"
       id="path4226-6-6"
       cx="195.28261"
       cy="944.90881"
       rx="6.0930138"
       ry="3.8675261" />
    <ellipse
       style="color:#000000;clip-rule:nonzero;display:inline;overflow:visible;visibility:visible;opacity:1;isolation:auto;mix-blend-mode:normal;color-interpolation:sRGB;color-interpolation-filters:linearRGB;solid-color:#000000;solid-opacity:1;fill:#ffffff;fill-opacity:1;fill-rule:evenodd;stroke:#000000;stroke-width:0.98066574px;stroke-linecap:butt;stroke-linejoin:miter;stroke-miterlimit:4;stroke-dasharray:none;stroke-dashoffset:0;stroke-opacity:1;color-rendering:auto;image-rendering:auto;shape-rendering:auto;text-rendering:auto;enable-background:accumulate"
       id="path4226-6-25"
       cx="47.942081"
       cy="963.81989"
       rx="6.0930138"
       ry="3.8675261" />
    <ellipse
       style="color:#000000;clip-rule:nonzero;display:inline;overflow:visible;visibility:visible;opacity:1;isolation:auto;mix-blend-mode:normal;color-interpolation:sRGB;color-interpolation-filters:linearRGB;solid-color:#000000;solid-opacity:1;fill:#ffffff;fill-opacity:1;fill-rule:evenodd;stroke:#000000;stroke-width:0.98066574px;stroke-linecap:butt;stroke-linejoin:miter;stroke-miterlimit:4;stroke-dasharray:none;stroke-dashoffset:0;stroke-opacity:1;color-rendering:auto;image-rendering:auto;shape-rendering:auto;text-rendering:auto;enable-background:accumulate"
       id="path4226-6-352"
       cx="122.93974"
       cy="1003.5333"
       rx="6.0930138"
       ry="3.8675261" />
    <ellipse
       style="color:#000000;clip-rule:nonzero;display:inline;overflow:visible;visibility:visible;opacity:1;isolation:auto;mix-blend-mode:normal;color-interpolation:sRGB;color-interpolation-filters:linearRGB;solid-color:#000000;solid-opacity:1;fill:#ffffff;fill-opacity:1;fill-rule:evenodd;stroke:#000000;stroke-width:0.98066574px;stroke-linecap:butt;stroke-linejoin:miter;stroke-miterlimit:4;stroke-dasharray:none;stroke-dashoffset:0;stroke-opacity:1;color-rendering:auto;image-rendering:auto;shape-rendering:auto;text-rendering:auto;enable-background:accumulate"
       id="path4226-6-66"
       cx="195.28261"
       cy="964.76544"
       rx="6.0930138"
       ry="3.8675261" />
    <ellipse
       style="color:#000000;clip-rule:nonzero;display:inline;overflow:visible;visibility:visible;opacity:1;isolation:auto;mix-blend-mode:normal;color-interpolation:sRGB;color-interpolation-filters:linearRGB;solid-color:#000000;solid-opacity:1;fill:#ffffff;fill-opacity:1;fill-rule:evenodd;stroke:#000000;stroke-width:0.98066574px;stroke-linecap:butt;stroke-linejoin:miter;stroke-miterlimit:4;stroke-dasharray:none;stroke-dashoffset:0;stroke-opacity:1;color-rendering:auto;image-rendering:auto;shape-rendering:auto;text-rendering:auto;enable-background:accumulate"
       id="path4226-6-30"
       cx="96.391891"
       cy="992.18658"
       rx="6.0930138"
       ry="3.8675261" />
    <ellipse
       style="color:#000000;clip-rule:nonzero;display:inline;overflow:visible;visibility:visible;opacity:1;isolation:auto;mix-blend-mode:normal;color-interpolation:sRGB;color-interpolation-filters:linearRGB;solid-color:#000000;solid-opacity:1;fill:#ffffff;fill-opacity:1;fill-rule:evenodd;stroke:#000000;stroke-width:0.98066574px;stroke-linecap:butt;stroke-linejoin:miter;stroke-miterlimit:4;stroke-dasharray:none;stroke-dashoffset:0;stroke-opacity:1;color-rendering:auto;image-rendering:auto;shape-rendering:auto;text-rendering:auto;enable-background:accumulate"
       id="path4226-6-40"
       cx="140.85954"
       cy="937.81708"
       rx="6.0930138"
       ry="3.8675261" />
    <ellipse
       style="color:#000000;clip-rule:nonzero;display:inline;overflow:visible;visibility:visible;opacity:1;isolation:auto;mix-blend-mode:normal;color-interpolation:sRGB;color-interpolation-filters:linearRGB;solid-color:#000000;solid-opacity:1;fill:#ffffff;fill-opacity:1;fill-rule:evenodd;stroke:#000000;stroke-width:0.98066574px;stroke-linecap:butt;stroke-linejoin:miter;stroke-miterlimit:4;stroke-dasharray:none;stroke-dashoffset:0;stroke-opacity:1;color-rendering:auto;image-rendering:auto;shape-rendering:auto;text-rendering:auto;enable-background:accumulate"
       id="path4226-6-313"
       cx="166.07999"
       cy="963.81995"
       rx="6.0930138"
       ry="3.8675261" />
    <ellipse
       style="color:#000000;clip-rule:nonzero;display:inline;overflow:visible;visibility:visible;opacity:1;isolation:auto;mix-blend-mode:normal;color-interpolation:sRGB;color-interpolation-filters:linearRGB;solid-color:#000000;solid-opacity:1;fill:#ffffff;fill-opacity:1;fill-rule:evenodd;stroke:#000000;stroke-width:0.98066574px;stroke-linecap:butt;stroke-linejoin:miter;stroke-miterlimit:4;stroke-dasharray:none;stroke-dashoffset:0;stroke-opacity:1;color-rendering:auto;image-rendering:auto;shape-rendering:auto;text-rendering:auto;enable-background:accumulate"
       id="path4226-6-22"
       cx="192.62782"
       cy="988.40436"
       rx="6.0930138"
       ry="3.8675261" />
    <path
       style="opacity:1;fill:#ffffff;fill-opacity:1;stroke:none;stroke-width:1;stroke-linecap:round;stroke-linejoin:bevel;stroke-miterlimit:4;stroke-dasharray:none;stroke-opacity:1"
       d="m 113.08906,1042.2109 c -49.248358,-2.534 -87.845256,-14.4313 -97.981082,-30.2022 -2.810884,-4.3736 -3.520549,-8.742 -3.494511,-21.51061 0.02186,-10.71408 0.09628,-11.44119 0.992514,-9.69195 5.137059,10.02653 17.005726,17.99916 36.968,24.83276 48.869671,16.7295 125.610239,14.5018 167.193129,-4.8535 10.97716,-5.10949 18.7304,-10.92823 22.8418,-17.14259 l 2.18951,-3.30945 0.16714,12.05584 c 0.2105,15.1862 0.18634,15.4868 -1.48709,18.5111 -8.32798,15.0505 -42.57737,26.9472 -88.23134,30.6475 -6.63699,0.5379 -32.93531,0.9833 -39.15807,0.6631 z"
       id="path4504"
       inkscape:connector-curvature="0" />
    <path
       style="opacity:1;fill:#ffffff;fill-opacity:1;stroke:none;stroke-width:1;stroke-linecap:round;stroke-linejoin:bevel;stroke-miterlimit:4;stroke-dasharray:none;stroke-opacity:1"
       d="m 109.10688,1042.0105 c -46.288191,-2.8735 -83.064099,-14.282 -93.218703,-28.9181 -3.566824,-5.141 -4.297021,-8.9727 -4.305723,-22.59431 l -0.007,-11.58307 1.583492,2.74317 c 2.649483,4.58987 5.776191,7.89585 11.053672,11.68743 15.633288,11.23168 43.573691,19.37188 77.262162,22.50958 10.53817,0.9816 38.62349,1.1322 48.11798,0.2582 29.0833,-2.6774 51.47758,-7.8601 68.02884,-15.7438 10.19872,-4.85782 20.3561,-12.92172 23.01618,-18.27241 0.77808,-1.5651 0.91604,-0.29897 1.22445,11.23757 0.38828,14.52364 0.0659,16.42334 -3.52823,20.78634 -4.4826,5.4417 -15.71227,12.0982 -27.34935,16.2115 -14.8807,5.2599 -34.42807,9.0948 -56.08234,11.0024 -10.04882,0.8852 -36.20187,1.271 -45.79502,0.6755 z"
       id="path4506"
       inkscape:connector-curvature="0" />
    <path
       style="opacity:1;fill:#ffffff;fill-opacity:1;stroke:none;stroke-width:1;stroke-linecap:round;stroke-linejoin:bevel;stroke-miterlimit:4;stroke-dasharray:none;stroke-opacity:1"
       d="m 109.20369,1041.9935 c -45.87019,-2.5066 -83.913639,-14.5115 -93.840247,-29.6119 -3.043996,-4.6306 -3.772665,-8.848 -3.780989,-21.88351 l -0.007,-11.58307 1.544449,2.67475 c 5.559349,9.62794 17.241907,17.37179 35.922877,23.81173 39.550915,13.6345 98.93993,15.1893 143.49252,3.7568 14.06132,-3.6083 26.26876,-8.6604 35.0645,-14.51178 5.70443,-3.79487 8.90186,-6.75884 11.95629,-11.08338 l 2.19276,-3.10456 0.22586,12.93878 c 0.16598,9.50934 -0.004,13.62794 -0.64297,15.53904 -2.5852,7.7372 -14.93728,16.1779 -32.1738,21.9858 -26.29884,8.8614 -63.99213,13.0365 -99.95384,11.0713 z"
       id="path4508"
       inkscape:connector-curvature="0" />
    <path
       style="opacity:1;fill:#ffffff;fill-opacity:1;stroke:none;stroke-width:1;stroke-linecap:round;stroke-linejoin:bevel;stroke-miterlimit:4;stroke-dasharray:none;stroke-opacity:1"
       d="m 108.44318,1041.9866 c -45.970922,-2.8222 -82.285763,-14.2651 -92.92715,-29.2816 -3.109359,-4.3878 -3.975157,-9.2892 -3.954528,-22.38704 l 0.01794,-11.40294 1.849819,3.07307 c 2.664436,4.42632 5.003924,6.87135 10.331086,10.79711 27.518057,20.279 89.660193,29.1653 146.047303,20.8849 34.14851,-5.0147 59.72051,-16.06197 69.63733,-30.08367 l 2.30072,-3.25307 0.22721,13.0014 c 0.16688,9.54864 -0.003,13.68494 -0.63872,15.57554 -2.56383,7.6213 -13.99866,15.6067 -31.01366,21.658 -25.09182,8.9239 -66.6459,13.5811 -101.87736,11.4183 z"
       id="path4510"
       inkscape:connector-curvature="0" />
    <path
       style="opacity:1;fill:#b3b3b3;fill-opacity:1;stroke:none;stroke-width:1;stroke-linecap:round;stroke-linejoin:bevel;stroke-miterlimit:4;stroke-dasharray:none;stroke-opacity:1"
       d="m 110.5897,1015.0478 c -22.966565,-1.2569 -45.06365,-5.3179 -62.197018,-11.4303 -17.185066,-6.13085 -29.760231,-14.77028 -33.891379,-23.28414 -2.204601,-4.54342 -1.887376,-13.67987 0.555579,-16.00203 0.705419,-0.67054 1.392942,-0.42167 5.778405,2.0917 10.1364,5.80928 21.223019,9.88778 37.166988,13.67284 41.949305,9.95867 94.988135,9.95045 137.581645,-0.0214 15.61412,-3.6555 27.84431,-8.22067 38.07808,-14.21343 l 4.75798,-2.78621 1.21462,2.48313 c 1.60946,3.29029 1.64374,10.44967 0.0674,14.06617 -2.81154,6.45013 -12.17491,14.34481 -23.16298,19.52973 -25.36452,11.96874 -66.07683,18.07614 -105.94928,15.89394 z m 0.98414,-3.4909 c 1.76712,-1.4635 2.03126,-4.2492 0.54611,-5.7596 -2.35167,-2.3916 -8.10308,-2.5862 -11.02212,-0.3728 -2.485937,1.8849 -2.208218,4.63 0.65263,6.4508 1.97892,1.2596 2.58724,1.3957 5.27258,1.1801 2.19652,-0.1764 3.4544,-0.5906 4.5508,-1.4985 z m 36.50328,0 c 2.81465,-2.331 1.63456,-5.6653 -2.42946,-6.8644 -4.48984,-1.3248 -9.59472,0.8462 -9.59472,4.0804 0,1.3328 0.48102,2.0078 2.21891,3.1139 1.95975,1.2474 2.57345,1.3839 5.25448,1.1686 2.19652,-0.1764 3.4544,-0.5906 4.55079,-1.4985 z m -19.91089,-5.2006 c 2.81466,-2.3309 1.63456,-5.6652 -2.42946,-6.86436 -4.48984,-1.32478 -9.59472,0.84616 -9.59472,4.08036 0,1.3328 0.48102,2.0079 2.21891,3.114 1.95976,1.2473 2.57346,1.3838 5.25449,1.1685 2.19651,-0.1763 3.4544,-0.5905 4.55078,-1.4985 z m 39.82177,-0.9456 c 2.81466,-2.3309 1.63456,-5.66519 -2.42946,-6.86432 -4.48984,-1.32478 -9.59472,0.84619 -9.59472,4.08032 0,1.3329 0.48102,2.0079 2.21891,3.114 1.95976,1.2474 2.57346,1.3838 5.25448,1.1686 2.19652,-0.1764 3.45441,-0.5906 4.55079,-1.4986 z m 18.5835,-0.9455 c 2.81464,-2.331 1.63456,-5.66525 -2.42947,-6.86438 -4.48984,-1.32478 -9.59471,0.84619 -9.59471,4.08038 0,1.3328 0.48102,2.0079 2.21891,3.114 1.95975,1.2473 2.57344,1.3838 5.25447,1.1685 2.19652,-0.1763 3.4544,-0.5905 4.5508,-1.4985 z m -124.111182,-2.3639 c 2.81464,-2.33094 1.63456,-5.66524 -2.42946,-6.86437 -4.489855,-1.32478 -9.594723,0.84619 -9.594723,4.08037 0,1.3328 0.481023,2.0079 2.21891,3.114 1.959746,1.2473 2.573441,1.3838 5.254484,1.1685 2.196501,-0.1763 3.454402,-0.5905 4.550789,-1.4985 z m 21.901965,-1.4183 c 2.814654,-2.33097 1.63456,-5.66527 -2.42946,-6.8644 -4.489841,-1.32478 -9.594723,0.84618 -9.594723,4.08038 0,1.33279 0.481023,2.00785 2.21891,3.11402 1.95976,1.2473 2.573456,1.3838 5.254484,1.1685 2.196516,-0.1764 3.454402,-0.5906 4.550789,-1.4985 z m 121.456407,-2.36393 c 1.61141,-1.33448 1.97016,-3.49538 0.83185,-5.01051 -0.85338,-1.13584 -4.03543,-2.3377 -6.18932,-2.3377 -1.516,0 -1.60448,-0.13054 -1.27485,-1.88113 0.42857,-2.27606 -0.82593,-3.86052 -3.73652,-4.71933 -4.51465,-1.33209 -9.6197,0.8294 -9.6197,4.07301 0,2.25995 3.20705,4.41857 6.56465,4.41857 2.1914,0 2.26648,0.0553 1.64767,1.21475 -0.91601,1.71624 -0.16832,3.31758 2.21641,4.74698 1.74167,1.04395 2.5095,1.19459 5.04931,0.99067 2.15526,-0.17304 3.42022,-0.5924 4.5105,-1.49531 z m -61.72375,-1.41833 c 2.81466,-2.33094 1.63456,-5.66523 -2.42946,-6.86437 -4.48984,-1.32478 -9.59472,0.84619 -9.59472,4.08038 0,1.3328 0.48102,2.00786 2.21891,3.11398 1.95976,1.24734 2.57345,1.38382 5.25448,1.16856 2.19652,-0.17636 3.45441,-0.59058 4.55079,-1.49855 z M 116.2197,995.4824 c 2.81466,-2.33093 1.63456,-5.66523 -2.42946,-6.86437 -4.48984,-1.32478 -9.59472,0.84619 -9.59472,4.08039 0,1.3328 0.48102,2.00786 2.21891,3.11398 1.95976,1.24733 2.57346,1.38382 5.25449,1.16855 2.19651,-0.17636 3.4544,-0.59057 4.55078,-1.49855 z m -14.60131,-0.47277 c 2.81464,-2.33094 1.63456,-5.66523 -2.429463,-6.86437 -4.489855,-1.32478 -9.594723,0.84618 -9.594723,4.08038 0,1.3328 0.481023,2.00786 2.21891,3.11398 1.959746,1.24733 2.573442,1.38382 5.254484,1.16855 2.196501,-0.17636 3.454402,-0.59057 4.550792,-1.49854 z m 72.34289,0 c 2.81464,-2.33094 1.63456,-5.66523 -2.42948,-6.86437 -4.48984,-1.32478 -9.59471,0.84618 -9.59471,4.08038 0,1.3328 0.48103,2.00786 2.21891,3.11398 1.95975,1.24733 2.57344,1.38382 5.25449,1.16855 2.1965,-0.17636 3.45438,-0.59057 4.55079,-1.49854 z m -96.235954,-2.83667 c 2.81464,-2.33093 1.63456,-5.66523 -2.429459,-6.86436 -4.489855,-1.32478 -9.594724,0.84618 -9.594724,4.08037 0,1.3328 0.481024,2.00786 2.218911,3.11398 1.959745,1.24734 2.573441,1.38382 5.254483,1.16855 2.196516,-0.17636 3.454402,-0.59057 4.550789,-1.49854 z m -25.220443,-2.83667 c 2.81464,-2.33093 1.634546,-5.66523 -2.429474,-6.86436 -4.489841,-1.32478 -9.594723,0.84618 -9.594723,4.08037 0,1.3328 0.481023,2.00786 2.21891,3.11399 1.95976,1.24733 2.573455,1.38381 5.254484,1.16854 2.196515,-0.17635 3.454402,-0.59056 4.550803,-1.49854 z m 162.605557,-1.41834 c 2.81464,-2.33093 1.63455,-5.66523 -2.42947,-6.86436 -4.48984,-1.32478 -9.59471,0.84619 -9.59471,4.08037 0,1.33281 0.48101,2.00786 2.21889,3.11399 1.95976,1.24734 2.57346,1.38382 5.25449,1.16855 2.19651,-0.17635 3.4544,-0.59057 4.5508,-1.49855 z M 29.275507,983.66296 c 2.814654,-2.33094 1.63456,-5.66523 -2.42946,-6.86437 -4.489855,-1.32478 -9.594723,0.84618 -9.594723,4.08038 0,1.33279 0.481023,2.00786 2.21891,3.11398 1.959746,1.24733 2.573455,1.38382 5.254484,1.16855 2.196515,-0.17636 3.454402,-0.59057 4.550789,-1.49854 z m 205.668163,-5.17344 c 2.72906,-1.94401 2.88475,-3.46153 0.55732,-5.43187 -4.07144,-3.44675 -12.23838,-1.74645 -12.23838,2.54793 0,2.71398 2.7231,4.40106 7.2011,4.46142 1.67625,0.0226 2.77869,-0.36559 4.47996,-1.57748 z"
       id="path4512"
       inkscape:connector-curvature="0" />
    <path
       style="opacity:1;fill:#b3b3b3;fill-opacity:1;stroke:none;stroke-width:1;stroke-linecap:round;stroke-linejoin:bevel;stroke-miterlimit:4;stroke-dasharray:none;stroke-opacity:1"
       d="m 111.09796,1042.218 c -53.839279,-3.4275 -90.759757,-16.2019 -98.060426,-33.9285 -0.752576,-1.8273 -1.065163,-5.7518 -1.266477,-15.9003 l -0.267293,-13.47418 1.943756,3.1823 c 10.400301,17.02737 44.558132,29.90398 89.39667,33.70028 11.46224,0.9705 36.90272,0.9705 48.36498,0 43.49473,-3.6825 76.47055,-15.6865 87.97175,-32.02397 l 2.5705,-3.6514 0.22348,13.10696 c 0.30134,17.67231 -0.46017,19.68281 -10.08424,26.62341 -15.01851,10.8308 -41.72613,18.3275 -76.57229,21.4934 -7.67736,0.6975 -37.6711,1.289 -44.22041,0.872 z"
       id="path4514"
       inkscape:connector-curvature="0" />
    <path
       style="opacity:1;fill:#cccccc;fill-opacity:1;stroke:none;stroke-width:1;stroke-linecap:round;stroke-linejoin:bevel;stroke-miterlimit:4;stroke-dasharray:none;stroke-opacity:1"
       d="m 104.79285,979.12616 c -20.035325,-1.42784 -36.747243,-4.16068 -52.763847,-8.62828 l -6.968813,-1.94385 3.318492,-0.35051 c 3.903417,-0.41231 6.3051,-2.02677 6.3051,-4.23844 0,-1.95975 -0.992527,-3.10438 -3.489479,-4.02416 -2.003456,-0.73801 -2.043635,-0.80279 -0.715033,-1.1529 3.192029,-0.84113 4.599657,-4.35216 2.571718,-6.41459 -3.520745,-3.58064 -12.570302,-1.8538 -12.570302,2.39866 0,1.79745 1.0065,2.85764 3.915819,4.12473 1.162268,0.50619 1.555759,0.8679 0.9453,0.86893 -0.575171,9.9e-4 -1.754886,0.53946 -2.621594,1.19663 -2.108324,1.59864 -2.108324,4.04885 0,5.64749 0.866708,0.65718 1.29253,1.19488 0.946295,1.19488 -1.22948,0 -11.236361,-4.31581 -15.874472,-6.84641 -7.738851,-4.22238 -7.58136,-3.84736 -3.019149,-7.18922 15.749465,-11.53658 42.389435,-19.47325 76.148245,-22.68632 11.99167,-1.14135 40.46582,-1.14104 51.9897,5.5e-4 20.15871,1.99698 36.5978,5.29433 50.84742,10.19898 10.07777,3.46869 16.90527,6.73591 23.60667,11.29666 l 5.236,3.56346 -2.18029,1.61521 c -13.09101,9.69812 -41.5409,17.63169 -74.33633,20.7295 -9.51972,0.89923 -41.96773,1.30347 -51.29145,0.639 z m 10.76317,-3.50044 c 2.64937,-2.19406 1.80909,-5.30836 -1.78998,-6.63414 -2.35574,-0.86777 -4.44481,-0.89845 -6.65025,-0.0976 -1.45712,0.52907 -1.94222,0.46553 -3.98218,-0.52165 -6.850177,-3.31492 -14.84808,2.70296 -8.75032,6.58404 2.374454,1.51128 5.305215,1.76975 8.13592,0.71749 1.54465,-0.5742 1.89053,-0.5236 3.60584,0.52743 2.56794,1.57344 7.17559,1.29226 9.43097,-0.57552 z m 53.09568,-0.94555 c 1.7482,-1.44777 1.99837,-3.87578 0.54078,-5.24853 -2.10472,-1.98224 -0.54983,-2.22677 2.50732,-0.39434 1.7441,1.04541 2.51115,1.19604 5.05163,0.99207 4.85098,-0.38949 7.50725,-3.62427 5.34236,-6.50582 -1.06297,-1.41482 -4.50827,-2.47505 -7.07771,-2.17803 -1.71318,0.19804 -2.83039,-0.0244 -4.70908,-0.93747 -3.09421,-1.50388 -6.80574,-1.30776 -9.33399,0.49321 -2.00867,1.43086 -2.28019,4.02855 -0.56241,5.38067 1.35616,1.06748 1.43045,1.52282 0.24841,1.52282 -1.74069,0 -4.03149,2.32485 -4.03149,4.09143 0,1.33281 0.48102,2.00786 2.21891,3.11399 1.95974,1.24733 2.57345,1.38382 5.25448,1.16855 2.19652,-0.17636 3.4544,-0.59057 4.55079,-1.49855 z m -33.8485,-1.89111 c 2.81464,-2.33093 1.63456,-5.66524 -2.42947,-6.86437 -4.48984,-1.32478 -9.59471,0.84619 -9.59471,4.08039 0,1.33279 0.48103,2.00785 2.21891,3.11398 1.95975,1.24733 2.57344,1.38382 5.25449,1.16855 2.1965,-0.17636 3.45438,-0.59057 4.55078,-1.49855 z m 65.77855,-5.26071 c 1.27235,-1.05369 1.52738,-1.697 1.28359,-3.23776 l -0.30425,-1.92279 3.60758,0 c 3.12985,0 3.81967,-0.17566 5.20933,-1.32651 2.90168,-2.40301 1.78155,-5.71908 -2.34291,-6.93604 -5.59019,-1.64946 -11.57583,2.12249 -9.06273,5.71102 0.95151,1.35866 0.94317,1.43355 -0.11968,1.07598 -0.6283,-0.21137 -2.41284,-0.38568 -3.96564,-0.38736 -6.08366,-0.007 -8.66205,4.56292 -4.1832,7.41361 1.95975,1.24733 2.57346,1.38381 5.25449,1.16855 2.23948,-0.17981 3.45199,-0.58858 4.62342,-1.5587 z m -49.18614,-0.8854 c 2.81464,-2.33094 1.63455,-5.66523 -2.42947,-6.86437 -4.48984,-1.32478 -9.59471,0.84618 -9.59471,4.08038 0,1.3328 0.48101,2.00786 2.21889,3.11398 1.95976,1.24733 2.57346,1.38382 5.25449,1.16855 2.19651,-0.17636 3.4544,-0.59057 4.5508,-1.49854 z m -66.369629,-0.94556 c 2.81464,-2.33094 1.63456,-5.66523 -2.429459,-6.86437 -4.489855,-1.32478 -9.594724,0.84619 -9.594724,4.08038 0,1.33281 0.481024,2.00786 2.218911,3.11398 1.959745,1.24735 2.573455,1.38382 5.254483,1.16856 2.196516,-0.17636 3.454402,-0.59058 4.550789,-1.49855 z m -17.919788,-1.41833 c 2.81464,-2.33093 1.634546,-5.66524 -2.429474,-6.86437 -4.489841,-1.32478 -9.594709,0.84618 -9.594709,4.08038 0,1.3328 0.481023,2.00786 2.21891,3.11398 1.959746,1.24734 2.573442,1.38382 5.254484,1.16855 2.196502,-0.17636 3.454388,-0.59057 4.550789,-1.49854 z m 35.175897,-4.72779 c 2.81464,-2.33093 1.63456,-5.66523 -2.429478,-6.86436 -4.489841,-1.32478 -9.59471,0.84619 -9.59471,4.08037 0,1.33281 0.481024,2.00786 2.218911,3.11399 1.959745,1.24734 2.573441,1.38382 5.254483,1.16855 2.196502,-0.17635 3.454394,-0.59057 4.550794,-1.49855 z m 19.24719,-2.36389 c 2.81464,-2.33093 1.63456,-5.66522 -2.42946,-6.86436 -4.48986,-1.32478 -9.59473,0.84619 -9.59473,4.08038 0,1.3328 0.48103,2.00786 2.21891,3.11398 1.95975,1.24734 2.57345,1.38382 5.25449,1.16856 2.1965,-0.17636 3.4544,-0.59058 4.55079,-1.49856 z m 67.697,-1.41832 c 2.81464,-2.33094 1.63456,-5.66524 -2.42946,-6.86438 -4.48985,-1.32478 -9.59472,0.84619 -9.59472,4.08039 0,1.33279 0.48102,2.00786 2.21891,3.11398 1.95975,1.24733 2.57344,1.38382 5.25449,1.16855 2.1965,-0.17636 3.4544,-0.59057 4.55078,-1.49854 z m -49.7772,-0.94556 c 2.81464,-2.33094 1.63455,-5.66523 -2.42947,-6.86437 -4.48984,-1.32478 -9.59471,0.84618 -9.59471,4.08038 0,1.3328 0.48101,2.00786 2.21889,3.11398 1.95976,1.24733 2.57346,1.38382 5.25449,1.16856 2.19651,-0.17637 3.4544,-0.59058 4.5508,-1.49855 z m 22.56567,-0.47278 c 2.77384,-2.29715 1.63748,-5.66436 -2.30409,-6.82737 -1.06895,-0.31541 -2.1983,-1.1537 -2.61585,-1.94171 -1.57542,-2.97314 -8.23461,-3.64375 -11.51124,-1.15925 -2.98223,2.2613 -1.70809,5.45458 2.84574,7.13206 1.00471,0.3701 1.82672,0.96765 1.82672,1.3279 0,0.36025 0.95691,1.22857 2.12646,1.92959 1.8176,1.08946 2.56152,1.23965 5.12176,1.03409 2.15525,-0.17305 3.42022,-0.59241 4.5105,-1.49531 z m -76.988769,-3.78223 c 2.81464,-2.33094 1.63456,-5.66523 -2.429459,-6.86436 -4.489855,-1.32478 -9.594724,0.84618 -9.594724,4.08038 0,1.3328 0.481024,2.00786 2.218911,3.11398 1.959745,1.24734 2.573455,1.38381 5.254483,1.16855 2.196516,-0.17636 3.454402,-0.59058 4.550789,-1.49855 z m 115.483139,-2.83667 c 2.81464,-2.33093 1.63456,-5.66523 -2.42946,-6.86436 -4.48986,-1.32478 -9.59473,0.84619 -9.59473,4.08038 0,1.3328 0.48103,2.00786 2.21891,3.11399 1.95975,1.24733 2.57346,1.3838 5.25449,1.16854 2.19651,-0.17635 3.4544,-0.59057 4.55079,-1.49855 z m -94.24485,-0.94555 c 2.81464,-2.33093 1.63456,-5.66523 -2.42947,-6.86436 -4.489853,-1.32478 -9.594721,0.84618 -9.594721,4.08037 0,1.3328 0.481023,2.00786 2.21891,3.11399 1.959746,1.24733 2.573442,1.38381 5.254491,1.16855 2.1965,-0.17636 3.45439,-0.59057 4.55079,-1.49855 z m 21.90196,-5.67333 c 2.81466,-2.33094 1.63456,-5.66523 -2.42946,-6.86437 -4.48984,-1.32478 -9.59472,0.84618 -9.59472,4.08038 0,1.33279 0.48102,2.00786 2.21891,3.11398 1.95976,1.24733 2.57346,1.38382 5.25449,1.16856 2.19651,-0.17637 3.4544,-0.59058 4.55078,-1.49855 z m 41.81287,0 c 2.81464,-2.33094 1.63456,-5.66523 -2.42947,-6.86437 -4.48985,-1.32478 -9.59471,0.84618 -9.59471,4.08038 0,1.33279 0.48102,2.00786 2.21891,3.11398 1.95974,1.24733 2.57344,1.38382 5.25448,1.16856 2.1965,-0.17637 3.45439,-0.59058 4.55079,-1.49855 z m -23.89306,-0.47278 c 2.81464,-2.33094 1.63456,-5.66523 -2.42948,-6.86437 -4.48984,-1.32478 -9.59471,0.84618 -9.59471,4.08038 0,1.3328 0.48103,2.00786 2.21891,3.11398 1.95975,1.24733 2.57345,1.38382 5.25449,1.16856 2.1965,-0.17637 3.45439,-0.59058 4.55079,-1.49855 z"
       id="path4516"
       inkscape:connector-curvature="0" />
    <path
       style="opacity:1;fill:#cccccc;fill-opacity:1;stroke:none;stroke-width:1;stroke-linecap:round;stroke-linejoin:bevel;stroke-miterlimit:4;stroke-dasharray:none;stroke-opacity:1"
       d="m 111.25505,1014.9625 c -0.99898,-0.196 -2.86165,-0.368 -4.13926,-0.3823 -3.93598,-0.044 -7.576956,-0.3263 -8.803899,-0.6825 -0.644261,-0.1871 -1.763954,-0.2297 -2.488207,-0.095 -0.72424,0.1349 -1.494965,0.04 -1.712704,-0.211 -0.217738,-0.251 -1.039363,-0.4121 -1.825826,-0.3581 -0.786462,0.054 -1.877916,-0.023 -2.425465,-0.1703 -2.281988,-0.6154 -10.801332,-1.7388 -11.351039,-1.4968 -0.327526,0.1442 -0.595491,0.012 -0.595491,-0.2937 0,-0.3185 -0.553169,-0.4527 -1.295571,-0.3144 -0.712566,0.1327 -1.387434,0.045 -1.499702,-0.1949 -0.112253,-0.2399 -1.097241,-0.4833 -2.188835,-0.5408 -1.09158,-0.058 -2.134041,-0.2307 -2.316561,-0.3848 -0.613318,-0.518 -8.794709,-2.3025 -9.378261,-2.0456 -0.317449,0.1398 -0.577174,0.045 -0.577174,-0.2099 0,-0.4325 -4.158854,-1.6943 -5.641416,-1.7115 -0.365028,0 -0.813034,-0.1402 -0.995541,-0.3021 -0.182521,-0.1619 -2.57183,-1.0917 -5.309574,-2.0663 -12.574324,-4.47599 -24.045128,-11.24054 -29.971761,-17.67488 -1.767177,-1.91858 -3.21305,-3.78014 -3.21305,-4.13681 0,-0.35668 -0.289281,-0.64851 -0.642859,-0.64851 -0.353578,0 -0.470961,-0.31913 -0.260846,-0.70917 0.210114,-0.39004 0.07932,-0.70917 -0.290543,-0.70917 -0.369905,0 -0.516367,-0.4255 -0.325452,-0.94555 0.19093,-0.52006 0.08829,-0.94551 -0.228053,-0.94545 -0.646867,1.3e-4 -0.573222,-9.6385 0.07932,-10.39069 0.230631,-0.26583 0.247491,-0.68136 0.03742,-0.92342 -0.210017,-0.24206 -0.07343,-0.57589 0.303505,-0.74184 0.37694,-0.16594 0.532862,-0.47748 0.346487,-0.69229 -0.745219,-0.85892 1.663135,-0.85174 3.200241,0.01 0.902192,0.50553 1.798806,0.91914 1.992483,0.91914 0.193662,0 1.333114,0.63825 2.532085,1.41834 1.198985,0.78008 2.561403,1.41833 3.0276,1.41833 0.466196,0 0.847635,0.21275 0.847635,0.47278 0,0.26002 0.311143,0.47277 0.691446,0.47277 0.380289,0 1.335539,0.42746 2.122773,0.9499 2.286557,1.51747 18.135999,7.09913 22.074382,7.77388 0.365028,0.0626 1.504466,0.35916 2.532071,0.65914 1.027592,0.29998 2.279284,0.54542 2.781539,0.54542 0.50224,0 1.076823,0.18863 1.276847,0.41919 0.200025,0.23054 1.486977,0.58636 2.859878,0.7907 2.834456,0.42187 3.356611,0.5149 3.823592,0.68123 0.182507,0.065 0.555845,0.15564 0.829613,0.20141 0.273781,0.0458 2.250694,0.458 4.393171,0.91605 2.142463,0.45807 4.74738,0.90964 5.788691,1.00352 1.041325,0.0938 2.138399,0.27858 2.437952,0.41047 0.299554,0.13187 1.875927,0.37236 3.503045,0.5344 1.627119,0.16205 3.555725,0.3789 4.285795,0.48189 3.727945,0.52589 13.088968,1.52349 14.933169,1.59143 0.54755,0.0202 3.0862,0.17555 5.64142,0.34529 2.55524,0.16974 11.36579,0.31639 19.57904,0.32591 17.65114,0.0205 26.01543,-0.37079 38.16253,-1.78499 0.73006,-0.085 2.64735,-0.28789 4.26065,-0.45087 1.6133,-0.16299 4.15193,-0.50873 5.64142,-0.76832 1.48948,-0.2596 3.45481,-0.58228 4.36738,-0.71706 0.91259,-0.13479 3.3019,-0.5619 5.30958,-0.94913 2.00769,-0.38723 4.21674,-0.79593 4.90902,-0.90823 0.69229,-0.11229 2.33493,-0.46724 3.65033,-0.78878 1.3154,-0.32154 2.61563,-0.62029 2.88941,-0.66387 0.27377,-0.0436 0.6471,-0.13245 0.82961,-0.19746 0.18252,-0.065 0.63051,-0.17138 0.99556,-0.23639 0.36502,-0.065 0.73835,-0.16106 0.82961,-0.21346 0.0912,-0.0524 0.61392,-0.16425 1.16147,-0.24855 0.54755,-0.0842 1.89154,-0.4225 2.98663,-0.75157 2.31519,-0.69568 2.12408,-0.64783 4.47995,-1.12191 1.00384,-0.20202 1.82517,-0.59244 1.82517,-0.86762 0,-0.27518 0.18468,-0.36877 0.41037,-0.20798 0.46081,0.32824 10.97771,-3.31047 11.61036,-4.01703 0.22333,-0.24941 0.58697,-0.38212 0.8081,-0.2949 0.22113,0.0873 1.00907,-0.21166 1.75097,-0.66416 0.74189,-0.45251 1.3489,-0.71543 1.3489,-0.58427 0,0.13116 1.19466,-0.32469 2.65478,-1.013 1.46014,-0.68831 2.6548,-1.43596 2.6548,-1.66144 0,-0.22547 0.44545,-0.40994 0.98992,-0.40994 0.54445,0 1.36295,-0.4255 1.81887,-0.94556 0.45594,-0.52006 1.08735,-0.94556 1.40315,-0.94556 0.31578,0 1.46151,-0.53187 2.54605,-1.18195 1.8598,-1.11475 3.62496,-1.60439 2.98269,-0.82736 -0.16119,0.19503 0.0157,0.88646 0.39307,1.53653 0.3774,0.65007 0.62222,1.55426 0.54406,2.0093 -0.0782,0.45505 0.19295,0.82737 0.60247,0.82737 0.40952,0 0.60796,0.15956 0.44098,0.35459 -0.16699,0.19501 -0.39597,2.58845 -0.50884,5.31874 -0.13453,3.25578 -0.53136,5.33534 -1.15286,6.04268 -0.52119,0.59318 -0.7758,1.20091 -0.56577,1.35052 0.21002,0.1496 0.095,0.51528 -0.25544,0.81261 -0.35051,0.29732 -1.86534,1.92346 -3.3663,3.61364 -3.65568,4.11656 -12.29944,10.18772 -18.80309,13.20685 -2.9142,1.35282 -5.52293,2.71102 -5.79719,3.01822 -0.27424,0.3072 -0.50322,0.3959 -0.50881,0.1972 -0.0126,-0.4545 -8.22642,2.4574 -8.52897,3.0236 -0.12249,0.2292 -0.47337,0.3063 -0.77988,0.1714 -0.69224,-0.3048 -3.97522,0.7243 -3.97522,1.246 0,0.2101 -0.4095,0.2701 -0.90997,0.1333 -0.50048,-0.1368 -1.32447,0.047 -1.8311,0.4074 -0.50661,0.3609 -1.29179,0.5682 -1.74481,0.4606 -0.45304,-0.1076 -0.8237,0.047 -0.8237,0.3445 0,0.297 -0.24938,0.4303 -0.55419,0.2961 -0.73373,-0.323 -5.41907,0.713 -5.41907,1.1982 0,0.2083 -0.448,0.2562 -0.99555,0.1065 -0.54755,-0.1497 -0.99554,-0.073 -0.99554,0.1706 0,0.2435 -0.52266,0.4283 -1.16147,0.4107 -1.95128,-0.054 -12.11246,1.8138 -12.11246,2.2262 0,0.2127 -0.28114,0.263 -0.62477,0.1117 -0.34362,-0.1513 -3.97982,0.1553 -8.08043,0.6813 -4.10061,0.526 -8.39896,0.9563 -9.5519,0.9563 -1.15293,0 -2.27325,0.1261 -2.48962,0.2802 -0.8714,0.6208 -35.27549,1.1124 -38.16515,0.5454 z m -0.1624,-3.185 c 2.67381,-2.1961 2.59871,-4.9699 -0.18427,-6.8072 -1.45878,-0.963 -2.35527,-1.1582 -4.82424,-1.0505 -6.08068,0.2653 -8.656391,4.2572 -4.86248,7.5358 1.80438,1.5593 2.18923,1.6746 5.225,1.5647 2.49534,-0.09 3.6037,-0.3868 4.64599,-1.2428 z m 35.7848,0.4966 c 4.75005,-2.9705 2.42908,-7.8073 -3.83028,-7.982 -3.3154,-0.092 -6.51147,1.6948 -7.12605,3.9851 -0.32283,1.2031 -0.006,1.7829 1.75233,3.2097 1.92902,1.565 2.44395,1.7304 5.0856,1.633 1.6166,-0.06 3.46988,-0.4402 4.1184,-0.8458 z m -19.91089,-5.2006 c 4.75006,-2.9705 2.42908,-7.80723 -3.83027,-7.98194 -3.3154,-0.0925 -6.51148,1.69484 -7.12606,3.98514 -0.32283,1.203 -0.006,1.7829 1.75234,3.2096 1.92901,1.5651 2.44395,1.7304 5.0856,1.633 1.61659,-0.06 3.46987,-0.4402 4.11839,-0.8458 z m 39.82177,-0.9455 c 4.75006,-2.9706 2.42908,-7.80729 -3.83028,-7.982 -3.31539,-0.0925 -6.51147,1.69481 -7.12605,3.9851 -0.32283,1.2031 -0.006,1.7829 1.75234,3.2097 1.92901,1.565 2.44395,1.7304 5.0856,1.633 1.61659,-0.06 3.46987,-0.4402 4.11839,-0.8458 z m 18.58349,-0.9456 c 4.75007,-2.9705 2.42908,-7.80724 -3.83028,-7.98195 -3.31539,-0.0925 -6.51146,1.6948 -7.12605,3.98515 -0.32283,1.203 -0.006,1.7829 1.75234,3.2096 1.92901,1.5651 2.44396,1.7304 5.08559,1.633 1.6166,-0.06 3.46988,-0.4402 4.1184,-0.8458 z m -124.111188,-2.3639 c 4.750071,-2.97049 2.429081,-7.80722 -3.830277,-7.98195 -3.315395,-0.0925 -6.511459,1.69481 -7.126052,3.98512 -0.322831,1.20303 -0.0056,1.78293 1.752336,3.20963 1.929026,1.5651 2.443964,1.7304 5.085612,1.633 1.616594,-0.06 3.46986,-0.4402 4.118381,-0.8458 z m 21.901979,-1.4183 c 4.632997,-2.89732 2.664352,-7.50171 -3.391856,-7.93312 -3.117123,-0.22205 -3.851999,-0.48372 -2.767356,-0.98539 1.40774,-0.65112 2.36477,-2.59279 1.970354,-3.99757 -0.9792,-3.48765 -7.214047,-4.82131 -11.012778,-2.35569 -1.098713,0.71313 -2.174948,1.95734 -2.391649,2.76491 -0.32321,1.20446 -0.0056,1.78342 1.767443,3.22192 1.799857,1.46025 2.560001,1.74083 4.543753,1.67713 3.618495,-0.11616 3.71679,-0.0664 2.176363,1.10163 -0.788088,0.59755 -1.615514,1.73698 -1.838747,2.53206 -0.332472,1.18418 -0.0178,1.76046 1.74048,3.18692 1.929012,1.565 2.44395,1.7304 5.085599,1.633 1.616594,-0.06 3.469873,-0.4402 4.118394,-0.8458 z m 122.174899,-2.86052 c 3.55392,-2.91897 1.85481,-6.68386 -3.3089,-7.33189 -1.25778,-0.15784 -2.39071,-0.36096 -2.51763,-0.45136 -0.12697,-0.0904 -0.30783,-1.13726 -0.40206,-2.32634 -0.22329,-2.81752 -2.39143,-4.35876 -6.28455,-4.46743 -2.14636,-0.0599 -3.1677,0.20332 -4.7344,1.22021 -2.90425,1.88505 -3.18981,3.75192 -0.87168,5.69848 1.7518,1.47102 2.88287,1.85767 5.68807,1.94445 0.97998,0.0303 1.10319,0.3307 0.76098,1.85515 -0.35513,1.58204 -0.13538,2.04042 1.68702,3.51895 1.9294,1.56536 2.35344,1.69063 5.35482,1.58202 2.47722,-0.0897 3.58799,-0.38778 4.62833,-1.24224 z m -62.44224,-0.9217 c 4.75006,-2.97053 2.42908,-7.80727 -3.83028,-7.98198 -3.31539,-0.0925 -6.51147,1.6948 -7.12605,3.98512 -0.32283,1.20306 -0.006,1.78288 1.75234,3.20967 1.92901,1.56502 2.44395,1.73037 5.08559,1.63297 1.6166,-0.0596 3.46988,-0.44021 4.1184,-0.84578 z m -27.87524,-1.41833 c 4.75006,-2.97054 2.42908,-7.80727 -3.83027,-7.98198 -3.3154,-0.0925 -6.51148,1.6948 -7.12606,3.98512 -0.32283,1.20305 -0.006,1.78288 1.75234,3.20966 1.92901,1.56504 2.44395,1.73038 5.0856,1.63297 1.61659,-0.0596 3.46987,-0.44021 4.11839,-0.84577 z m -14.60131,-0.47278 c 4.75006,-2.97054 2.42907,-7.80727 -3.830282,-7.98198 -3.315409,-0.0925 -6.511473,1.69481 -7.126052,3.98512 -0.322845,1.20306 -0.0056,1.78288 1.752322,3.20966 1.929026,1.56504 2.443964,1.73038 5.085613,1.63297 1.616593,-0.0596 3.469859,-0.44021 4.118399,-0.84577 z m 72.34287,0 c 4.75007,-2.97054 2.42908,-7.80727 -3.83028,-7.98198 -3.31539,-0.0925 -6.51146,1.69481 -7.12605,3.98512 -0.32283,1.20306 -0.006,1.78288 1.75234,3.20966 1.92902,1.56504 2.44396,1.73038 5.08561,1.63297 1.61658,-0.0596 3.46986,-0.44021 4.11838,-0.84577 z M 51.305197,990.05353 c 4.750057,-2.97054 2.429081,-7.80727 -3.830277,-7.98198 -3.315395,-0.0925 -6.511473,1.69481 -7.126052,3.98512 -0.322831,1.20306 -0.0056,1.78289 1.752336,3.20966 1.929012,1.56504 2.44395,1.73039 5.085599,1.63297 1.616593,-0.0596 3.469873,-0.4402 4.118394,-0.84577 z M 213.91075,988.6352 c 4.75006,-2.97053 2.42909,-7.80726 -3.83027,-7.98199 -3.3154,-0.0925 -6.51148,1.69481 -7.12605,3.98512 -0.32284,1.20306 -0.006,1.7829 1.75233,3.20967 1.92901,1.56504 2.44397,1.73038 5.0856,1.63297 1.61659,-0.0596 3.46987,-0.4402 4.11839,-0.84577 z m -185.834915,-4.255 c 4.750057,-2.97054 2.429067,-7.80727 -3.830277,-7.98198 -3.315395,-0.0925 -6.511473,1.6948 -7.126052,3.98512 -0.322831,1.20306 -0.0056,1.78288 1.752336,3.20966 1.929012,1.56503 2.44395,1.73038 5.085598,1.63297 1.616594,-0.0596 3.469874,-0.44021 4.118395,-0.84577 z m 206.696375,-5.89461 c 2.7614,-1.96707 2.89103,-3.46622 0.47776,-5.52539 -1.48784,-1.26952 -2.31493,-1.54568 -4.97727,-1.66186 -2.76865,-0.12081 -3.44656,0.0413 -5.10152,1.22023 -4.13073,2.94248 -1.21003,7.5784 4.77451,7.5784 2.0327,0 3.03346,-0.33411 4.82652,-1.61138 z"
       id="path4518"
       inkscape:connector-curvature="0" />
    <path
       style="opacity:1;fill:#cccccc;fill-opacity:1;stroke:none;stroke-width:1;stroke-linecap:round;stroke-linejoin:bevel;stroke-miterlimit:4;stroke-dasharray:none;stroke-opacity:1"
       d="m 108.58683,1041.9136 c -0.99159,-0.1945 -2.69888,-0.3471 -3.79398,-0.3391 -1.0951,0.01 -4.816941,-0.3171 -8.270755,-0.7224 -3.453813,-0.4052 -6.664438,-0.6315 -7.134727,-0.503 -0.470288,0.1286 -0.855076,0.055 -0.855076,-0.1633 0,-0.2183 -1.426183,-0.5318 -3.169283,-0.6965 -1.7431,-0.1647 -7.343034,-1.0654 -12.444301,-2.0016 -5.101266,-0.9362 -9.723023,-1.7331 -10.270572,-1.7708 -0.547549,-0.038 -1.144876,-0.1868 -1.327383,-0.3313 -0.465888,-0.3689 -8.782222,-2.4844 -9.789521,-2.4903 -0.456288,0 -0.829626,-0.1393 -0.829626,-0.3038 0,-0.2977 -3.842357,-1.4145 -4.835488,-1.4055 -0.286814,0 -0.982885,-0.3239 -1.546831,-0.7256 -0.563945,-0.4018 -1.299929,-0.6096 -1.635541,-0.4618 -0.335598,0.1477 -0.610178,0.092 -0.610178,-0.1245 0,-0.3983 -4.242785,-2.1905 -4.934091,-2.0843 -0.206514,0.032 -0.924643,-0.3146 -1.595839,-0.7696 -0.67121,-0.4551 -3.09903,-1.7821 -5.395159,-2.9489 -9.465414,-4.8102 -16.135963,-11.8525 -17.270272,-18.2329 -0.321164,-1.8065 -0.710506,-8.31751 -0.865223,-14.469 -0.225502,-8.96582 -0.115757,-11.07601 0.553225,-10.6375 0.458993,0.30085 0.721801,0.63105 0.584013,0.73376 -0.137759,0.10272 0.862995,1.69834 2.223956,3.54583 1.769391,2.40195 4.273896,4.63889 8.789495,7.85049 5.952756,4.23375 9.848395,6.61383 11.529945,7.04437 0.406187,0.10395 0.887855,0.34555 1.070376,0.53675 0.427279,0.4478 6.592111,2.9298 11.282832,4.5426 2.007688,0.6903 4.695654,1.6326 5.973272,2.094 1.277605,0.4613 2.472259,0.8401 2.65478,0.8418 0.182521,0 1.22784,0.2517 2.322937,0.5559 1.095098,0.3041 2.289752,0.6055 2.65478,0.6697 0.365042,0.064 1.52574,0.368 2.579342,0.675 1.053601,0.3071 2.397591,0.6269 2.986636,0.7108 0.589045,0.084 1.518985,0.2748 2.066534,0.4241 1.571103,0.4285 5.483518,1.2316 7.300655,1.4987 0.912576,0.1342 3.45122,0.5608 5.641416,0.9481 4.808215,0.8503 14.344457,2.0279 20.242732,2.4998 5.4675,0.4374 43.69347,0.457 48.11798,0.025 4.73886,-0.4631 8.3726,-0.8359 10.28729,-1.0555 0.91258,-0.1046 2.99052,-0.3278 4.61764,-0.4958 1.62713,-0.168 3.2035,-0.4134 3.50304,-0.5453 0.29956,-0.1319 1.3869,-0.3157 2.41632,-0.4085 4.66588,-0.4206 20.21548,-3.7046 21.81818,-4.6078 0.45629,-0.2572 0.82962,-0.3277 0.82962,-0.1567 0,0.171 0.67199,0.048 1.49332,-0.2739 0.82132,-0.3217 1.82918,-0.6256 2.23967,-0.6753 1.53633,-0.186 15.60564,-5.2945 16.17789,-5.874 0.18252,-0.1849 0.92918,-0.4688 1.65924,-0.631 0.73007,-0.1622 2.13569,-0.8291 3.1236,-1.48207 0.9879,-0.65293 2.00818,-1.18715 2.26726,-1.18715 0.60383,0 1.50031,-0.57801 7.55123,-4.86867 6.12864,-4.34578 7.90194,-5.83891 9.09728,-7.65995 0.51204,-0.78008 1.67401,-2.26934 2.58214,-3.30945 l 1.65115,-1.89111 -0.25715,13.71056 c -0.20161,10.74984 -0.48035,14.19554 -1.29076,15.95624 -0.56849,1.2351 -0.83885,2.249 -0.60081,2.2529 0.23805,0 0.13328,0.1636 -0.23274,0.3546 -0.36605,0.1911 -1.53096,1.256 -2.58865,2.3665 -4.29621,4.5107 -15.76917,11.0191 -25.61657,14.5319 -2.00767,0.7162 -3.83305,1.5052 -4.05638,1.7533 -0.22333,0.2481 -0.59666,0.433 -0.82961,0.4108 -1.51285,-0.1442 -2.44848,0.051 -3.36279,0.7025 -0.57363,0.4087 -1.04297,0.6355 -1.04297,0.5041 0,-0.1314 -3.06129,0.4988 -6.80288,1.4004 -7.49585,1.8063 -20.30215,4.1922 -25.22862,4.7002 -1.73839,0.1793 -3.32701,0.5176 -3.53026,0.7519 -0.20325,0.2343 -0.6147,0.318 -0.91435,0.1861 -0.29964,-0.1319 -3.7883,0.09 -7.75256,0.4919 -7.97927,0.8102 -46.24987,1.614 -49.20883,1.0336 z"
       id="path4520"
       inkscape:connector-curvature="0" />
    <path
       style="opacity:1;fill:#cccccc;fill-opacity:1;stroke:none;stroke-width:1;stroke-linecap:round;stroke-linejoin:bevel;stroke-miterlimit:4;stroke-dasharray:none;stroke-opacity:1"
       d="m 464.6649,452.76559 c 0,-0.39071 0.21312,-0.71039 0.47359,-0.71039 0.26048,0 0.47359,0.31968 0.47359,0.71039 0,0.39071 -0.21311,0.71038 -0.47359,0.71038 -0.26047,0 -0.47359,-0.31967 -0.47359,-0.71038 z"
       id="path4522"
       inkscape:connector-curvature="0" />
    <path
       style="opacity:1;fill:#cccccc;fill-opacity:1;stroke:none;stroke-width:1;stroke-linecap:round;stroke-linejoin:bevel;stroke-miterlimit:4;stroke-dasharray:none;stroke-opacity:1"
       d="M 108.44318,985.29266 C 70.828813,983.07811 38.047793,975.04041 20.207087,963.65774 l -3.504601,-2.23599 1.48088,-1.78791 1.480881,-1.78791 2.742536,1.68061 c 14.254333,8.73498 34.208478,14.91399 59.51204,18.42854 55.927077,7.76801 120.500047,-0.16275 148.209817,-18.20291 l 3.63132,-2.36413 1.45284,1.67451 c 0.79905,0.92099 1.29184,1.97335 1.09511,2.33857 -0.19674,0.36523 -2.39112,1.86328 -4.87635,3.32902 -16.92686,9.98304 -44.34473,17.05767 -77.11713,19.89853 -9.95943,0.86332 -36.0668,1.24123 -45.87125,0.66399 z"
       id="path4524"
       inkscape:connector-curvature="0" />
    <ellipse
       style="color:#000000;clip-rule:nonzero;display:inline;overflow:visible;visibility:visible;opacity:1;isolation:auto;mix-blend-mode:normal;color-interpolation:sRGB;color-interpolation-filters:linearRGB;solid-color:#000000;solid-opacity:1;fill:#ffffff;fill-opacity:1;fill-rule:evenodd;stroke:#000000;stroke-width:0.98066574px;stroke-linecap:butt;stroke-linejoin:miter;stroke-miterlimit:4;stroke-dasharray:none;stroke-dashoffset:0;stroke-opacity:1;color-rendering:auto;image-rendering:auto;shape-rendering:auto;text-rendering:auto;enable-background:accumulate"
       id="path4226-6-9"
       cx="79.799484"
       cy="971.85712"
       rx="6.0930138"
       ry="3.8675261"
       inkscape:transform-center-x="-121.45639"
       inkscape:transform-center-y="-39.240592" />
    <ellipse
       style="color:#000000;clip-rule:nonzero;display:inline;overflow:visible;visibility:visible;opacity:1;isolation:auto;mix-blend-mode:normal;color-interpolation:sRGB;color-interpolation-filters:linearRGB;solid-color:#000000;solid-opacity:1;fill:#ffffff;fill-opacity:1;fill-rule:evenodd;stroke:#000000;stroke-width:0.98066574px;stroke-linecap:butt;stroke-linejoin:miter;stroke-miterlimit:4;stroke-dasharray:none;stroke-dashoffset:0;stroke-opacity:1;color-rendering:auto;image-rendering:auto;shape-rendering:auto;text-rendering:auto;enable-background:accumulate"
       id="path4226-6-307"
       cx="143.5143"
       cy="974.69385"
       rx="6.0930138"
       ry="3.8675261" />
  </g>
</svg>
