<?xml version="1.0" encoding="UTF-8" standalone="no"?>
<!-- Created with Inkscape (http://www.inkscape.org/) -->

<svg
   xmlns:dc="http://purl.org/dc/elements/1.1/"
   xmlns:cc="http://creativecommons.org/ns#"
   xmlns:rdf="http://www.w3.org/1999/02/22-rdf-syntax-ns#"
   xmlns:svg="http://www.w3.org/2000/svg"
   xmlns="http://www.w3.org/2000/svg"
   xmlns:sodipodi="http://sodipodi.sourceforge.net/DTD/sodipodi-0.dtd"
   xmlns:inkscape="http://www.inkscape.org/namespaces/inkscape"
   width="54.664371mm"
   height="25.006603mm"
   viewBox="0 0 193.69265 88.606074"
   id="svg2"
   version="1.1"
   inkscape:version="0.91 r13725"
   sodipodi:docname="037_new agar grey colonies (colonies removed).svg">
  <defs
     id="defs4">
    <pattern
       y="0"
       x="0"
       height="6"
       width="6"
       patternUnits="userSpaceOnUse"
       id="EMFhbasepattern" />
  </defs>
  <sodipodi:namedview
     id="base"
     pagecolor="#ffffff"
     bordercolor="#666666"
     borderopacity="1.0"
     inkscape:pageopacity="0.0"
     inkscape:pageshadow="2"
     inkscape:zoom="1.2414063"
     inkscape:cx="290.14347"
     inkscape:cy="260.01474"
     inkscape:document-units="px"
     inkscape:current-layer="layer1"
     showgrid="false"
     inkscape:window-width="1600"
     inkscape:window-height="837"
     inkscape:window-x="-8"
     inkscape:window-y="-8"
     inkscape:window-maximized="1"
     fit-margin-top="0"
     fit-margin-left="0"
     fit-margin-right="0"
     fit-margin-bottom="0" />
  <metadata
     id="metadata7">
    <rdf:RDF>
      <cc:Work
         rdf:about="">
        <dc:format>image/svg+xml</dc:format>
        <dc:type
           rdf:resource="http://purl.org/dc/dcmitype/StillImage" />
        <dc:title></dc:title>
      </cc:Work>
    </rdf:RDF>
  </metadata>
  <g
     inkscape:label="Layer 1"
     inkscape:groupmode="layer"
     id="layer1"
     transform="translate(-106.01082,-730.91632)">
    <ellipse
       transform="scale(1,-1)"
       ry="22.597452"
       rx="90.326851"
       cy="-755.88721"
       cx="202.98355"
       id="ellipse4491"
       style="fill:#ffffff;fill-rule:evenodd;stroke:#000000;stroke-width:1.13600004;stroke-linecap:butt;stroke-linejoin:miter;stroke-miterlimit:4;stroke-dasharray:none;stroke-opacity:1" />
    <ellipse
       ry="25.328373"
       rx="95.991615"
       cy="756.80151"
       cx="203.15503"
       id="ellipse4493"
       style="opacity:1;fill:none;fill-rule:evenodd;stroke:#000000;stroke-width:1.11364603;stroke-linecap:butt;stroke-linejoin:miter;stroke-miterlimit:4;stroke-dasharray:none;stroke-opacity:1" />
    <path
       inkscape:connector-curvature="0"
       id="path4495"
       d="m 106.56764,756.28596 0,35.70071"
       style="fill:none;fill-rule:evenodd;stroke:#000000;stroke-width:1.11364603;stroke-linecap:butt;stroke-linejoin:miter;stroke-miterlimit:4;stroke-dasharray:none;stroke-opacity:1" />
    <path
       inkscape:connector-curvature="0"
       id="path4497"
       d="m 298.78862,756.47999 0,35.70071"
       style="fill:none;fill-rule:evenodd;stroke:#000000;stroke-width:1.11364603;stroke-linecap:butt;stroke-linejoin:miter;stroke-miterlimit:4;stroke-dasharray:none;stroke-opacity:1" />
    <path
       d="m 298.65765,791.89868 a 95.905121,27.048027 0 0 1 -48.50227,23.51311 95.905121,27.048027 0 0 1 -96.44853,-0.26955 95.905121,27.048027 0 0 1 -46.84061,-23.77956"
       sodipodi:open="true"
       sodipodi:end="3.1614106"
       sodipodi:start="0"
       sodipodi:ry="27.048027"
       sodipodi:rx="95.905121"
       sodipodi:cy="791.89868"
       sodipodi:cx="202.75253"
       sodipodi:type="arc"
       id="path4499"
       style="color:#000000;clip-rule:nonzero;display:inline;overflow:visible;visibility:visible;opacity:1;isolation:auto;mix-blend-mode:normal;color-interpolation:sRGB;color-interpolation-filters:linearRGB;solid-color:#000000;solid-opacity:1;fill:none;fill-opacity:1;fill-rule:evenodd;stroke:#000000;stroke-width:1.14816809;stroke-linecap:butt;stroke-linejoin:miter;stroke-miterlimit:4;stroke-dasharray:none;stroke-dashoffset:0;stroke-opacity:1;color-rendering:auto;image-rendering:auto;shape-rendering:auto;text-rendering:auto;enable-background:accumulate" />
    <path
       d="m 294.17053,792.13239 a 90.474396,22.798155 0 0 1 -45.75578,19.81865 90.474396,22.798155 0 0 1 -90.98703,-0.2272 90.474396,22.798155 0 0 1 -44.18821,-20.04324"
       sodipodi:open="true"
       sodipodi:end="3.1614106"
       sodipodi:start="0"
       sodipodi:ry="22.798155"
       sodipodi:rx="90.474396"
       sodipodi:cy="792.13239"
       sodipodi:cx="203.69614"
       sodipodi:type="arc"
       id="path4501"
       style="color:#000000;clip-rule:nonzero;display:inline;overflow:visible;visibility:visible;opacity:1;isolation:auto;mix-blend-mode:normal;color-interpolation:sRGB;color-interpolation-filters:linearRGB;solid-color:#000000;solid-opacity:1;fill:none;fill-opacity:1;fill-rule:evenodd;stroke:#000000;stroke-width:0.79546148;stroke-linecap:butt;stroke-linejoin:miter;stroke-miterlimit:4;stroke-dasharray:none;stroke-dashoffset:0;stroke-opacity:1;color-rendering:auto;image-rendering:auto;shape-rendering:auto;text-rendering:auto;enable-background:accumulate" />
    <path
       inkscape:connector-curvature="0"
       id="path4503"
       d="m 293.80724,776.19596 0,15.98475"
       style="fill:none;fill-rule:evenodd;stroke:#000000;stroke-width:0.79546148;stroke-linecap:butt;stroke-linejoin:miter;stroke-miterlimit:4;stroke-dasharray:none;stroke-opacity:1" />
    <path
       inkscape:connector-curvature="0"
       id="path4505"
       d="m 112.79502,775.62767 0,16.16498"
       style="fill:none;fill-rule:evenodd;stroke:#000000;stroke-width:0.79546148;stroke-linecap:butt;stroke-linejoin:miter;stroke-miterlimit:4;stroke-dasharray:none;stroke-opacity:1" />
    <ellipse
       ry="25.233725"
       rx="89.846512"
       cy="774.0506"
       cx="203.31598"
       id="ellipse4507"
       style="color:#000000;clip-rule:nonzero;display:inline;overflow:visible;visibility:visible;opacity:1;isolation:auto;mix-blend-mode:normal;color-interpolation:sRGB;color-interpolation-filters:linearRGB;solid-color:#000000;solid-opacity:1;fill:none;fill-opacity:1;fill-rule:evenodd;stroke:#000000;stroke-width:1.69500005;stroke-linecap:butt;stroke-linejoin:miter;stroke-miterlimit:4;stroke-dasharray:none;stroke-dashoffset:0;stroke-opacity:1;color-rendering:auto;image-rendering:auto;shape-rendering:auto;text-rendering:auto;enable-background:accumulate" />
    <ellipse
       ry="2.2446573"
       rx="4.7482014"
       cy="790.8244"
       cx="245.71104"
       id="ellipse4511"
       style="color:#000000;clip-rule:nonzero;display:inline;overflow:visible;visibility:visible;opacity:1;isolation:auto;mix-blend-mode:normal;color-interpolation:sRGB;color-interpolation-filters:linearRGB;solid-color:#000000;solid-opacity:1;fill:#ffffff;fill-opacity:1;fill-rule:evenodd;stroke:#000000;stroke-width:0.65951991px;stroke-linecap:butt;stroke-linejoin:miter;stroke-miterlimit:4;stroke-dasharray:none;stroke-dashoffset:0;stroke-opacity:1;color-rendering:auto;image-rendering:auto;shape-rendering:auto;text-rendering:auto;enable-background:accumulate" />
    <ellipse
       ry="2.2446573"
       rx="4.7482014"
       cy="785.61096"
       cx="190.88687"
       id="ellipse4519"
       style="color:#000000;clip-rule:nonzero;display:inline;overflow:visible;visibility:visible;opacity:1;isolation:auto;mix-blend-mode:normal;color-interpolation:sRGB;color-interpolation-filters:linearRGB;solid-color:#000000;solid-opacity:1;fill:#ffffff;fill-opacity:1;fill-rule:evenodd;stroke:#000000;stroke-width:0.65951991px;stroke-linecap:butt;stroke-linejoin:miter;stroke-miterlimit:4;stroke-dasharray:none;stroke-dashoffset:0;stroke-opacity:1;color-rendering:auto;image-rendering:auto;shape-rendering:auto;text-rendering:auto;enable-background:accumulate" />
    <ellipse
       ry="2.2446573"
       rx="4.7482014"
       cy="794.94037"
       cx="215.71292"
       id="ellipse4521"
       style="color:#000000;clip-rule:nonzero;display:inline;overflow:visible;visibility:visible;opacity:1;isolation:auto;mix-blend-mode:normal;color-interpolation:sRGB;color-interpolation-filters:linearRGB;solid-color:#000000;solid-opacity:1;fill:#ffffff;fill-opacity:1;fill-rule:evenodd;stroke:#000000;stroke-width:0.65951991px;stroke-linecap:butt;stroke-linejoin:miter;stroke-miterlimit:4;stroke-dasharray:none;stroke-dashoffset:0;stroke-opacity:1;color-rendering:auto;image-rendering:auto;shape-rendering:auto;text-rendering:auto;enable-background:accumulate" />
    <ellipse
       ry="2.2446573"
       rx="4.7482014"
       cy="781.22064"
       cx="267.95108"
       id="ellipse4523"
       style="color:#000000;clip-rule:nonzero;display:inline;overflow:visible;visibility:visible;opacity:1;isolation:auto;mix-blend-mode:normal;color-interpolation:sRGB;color-interpolation-filters:linearRGB;solid-color:#000000;solid-opacity:1;fill:#ffffff;fill-opacity:1;fill-rule:evenodd;stroke:#000000;stroke-width:0.65951991px;stroke-linecap:butt;stroke-linejoin:miter;stroke-miterlimit:4;stroke-dasharray:none;stroke-dashoffset:0;stroke-opacity:1;color-rendering:auto;image-rendering:auto;shape-rendering:auto;text-rendering:auto;enable-background:accumulate" />
    <ellipse
       ry="2.2446573"
       rx="4.7482014"
       cy="791.37323"
       cx="231.22923"
       id="ellipse4525"
       style="color:#000000;clip-rule:nonzero;display:inline;overflow:visible;visibility:visible;opacity:1;isolation:auto;mix-blend-mode:normal;color-interpolation:sRGB;color-interpolation-filters:linearRGB;solid-color:#000000;solid-opacity:1;fill:#ffffff;fill-opacity:1;fill-rule:evenodd;stroke:#000000;stroke-width:0.65951991px;stroke-linecap:butt;stroke-linejoin:miter;stroke-miterlimit:4;stroke-dasharray:none;stroke-dashoffset:0;stroke-opacity:1;color-rendering:auto;image-rendering:auto;shape-rendering:auto;text-rendering:auto;enable-background:accumulate" />
    <ellipse
       ry="2.2446573"
       rx="4.7482014"
       cy="794.94037"
       cx="187.26642"
       id="ellipse4529"
       style="color:#000000;clip-rule:nonzero;display:inline;overflow:visible;visibility:visible;opacity:1;isolation:auto;mix-blend-mode:normal;color-interpolation:sRGB;color-interpolation-filters:linearRGB;solid-color:#000000;solid-opacity:1;fill:#ffffff;fill-opacity:1;fill-rule:evenodd;stroke:#000000;stroke-width:0.65951991px;stroke-linecap:butt;stroke-linejoin:miter;stroke-miterlimit:4;stroke-dasharray:none;stroke-dashoffset:0;stroke-opacity:1;color-rendering:auto;image-rendering:auto;shape-rendering:auto;text-rendering:auto;enable-background:accumulate" />
    <ellipse
       ry="2.2446573"
       rx="4.7482014"
       cy="788.62933"
       cx="166.06084"
       id="ellipse4535"
       style="color:#000000;clip-rule:nonzero;display:inline;overflow:visible;visibility:visible;opacity:1;isolation:auto;mix-blend-mode:normal;color-interpolation:sRGB;color-interpolation-filters:linearRGB;solid-color:#000000;solid-opacity:1;fill:#ffffff;fill-opacity:1;fill-rule:evenodd;stroke:#000000;stroke-width:0.65951991px;stroke-linecap:butt;stroke-linejoin:miter;stroke-miterlimit:4;stroke-dasharray:none;stroke-dashoffset:0;stroke-opacity:1;color-rendering:auto;image-rendering:auto;shape-rendering:auto;text-rendering:auto;enable-background:accumulate" />
    <ellipse
       ry="2.2446573"
       rx="4.7482014"
       cy="778.75116"
       cx="123.13247"
       id="ellipse4537"
       style="color:#000000;clip-rule:nonzero;display:inline;overflow:visible;visibility:visible;opacity:1;isolation:auto;mix-blend-mode:normal;color-interpolation:sRGB;color-interpolation-filters:linearRGB;solid-color:#000000;solid-opacity:1;fill:#ffffff;fill-opacity:1;fill-rule:evenodd;stroke:#000000;stroke-width:0.65951991px;stroke-linecap:butt;stroke-linejoin:miter;stroke-miterlimit:4;stroke-dasharray:none;stroke-dashoffset:0;stroke-opacity:1;color-rendering:auto;image-rendering:auto;shape-rendering:auto;text-rendering:auto;enable-background:accumulate" />
    <ellipse
       ry="2.2446573"
       rx="4.7482014"
       cy="794.66595"
       cx="187.26642"
       id="ellipse4541"
       style="color:#000000;clip-rule:nonzero;display:inline;overflow:visible;visibility:visible;opacity:1;isolation:auto;mix-blend-mode:normal;color-interpolation:sRGB;color-interpolation-filters:linearRGB;solid-color:#000000;solid-opacity:1;fill:#ffffff;fill-opacity:1;fill-rule:evenodd;stroke:#000000;stroke-width:0.65951991px;stroke-linecap:butt;stroke-linejoin:miter;stroke-miterlimit:4;stroke-dasharray:none;stroke-dashoffset:0;stroke-opacity:1;color-rendering:auto;image-rendering:auto;shape-rendering:auto;text-rendering:auto;enable-background:accumulate" />
    <ellipse
       ry="2.2446573"
       rx="4.7482014"
       cy="786.43408"
       cx="212.60965"
       id="ellipse4545"
       style="color:#000000;clip-rule:nonzero;display:inline;overflow:visible;visibility:visible;opacity:1;isolation:auto;mix-blend-mode:normal;color-interpolation:sRGB;color-interpolation-filters:linearRGB;solid-color:#000000;solid-opacity:1;fill:#ffffff;fill-opacity:1;fill-rule:evenodd;stroke:#000000;stroke-width:0.65951991px;stroke-linecap:butt;stroke-linejoin:miter;stroke-miterlimit:4;stroke-dasharray:none;stroke-dashoffset:0;stroke-opacity:1;color-rendering:auto;image-rendering:auto;shape-rendering:auto;text-rendering:auto;enable-background:accumulate" />
    <ellipse
       ry="2.2446573"
       rx="4.7482014"
       cy="783.69025"
       cx="160.88875"
       id="ellipse4549"
       style="color:#000000;clip-rule:nonzero;display:inline;overflow:visible;visibility:visible;opacity:1;isolation:auto;mix-blend-mode:normal;color-interpolation:sRGB;color-interpolation-filters:linearRGB;solid-color:#000000;solid-opacity:1;fill:#ffffff;fill-opacity:1;fill-rule:evenodd;stroke:#000000;stroke-width:0.65951991px;stroke-linecap:butt;stroke-linejoin:miter;stroke-miterlimit:4;stroke-dasharray:none;stroke-dashoffset:0;stroke-opacity:1;color-rendering:auto;image-rendering:auto;shape-rendering:auto;text-rendering:auto;enable-background:accumulate" />
    <ellipse
       ry="2.2446573"
       rx="4.7482014"
       cy="785.33655"
       cx="235.88408"
       id="ellipse4551"
       style="color:#000000;clip-rule:nonzero;display:inline;overflow:visible;visibility:visible;opacity:1;isolation:auto;mix-blend-mode:normal;color-interpolation:sRGB;color-interpolation-filters:linearRGB;solid-color:#000000;solid-opacity:1;fill:#ffffff;fill-opacity:1;fill-rule:evenodd;stroke:#000000;stroke-width:0.65951991px;stroke-linecap:butt;stroke-linejoin:miter;stroke-miterlimit:4;stroke-dasharray:none;stroke-dashoffset:0;stroke-opacity:1;color-rendering:auto;image-rendering:auto;shape-rendering:auto;text-rendering:auto;enable-background:accumulate" />
    <ellipse
       ry="2.2446573"
       rx="4.7482014"
       cy="787.25732"
       cx="260.71014"
       id="ellipse4557"
       style="color:#000000;clip-rule:nonzero;display:inline;overflow:visible;visibility:visible;opacity:1;isolation:auto;mix-blend-mode:normal;color-interpolation:sRGB;color-interpolation-filters:linearRGB;solid-color:#000000;solid-opacity:1;fill:#ffffff;fill-opacity:1;fill-rule:evenodd;stroke:#000000;stroke-width:0.65951991px;stroke-linecap:butt;stroke-linejoin:miter;stroke-miterlimit:4;stroke-dasharray:none;stroke-dashoffset:0;stroke-opacity:1;color-rendering:auto;image-rendering:auto;shape-rendering:auto;text-rendering:auto;enable-background:accumulate" />
    <ellipse
       ry="2.2446573"
       rx="4.7482014"
       cy="782.04388"
       cx="141.23479"
       id="ellipse4559"
       style="color:#000000;clip-rule:nonzero;display:inline;overflow:visible;visibility:visible;opacity:1;isolation:auto;mix-blend-mode:normal;color-interpolation:sRGB;color-interpolation-filters:linearRGB;solid-color:#000000;solid-opacity:1;fill:#ffffff;fill-opacity:1;fill-rule:evenodd;stroke:#000000;stroke-width:0.65951991px;stroke-linecap:butt;stroke-linejoin:miter;stroke-miterlimit:4;stroke-dasharray:none;stroke-dashoffset:0;stroke-opacity:1;color-rendering:auto;image-rendering:auto;shape-rendering:auto;text-rendering:auto;enable-background:accumulate" />
    <ellipse
       ry="2.2446573"
       rx="4.7482014"
       cy="775.72662"
       cx="283.68823"
       id="ellipse4569"
       style="color:#000000;clip-rule:nonzero;display:inline;overflow:visible;visibility:visible;opacity:1;isolation:auto;mix-blend-mode:normal;color-interpolation:sRGB;color-interpolation-filters:linearRGB;solid-color:#000000;solid-opacity:1;fill:#ffffff;fill-opacity:1;fill-rule:evenodd;stroke:#000000;stroke-width:0.65951991px;stroke-linecap:butt;stroke-linejoin:miter;stroke-miterlimit:4;stroke-dasharray:none;stroke-dashoffset:0;stroke-opacity:1;color-rendering:auto;image-rendering:auto;shape-rendering:auto;text-rendering:auto;enable-background:accumulate" />
    <ellipse
       ry="2.2446573"
       rx="4.7482014"
       cy="789.45251"
       cx="148.99294"
       id="ellipse4575"
       style="color:#000000;clip-rule:nonzero;display:inline;overflow:visible;visibility:visible;opacity:1;isolation:auto;mix-blend-mode:normal;color-interpolation:sRGB;color-interpolation-filters:linearRGB;solid-color:#000000;solid-opacity:1;fill:#ffffff;fill-opacity:1;fill-rule:evenodd;stroke:#000000;stroke-width:0.65951991px;stroke-linecap:butt;stroke-linejoin:miter;stroke-miterlimit:4;stroke-dasharray:none;stroke-dashoffset:0;stroke-opacity:1;color-rendering:auto;image-rendering:auto;shape-rendering:auto;text-rendering:auto;enable-background:accumulate" />
    <ellipse
       ry="2.2446573"
       rx="4.7482014"
       cy="791.922"
       cx="200.19666"
       id="ellipse4585"
       style="color:#000000;clip-rule:nonzero;display:inline;overflow:visible;visibility:visible;opacity:1;isolation:auto;mix-blend-mode:normal;color-interpolation:sRGB;color-interpolation-filters:linearRGB;solid-color:#000000;solid-opacity:1;fill:#ffffff;fill-opacity:1;fill-rule:evenodd;stroke:#000000;stroke-width:0.65951991px;stroke-linecap:butt;stroke-linejoin:miter;stroke-miterlimit:4;stroke-dasharray:none;stroke-dashoffset:0;stroke-opacity:1;color-rendering:auto;image-rendering:auto;shape-rendering:auto;text-rendering:auto;enable-background:accumulate" />
    <ellipse
       ry="2.2446573"
       rx="4.7482014"
       cy="785.33661"
       cx="179.50829"
       id="ellipse4589"
       style="color:#000000;clip-rule:nonzero;display:inline;overflow:visible;visibility:visible;opacity:1;isolation:auto;mix-blend-mode:normal;color-interpolation:sRGB;color-interpolation-filters:linearRGB;solid-color:#000000;solid-opacity:1;fill:#ffffff;fill-opacity:1;fill-rule:evenodd;stroke:#000000;stroke-width:0.65951991px;stroke-linecap:butt;stroke-linejoin:miter;stroke-miterlimit:4;stroke-dasharray:none;stroke-dashoffset:0;stroke-opacity:1;color-rendering:auto;image-rendering:auto;shape-rendering:auto;text-rendering:auto;enable-background:accumulate" />
    <ellipse
       ry="2.2446573"
       rx="4.7482014"
       cy="783.14142"
       cx="254.50362"
       id="ellipse4595"
       style="color:#000000;clip-rule:nonzero;display:inline;overflow:visible;visibility:visible;opacity:1;isolation:auto;mix-blend-mode:normal;color-interpolation:sRGB;color-interpolation-filters:linearRGB;solid-color:#000000;solid-opacity:1;fill:#ffffff;fill-opacity:1;fill-rule:evenodd;stroke:#000000;stroke-width:0.65951991px;stroke-linecap:butt;stroke-linejoin:miter;stroke-miterlimit:4;stroke-dasharray:none;stroke-dashoffset:0;stroke-opacity:1;color-rendering:auto;image-rendering:auto;shape-rendering:auto;text-rendering:auto;enable-background:accumulate" />
    <path
       inkscape:connector-curvature="0"
       id="path4597"
       d="m 192.52014,814.36996 c -38.37856,-1.47068 -68.45659,-8.37571 -76.35529,-17.52893 -2.19049,-2.53839 -2.74352,-5.0737 -2.72323,-12.48444 0.017,-6.2183 0.075,-6.64031 0.77345,-5.62507 4.00324,5.81925 13.25233,10.44646 28.80866,14.41261 38.08346,9.70955 97.88632,8.41659 130.29129,-2.81696 8.55434,-2.96545 14.59634,-6.34256 17.8003,-9.94929 l 1.70625,-1.92075 0.13025,6.99703 c 0.16404,8.81383 0.14521,8.98831 -1.15887,10.74356 -6.48988,8.73512 -33.17995,15.63977 -68.75746,17.7874 -5.17211,0.31221 -25.66603,0.57067 -30.51535,0.38484 z"
       style="opacity:1;fill:#ffffff;fill-opacity:1;stroke:none;stroke-width:1;stroke-linecap:round;stroke-linejoin:bevel;stroke-miterlimit:4;stroke-dasharray:none;stroke-opacity:1" />
    <path
       inkscape:connector-curvature="0"
       id="path4599"
       d="m 189.41689,814.25365 c -36.07175,-1.66773 -64.7307,-8.28908 -72.64405,-16.78366 -2.77957,-2.98373 -3.3486,-5.20759 -3.35539,-13.1134 l -0.005,-6.72265 1.234,1.5921 c 2.0647,2.66389 4.5013,4.58263 8.61397,6.78321 12.18281,6.51873 33.95638,11.24317 60.20933,13.06427 8.21226,0.56966 30.09876,0.6571 37.49768,0.14981 22.66422,-1.55392 40.11577,-4.56186 53.01394,-9.13744 7.94772,-2.81943 15.86323,-7.4996 17.93619,-10.60506 0.60635,-0.90836 0.71386,-0.17352 0.9542,6.52212 0.30258,8.42932 0.0513,9.53186 -2.7495,12.06411 -3.49323,3.15828 -12.24436,7.0216 -21.31298,9.40893 -11.59632,3.05277 -26.82932,5.27845 -43.70418,6.38561 -7.83092,0.51379 -28.21162,0.73768 -35.68744,0.39205 z"
       style="opacity:1;fill:#ffffff;fill-opacity:1;stroke:none;stroke-width:1;stroke-linecap:round;stroke-linejoin:bevel;stroke-miterlimit:4;stroke-dasharray:none;stroke-opacity:1" />
    <path
       inkscape:connector-curvature="0"
       id="path4601"
       d="m 189.49233,814.24382 c -35.746,-1.4548 -65.39274,-8.42227 -73.1284,-17.18636 -2.37215,-2.68752 -2.93999,-5.13523 -2.94648,-12.70087 l -0.005,-6.72265 1.20357,1.55239 c 4.33232,5.58791 13.43638,10.08234 27.9942,13.81999 30.82149,7.91325 77.10252,8.81567 111.82174,2.18037 10.95779,-2.09417 20.47089,-5.02638 27.32528,-8.42241 4.44539,-2.20249 6.9371,-3.92274 9.31738,-6.43264 l 1.70878,-1.80184 0.17601,7.50948 c 0.12935,5.5191 -0.003,7.9095 -0.50106,9.01866 -2.01461,4.49055 -11.64041,9.38943 -25.0726,12.76023 -20.49432,5.14304 -49.86818,7.5662 -77.89264,6.42565 z"
       style="opacity:1;fill:#ffffff;fill-opacity:1;stroke:none;stroke-width:1;stroke-linecap:round;stroke-linejoin:bevel;stroke-miterlimit:4;stroke-dasharray:none;stroke-opacity:1" />
    <path
       inkscape:connector-curvature="0"
       id="path4603"
       d="m 188.89968,814.23977 c -35.8245,-1.63796 -64.12416,-8.27927 -72.41685,-16.99462 -2.42308,-2.54657 -3.09778,-5.39128 -3.0817,-12.99311 l 0.014,-6.6181 1.44153,1.78356 c 2.07636,2.56898 3.89949,3.98804 8.05088,6.2665 21.44444,11.76963 69.87094,16.92715 113.81264,12.12129 26.61146,-2.91048 46.53937,-9.32213 54.2674,-17.46013 l 1.79293,-1.88803 0.17706,7.54582 c 0.13005,5.54192 -0.002,7.94257 -0.49775,9.03981 -1.99795,4.42334 -10.90896,9.05794 -24.16852,12.57004 -19.55371,5.17925 -51.93622,7.88228 -79.39161,6.62697 z"
       style="opacity:1;fill:#ffffff;fill-opacity:1;stroke:none;stroke-width:1;stroke-linecap:round;stroke-linejoin:bevel;stroke-miterlimit:4;stroke-dasharray:none;stroke-opacity:1" />
    <path
       inkscape:connector-curvature="0"
       id="path4605"
       d="m 190.57242,798.60491 c -17.89751,-0.72953 -35.11747,-3.08642 -48.46926,-6.63399 -13.39209,-3.55827 -23.19174,-8.57247 -26.41109,-13.51379 -1.71801,-2.63694 -1.4708,-7.93961 0.43296,-9.28736 0.54972,-0.38917 1.0855,-0.24473 4.50303,1.21399 7.89916,3.37163 16.5388,5.73873 28.96372,7.93553 32.69051,5.77987 74.02294,5.7751 107.21547,-0.0124 12.16787,-2.1216 21.69869,-4.77116 29.67372,-8.24927 l 3.70783,-1.61708 0.94654,1.44117 c 1.25423,1.90964 1.28094,6.06484 0.0525,8.16381 -2.191,3.74357 -9.48774,8.32553 -18.05059,11.33478 -19.76622,6.94647 -51.49277,10.49113 -82.56481,9.22459 z m 0.76694,-2.02611 c 1.37709,-0.84936 1.58293,-2.46612 0.42557,-3.34274 -1.83262,-1.38809 -6.31462,-1.50101 -8.58938,-0.2164 -1.93726,1.094 -1.72083,2.68718 0.50858,3.74398 1.54215,0.73102 2.0162,0.81003 4.10885,0.6849 1.71171,-0.10237 2.69197,-0.34277 3.54638,-0.86974 z m 28.4465,0 c 2.19342,-1.35284 1.27379,-3.28802 -1.89325,-3.98398 -3.49887,-0.76889 -7.47703,0.49111 -7.47703,2.36819 0,0.77354 0.37485,1.16533 1.72916,1.80731 1.52722,0.72394 2.00546,0.80315 4.09475,0.67822 1.71171,-0.10237 2.69197,-0.34277 3.54637,-0.86974 z m -15.51628,-3.01833 c 2.19342,-1.35284 1.27379,-3.28802 -1.89325,-3.98398 -3.49887,-0.76888 -7.47703,0.49111 -7.47703,2.36819 0,0.77354 0.37485,1.16533 1.72916,1.80731 1.52722,0.72394 2.00546,0.80315 4.09475,0.67821 1.71172,-0.10235 2.69197,-0.34276 3.54637,-0.86973 z m 31.03255,-0.54879 c 2.19342,-1.35284 1.27379,-3.28802 -1.89324,-3.98398 -3.49887,-0.76888 -7.47704,0.49112 -7.47704,2.36819 0,0.77354 0.37486,1.16533 1.72917,1.80731 1.52721,0.72394 2.00546,0.80315 4.09475,0.67822 1.71171,-0.10236 2.69196,-0.34277 3.54636,-0.86974 z m 14.48187,-0.54879 c 2.19341,-1.35284 1.27379,-3.28802 -1.89326,-3.98398 -3.49887,-0.76888 -7.47702,0.49112 -7.47702,2.3682 0,0.77353 0.37485,1.16533 1.72916,1.80731 1.52721,0.72393 2.00545,0.80314 4.09474,0.67821 1.71171,-0.10236 2.69197,-0.34276 3.54638,-0.86974 z m -96.71813,-1.37197 c 2.19341,-1.35284 1.27379,-3.28802 -1.89324,-3.98398 -3.49889,-0.76888 -7.47704,0.49112 -7.47704,2.3682 0,0.77354 0.37486,1.16533 1.72917,1.80731 1.5272,0.72394 2.00544,0.80315 4.09474,0.67821 1.71171,-0.10235 2.69197,-0.34276 3.54637,-0.86974 z m 17.0679,-0.82317 c 2.19342,-1.35285 1.27379,-3.28802 -1.89324,-3.98398 -3.49888,-0.76889 -7.47704,0.49111 -7.47704,2.36819 0,0.77353 0.37485,1.16533 1.72917,1.80731 1.52721,0.72393 2.00545,0.80315 4.09474,0.67821 1.71172,-0.10236 2.69197,-0.34276 3.54637,-0.86973 z m 94.64929,-1.37198 c 1.25575,-0.77451 1.53532,-2.02867 0.64826,-2.90802 -0.66503,-0.65923 -3.14476,-1.35677 -4.82326,-1.35677 -1.1814,0 -1.25034,-0.0758 -0.99347,-1.09178 0.33398,-1.321 -0.64363,-2.24059 -2.91182,-2.73903 -3.5182,-0.77313 -7.4965,0.48137 -7.4965,2.36391 0,1.31164 2.49921,2.56448 5.11574,2.56448 1.70773,0 1.76624,0.0321 1.28401,0.70502 -0.71383,0.99608 -0.13117,1.92548 1.72721,2.75508 1.35726,0.6059 1.95563,0.69333 3.93486,0.57497 1.67957,-0.10043 2.66534,-0.34382 3.51497,-0.86786 z m -48.10046,-0.82318 c 2.19342,-1.35284 1.27379,-3.28801 -1.89324,-3.98398 -3.49888,-0.76888 -7.47704,0.49112 -7.47704,2.3682 0,0.77354 0.37486,1.16533 1.72917,1.80731 1.52721,0.72394 2.00545,0.80315 4.09474,0.67821 1.71172,-0.10235 2.69197,-0.34276 3.54637,-0.86974 z m -21.72279,-0.82318 c 2.19342,-1.35284 1.27379,-3.28802 -1.89324,-3.98398 -3.49887,-0.76888 -7.47704,0.49112 -7.47704,2.3682 0,0.77353 0.37486,1.16533 1.72917,1.80731 1.52721,0.72393 2.00546,0.80315 4.09475,0.67821 1.71171,-0.10236 2.69196,-0.34276 3.54636,-0.86974 z m -11.3786,-0.27439 c 2.19341,-1.35284 1.27379,-3.28802 -1.89324,-3.98398 -3.49888,-0.76888 -7.47704,0.49111 -7.47704,2.36819 0,0.77354 0.37486,1.16534 1.72917,1.80732 1.5272,0.72393 2.00545,0.80314 4.09475,0.6782 1.7117,-0.10235 2.69196,-0.34275 3.54636,-0.86973 z m 56.37581,0 c 2.19341,-1.35284 1.27379,-3.28802 -1.89325,-3.98398 -3.49888,-0.76888 -7.47703,0.49111 -7.47703,2.36819 0,0.77354 0.37486,1.16534 1.72917,1.80732 1.5272,0.72393 2.00544,0.80314 4.09474,0.6782 1.71171,-0.10235 2.69196,-0.34275 3.54637,-0.86973 z m -74.99534,-1.64636 c 2.19341,-1.35284 1.27379,-3.28802 -1.89324,-3.98398 -3.49889,-0.76888 -7.47704,0.49111 -7.47704,2.36819 0,0.77354 0.37486,1.16533 1.72917,1.80731 1.5272,0.72394 2.00544,0.80315 4.09474,0.67821 1.71172,-0.10235 2.69197,-0.34276 3.54637,-0.86973 z m -19.65394,-1.64636 c 2.19341,-1.35284 1.27378,-3.28802 -1.89326,-3.98398 -3.49887,-0.76889 -7.47703,0.49111 -7.47703,2.36819 0,0.77354 0.37485,1.16533 1.72916,1.80731 1.52722,0.72394 2.00546,0.80315 4.09475,0.67821 1.71171,-0.10236 2.69197,-0.34276 3.54638,-0.86973 z M 272.024,782.85911 c 2.19341,-1.35284 1.27378,-3.28802 -1.89326,-3.98398 -3.49887,-0.76888 -7.47702,0.49112 -7.47702,2.3682 0,0.77354 0.37484,1.16533 1.72915,1.80731 1.52722,0.72394 2.00546,0.80315 4.09475,0.67821 1.71171,-0.10235 2.69197,-0.34276 3.54638,-0.86974 z m -144.81859,-2.46954 c 2.19342,-1.35284 1.27379,-3.28802 -1.89325,-3.98398 -3.49888,-0.76888 -7.47703,0.49111 -7.47703,2.3682 0,0.77353 0.37485,1.16533 1.72916,1.80731 1.5272,0.72393 2.00546,0.80315 4.09475,0.67821 1.71171,-0.10236 2.69197,-0.34276 3.54637,-0.86974 z m 160.27435,-3.00258 c 2.12671,-1.12828 2.24805,-2.00903 0.43431,-3.15258 -3.17281,-2.00045 -9.5372,-1.01362 -9.5372,1.47878 0,1.57516 2.12207,2.55431 5.61172,2.58934 1.30628,0.0131 2.1654,-0.21218 3.49117,-0.91554 z"
       style="opacity:1;fill:#b3b3b3;fill-opacity:1;stroke:none;stroke-width:1;stroke-linecap:round;stroke-linejoin:bevel;stroke-miterlimit:4;stroke-dasharray:none;stroke-opacity:1" />
    <path
       inkscape:connector-curvature="0"
       id="path4607"
       d="m 190.96851,814.3741 c -41.9562,-1.98931 -70.72782,-9.40336 -76.41713,-19.69164 -0.58647,-1.06054 -0.83007,-3.33824 -0.98695,-9.2283 l -0.2083,-7.82022 1.51474,1.84696 c 8.10481,9.88244 34.72354,17.35587 69.66559,19.55919 8.93236,0.56324 28.75778,0.56324 37.69016,0 33.89484,-2.13729 59.59244,-9.10427 68.55517,-18.58628 l 2.00315,-2.11922 0.17416,7.60709 c 0.23483,10.25679 -0.3586,11.42363 -7.85851,15.45184 -11.70372,6.28608 -32.51659,10.63704 -59.67173,12.47447 -5.98286,0.40482 -29.35656,0.74811 -34.46035,0.50611 z"
       style="opacity:1;fill:#b3b3b3;fill-opacity:1;stroke:none;stroke-width:1;stroke-linecap:round;stroke-linejoin:bevel;stroke-miterlimit:4;stroke-dasharray:none;stroke-opacity:1" />
    <path
       inkscape:connector-curvature="0"
       id="path4611"
       d="m 191.09092,798.55541 c -0.77848,-0.11376 -2.23003,-0.21362 -3.22567,-0.22192 -3.06724,-0.0255 -5.9046,-0.18937 -6.86074,-0.3961 -0.50207,-0.10856 -1.37463,-0.13331 -1.93903,-0.055 -0.56439,0.0783 -1.165,0.0232 -1.33469,-0.12246 -0.16968,-0.14566 -0.80996,-0.23919 -1.42284,-0.20784 -0.61288,0.0313 -1.46343,-0.0131 -1.89013,-0.0988 -1.77832,-0.35718 -8.41733,-1.00919 -8.84571,-0.86873 -0.25523,0.0837 -0.46405,0.007 -0.46405,-0.17043 0,-0.18486 -0.43108,-0.26279 -1.00962,-0.18252 -0.5553,0.077 -1.08121,0.0261 -1.1687,-0.1131 -0.0875,-0.13925 -0.85507,-0.28048 -1.70573,-0.31386 -0.85065,-0.0334 -1.66303,-0.13389 -1.80526,-0.22335 -0.47795,-0.30062 -6.8536,-1.33631 -7.30835,-1.1872 -0.24739,0.0811 -0.44979,0.0263 -0.44979,-0.12184 0,-0.25102 -3.24094,-0.98333 -4.39628,-0.99336 -0.28446,-0.002 -0.63358,-0.0814 -0.77581,-0.17532 -0.14223,-0.094 -2.00419,-0.63361 -4.13767,-1.19922 -9.799,-2.59783 -18.73804,-6.52388 -23.35658,-10.25828 -1.37714,-1.11351 -2.50389,-2.19394 -2.50389,-2.40095 0,-0.20701 -0.22543,-0.37638 -0.50097,-0.37638 -0.27554,0 -0.36701,-0.18522 -0.20327,-0.41159 0.16374,-0.22638 0.0618,-0.4116 -0.22642,-0.4116 -0.28826,0 -0.4024,-0.24695 -0.25362,-0.54878 0.14879,-0.30183 0.0688,-0.54876 -0.17772,-0.54873 -0.50409,8e-5 -0.4467,-5.59404 0.0618,-6.0306 0.17973,-0.15429 0.19287,-0.39546 0.0292,-0.53594 -0.16366,-0.14049 -0.0572,-0.33424 0.23652,-0.43056 0.29375,-0.0963 0.41525,-0.27712 0.27001,-0.40179 -0.58073,-0.49851 1.29606,-0.49434 2.49391,0.006 0.70306,0.2934 1.40178,0.53345 1.55271,0.53345 0.15092,0 1.03888,0.37044 1.97322,0.82319 0.93435,0.45275 1.99607,0.82318 2.35937,0.82318 0.3633,0 0.66055,0.12348 0.66055,0.27439 0,0.15091 0.24247,0.2744 0.53883,0.2744 0.29636,0 1.04077,0.24809 1.65425,0.5513 1.78188,0.88072 14.13313,4.12023 17.20226,4.51185 0.28446,0.0363 1.17241,0.20845 1.97321,0.38256 0.80079,0.1741 1.77621,0.31655 2.16761,0.31655 0.39139,0 0.83916,0.10948 0.99503,0.24329 0.15588,0.13381 1.15878,0.34032 2.22867,0.45892 2.20885,0.24484 2.61576,0.29883 2.97967,0.39537 0.14222,0.0377 0.43316,0.0903 0.6465,0.1169 0.21336,0.0266 1.75394,0.26581 3.42354,0.53166 1.66959,0.26585 3.69957,0.52794 4.51105,0.58243 0.81149,0.0545 1.66642,0.16168 1.89986,0.23823 0.23344,0.0765 1.46189,0.21611 2.72988,0.31016 1.26799,0.094 2.77092,0.2199 3.33986,0.27967 2.90513,0.30523 10.20005,0.88422 11.63721,0.92365 0.42669,0.0117 2.40503,0.10189 4.39628,0.2004 1.99126,0.0985 8.8572,0.18363 15.25767,0.18915 13.75529,0.0119 20.27347,-0.21519 29.73953,-1.03598 0.56893,-0.0493 2.06305,-0.16708 3.32027,-0.26168 1.25722,-0.0946 3.23554,-0.29525 4.39628,-0.44592 1.16073,-0.15067 2.69228,-0.33794 3.40344,-0.41617 0.71117,-0.0782 2.57313,-0.32612 4.13768,-0.55086 1.56456,-0.22475 3.28605,-0.46195 3.82553,-0.52713 0.53949,-0.0652 1.81958,-0.27117 2.84466,-0.45779 1.02507,-0.18662 2.03832,-0.36001 2.25167,-0.3853 0.21334,-0.0253 0.50428,-0.0769 0.64651,-0.11461 0.14223,-0.0377 0.49135,-0.0995 0.77582,-0.13719 0.28446,-0.0377 0.57539,-0.0935 0.6465,-0.12389 0.0711,-0.0304 0.47842,-0.0953 0.90512,-0.14425 0.4267,-0.0489 1.47405,-0.24522 2.32744,-0.43621 1.8042,-0.40376 1.65527,-0.37599 3.49117,-0.65114 0.78227,-0.11725 1.42232,-0.34384 1.42232,-0.50355 0,-0.15971 0.14392,-0.21403 0.3198,-0.12071 0.3591,0.1905 8.55478,-1.92135 9.0478,-2.33143 0.17403,-0.14475 0.45741,-0.22178 0.62974,-0.17115 0.17232,0.0506 0.78635,-0.12285 1.3645,-0.38547 0.57815,-0.26263 1.05118,-0.41523 1.05118,-0.33911 0,0.0761 0.93098,-0.18844 2.06884,-0.58793 1.13786,-0.39948 2.06884,-0.83341 2.06884,-0.96427 0,-0.13086 0.34714,-0.23793 0.77143,-0.23793 0.42429,0 1.06213,-0.24695 1.41743,-0.54879 0.3553,-0.30183 0.84735,-0.54879 1.09345,-0.54879 0.24608,0 1.13893,-0.30868 1.98411,-0.68598 1.44931,-0.64698 2.82487,-0.93116 2.32436,-0.48019 -0.12561,0.11319 0.0122,0.51449 0.30631,0.89178 0.29411,0.37729 0.48489,0.90207 0.42398,1.16617 -0.0609,0.26411 0.15036,0.48019 0.4695,0.48019 0.31913,0 0.47378,0.0926 0.34365,0.2058 -0.13013,0.11319 -0.30857,1.5023 -0.39653,3.08693 -0.10484,1.8896 -0.41408,3.09655 -0.89841,3.50708 -0.40616,0.34427 -0.60457,0.69699 -0.4409,0.78382 0.16367,0.0868 0.074,0.29906 -0.19905,0.47163 -0.27315,0.17256 -1.45364,1.11635 -2.62332,2.09731 -2.84882,2.38919 -9.58478,5.9128 -14.65299,7.66506 -2.27099,0.78517 -4.30394,1.57345 -4.51767,1.75174 -0.21371,0.17829 -0.39215,0.22978 -0.39651,0.11443 -0.01,-0.26378 -6.41073,1.42624 -6.64651,1.7549 -0.0954,0.133 -0.36889,0.17774 -0.60774,0.0994 -0.53946,-0.17688 -3.09784,0.42038 -3.09784,0.72319 0,0.12196 -0.31912,0.15678 -0.70913,0.0774 -0.39001,-0.0794 -1.03214,0.027 -1.42695,0.23646 -0.39479,0.20945 -1.00667,0.32974 -1.3597,0.26731 -0.35305,-0.0624 -0.6419,0.0275 -0.6419,0.19994 0,0.1724 -0.19434,0.24973 -0.43187,0.17185 -0.57179,-0.18748 -4.22301,0.41379 -4.22301,0.69542 0,0.12087 -0.34912,0.14868 -0.77582,0.0618 -0.4267,-0.0869 -0.77581,-0.0423 -0.77581,0.099 0,0.14131 -0.4073,0.24858 -0.90512,0.23836 -1.5206,-0.0312 -9.43907,1.0527 -9.43907,1.29207 0,0.12347 -0.21909,0.15265 -0.48687,0.0648 -0.26779,-0.0878 -3.10142,0.0901 -6.29697,0.39539 -3.19555,0.30527 -6.5452,0.55504 -7.44366,0.55504 -0.89847,0 -1.77152,0.0732 -1.94013,0.16263 -0.67907,0.36027 -27.4897,0.64558 -29.74157,0.31651 z m -0.12655,-1.84858 c 2.08367,-1.27458 2.02514,-2.88444 -0.1436,-3.95076 -1.13681,-0.55894 -1.83543,-0.67224 -3.75946,-0.60971 -4.73859,0.154 -6.7458,2.47079 -3.78926,4.37369 1.40612,0.905 1.70603,0.97189 4.07177,0.90813 1.94458,-0.0524 2.80831,-0.2245 3.62055,-0.72135 z m 27.8866,0.28824 c 3.70165,-1.72405 1.89295,-4.53122 -2.98488,-4.63262 -2.58365,-0.0537 -5.07431,0.98364 -5.55324,2.3129 -0.25158,0.69824 -0.004,1.03476 1.36557,1.86284 1.50326,0.90833 1.90454,1.00429 3.96314,0.94776 1.25979,-0.0346 2.70402,-0.25549 3.20941,-0.49088 z m -15.51628,-3.01832 c 3.70165,-1.72406 1.89295,-4.53123 -2.98488,-4.63263 -2.58364,-0.0537 -5.0743,0.98364 -5.55323,2.3129 -0.25158,0.69824 -0.004,1.03477 1.36557,1.86284 1.50325,0.90833 1.90453,1.0043 3.96313,0.94776 1.25979,-0.0346 2.70403,-0.25549 3.20941,-0.49087 z m 31.03255,-0.54879 c 3.70166,-1.72406 1.89295,-4.53123 -2.98488,-4.63263 -2.58364,-0.0537 -5.0743,0.98364 -5.55323,2.31291 -0.25158,0.69823 -0.004,1.03476 1.36557,1.86284 1.50325,0.90832 1.90454,1.00429 3.96314,0.94775 1.25979,-0.0346 2.70402,-0.25548 3.2094,-0.49087 z m 14.48186,-0.54879 c 3.70166,-1.72406 1.89295,-4.53123 -2.98488,-4.63262 -2.58364,-0.0537 -5.07429,0.98363 -5.55324,2.3129 -0.25157,0.69823 -0.004,1.03476 1.36557,1.86284 1.50326,0.90833 1.90455,1.00429 3.96314,0.94776 1.25979,-0.0346 2.70403,-0.25549 3.20941,-0.49088 z m -96.71813,-1.37196 c 3.70167,-1.72406 1.89295,-4.53123 -2.98488,-4.63264 -2.58364,-0.0537 -5.07429,0.98364 -5.55323,2.31291 -0.25158,0.69824 -0.004,1.03477 1.36557,1.86285 1.50326,0.90832 1.90454,1.00428 3.96314,0.94775 1.25979,-0.0346 2.70402,-0.25549 3.2094,-0.49087 z m 17.06791,-0.82319 c 3.61043,-1.68156 2.07629,-4.35389 -2.64323,-4.60427 -2.42913,-0.12887 -3.0018,-0.28075 -2.15656,-0.57191 1.09704,-0.3779 1.84284,-1.50482 1.53547,-2.32013 -0.76307,-2.02418 -5.6218,-2.79822 -8.5821,-1.36721 -0.85622,0.41389 -1.69491,1.13601 -1.86378,1.60472 -0.25188,0.69904 -0.004,1.03507 1.37734,1.86995 1.40261,0.84751 1.99498,1.01035 3.54089,0.97339 2.81984,-0.0674 2.89644,-0.0385 1.69601,0.63936 -0.61415,0.34681 -1.25895,1.00812 -1.43291,1.46957 -0.2591,0.68729 -0.0139,1.02175 1.35633,1.84965 1.50325,0.90833 1.90453,1.00429 3.96313,0.94775 1.25979,-0.0346 2.70403,-0.25548 3.20941,-0.49087 z m 95.20921,-1.66021 c 2.76952,-1.69412 1.44542,-3.87921 -2.57859,-4.25532 -0.98016,-0.0916 -1.86304,-0.2095 -1.96195,-0.26197 -0.0989,-0.0525 -0.23989,-0.66005 -0.31332,-1.35017 -0.17401,-1.63525 -1.86361,-2.52976 -4.89746,-2.59283 -1.67263,-0.0348 -2.46854,0.118 -3.68945,0.70819 -2.26324,1.09406 -2.48578,2.17756 -0.67929,3.30732 1.36515,0.85376 2.24658,1.07816 4.43263,1.12853 0.76369,0.0176 0.85971,0.19193 0.59303,1.0767 -0.27675,0.91819 -0.1055,1.18423 1.31466,2.04235 1.50356,0.90851 1.83401,0.98122 4.17295,0.91818 1.93046,-0.052 2.79606,-0.22506 3.60679,-0.72098 z m -48.66038,-0.53494 c 3.70166,-1.72405 1.89295,-4.53123 -2.98488,-4.63263 -2.58364,-0.0537 -5.0743,0.98364 -5.55323,2.31291 -0.25158,0.69824 -0.004,1.03476 1.36557,1.86285 1.50325,0.90832 1.90453,1.00428 3.96313,0.94775 1.25979,-0.0346 2.70403,-0.25549 3.20941,-0.49088 z m -21.72279,-0.82318 c 3.70166,-1.72406 1.89295,-4.53123 -2.98488,-4.63263 -2.58364,-0.0537 -5.0743,0.98365 -5.55323,2.31291 -0.25158,0.69823 -0.004,1.03476 1.36557,1.86284 1.50325,0.90833 1.90454,1.00429 3.96314,0.94776 1.25979,-0.0346 2.70402,-0.25549 3.2094,-0.49088 z m -11.37859,-0.27439 c 3.70165,-1.72406 1.89293,-4.53123 -2.98489,-4.63263 -2.58365,-0.0537 -5.0743,0.98364 -5.55323,2.31291 -0.25159,0.69823 -0.004,1.03476 1.36556,1.86284 1.50326,0.90832 1.90455,1.00429 3.96315,0.94775 1.25979,-0.0346 2.70401,-0.25549 3.20941,-0.49087 z m 56.37579,0 c 3.70167,-1.72406 1.89295,-4.53123 -2.98488,-4.63263 -2.58364,-0.0537 -5.07429,0.98364 -5.55323,2.31291 -0.25158,0.69823 -0.004,1.03476 1.36557,1.86284 1.50326,0.90832 1.90454,1.00429 3.96315,0.94775 1.25977,-0.0346 2.70401,-0.25549 3.20939,-0.49087 z m -94.64928,-3.29273 c 3.70165,-1.72405 1.89295,-4.53122 -2.98488,-4.63262 -2.58364,-0.0537 -5.0743,0.98364 -5.55324,2.3129 -0.25157,0.69824 -0.004,1.03476 1.36557,1.86284 1.50326,0.90833 1.90454,1.00429 3.96314,0.94776 1.25979,-0.0346 2.70403,-0.25549 3.20941,-0.49088 z M 271.0891,783.2754 c 3.70165,-1.72406 1.89295,-4.53123 -2.98488,-4.63264 -2.58365,-0.0537 -5.07431,0.98364 -5.55324,2.31291 -0.25158,0.69824 -0.004,1.03477 1.36557,1.86285 1.50326,0.90832 1.90455,1.00428 3.96314,0.94775 1.25979,-0.0346 2.70402,-0.25549 3.20941,-0.49087 z m -144.81858,-2.46955 c 3.70165,-1.72406 1.89294,-4.53123 -2.98488,-4.63263 -2.58365,-0.0537 -5.07431,0.98364 -5.55324,2.31291 -0.25158,0.69824 -0.004,1.03476 1.36557,1.86284 1.50326,0.90833 1.90454,1.00429 3.96314,0.94775 1.25979,-0.0346 2.70402,-0.25549 3.20941,-0.49087 z m 161.07562,-3.42115 c 2.15192,-1.14165 2.25294,-2.01174 0.37231,-3.20685 -1.15945,-0.73682 -1.80399,-0.89709 -3.87872,-0.96452 -2.15756,-0.0701 -2.68585,0.024 -3.97554,0.7082 -3.21902,1.70778 -0.94296,4.3984 3.72071,4.3984 1.58406,0 2.36393,-0.19392 3.76124,-0.93523 z"
       style="opacity:1;fill:#cccccc;fill-opacity:1;stroke:none;stroke-width:1;stroke-linecap:round;stroke-linejoin:bevel;stroke-miterlimit:4;stroke-dasharray:none;stroke-opacity:1" />
    <path
       inkscape:connector-curvature="0"
       id="path4613"
       d="m 189.01162,814.19745 c -0.77273,-0.11289 -2.1032,-0.20147 -2.9566,-0.19686 -0.85339,0.005 -3.75377,-0.18404 -6.44528,-0.41922 -2.69151,-0.23517 -5.1935,-0.36655 -5.55999,-0.29194 -0.36649,0.0746 -0.66635,0.032 -0.66635,-0.0948 0,-0.12674 -1.1114,-0.30865 -2.46978,-0.40425 -1.35837,-0.0956 -5.72232,-0.61838 -9.69767,-1.16174 -3.97535,-0.54336 -7.57702,-1.00582 -8.00372,-1.0277 -0.42669,-0.0218 -0.89218,-0.10841 -1.03441,-0.19229 -0.36306,-0.2141 -6.84386,-1.44192 -7.62884,-1.44533 -0.35557,-0.002 -0.64651,-0.0809 -0.64651,-0.17634 0,-0.17278 -2.9943,-0.82097 -3.76823,-0.81572 -0.22351,0.002 -0.76595,-0.18801 -1.20542,-0.42116 -0.43948,-0.23315 -1.01302,-0.35376 -1.27456,-0.268 -0.26153,0.0858 -0.4755,0.0532 -0.4755,-0.0723 0,-0.23115 -3.30635,-1.27133 -3.84507,-1.20966 -0.16093,0.0184 -0.72056,-0.18259 -1.24362,-0.4467 -0.52306,-0.2641 -2.41503,-1.03428 -4.20437,-1.7115 -7.37627,-2.79174 -12.57453,-6.87903 -13.45848,-10.5821 -0.25028,-1.04845 -0.55369,-4.82737 -0.67426,-8.39761 -0.17573,-5.20363 -0.0902,-6.42835 0.43112,-6.17385 0.35769,0.17461 0.56249,0.36625 0.45511,0.42587 -0.10735,0.0596 0.67252,0.98569 1.7331,2.05795 1.37886,1.39405 3.33059,2.69234 6.84953,4.55631 4.6389,2.45721 7.67472,3.83857 8.98513,4.08845 0.31654,0.0603 0.69189,0.20055 0.83413,0.31155 0.33297,0.25984 5.13714,1.70036 8.79256,2.63643 1.56456,0.40065 3.65925,0.94753 4.65488,1.21531 0.99562,0.26777 1.9266,0.48763 2.06884,0.48856 0.14223,0.001 0.95684,0.14613 1.81023,0.32264 0.85339,0.17651 1.78437,0.35144 2.06883,0.38872 0.28448,0.0372 1.18899,0.21358 2.01005,0.39177 0.82106,0.1782 1.86841,0.36383 2.32744,0.41254 0.45904,0.0487 1.18373,0.15945 1.61042,0.24612 1.22434,0.24868 4.27323,0.71482 5.6893,0.86984 0.71116,0.0778 2.68949,0.32547 4.39628,0.55025 3.74698,0.49348 11.17844,1.17695 15.77488,1.45082 4.26075,0.25387 34.04972,0.26528 37.49767,0.0144 3.69293,-0.26875 6.52466,-0.48511 8.01675,-0.61256 0.71116,-0.0607 2.33047,-0.19024 3.59846,-0.28776 1.268,-0.0975 2.49645,-0.23994 2.72987,-0.31648 0.23344,-0.0765 1.0808,-0.18323 1.883,-0.23709 3.63606,-0.24414 15.75365,-2.1501 17.00262,-2.67432 0.35558,-0.14926 0.6465,-0.19016 0.6465,-0.0909 0,0.0992 0.52368,0.0277 1.16373,-0.159 0.64004,-0.1867 1.42545,-0.36305 1.74534,-0.39191 1.19724,-0.10799 12.16126,-3.07286 12.60721,-3.40922 0.14223,-0.10728 0.7241,-0.27208 1.29302,-0.36621 0.56893,-0.0941 1.66432,-0.48121 2.43418,-0.86017 0.76986,-0.37895 1.56494,-0.689 1.76684,-0.689 0.47056,0 1.16918,-0.33547 5.88457,-2.82571 4.77597,-2.52223 6.15788,-3.38882 7.08939,-4.44573 0.39902,-0.45274 1.30453,-1.31709 2.01222,-1.92075 l 1.28672,-1.09757 -0.20039,7.95741 c -0.15711,6.23905 -0.37433,8.23887 -1.00588,9.26078 -0.44301,0.71686 -0.6537,1.30526 -0.46819,1.30758 0.1855,0.002 0.10386,0.0949 -0.18138,0.20579 -0.28526,0.11088 -1.19305,0.72893 -2.0173,1.37345 -3.34797,2.61795 -12.28869,6.39536 -19.96263,8.43413 -1.56456,0.41566 -2.98705,0.87358 -3.16109,1.01759 -0.17404,0.14402 -0.46496,0.2513 -0.6465,0.23841 -1.17894,-0.0837 -1.90807,0.0297 -2.62058,0.40775 -0.44702,0.23715 -0.81277,0.3688 -0.81277,0.29256 0,-0.0763 -2.38562,0.2895 -5.30139,0.81277 -5.84141,1.04834 -15.82118,2.43306 -19.66031,2.72792 -1.35471,0.10406 -2.5927,0.30043 -2.75109,0.43639 -0.15838,0.13597 -0.47903,0.18457 -0.71254,0.10801 -0.2335,-0.0766 -2.95216,0.0519 -6.04146,0.28551 -6.21813,0.4702 -36.04189,0.93673 -38.34776,0.59987 z"
       style="opacity:1;fill:#b3b3b3;fill-opacity:1;stroke:none;stroke-width:1;stroke-linecap:round;stroke-linejoin:bevel;stroke-miterlimit:4;stroke-dasharray:none;stroke-opacity:1" />
    <path
       inkscape:connector-curvature="0"
       id="path4615"
       d="m 188.89968,781.33543 c -29.31236,-1.28529 -54.85815,-5.95026 -68.76117,-12.5566 l -2.73109,-1.29774 1.15403,-1.03767 1.15403,-1.03768 2.13722,0.9754 c 11.10821,5.06966 26.6582,8.65587 46.37691,10.69566 43.5832,4.50844 93.90402,-0.0945 115.49787,-10.56471 l 2.82983,-1.3721 1.13218,0.97186 c 0.62268,0.53453 1.00671,1.1453 0.8534,1.35727 -0.15332,0.21197 -1.86336,1.08142 -3.80007,1.93211 -13.19086,5.79402 -34.55723,9.90004 -60.09631,11.54883 -7.76125,0.50106 -28.10636,0.72039 -35.74683,0.38537 z"
       style="opacity:1;fill:#b3b3b3;fill-opacity:1;stroke:none;stroke-width:1;stroke-linecap:round;stroke-linejoin:bevel;stroke-miterlimit:4;stroke-dasharray:none;stroke-opacity:1" />
    <ellipse
       style="color:#000000;clip-rule:nonzero;display:inline;overflow:visible;visibility:visible;opacity:1;isolation:auto;mix-blend-mode:normal;color-interpolation:sRGB;color-interpolation-filters:linearRGB;solid-color:#000000;solid-opacity:1;fill:#e9afaf;fill-opacity:1;fill-rule:evenodd;stroke:none;stroke-width:0.82910347px;stroke-linecap:butt;stroke-linejoin:miter;stroke-miterlimit:4;stroke-dasharray:none;stroke-dashoffset:0;stroke-opacity:1;color-rendering:auto;image-rendering:auto;shape-rendering:auto;text-rendering:auto;enable-background:accumulate"
       id="path4226-28"
       cx="187.22186"
       cy="794.9859"
       rx="4.7482014"
       ry="2.2446573" />
    <ellipse
       style="color:#000000;clip-rule:nonzero;display:inline;overflow:visible;visibility:visible;opacity:1;isolation:auto;mix-blend-mode:normal;color-interpolation:sRGB;color-interpolation-filters:linearRGB;solid-color:#000000;solid-opacity:1;fill:#e9afaf;fill-opacity:1;fill-rule:evenodd;stroke:none;stroke-width:0.82910347px;stroke-linecap:butt;stroke-linejoin:miter;stroke-miterlimit:4;stroke-dasharray:none;stroke-dashoffset:0;stroke-opacity:1;color-rendering:auto;image-rendering:auto;shape-rendering:auto;text-rendering:auto;enable-background:accumulate"
       id="path4226-4"
       cx="245.66652"
       cy="790.87"
       rx="4.7482014"
       ry="2.2446573" />
    <ellipse
       style="color:#000000;clip-rule:nonzero;display:inline;overflow:visible;visibility:visible;opacity:1;isolation:auto;mix-blend-mode:normal;color-interpolation:sRGB;color-interpolation-filters:linearRGB;solid-color:#000000;solid-opacity:1;fill:#e9afaf;fill-opacity:1;fill-rule:evenodd;stroke:none;stroke-width:0.82910347px;stroke-linecap:butt;stroke-linejoin:miter;stroke-miterlimit:4;stroke-dasharray:none;stroke-dashoffset:0;stroke-opacity:1;color-rendering:auto;image-rendering:auto;shape-rendering:auto;text-rendering:auto;enable-background:accumulate"
       id="path4226-44"
       cx="190.84232"
       cy="785.65656"
       rx="4.7482014"
       ry="2.2446573" />
    <ellipse
       style="color:#000000;clip-rule:nonzero;display:inline;overflow:visible;visibility:visible;opacity:1;isolation:auto;mix-blend-mode:normal;color-interpolation:sRGB;color-interpolation-filters:linearRGB;solid-color:#000000;solid-opacity:1;fill:#e9afaf;fill-opacity:1;fill-rule:evenodd;stroke:none;stroke-width:0.82910347px;stroke-linecap:butt;stroke-linejoin:miter;stroke-miterlimit:4;stroke-dasharray:none;stroke-dashoffset:0;stroke-opacity:1;color-rendering:auto;image-rendering:auto;shape-rendering:auto;text-rendering:auto;enable-background:accumulate"
       id="path4226-27"
       cx="215.66837"
       cy="794.9859"
       rx="4.7482014"
       ry="2.2446573" />
    <ellipse
       style="color:#000000;clip-rule:nonzero;display:inline;overflow:visible;visibility:visible;opacity:1;isolation:auto;mix-blend-mode:normal;color-interpolation:sRGB;color-interpolation-filters:linearRGB;solid-color:#000000;solid-opacity:1;fill:#e9afaf;fill-opacity:1;fill-rule:evenodd;stroke:none;stroke-width:0.82910347px;stroke-linecap:butt;stroke-linejoin:miter;stroke-miterlimit:4;stroke-dasharray:none;stroke-dashoffset:0;stroke-opacity:1;color-rendering:auto;image-rendering:auto;shape-rendering:auto;text-rendering:auto;enable-background:accumulate"
       id="path4226-1"
       cx="267.90649"
       cy="781.26624"
       rx="4.7482014"
       ry="2.2446573" />
    <ellipse
       style="color:#000000;clip-rule:nonzero;display:inline;overflow:visible;visibility:visible;opacity:1;isolation:auto;mix-blend-mode:normal;color-interpolation:sRGB;color-interpolation-filters:linearRGB;solid-color:#000000;solid-opacity:1;fill:#e9afaf;fill-opacity:1;fill-rule:evenodd;stroke:none;stroke-width:0.82910347px;stroke-linecap:butt;stroke-linejoin:miter;stroke-miterlimit:4;stroke-dasharray:none;stroke-dashoffset:0;stroke-opacity:1;color-rendering:auto;image-rendering:auto;shape-rendering:auto;text-rendering:auto;enable-background:accumulate"
       id="path4226-40"
       cx="231.18468"
       cy="791.4187"
       rx="4.7482014"
       ry="2.2446573" />
    <ellipse
       style="color:#000000;clip-rule:nonzero;display:inline;overflow:visible;visibility:visible;opacity:1;isolation:auto;mix-blend-mode:normal;color-interpolation:sRGB;color-interpolation-filters:linearRGB;solid-color:#000000;solid-opacity:1;fill:#e9afaf;fill-opacity:1;fill-rule:evenodd;stroke:none;stroke-width:0.82910347px;stroke-linecap:butt;stroke-linejoin:miter;stroke-miterlimit:4;stroke-dasharray:none;stroke-dashoffset:0;stroke-opacity:1;color-rendering:auto;image-rendering:auto;shape-rendering:auto;text-rendering:auto;enable-background:accumulate"
       id="path4226-47"
       cx="166.01628"
       cy="788.67487"
       rx="4.7482014"
       ry="2.2446573" />
    <ellipse
       style="color:#000000;clip-rule:nonzero;display:inline;overflow:visible;visibility:visible;opacity:1;isolation:auto;mix-blend-mode:normal;color-interpolation:sRGB;color-interpolation-filters:linearRGB;solid-color:#000000;solid-opacity:1;fill:#e9afaf;fill-opacity:1;fill-rule:evenodd;stroke:none;stroke-width:0.82910347px;stroke-linecap:butt;stroke-linejoin:miter;stroke-miterlimit:4;stroke-dasharray:none;stroke-dashoffset:0;stroke-opacity:1;color-rendering:auto;image-rendering:auto;shape-rendering:auto;text-rendering:auto;enable-background:accumulate"
       id="path4226-8"
       cx="123.08794"
       cy="778.79669"
       rx="4.7482014"
       ry="2.2446573" />
    <ellipse
       style="color:#000000;clip-rule:nonzero;display:inline;overflow:visible;visibility:visible;opacity:1;isolation:auto;mix-blend-mode:normal;color-interpolation:sRGB;color-interpolation-filters:linearRGB;solid-color:#000000;solid-opacity:1;fill:#e9afaf;fill-opacity:1;fill-rule:evenodd;stroke:none;stroke-width:0.82910347px;stroke-linecap:butt;stroke-linejoin:miter;stroke-miterlimit:4;stroke-dasharray:none;stroke-dashoffset:0;stroke-opacity:1;color-rendering:auto;image-rendering:auto;shape-rendering:auto;text-rendering:auto;enable-background:accumulate"
       id="path4226-6-0"
       cx="187.22186"
       cy="794.71149"
       rx="4.7482014"
       ry="2.2446573" />
    <ellipse
       style="color:#000000;clip-rule:nonzero;display:inline;overflow:visible;visibility:visible;opacity:1;isolation:auto;mix-blend-mode:normal;color-interpolation:sRGB;color-interpolation-filters:linearRGB;solid-color:#000000;solid-opacity:1;fill:#e9afaf;fill-opacity:1;fill-rule:evenodd;stroke:none;stroke-width:0.82910347px;stroke-linecap:butt;stroke-linejoin:miter;stroke-miterlimit:4;stroke-dasharray:none;stroke-dashoffset:0;stroke-opacity:1;color-rendering:auto;image-rendering:auto;shape-rendering:auto;text-rendering:auto;enable-background:accumulate"
       id="path4226-6-1"
       cx="212.56509"
       cy="786.47968"
       rx="4.7482014"
       ry="2.2446573" />
    <ellipse
       style="color:#000000;clip-rule:nonzero;display:inline;overflow:visible;visibility:visible;opacity:1;isolation:auto;mix-blend-mode:normal;color-interpolation:sRGB;color-interpolation-filters:linearRGB;solid-color:#000000;solid-opacity:1;fill:#e9afaf;fill-opacity:1;fill-rule:evenodd;stroke:none;stroke-width:0.82910347px;stroke-linecap:butt;stroke-linejoin:miter;stroke-miterlimit:4;stroke-dasharray:none;stroke-dashoffset:0;stroke-opacity:1;color-rendering:auto;image-rendering:auto;shape-rendering:auto;text-rendering:auto;enable-background:accumulate"
       id="path4226-6-2"
       cx="160.84418"
       cy="783.73578"
       rx="4.7482014"
       ry="2.2446573" />
    <ellipse
       style="color:#000000;clip-rule:nonzero;display:inline;overflow:visible;visibility:visible;opacity:1;isolation:auto;mix-blend-mode:normal;color-interpolation:sRGB;color-interpolation-filters:linearRGB;solid-color:#000000;solid-opacity:1;fill:#e9afaf;fill-opacity:1;fill-rule:evenodd;stroke:none;stroke-width:0.82910347px;stroke-linecap:butt;stroke-linejoin:miter;stroke-miterlimit:4;stroke-dasharray:none;stroke-dashoffset:0;stroke-opacity:1;color-rendering:auto;image-rendering:auto;shape-rendering:auto;text-rendering:auto;enable-background:accumulate"
       id="path4226-6-16"
       cx="235.83955"
       cy="785.38214"
       rx="4.7482014"
       ry="2.2446573" />
    <ellipse
       style="color:#000000;clip-rule:nonzero;display:inline;overflow:visible;visibility:visible;opacity:1;isolation:auto;mix-blend-mode:normal;color-interpolation:sRGB;color-interpolation-filters:linearRGB;solid-color:#000000;solid-opacity:1;fill:#e9afaf;fill-opacity:1;fill-rule:evenodd;stroke:none;stroke-width:0.82910347px;stroke-linecap:butt;stroke-linejoin:miter;stroke-miterlimit:4;stroke-dasharray:none;stroke-dashoffset:0;stroke-opacity:1;color-rendering:auto;image-rendering:auto;shape-rendering:auto;text-rendering:auto;enable-background:accumulate"
       id="path4226-6-38"
       cx="260.66556"
       cy="787.30292"
       rx="4.7482014"
       ry="2.2446573" />
    <ellipse
       style="color:#000000;clip-rule:nonzero;display:inline;overflow:visible;visibility:visible;opacity:1;isolation:auto;mix-blend-mode:normal;color-interpolation:sRGB;color-interpolation-filters:linearRGB;solid-color:#000000;solid-opacity:1;fill:#e9afaf;fill-opacity:1;fill-rule:evenodd;stroke:none;stroke-width:0.82910347px;stroke-linecap:butt;stroke-linejoin:miter;stroke-miterlimit:4;stroke-dasharray:none;stroke-dashoffset:0;stroke-opacity:1;color-rendering:auto;image-rendering:auto;shape-rendering:auto;text-rendering:auto;enable-background:accumulate"
       id="path4226-6-4"
       cx="141.19023"
       cy="782.08942"
       rx="4.7482014"
       ry="2.2446573" />
    <ellipse
       style="color:#000000;clip-rule:nonzero;display:inline;overflow:visible;visibility:visible;opacity:1;isolation:auto;mix-blend-mode:normal;color-interpolation:sRGB;color-interpolation-filters:linearRGB;solid-color:#000000;solid-opacity:1;fill:#e9afaf;fill-opacity:1;fill-rule:evenodd;stroke:none;stroke-width:0.82910347px;stroke-linecap:butt;stroke-linejoin:miter;stroke-miterlimit:4;stroke-dasharray:none;stroke-dashoffset:0;stroke-opacity:1;color-rendering:auto;image-rendering:auto;shape-rendering:auto;text-rendering:auto;enable-background:accumulate"
       id="path4226-6-86"
       cx="283.64368"
       cy="775.77216"
       rx="4.7482014"
       ry="2.2446573" />
    <ellipse
       style="color:#000000;clip-rule:nonzero;display:inline;overflow:visible;visibility:visible;opacity:1;isolation:auto;mix-blend-mode:normal;color-interpolation:sRGB;color-interpolation-filters:linearRGB;solid-color:#000000;solid-opacity:1;fill:#e9afaf;fill-opacity:1;fill-rule:evenodd;stroke:none;stroke-width:0.82910347px;stroke-linecap:butt;stroke-linejoin:miter;stroke-miterlimit:4;stroke-dasharray:none;stroke-dashoffset:0;stroke-opacity:1;color-rendering:auto;image-rendering:auto;shape-rendering:auto;text-rendering:auto;enable-background:accumulate"
       id="path4226-6-03"
       cx="148.94838"
       cy="789.49805"
       rx="4.7482014"
       ry="2.2446573" />
    <ellipse
       style="color:#000000;clip-rule:nonzero;display:inline;overflow:visible;visibility:visible;opacity:1;isolation:auto;mix-blend-mode:normal;color-interpolation:sRGB;color-interpolation-filters:linearRGB;solid-color:#000000;solid-opacity:1;fill:#e9afaf;fill-opacity:1;fill-rule:evenodd;stroke:none;stroke-width:0.82910347px;stroke-linecap:butt;stroke-linejoin:miter;stroke-miterlimit:4;stroke-dasharray:none;stroke-dashoffset:0;stroke-opacity:1;color-rendering:auto;image-rendering:auto;shape-rendering:auto;text-rendering:auto;enable-background:accumulate"
       id="path4226-6-352"
       cx="200.1521"
       cy="791.96753"
       rx="4.7482014"
       ry="2.2446573" />
    <ellipse
       style="color:#000000;clip-rule:nonzero;display:inline;overflow:visible;visibility:visible;opacity:1;isolation:auto;mix-blend-mode:normal;color-interpolation:sRGB;color-interpolation-filters:linearRGB;solid-color:#000000;solid-opacity:1;fill:#e9afaf;fill-opacity:1;fill-rule:evenodd;stroke:none;stroke-width:0.82910347px;stroke-linecap:butt;stroke-linejoin:miter;stroke-miterlimit:4;stroke-dasharray:none;stroke-dashoffset:0;stroke-opacity:1;color-rendering:auto;image-rendering:auto;shape-rendering:auto;text-rendering:auto;enable-background:accumulate"
       id="path4226-6-30"
       cx="179.46373"
       cy="785.38214"
       rx="4.7482014"
       ry="2.2446573" />
    <ellipse
       style="color:#000000;clip-rule:nonzero;display:inline;overflow:visible;visibility:visible;opacity:1;isolation:auto;mix-blend-mode:normal;color-interpolation:sRGB;color-interpolation-filters:linearRGB;solid-color:#000000;solid-opacity:1;fill:#e9afaf;fill-opacity:1;fill-rule:evenodd;stroke:none;stroke-width:0.82910347px;stroke-linecap:butt;stroke-linejoin:miter;stroke-miterlimit:4;stroke-dasharray:none;stroke-dashoffset:0;stroke-opacity:1;color-rendering:auto;image-rendering:auto;shape-rendering:auto;text-rendering:auto;enable-background:accumulate"
       id="path4226-6-22"
       cx="254.45906"
       cy="783.18701"
       rx="4.7482014"
       ry="2.2446573" />
    <path
       sodipodi:nodetypes="scscs"
       inkscape:connector-curvature="0"
       id="rect5046"
       d="m 201.7879,748.81258 c 70.07797,1.93838 83.78729,15.42162 83.78729,15.42162 0,0 -19.05609,13.60987 -84.07052,13.6058 -67.37615,-0.004 -81.23813,-13.88904 -81.23813,-13.88904 0,0 29.85534,-16.56748 81.52136,-15.13838 z"
       style="opacity:1;fill:#b3b3b3;fill-opacity:1;stroke:none;stroke-width:2.5;stroke-miterlimit:4;stroke-dasharray:none;stroke-opacity:1" />
    <path
       sodipodi:nodetypes="cssssssscscsccssssssssssssssssssssssssssssssssssssssssssssssssscsssssssssssssssssssssssssssssssssssssssssssssssssssssscss"
       style="opacity:1;fill:#b3b3b3;fill-opacity:1;stroke:none;stroke-width:1;stroke-linecap:round;stroke-linejoin:bevel;stroke-miterlimit:4;stroke-dasharray:none;stroke-opacity:1"
       d="m 190.59655,798.26766 c -17.89752,-0.72952 -35.11747,-3.08642 -48.46927,-6.63398 -13.39208,-3.55827 -23.19173,-8.57248 -26.41108,-13.5138 -1.71802,-2.63694 -1.47081,-7.9396 0.43296,-9.28735 0.54972,-0.38917 1.0855,-0.24473 4.50303,1.21399 7.89915,3.37162 16.5388,5.73873 28.96372,7.93552 32.69051,5.77988 74.02294,5.7751 107.21547,-0.0124 12.16787,-2.1216 21.69868,-4.77116 29.67372,-8.24928 l 3.70783,-1.61707 0.94654,1.44117 c 1.25423,1.90964 1.28094,6.06484 0.0525,8.16381 -2.191,3.74356 -9.48774,8.32552 -18.05059,11.33477 -19.76623,6.94647 -51.49277,10.49114 -82.56481,9.2246 z m 0.76693,-2.02611 c -0.91127,1.29604 -10.39051,0.91554 -11.54787,0.0389 -1.83262,-1.38809 5.65883,-4.88266 3.38407,-3.59806 -1.93726,1.094 -1.72084,2.68718 0.50858,3.74398 1.54214,0.73102 1.76144,-2.33008 3.85409,-2.45521 1.71172,-0.10236 5.89505,-0.70767 5.32966,0.0965 z m 28.4465,0 c 2.19342,-1.35284 -2.29277,1.78448 -5.4598,1.08852 -3.49887,-0.76889 2.71313,-3.85674 2.71313,-1.97966 0,0.77354 -6.24875,0.44069 -4.89444,1.08267 1.52721,0.72393 -5.89193,-1.85387 -3.80264,-1.97881 1.71171,-0.10236 10.58935,2.31426 11.44375,1.78728 z m -15.51627,-3.01832 c 2.19342,-1.35285 -3.56654,4.44149 -6.73358,3.74553 -3.49887,-0.76889 -2.6367,-7.2384 -2.6367,-5.36132 0,0.77353 0.37485,1.16533 1.72916,1.80731 1.52722,0.72393 2.00546,0.80315 4.09475,0.67821 1.71171,-0.10236 2.69197,-0.34276 3.54637,-0.86973 z m 31.03255,-0.54879 c 2.19342,-1.35285 -5.34982,3.71685 -8.51685,3.02089 -3.49887,-0.76889 -0.85343,-6.51376 -0.85343,-4.63668 0,0.77354 0.37486,1.16533 1.72917,1.80731 1.52721,0.72393 2.00545,0.80315 4.09474,0.67821 1.71172,-0.10235 2.69197,-0.34276 3.54637,-0.86973 z m 14.48187,-0.54879 c 2.19341,-1.35284 -4.84032,3.95839 -8.00737,3.26243 -3.49887,-0.76888 -1.36291,-6.7553 -1.36291,-4.87821 0,0.77353 0.37485,1.16533 1.72916,1.80731 1.5272,0.72393 2.00545,0.80314 4.09474,0.6782 1.71171,-0.10235 2.69197,-0.34276 3.54638,-0.86973 z M 153.09,790.75368 c 2.19341,-1.35284 -1.78326,2.02602 -4.95029,1.33006 -3.49889,-0.76888 -5.439,-0.71662 -5.439,1.16045 0,0.77354 1.39386,-2.94097 2.74817,-2.29899 1.52721,0.72394 2.00545,0.80315 4.09475,0.67822 1.7117,-0.10236 2.69197,-0.34277 3.54637,-0.86974 z m 17.0679,-0.82318 c 2.19342,-1.35284 -3.05704,3.9584 -6.22407,3.26243 -3.49888,-0.76888 -4.41999,-7.47994 -4.41999,-5.60286 0,0.77354 3.43191,-0.52549 4.78622,0.11648 1.52722,0.72394 0.22218,3.21862 2.31147,3.09368 1.71171,-0.10235 2.69197,-0.34275 3.54637,-0.86973 z m 95.6683,-4.51208 c 1.25575,-0.77451 0.51631,1.11144 -0.37076,0.23208 -0.66502,-0.65922 -17.9205,3.23263 -19.59901,3.23263 -1.18139,0 12.5064,-4.18207 12.76328,-5.19808 0.33397,-1.321 -1.91742,6.9382 -4.1856,6.43976 -3.51821,-0.77313 -5.20371,-9.18052 -5.20371,-7.29797 0,1.31164 2.49921,2.56447 5.11574,2.56447 1.70773,0 8.89936,-6.24812 8.41713,-5.5752 -0.71383,0.99608 -7.26429,8.2057 -5.40591,9.03531 1.35726,0.60589 -17.66045,-3.89607 -15.68122,-4.01443 1.67957,-0.10043 23.30043,1.10546 24.15006,0.58143 z m -49.11947,2.31693 c 2.19342,-1.35284 -5.85933,3.95839 -9.02637,3.26243 -3.49887,-0.76888 -0.34391,-6.75529 -0.34391,-4.87822 0,0.77354 0.37485,1.16534 1.72916,1.80731 1.52722,0.72394 2.00546,0.80315 4.09475,0.67822 1.71172,-0.10236 2.69197,-0.34276 3.54637,-0.86974 z m -21.72279,-0.82318 c 2.19342,-1.35284 -5.09506,3.71685 -8.2621,3.02089 -3.49887,-0.76889 -1.10818,-6.51376 -1.10818,-4.63667 0,0.77353 0.37486,1.16533 1.72917,1.80731 1.52721,0.72393 2.00545,0.80314 4.09474,0.6782 1.71172,-0.10235 2.69197,-0.34275 3.54637,-0.86973 z m -11.3786,-0.27439 c 2.19341,-1.35284 -3.56654,5.40768 -6.73357,4.71172 -3.49888,-0.76889 -2.63671,-8.20459 -2.63671,-6.32751 0,0.77354 0.37486,1.16533 1.72917,1.80731 1.5272,0.72394 2.00544,0.80315 4.09474,0.67821 1.71171,-0.10236 2.69197,-0.34276 3.54637,-0.86973 z m 56.37581,0 c 2.19341,-1.35284 -4.33081,3.23375 -7.49785,2.53779 -3.49887,-0.76888 -1.87243,-6.03066 -1.87243,-4.15358 0,0.77354 0.37485,1.16533 1.72916,1.80731 1.52721,0.72394 2.00545,0.80315 4.09475,0.67821 1.71171,-0.10236 2.69196,-0.34276 3.54637,-0.86973 z m -74.99534,-1.64636 c 2.19341,-1.35285 -4.84032,3.95839 -8.00735,3.26243 -3.49889,-0.76888 -1.36293,-6.7553 -1.36293,-4.87822 0,0.77353 5.97945,5.03008 7.33376,5.67206 1.5272,0.72394 -14.04407,-0.64613 -11.95477,-0.77107 1.71171,-0.10236 13.13689,-2.75823 13.99129,-3.2852 z m -19.65394,-1.64637 c 2.19341,-1.35284 -4.07607,4.92459 -7.2431,4.22863 -3.49887,-0.76889 -2.1272,-7.72149 -2.1272,-5.84441 0,0.77353 0.37486,1.16533 1.72917,1.80731 1.52721,0.72393 2.00546,0.80315 4.09475,0.67821 1.71171,-0.10236 2.69197,-0.34276 3.54638,-0.86974 z m 126.71625,-0.82318 c 2.19341,-1.35284 -4.33081,6.61541 -7.49785,5.91945 -3.49887,-0.76888 -6.71275,-8.20457 -6.71275,-6.3275 0,0.77354 7.2532,-2.45788 8.60752,-1.8159 1.52721,0.72394 -0.0326,3.21862 2.05671,3.09369 1.71171,-0.10236 2.69196,-0.34276 3.54637,-0.86974 z m -144.81859,-2.46954 c 2.19342,-1.35284 -2.03801,2.26756 -5.20505,1.5716 -3.49888,-0.76888 8.06298,1.4573 8.06298,3.33439 0,0.77353 -11.85335,-5.35644 -10.49904,-4.71447 1.5272,0.72394 2.00546,0.80315 4.09475,0.67821 1.71171,-0.10235 2.69196,-0.34275 3.54636,-0.86973 z m 160.27436,-3.00259 c 2.12671,-1.12828 -41.56969,11.03452 -43.38343,9.89097 -3.17281,-2.00045 46.7635,-12.12479 46.7635,-9.63239 0,1.57516 -10.36089,0.62194 -6.87124,0.65697 1.30628,0.0131 2.16539,-0.21219 3.49117,-0.91555 z"
       id="path4512"
       inkscape:connector-curvature="0" />
    <g
       id="g4482"
       transform="matrix(3.7267444,0,0,2.8559402,-549.02344,-1267.3566)">
      <path
         style="fill:#ffffff;fill-opacity:1;fill-rule:evenodd;stroke:#000000;stroke-width:0.10583255px;stroke-linecap:butt;stroke-linejoin:miter;stroke-miterlimit:4;stroke-dasharray:none;stroke-opacity:1"
         d="m 189.99694,709.57703 c 0,0.29633 -0.254,0.52916 -0.5715,0.52916 -0.33867,0 -0.59267,-0.23283 -0.59267,-0.52916 0,-0.27516 0.254,-0.508 0.59267,-0.508 0.3175,0 0.5715,0.23284 0.5715,0.508 z"
         id="path4405"
         inkscape:connector-curvature="0" />
      <path
         style="fill:#ffffff;fill-opacity:1;fill-rule:evenodd;stroke:#000000;stroke-width:0.10583255px;stroke-linecap:butt;stroke-linejoin:miter;stroke-miterlimit:4;stroke-dasharray:none;stroke-opacity:1"
         d="m 199.28905,711.43968 c 0,0.29634 -0.254,0.55034 -0.5715,0.55034 -0.3175,0 -0.5715,-0.254 -0.5715,-0.55034 0,-0.3175 0.254,-0.55033 0.5715,-0.55033 0.3175,0 0.5715,0.23283 0.5715,0.55033 z"
         id="path4407"
         inkscape:connector-curvature="0" />
      <path
         style="fill:#ffffff;fill-opacity:1;fill-rule:evenodd;stroke:#000000;stroke-width:0.19049859px;stroke-linecap:butt;stroke-linejoin:miter;stroke-miterlimit:4;stroke-dasharray:none;stroke-opacity:1"
         d="m 215.43904,710.91052 c 0,0.35983 -0.61383,0.635 -1.35466,0.635 -0.74084,0 -1.3335,-0.27517 -1.3335,-0.635 0,-0.33867 0.59266,-0.63499 1.3335,-0.63499 0.74083,0 1.35466,0.29632 1.35466,0.63499 z"
         id="path4409"
         inkscape:connector-curvature="0" />
      <path
         style="fill:#ffffff;fill-opacity:1;fill-rule:evenodd;stroke:#000000;stroke-width:0.19049859px;stroke-linecap:butt;stroke-linejoin:miter;stroke-miterlimit:4;stroke-dasharray:none;stroke-opacity:1"
         d="m 207.12066,712.70968 c 0,0.33867 -0.61384,0.61384 -1.35467,0.61384 -0.74083,0 -1.3335,-0.27517 -1.3335,-0.61384 0,-0.35983 0.59267,-0.635 1.3335,-0.635 0.74083,0 1.35467,0.27517 1.35467,0.635 z"
         id="path4411"
         inkscape:connector-curvature="0" />
      <path
         style="fill:#ffffff;fill-opacity:1;fill-rule:evenodd;stroke:#000000;stroke-width:0.19049859px;stroke-linecap:butt;stroke-linejoin:miter;stroke-miterlimit:4;stroke-dasharray:none;stroke-opacity:1"
         d="m 185.36147,711.22802 c 0,0.35983 -0.59266,0.635 -1.33349,0.635 -0.74083,0 -1.35465,-0.27517 -1.35465,-0.635 0,-0.33867 0.61382,-0.635 1.35465,-0.635 0.74083,0 1.33349,0.29633 1.33349,0.635 z"
         id="path4413"
         inkscape:connector-curvature="0" />
      <path
         style="fill:#ffffff;fill-opacity:1;fill-rule:evenodd;stroke:#000000;stroke-width:0.14816557px;stroke-linecap:butt;stroke-linejoin:miter;stroke-miterlimit:4;stroke-dasharray:none;stroke-opacity:1"
         d="m 199.01388,714.93216 c 0,0.29633 -0.40217,0.52916 -0.889,0.52916 -0.48683,0 -0.889,-0.23283 -0.889,-0.52916 0,-0.29634 0.40217,-0.52917 0.889,-0.52917 0.48683,0 0.889,0.23283 0.889,0.52917 z"
         id="path4415"
         inkscape:connector-curvature="0" />
      <path
         style="fill:#ffffff;fill-opacity:1;fill-rule:evenodd;stroke:#000000;stroke-width:0.19049859px;stroke-linecap:butt;stroke-linejoin:miter;stroke-miterlimit:4;stroke-dasharray:none;stroke-opacity:1"
         d="m 201.99835,708.51871 c 0,0.35983 -0.59266,0.63499 -1.3335,0.63499 -0.74083,0 -1.33347,-0.27516 -1.33347,-0.63499 0,-0.35983 0.59264,-0.635 1.33347,-0.635 0.74084,0 1.3335,0.27517 1.3335,0.635 z"
         id="path4417"
         inkscape:connector-curvature="0" />
      <path
         style="fill:#ffffff;fill-opacity:1;fill-rule:evenodd;stroke:#000000;stroke-width:0.19049859px;stroke-linecap:butt;stroke-linejoin:miter;stroke-miterlimit:4;stroke-dasharray:none;stroke-opacity:1"
         d="m 193.23541,711.27035 c 0,0.33867 -0.59267,0.635 -1.33347,0.635 -0.74084,0 -1.35467,-0.29633 -1.35467,-0.635 0,-0.35983 0.61383,-0.635 1.35467,-0.635 0.7408,0 1.33347,0.27517 1.33347,0.635 z"
         id="path4419"
         inkscape:connector-curvature="0" />
      <path
         style="fill:#ffffff;fill-opacity:1;fill-rule:evenodd;stroke:#000000;stroke-width:0.14816557px;stroke-linecap:butt;stroke-linejoin:miter;stroke-miterlimit:4;stroke-dasharray:none;stroke-opacity:1"
         d="m 208.6023,714.57232 c 0,0.3175 -0.35984,0.5715 -0.80434,0.5715 -0.44447,0 -0.8043,-0.254 -0.8043,-0.5715 0,-0.3175 0.35983,-0.5715 0.8043,-0.5715 0.4445,0 0.80434,0.254 0.80434,0.5715 z"
         id="path4421"
         inkscape:connector-curvature="0" />
      <path
         style="fill:#ffffff;fill-opacity:1;fill-rule:evenodd;stroke:#000000;stroke-width:0.19049859px;stroke-linecap:butt;stroke-linejoin:miter;stroke-miterlimit:4;stroke-dasharray:none;stroke-opacity:1"
         d="m 220.09571,711.77835 c 0,0.33867 -0.59267,0.635 -1.3335,0.635 -0.74083,0 -1.3335,-0.29633 -1.3335,-0.635 0,-0.35983 0.59267,-0.635 1.3335,-0.635 0.74083,0 1.3335,0.27517 1.3335,0.635 z"
         id="path4423"
         inkscape:connector-curvature="0" />
      <path
         style="fill:#ffffff;fill-opacity:1;fill-rule:evenodd;stroke:#000000;stroke-width:0.19049859px;stroke-linecap:butt;stroke-linejoin:miter;stroke-miterlimit:4;stroke-dasharray:none;stroke-opacity:1"
         d="m 188.57877,712.30752 c 0,0.35983 -0.61381,0.635 -1.35464,0.635 -0.74083,0 -1.3335,-0.27517 -1.3335,-0.635 0,-0.33867 0.59267,-0.635 1.3335,-0.635 0.74083,0 1.35464,0.29633 1.35464,0.635 z"
         id="path4425"
         inkscape:connector-curvature="0" />
      <path
         style="fill:#ffffff;fill-opacity:1;fill-rule:evenodd;stroke:#000000;stroke-width:0.16933207px;stroke-linecap:butt;stroke-linejoin:miter;stroke-miterlimit:4;stroke-dasharray:none;stroke-opacity:1"
         d="m 196.83371,714.17016 c 0,0.35983 -0.48683,0.65616 -1.10064,0.65616 -0.61383,0 -1.12183,-0.29633 -1.12183,-0.65616 0,-0.33867 0.508,-0.635 1.12183,-0.635 0.61381,0 1.10064,0.29633 1.10064,0.635 z"
         id="path4427"
         inkscape:connector-curvature="0" />
      <path
         style="fill:#ffffff;fill-opacity:1;fill-rule:evenodd;stroke:#000000;stroke-width:0.19049859px;stroke-linecap:butt;stroke-linejoin:miter;stroke-miterlimit:4;stroke-dasharray:none;stroke-opacity:1"
         d="m 203.45885,713.70449 c 0,0.35983 -0.59266,0.635 -1.3335,0.635 -0.74083,0 -1.3335,-0.27517 -1.3335,-0.635 0,-0.33864 0.59267,-0.63497 1.3335,-0.63497 0.74084,0 1.3335,0.29633 1.3335,0.63497 z"
         id="path4429"
         inkscape:connector-curvature="0" />
      <path
         style="fill:#ffffff;fill-opacity:1;fill-rule:evenodd;stroke:#000000;stroke-width:0.14816557px;stroke-linecap:butt;stroke-linejoin:miter;stroke-miterlimit:4;stroke-dasharray:none;stroke-opacity:1"
         d="m 213.76688,713.36585 c 0,0.38097 -0.35984,0.69847 -0.8255,0.69847 -0.46567,0 -0.84667,-0.3175 -0.84667,-0.69847 0,-0.381 0.381,-0.67733 0.84667,-0.67733 0.46566,0 0.8255,0.29633 0.8255,0.67733 z"
         id="path4431"
         inkscape:connector-curvature="0" />
      <path
         style="fill:#ffffff;fill-opacity:1;fill-rule:evenodd;stroke:#000000;stroke-width:0.19049859px;stroke-linecap:butt;stroke-linejoin:miter;stroke-miterlimit:4;stroke-dasharray:none;stroke-opacity:1"
         d="m 197.19355,709.45003 c 0,0.33867 -0.61384,0.635 -1.35464,0.635 -0.74084,0 -1.3335,-0.29633 -1.3335,-0.635 0,-0.35983 0.59266,-0.63499 1.3335,-0.63499 0.7408,0 1.35464,0.27516 1.35464,0.63499 z"
         id="path4433"
         inkscape:connector-curvature="0" />
      <path
         style="fill:#ffffff;fill-opacity:1;fill-rule:evenodd;stroke:#000000;stroke-width:0.19049859px;stroke-linecap:butt;stroke-linejoin:miter;stroke-miterlimit:4;stroke-dasharray:none;stroke-opacity:1"
         d="m 197.02421,712.09585 c 0,0.35983 -0.59266,0.635 -1.33347,0.635 -0.74083,0 -1.3335,-0.27517 -1.3335,-0.635 0,-0.33867 0.59267,-0.635 1.3335,-0.635 0.74081,0 1.33347,0.29633 1.33347,0.635 z"
         id="path4435"
         inkscape:connector-curvature="0" />
      <path
         style="fill:#ffffff;fill-opacity:1;fill-rule:evenodd;stroke:#000000;stroke-width:0.14816557px;stroke-linecap:butt;stroke-linejoin:miter;stroke-miterlimit:4;stroke-dasharray:none;stroke-opacity:1"
         d="m 203.45885,710.76235 c 0,0.35983 -0.381,0.65617 -0.86783,0.65617 -0.48683,0 -0.889,-0.29634 -0.889,-0.65617 0,-0.35982 0.40217,-0.65616 0.889,-0.65616 0.48683,0 0.86783,0.29634 0.86783,0.65616 z"
         id="path4437"
         inkscape:connector-curvature="0" />
      <path
         style="fill:#ffffff;fill-opacity:1;fill-rule:evenodd;stroke:#000000;stroke-width:0.14816557px;stroke-linecap:butt;stroke-linejoin:miter;stroke-miterlimit:4;stroke-dasharray:none;stroke-opacity:1"
         d="m 215.60838,708.56104 c 0,0.40216 -0.3175,0.74083 -0.71967,0.74083 -0.40217,0 -0.71967,-0.33867 -0.71967,-0.74083 0,-0.40216 0.3175,-0.74083 0.71967,-0.74083 0.40217,0 0.71967,0.33867 0.71967,0.74083 z"
         id="path4439"
         inkscape:connector-curvature="0" />
      <path
         style="fill:#ffffff;fill-opacity:1;fill-rule:evenodd;stroke:#000000;stroke-width:0.10583255px;stroke-linecap:butt;stroke-linejoin:miter;stroke-miterlimit:4;stroke-dasharray:none;stroke-opacity:1"
         d="m 184.91698,713.02718 c 0,0.23284 -0.27517,0.42331 -0.59267,0.42331 -0.3175,0 -0.57149,-0.19047 -0.57149,-0.42331 0,-0.254 0.25399,-0.4445 0.57149,-0.4445 0.3175,0 0.59267,0.1905 0.59267,0.4445 z"
         id="path4441"
         inkscape:connector-curvature="0" />
      <path
         style="fill:#ffffff;fill-opacity:1;fill-rule:evenodd;stroke:#000000;stroke-width:0.14816557px;stroke-linecap:butt;stroke-linejoin:miter;stroke-miterlimit:4;stroke-dasharray:none;stroke-opacity:1"
         d="m 216.49738,712.94252 c 0,0.40216 -0.35984,0.71964 -0.80434,0.71964 -0.4445,0 -0.80433,-0.31748 -0.80433,-0.71964 0,-0.40217 0.35983,-0.74084 0.80433,-0.74084 0.4445,0 0.80434,0.33867 0.80434,0.74084 z"
         id="path4443"
         inkscape:connector-curvature="0" />
      <path
         style="fill:#ffffff;fill-opacity:1;fill-rule:evenodd;stroke:#000000;stroke-width:0.19049859px;stroke-linecap:butt;stroke-linejoin:miter;stroke-miterlimit:4;stroke-dasharray:none;stroke-opacity:1"
         d="m 205.93532,708.43404 c 0,0.35983 -0.59266,0.63499 -1.3335,0.63499 -0.74083,0 -1.33347,-0.27516 -1.33347,-0.63499 0,-0.33866 0.59264,-0.635 1.33347,-0.635 0.74084,0 1.3335,0.29634 1.3335,0.635 z"
         id="path4445"
         inkscape:connector-curvature="0" />
      <path
         style="fill:#ffffff;fill-opacity:1;fill-rule:evenodd;stroke:#000000;stroke-width:0.19049859px;stroke-linecap:butt;stroke-linejoin:miter;stroke-miterlimit:4;stroke-dasharray:none;stroke-opacity:1"
         d="m 211.48088,713.09068 c 0,0.35981 -0.59267,0.63498 -1.33342,0.63498 -0.74083,0 -1.3335,-0.27517 -1.3335,-0.63498 0,-0.33866 0.59267,-0.61383 1.3335,-0.61383 0.74075,0 1.33342,0.27517 1.33342,0.61383 z"
         id="path4447"
         inkscape:connector-curvature="0" />
      <path
         style="fill:#ffffff;fill-opacity:1;fill-rule:evenodd;stroke:#000000;stroke-width:0.19049859px;stroke-linecap:butt;stroke-linejoin:miter;stroke-miterlimit:4;stroke-dasharray:none;stroke-opacity:1"
         d="m 192.43107,713.45049 c 0,0.35983 -0.59263,0.635 -1.33347,0.635 -0.74083,0 -1.3335,-0.27517 -1.3335,-0.635 0,-0.33864 0.59267,-0.63497 1.3335,-0.63497 0.74084,0 1.33347,0.29633 1.33347,0.63497 z"
         id="path4449"
         inkscape:connector-curvature="0" />
      <path
         style="fill:#ffffff;fill-opacity:1;fill-rule:evenodd;stroke:#000000;stroke-width:0.19049859px;stroke-linecap:butt;stroke-linejoin:miter;stroke-miterlimit:4;stroke-dasharray:none;stroke-opacity:1"
         d="m 206.52799,714.48766 c 0,0.33866 -0.59267,0.635 -1.3335,0.635 -0.74083,0 -1.35467,-0.29634 -1.35467,-0.635 0,-0.35984 0.61384,-0.635 1.35467,-0.635 0.74083,0 1.3335,0.27516 1.3335,0.635 z"
         id="path4451"
         inkscape:connector-curvature="0" />
    </g>
  </g>
</svg>
