<?xml version="1.0" encoding="UTF-8" standalone="no"?>
<!-- Created with Inkscape (http://www.inkscape.org/) -->

<svg
   xmlns:dc="http://purl.org/dc/elements/1.1/"
   xmlns:cc="http://creativecommons.org/ns#"
   xmlns:rdf="http://www.w3.org/1999/02/22-rdf-syntax-ns#"
   xmlns:svg="http://www.w3.org/2000/svg"
   xmlns="http://www.w3.org/2000/svg"
   xmlns:sodipodi="http://sodipodi.sourceforge.net/DTD/sodipodi-0.dtd"
   xmlns:inkscape="http://www.inkscape.org/namespaces/inkscape"
   width="7.3811865mm"
   height="247.97523mm"
   viewBox="0 0 26.15381 878.6524"
   id="svg2"
   version="1.1"
   inkscape:version="0.91 r13725"
   sodipodi:docname="thermometer.svg">
  <defs
     id="defs4" />
  <sodipodi:namedview
     id="base"
     pagecolor="#ffffff"
     bordercolor="#666666"
     borderopacity="1.0"
     inkscape:pageopacity="0.0"
     inkscape:pageshadow="2"
     inkscape:zoom="0.49497475"
     inkscape:cx="-668.28722"
     inkscape:cy="482.22868"
     inkscape:document-units="px"
     inkscape:current-layer="layer1"
     showgrid="false"
     inkscape:window-width="1600"
     inkscape:window-height="837"
     inkscape:window-x="-8"
     inkscape:window-y="-8"
     inkscape:window-maximized="1"
     fit-margin-top="0"
     fit-margin-left="0"
     fit-margin-right="0"
     fit-margin-bottom="0" />
  <metadata
     id="metadata7">
    <rdf:RDF>
      <cc:Work
         rdf:about="">
        <dc:format>image/svg+xml</dc:format>
        <dc:type
           rdf:resource="http://purl.org/dc/dcmitype/StillImage" />
        <dc:title></dc:title>
      </cc:Work>
    </rdf:RDF>
  </metadata>
  <g
     inkscape:label="Layer 1"
     inkscape:groupmode="layer"
     id="layer1"
     transform="translate(-355.01958,-43.959441)">
    <text
       xml:space="preserve"
       style="font-style:normal;font-weight:normal;font-size:10px;line-height:125%;font-family:sans-serif;letter-spacing:0px;word-spacing:0px;fill:#000000;fill-opacity:1;stroke:none;stroke-width:1px;stroke-linecap:butt;stroke-linejoin:miter;stroke-opacity:1"
       x="285"
       y="790.93365"
       id="text4151"
       sodipodi:linespacing="125%"><tspan
         sodipodi:role="line"
         id="tspan4153"
         x="285"
         y="790.93365" /></text>
    <text
       xml:space="preserve"
       style="font-style:normal;font-weight:normal;font-size:10px;line-height:125%;font-family:sans-serif;letter-spacing:0px;word-spacing:0px;fill:#000000;fill-opacity:1;stroke:none;stroke-width:1px;stroke-linecap:butt;stroke-linejoin:miter;stroke-opacity:1"
       x="457.59909"
       y="789.72253"
       id="text4161"
       sodipodi:linespacing="125%"><tspan
         sodipodi:role="line"
         id="tspan4163"
         x="457.59909"
         y="789.72253" /></text>
    <text
       xml:space="preserve"
       style="font-style:normal;font-weight:normal;font-size:10px;line-height:125%;font-family:sans-serif;letter-spacing:0px;word-spacing:0px;fill:#000000;fill-opacity:1;stroke:none;stroke-width:1px;stroke-linecap:butt;stroke-linejoin:miter;stroke-opacity:1"
       x="286.88333"
       y="512.43567"
       id="text4184"
       sodipodi:linespacing="125%"><tspan
         sodipodi:role="line"
         id="tspan4186"
         x="286.88333"
         y="512.43567"></tspan></text>
    <g
       id="g4299"
       transform="translate(81.428572,17.857143)">
      <path
         sodipodi:nodetypes="ssscssscsss"
         inkscape:connector-curvature="0"
         id="rect4138"
         d="m 286.63309,55.16138 c -3.52281,0 -6.35843,5.547391 -6.35843,12.437936 l 0,796.658924 c 0,4.27337 0.1914,8.02838 1.86034,10.26564 l 0.90006,18.04032 c 0.18558,3.71961 1.56834,10.924 3.51645,10.924 1.94811,0 3.30797,-7.2056 3.51644,-10.924 l 1.00005,-17.83716 c 1.75957,-2.20758 1.92353,-6.05929 1.92353,-10.4688 l 0,-796.658924 c 0,-6.890545 -2.83563,-12.437936 -6.35844,-12.437936 z"
         style="opacity:1;fill:#ffff35;fill-opacity:1;stroke:#000000;stroke-width:0.83447719;stroke-opacity:1" />
      <path
         id="rect4147"
         d="m 286.5918,563.00781 c -0.54211,0 -0.97852,19.6464 -0.97852,44.05078 l 0,230.24219 c 0,16.71772 0.20649,31.02784 0.50977,38.49414 -2.09834,0.18073 -3.73828,1.87121 -3.73828,3.9668 l 0,20.91406 c 0,2.21685 1.82921,4.00195 4.10156,4.00195 2.27235,0 4.10156,-1.7851 4.10156,-4.00195 l 0,-20.91406 c 0,-2.02535 -1.5326,-3.67285 -3.5293,-3.94531 0.30376,-7.45994 0.51172,-21.78176 0.51172,-38.51563 l 0,-230.24219 c 0,-24.40438 -0.4364,-44.05078 -0.97851,-44.05078 z"
         style="opacity:1;fill:#ff1500;fill-opacity:1;stroke:#000000;stroke-width:0.154;stroke-miterlimit:4;stroke-dasharray:none;stroke-opacity:1"
         inkscape:connector-curvature="0" />
      <g
         id="text4155"
         style="font-style:normal;font-weight:normal;font-size:8.68932343px;line-height:125%;font-family:sans-serif;letter-spacing:0px;word-spacing:0px;fill:#000000;fill-opacity:1;stroke:none;stroke-width:1px;stroke-linecap:butt;stroke-linejoin:miter;stroke-opacity:1"
         transform="scale(0.93106732,1.0740362)">
        <path
           id="path4293"
           d="m 302.74538,754.39193 -2.64753,0 0,-0.76796 2.64753,0 0,0.76796 z"
           inkscape:connector-curvature="0" />
        <path
           id="path4295"
           d="m 308.00225,756.77216 -3.41972,0 0,-0.64491 1.31528,0 0,-4.23435 -1.31528,0 0,-0.57703 q 0.2673,0 0.57278,-0.0424 0.30549,-0.0467 0.46247,-0.13152 0.19517,-0.10608 0.30548,-0.2673 0.11456,-0.16547 0.13153,-0.44126 l 0.65764,0 0,5.69389 1.28982,0 0,0.64491 z"
           inkscape:connector-curvature="0" />
        <path
           id="path4297"
           d="m 313.88706,753.61124 q 0,1.70138 -0.53459,2.49903 -0.53036,0.79341 -1.65047,0.79341 -1.13708,0 -1.66319,-0.80613 -0.52187,-0.80614 -0.52187,-2.47782 0,-1.6844 0.53036,-2.4863 0.53035,-0.80614 1.6547,-0.80614 1.13708,0 1.65895,0.81887 0.52611,0.81462 0.52611,2.46508 z m -1.11586,1.92625 q 0.1485,-0.34367 0.19941,-0.80614 0.0552,-0.46671 0.0552,-1.12011 0,-0.64491 -0.0552,-1.1201 -0.0509,-0.4752 -0.20365,-0.80614 -0.1485,-0.3267 -0.40732,-0.49217 -0.25457,-0.16547 -0.65764,-0.16547 -0.39882,0 -0.66188,0.16547 -0.25881,0.16547 -0.41155,0.50065 -0.14426,0.31397 -0.19942,0.81887 -0.0509,0.5049 -0.0509,1.10738 0,0.66188 0.0467,1.10738 0.0467,0.4455 0.19941,0.79765 0.14002,0.33094 0.39459,0.5049 0.25881,0.17396 0.68309,0.17396 0.39883,0 0.66189,-0.16547 0.26305,-0.16547 0.40731,-0.50066 z"
           inkscape:connector-curvature="0" />
      </g>
      <path
         id="rect4165"
         d="m 281.1779,26.491028 10.98003,0 c 3.98778,0 7.19816,9.037888 7.19816,20.264322 0,11.226435 -3.21038,20.264322 -7.19816,20.264322 l -10.98003,0 c -3.98778,0 -7.19816,-9.037887 -7.19816,-20.264322 0,-11.226434 3.21038,-20.264322 7.19816,-20.264322 z"
         style="opacity:1;fill:#e6e6e6;fill-opacity:1;stroke:#000000;stroke-width:0.77746034;stroke-miterlimit:4;stroke-dasharray:none;stroke-opacity:1"
         inkscape:connector-curvature="0" />
      <g
         id="text4172"
         style="font-style:normal;font-weight:normal;font-size:8.35174847px;line-height:125%;font-family:sans-serif;letter-spacing:0px;word-spacing:0px;fill:#000000;fill-opacity:1;stroke:none;stroke-width:1px;stroke-linecap:butt;stroke-linejoin:miter;stroke-opacity:1"
         transform="scale(0.83517517,1.1973536)">
        <path
           id="path4285"
           d="m 338.61789,618.04092 -2.54468,0 0,-0.73812 2.54468,0 0,0.73812 z"
           inkscape:connector-curvature="0" />
        <path
           id="path4287"
           d="m 344.01716,620.32867 -4.11062,0 0,-0.8523 q 0.42819,-0.36702 0.85638,-0.73404 0.43226,-0.36702 0.80336,-0.72996 0.78298,-0.75851 1.07252,-1.20301 0.28954,-0.44858 0.28954,-0.96649 0,-0.47305 -0.31401,-0.73812 -0.30993,-0.26914 -0.86861,-0.26914 -0.3711,0 -0.80337,0.13049 -0.43227,0.1305 -0.84415,0.39965 l -0.0408,0 0,-0.85638 q 0.28954,-0.14273 0.77074,-0.261 0.48529,-0.11826 0.93795,-0.11826 0.93386,0 1.464,0.45266 0.53014,0.44858 0.53014,1.21932 0,0.34663 -0.0897,0.6484 -0.0856,0.2977 -0.25691,0.56685 -0.15904,0.25283 -0.37518,0.49751 -0.21205,0.24468 -0.5179,0.54238 -0.43635,0.42819 -0.90124,0.83191 -0.4649,0.39964 -0.86862,0.7422 l 3.26648,0 0,0.69733 z"
           inkscape:connector-curvature="0" />
        <path
           id="path4289"
           d="m 349.32672,617.29056 q 0,1.63528 -0.51383,2.40195 -0.50975,0.76258 -1.58634,0.76258 -1.0929,0 -1.59858,-0.77482 -0.50159,-0.77482 -0.50159,-2.38155 0,-1.61897 0.50975,-2.38971 0.50975,-0.77482 1.59042,-0.77482 1.0929,0 1.5945,0.78705 0.50567,0.78298 0.50567,2.36932 z m -1.07251,1.85142 q 0.14273,-0.33032 0.19166,-0.77482 0.053,-0.44858 0.053,-1.0766 0,-0.61985 -0.053,-1.07659 -0.0489,-0.45674 -0.19574,-0.77482 -0.14273,-0.31401 -0.39149,-0.47305 -0.24468,-0.15904 -0.63209,-0.15904 -0.38333,0 -0.63617,0.15904 -0.24876,0.15904 -0.39556,0.48121 -0.13866,0.30177 -0.19167,0.78705 -0.0489,0.48528 -0.0489,1.06436 0,0.63617 0.0449,1.06436 0.0449,0.42819 0.19167,0.76666 0.13457,0.31809 0.37925,0.48528 0.24876,0.1672 0.65656,0.1672 0.38333,0 0.63617,-0.15904 0.25283,-0.15904 0.39149,-0.4812 z"
           inkscape:connector-curvature="0" />
      </g>
      <g
         id="text4176"
         style="font-style:normal;font-weight:normal;font-size:8.08335495px;line-height:125%;font-family:sans-serif;letter-spacing:0px;word-spacing:0px;fill:#000000;fill-opacity:1;stroke:none;stroke-width:1px;stroke-linecap:butt;stroke-linejoin:miter;stroke-opacity:1"
         transform="scale(0.80833581,1.2371096)">
        <path
           id="path4278"
           d="m 350.71546,533.31866 -2.46289,0 0,-0.7144 2.46289,0 0,0.7144 z"
           inkscape:connector-curvature="0" />
        <path
           id="path4280"
           d="m 355.42417,532.70293 q 0.18946,0.16972 0.31181,0.42627 0.12236,0.25656 0.12236,0.66309 0,0.40259 -0.14604,0.73808 -0.14604,0.33549 -0.41048,0.58415 -0.29602,0.27629 -0.69861,0.41048 -0.39864,0.13025 -0.87622,0.13025 -0.48943,0 -0.96306,-0.11841 -0.47363,-0.11446 -0.77755,-0.2526 l 0,-0.82491 0.0592,0 q 0.3355,0.22103 0.78939,0.36706 0.4539,0.14604 0.87623,0.14604 0.24866,0 0.52889,-0.0829 0.28023,-0.0829 0.4539,-0.24471 0.18156,-0.17366 0.26839,-0.38285 0.0908,-0.20919 0.0908,-0.52889 0,-0.31576 -0.10262,-0.521 -0.0987,-0.20919 -0.27629,-0.3276 -0.17761,-0.12235 -0.43021,-0.16577 -0.25261,-0.0474 -0.54468,-0.0474 l -0.35523,0 0,-0.6552 0.27629,0 q 0.59993,0 0.95516,-0.24865 0.35917,-0.25261 0.35917,-0.73414 0,-0.21313 -0.0908,-0.37101 -0.0908,-0.16182 -0.2526,-0.26444 -0.16972,-0.10263 -0.36312,-0.1421 -0.1934,-0.0395 -0.43811,-0.0395 -0.37496,0 -0.79729,0.13419 -0.42232,0.1342 -0.79728,0.37891 l -0.0395,0 0,-0.82491 q 0.28023,-0.13815 0.74597,-0.25261 0.46969,-0.11841 0.9078,-0.11841 0.43022,0 0.75782,0.0789 0.32759,0.0789 0.59204,0.25261 0.28418,0.18945 0.43022,0.45784 0.14603,0.2684 0.14603,0.62757 0,0.48942 -0.34733,0.85649 -0.34338,0.36312 -0.81307,0.45784 l 0,0.0553 q 0.18945,0.0316 0.43416,0.1342 0.24472,0.0987 0.41443,0.24865 z"
           inkscape:connector-curvature="0" />
        <path
           id="path4282"
           d="m 361.08016,532.59242 q 0,1.58273 -0.49732,2.32475 -0.49337,0.73808 -1.53536,0.73808 -1.05779,0 -1.54721,-0.74992 -0.48547,-0.74992 -0.48547,-2.30502 0,-1.56694 0.49336,-2.31291 0.49337,-0.74992 1.53932,-0.74992 1.05778,0 1.54325,0.76176 0.48943,0.75782 0.48943,2.29318 z m -1.03805,1.79192 q 0.13814,-0.31971 0.1855,-0.74993 0.0513,-0.43416 0.0513,-1.04199 0,-0.59994 -0.0513,-1.042 -0.0474,-0.44205 -0.18945,-0.74992 -0.13814,-0.30391 -0.37891,-0.45784 -0.23681,-0.15393 -0.61177,-0.15393 -0.37102,0 -0.61573,0.15393 -0.24076,0.15393 -0.38285,0.46574 -0.1342,0.29207 -0.18551,0.76176 -0.0474,0.46969 -0.0474,1.03015 0,0.61573 0.0434,1.03016 0.0434,0.41443 0.18551,0.74202 0.13025,0.30787 0.36707,0.46969 0.24076,0.16183 0.63546,0.16183 0.37101,0 0.61572,-0.15393 0.24471,-0.15394 0.37891,-0.46574 z"
           inkscape:connector-curvature="0" />
      </g>
      <g
         id="text4180"
         style="font-style:normal;font-weight:normal;font-size:8.39266014px;line-height:125%;font-family:sans-serif;letter-spacing:0px;word-spacing:0px;fill:#000000;fill-opacity:1;stroke:none;stroke-width:1px;stroke-linecap:butt;stroke-linejoin:miter;stroke-opacity:1"
         transform="scale(0.89867951,1.1127437)">
        <path
           id="path4271"
           d="m 313.90392,521.19774 -2.55714,0 0,-0.74174 2.55714,0 0,0.74174 z"
           inkscape:connector-curvature="0" />
        <path
           id="path4273"
           d="m 319.46897,521.77965 -0.90565,0 0,1.71705 -0.78681,0 0,-1.71705 -2.92186,0 0,-0.94253 2.95464,-3.44231 0.75403,0 0,3.72916 0.90565,0 0,0.65568 z m -1.69246,-0.65568 0,-2.75384 -2.36454,2.75384 2.36454,0 z"
           inkscape:connector-curvature="0" />
        <path
           id="path4275"
           d="m 324.66521,520.44371 q 0,1.64329 -0.51635,2.41371 -0.51224,0.76632 -1.59411,0.76632 -1.09826,0 -1.60641,-0.77861 -0.50405,-0.77862 -0.50405,-2.39322 0,-1.6269 0.51225,-2.40142 0.51225,-0.77862 1.59821,-0.77862 1.09826,0 1.60231,0.79091 0.50815,0.78682 0.50815,2.38093 z m -1.07777,1.86048 q 0.14343,-0.33193 0.19261,-0.77861 0.0533,-0.45078 0.0533,-1.08187 0,-0.62289 -0.0533,-1.08187 -0.0492,-0.45897 -0.19671,-0.77861 -0.14343,-0.31555 -0.3934,-0.47537 -0.24588,-0.15982 -0.63519,-0.15982 -0.38521,0 -0.63928,0.15982 -0.24998,0.15982 -0.39751,0.48356 -0.13933,0.30325 -0.1926,0.79091 -0.0492,0.48766 -0.0492,1.06958 0,0.63928 0.0451,1.06957 0.0451,0.43029 0.1926,0.77042 0.13524,0.31964 0.38112,0.48766 0.24997,0.16801 0.65977,0.16801 0.38521,0 0.63928,-0.15982 0.25408,-0.15982 0.39341,-0.48356 z"
           inkscape:connector-curvature="0" />
      </g>
      <g
         id="text4188"
         style="font-style:normal;font-weight:normal;font-size:8.38201237px;line-height:125%;font-family:sans-serif;letter-spacing:0px;word-spacing:0px;fill:#000000;fill-opacity:1;stroke:none;stroke-width:1px;stroke-linecap:butt;stroke-linejoin:miter;stroke-opacity:1"
         transform="scale(0.82569415,1.2111022)">
        <path
           id="path4264"
           d="m 342.56727,412.62891 -2.5539,0 0,-0.7408 2.5539,0 0,0.7408 z"
           inkscape:connector-curvature="0" />
        <path
           id="path4266"
           d="m 347.93699,412.98907 q 0,0.42565 -0.15552,0.81447 -0.15553,0.38881 -0.42565,0.65484 -0.29468,0.28649 -0.70396,0.44202 -0.40519,0.15143 -0.94134,0.15143 -0.49932,0 -0.9618,-0.10641 -0.46249,-0.10232 -0.78172,-0.24966 l 0,-0.86357 0.0573,0 q 0.3356,0.21282 0.78581,0.36425 0.45021,0.14734 0.88404,0.14734 0.29059,0 0.56071,-0.0818 0.27422,-0.0819 0.48704,-0.2865 0.18008,-0.17599 0.27012,-0.42155 0.0941,-0.24557 0.0941,-0.5689 0,-0.31514 -0.11051,-0.53206 -0.10641,-0.21692 -0.29877,-0.34789 -0.21282,-0.15552 -0.51978,-0.21692 -0.30287,-0.0655 -0.6794,-0.0655 -0.36017,0 -0.69578,0.0491 -0.33151,0.0491 -0.57299,0.0982 l 0,-3.13916 3.66714,0 0,0.71624 -2.87723,0 0,1.62074 q 0.17599,-0.0164 0.36017,-0.0246 0.18417,-0.008 0.31923,-0.008 0.49523,0 0.86767,0.0859 0.37244,0.0819 0.6835,0.29468 0.32742,0.2251 0.5075,0.58118 0.18008,0.35607 0.18008,0.89222 z"
           inkscape:connector-curvature="0" />
        <path
           id="path4268"
           d="m 353.31491,411.87584 q 0,1.6412 -0.5157,2.41064 -0.51159,0.76535 -1.59209,0.76535 -1.09686,0 -1.60437,-0.77762 -0.50341,-0.77763 -0.50341,-2.39019 0,-1.62483 0.5116,-2.39837 0.5116,-0.77762 1.59618,-0.77762 1.09687,0 1.60028,0.7899 0.50751,0.78582 0.50751,2.37791 z m -1.07641,1.85812 q 0.14325,-0.33152 0.19236,-0.77763 0.0532,-0.45021 0.0532,-1.08049 0,-0.62211 -0.0532,-1.0805 -0.0491,-0.45839 -0.19645,-0.77763 -0.14325,-0.31514 -0.39291,-0.47476 -0.24556,-0.15962 -0.63438,-0.15962 -0.38472,0 -0.63847,0.15962 -0.24966,0.15962 -0.397,0.48295 -0.13915,0.30287 -0.19236,0.78991 -0.0491,0.48704 -0.0491,1.06821 0,0.63848 0.045,1.06822 0.045,0.42974 0.19236,0.76944 0.13506,0.31924 0.38063,0.48704 0.24966,0.1678 0.65893,0.1678 0.38472,0 0.63848,-0.15961 0.25375,-0.15962 0.3929,-0.48295 z"
           inkscape:connector-curvature="0" />
      </g>
      <g
         id="text4192"
         style="font-style:normal;font-weight:normal;font-size:7.87579489px;line-height:125%;font-family:sans-serif;letter-spacing:0px;word-spacing:0px;fill:#000000;fill-opacity:1;stroke:none;stroke-width:1px;stroke-linecap:butt;stroke-linejoin:miter;stroke-opacity:1"
         transform="scale(0.86965581,1.1498802)">
        <path
           id="path4257"
           d="m 326.04654,356.59228 -2.39966,0 0,-0.69605 2.39966,0 0,0.69605 z"
           inkscape:connector-curvature="0" />
        <path
           id="path4259"
           d="m 331.22272,356.89224 q 0,0.87295 -0.57684,1.42672 -0.573,0.54992 -1.40749,0.54992 -0.42302,0 -0.76912,-0.13075 -0.34611,-0.13075 -0.61146,-0.38841 -0.33072,-0.31918 -0.51146,-0.84603 -0.1769,-0.52685 -0.1769,-1.26905 0,-0.76143 0.16152,-1.34981 0.16536,-0.58837 0.523,-1.046 0.33841,-0.43455 0.87295,-0.67683 0.53454,-0.24612 1.24598,-0.24612 0.22689,0 0.38071,0.0192 0.15383,0.0192 0.31149,0.0692 l 0,0.73451 -0.0385,0 q -0.10768,-0.0577 -0.32688,-0.10767 -0.21535,-0.0538 -0.44224,-0.0538 -0.82681,0 -1.31904,0.51915 -0.49224,0.51532 -0.573,1.39596 0.32303,-0.19613 0.63453,-0.29611 0.31534,-0.10383 0.72681,-0.10383 0.36534,0 0.64222,0.0692 0.28073,0.0654 0.573,0.26919 0.33841,0.23458 0.50762,0.59222 0.17305,0.35764 0.17305,0.86911 z m -0.78066,0.0308 q 0,-0.35764 -0.10768,-0.59222 -0.10383,-0.23458 -0.3461,-0.40763 -0.1769,-0.12306 -0.39225,-0.16152 -0.21536,-0.0385 -0.44994,-0.0385 -0.32687,0 -0.6076,0.0769 -0.28073,0.0769 -0.57684,0.23842 -0.008,0.0846 -0.0115,0.16537 -0.004,0.0769 -0.004,0.19612 0,0.60761 0.12306,0.9614 0.12691,0.34995 0.34611,0.55377 0.17689,0.1692 0.38071,0.24996 0.20766,0.0769 0.44994,0.0769 0.55761,0 0.87679,-0.33841 0.31919,-0.34226 0.31919,-0.98063 z"
           inkscape:connector-curvature="0" />
        <path
           id="path4261"
           d="m 336.14509,355.88469 q 0,1.54209 -0.48455,2.26506 -0.4807,0.71913 -1.49594,0.71913 -1.03062,0 -1.50747,-0.73067 -0.47301,-0.73066 -0.47301,-2.24583 0,-1.5267 0.4807,-2.25352 0.4807,-0.73067 1.49978,-0.73067 1.03063,0 1.50363,0.7422 0.47686,0.73836 0.47686,2.2343 z m -1.01139,1.7459 q 0.13459,-0.31149 0.18074,-0.73066 0.05,-0.42302 0.05,-1.01524 0,-0.58453 -0.05,-1.01524 -0.0462,-0.43071 -0.18459,-0.73066 -0.1346,-0.29612 -0.36918,-0.44609 -0.23073,-0.14998 -0.59607,-0.14998 -0.36148,0 -0.59991,0.14998 -0.23458,0.14997 -0.37302,0.45378 -0.13075,0.28457 -0.18075,0.7422 -0.0461,0.45763 -0.0461,1.0037 0,0.59992 0.0423,1.0037 0.0423,0.40379 0.18074,0.72298 0.12691,0.29995 0.35764,0.45762 0.23458,0.15767 0.61914,0.15767 0.36149,0 0.59992,-0.14998 0.23843,-0.14997 0.36918,-0.45378 z"
           inkscape:connector-curvature="0" />
      </g>
      <g
         id="text4196"
         style="font-style:normal;font-weight:normal;font-size:8.99453449px;line-height:125%;font-family:sans-serif;letter-spacing:0px;word-spacing:0px;fill:#000000;fill-opacity:1;stroke:none;stroke-width:1px;stroke-linecap:butt;stroke-linejoin:miter;stroke-opacity:1"
         transform="scale(0.75545304,1.323709)">
        <path
           id="path4250"
           d="m 374.67093,248.88974 -2.74052,0 0,-0.79493 2.74052,0 0,0.79493 z"
           inkscape:connector-curvature="0" />
        <path
           id="path4252"
           d="m 380.50332,245.79348 -2.96011,5.5601 -0.93986,0 3.14897,-5.77091 -3.7243,0 0,-0.76858 4.4753,0 0,0.97939 z"
           inkscape:connector-curvature="0" />
        <path
           id="path4254"
           d="m 386.20396,248.08164 q 0,1.76114 -0.55337,2.58681 -0.54899,0.82127 -1.70844,0.82127 -1.17702,0 -1.72161,-0.83445 -0.5402,-0.83445 -0.5402,-2.56485 0,-1.74357 0.54899,-2.57363 0.54898,-0.83445 1.71282,-0.83445 1.17702,0 1.71722,0.84763 0.54459,0.84323 0.54459,2.55167 z m -1.15506,1.9939 q 0.15372,-0.35574 0.20642,-0.83445 0.0571,-0.4831 0.0571,-1.15945 0,-0.66756 -0.0571,-1.15945 -0.0527,-0.49189 -0.21081,-0.83446 -0.15372,-0.33817 -0.42162,-0.50945 -0.26351,-0.17129 -0.68074,-0.17129 -0.41283,0 -0.68513,0.17129 -0.2679,0.17128 -0.42601,0.51824 -0.14932,0.325 -0.20642,0.84763 -0.0527,0.52263 -0.0527,1.14627 0,0.68513 0.0483,1.14628 0.0483,0.46114 0.20642,0.82567 0.14493,0.34256 0.40844,0.52263 0.26791,0.18007 0.70709,0.18007 0.41284,0 0.68513,-0.17129 0.2723,-0.17128 0.42162,-0.51824 z"
           inkscape:connector-curvature="0" />
      </g>
      <g
         id="text4200"
         style="font-style:normal;font-weight:normal;font-size:8.36680412px;line-height:125%;font-family:sans-serif;letter-spacing:0px;word-spacing:0px;fill:#000000;fill-opacity:1;stroke:none;stroke-width:1px;stroke-linecap:butt;stroke-linejoin:miter;stroke-opacity:1"
         transform="scale(0.76482262,1.3074927)">
        <path
           id="path4243"
           d="m 371.49186,190.70853 -2.54927,0 0,-0.73945 2.54927,0 0,0.73945 z"
           inkscape:connector-curvature="0" />
        <path
           id="path4245"
           d="m 376.9458,191.30499 q 0,0.78847 -0.61689,1.3114 -0.6128,0.52292 -1.54426,0.52292 -0.98866,0 -1.57695,-0.51067 -0.5842,-0.51066 -0.5842,-1.30731 0,-0.50658 0.29414,-0.91512 0.29415,-0.41262 0.82933,-0.65365 l 0,-0.0245 q -0.49024,-0.26146 -0.72719,-0.57195 -0.23287,-0.31048 -0.23287,-0.77621 0,-0.68634 0.56378,-1.1439 0.56378,-0.45756 1.43396,-0.45756 0.91103,0 1.45439,0.43713 0.54335,0.43713 0.54335,1.11122 0,0.41262 -0.25738,0.81298 -0.25738,0.39628 -0.75579,0.62098 l 0,0.0245 q 0.57195,0.24512 0.87427,0.60463 0.30231,0.35951 0.30231,0.91512 z m -0.96823,-2.97005 q 0,-0.43713 -0.33908,-0.69451 -0.335,-0.26146 -0.85793,-0.26146 -0.51475,0 -0.84566,0.24512 -0.32683,0.24512 -0.32683,0.66182 0,0.29415 0.16341,0.51067 0.1675,0.21244 0.5025,0.37994 0.15116,0.0735 0.43305,0.19201 0.28597,0.11848 0.55561,0.1961 0.40445,-0.26963 0.55969,-0.55969 0.15524,-0.29006 0.15524,-0.67 z m 0.12665,3.04767 q 0,-0.37585 -0.1675,-0.60055 -0.16341,-0.22877 -0.64549,-0.45755 -0.19201,-0.0899 -0.42079,-0.1675 -0.22878,-0.0776 -0.60872,-0.21653 -0.36768,0.20018 -0.59237,0.54335 -0.22061,0.34317 -0.22061,0.77622 0,0.55152 0.37994,0.91104 0.37994,0.35951 0.96414,0.35951 0.59646,0 0.95189,-0.30641 0.35951,-0.3064 0.35951,-0.84158 z"
           inkscape:connector-curvature="0" />
        <path
           id="path4247"
           d="m 382.21999,189.95682 q 0,1.63823 -0.51475,2.40628 -0.51067,0.76396 -1.5892,0.76396 -1.09488,0 -1.60146,-0.77622 -0.5025,-0.77622 -0.5025,-2.38585 0,-1.62188 0.51067,-2.39401 0.51067,-0.77622 1.59329,-0.77622 1.09487,0 1.59737,0.78847 0.50658,0.78439 0.50658,2.37359 z m -1.07444,1.85475 q 0.14298,-0.33091 0.19201,-0.77621 0.0531,-0.44939 0.0531,-1.07854 0,-0.62097 -0.0531,-1.07853 -0.049,-0.45756 -0.1961,-0.77622 -0.14299,-0.31457 -0.39219,-0.4739 -0.24512,-0.15933 -0.63323,-0.15933 -0.38403,0 -0.63732,0.15933 -0.24921,0.15933 -0.39628,0.48207 -0.1389,0.30232 -0.19201,0.78848 -0.049,0.48615 -0.049,1.06627 0,0.63732 0.0449,1.06628 0.0449,0.42896 0.19201,0.76805 0.13481,0.31866 0.37993,0.48616 0.24921,0.16749 0.65775,0.16749 0.38402,0 0.63731,-0.15932 0.25329,-0.15933 0.3922,-0.48208 z"
           inkscape:connector-curvature="0" />
      </g>
      <g
         id="text4204"
         style="font-style:normal;font-weight:normal;font-size:9.31511307px;line-height:125%;font-family:sans-serif;letter-spacing:0px;word-spacing:0px;fill:#000000;fill-opacity:1;stroke:none;stroke-width:1px;stroke-linecap:butt;stroke-linejoin:miter;stroke-opacity:1"
         transform="scale(0.78360196,1.2761581)">
        <path
           id="path4236"
           d="m 360.2043,133.06029 -2.8382,0 0,-0.82326 2.8382,0 0,0.82326 z"
           inkscape:connector-curvature="0" />
        <path
           id="path4238"
           d="m 366.21728,131.81858 q 0,0.88693 -0.20468,1.61013 -0.20013,0.72319 -0.60948,1.23261 -0.41391,0.51852 -1.03704,0.80052 -0.62313,0.282 -1.46458,0.282 -0.23652,0 -0.44574,-0.0273 -0.20923,-0.0227 -0.37297,-0.0773 l 0,-0.86874 0.0455,0 q 0.1319,0.0682 0.37297,0.1319 0.24106,0.0591 0.53671,0.0591 1.00519,0 1.57374,-0.60039 0.5731,-0.60494 0.66407,-1.66471 -0.423,0.25471 -0.79597,0.36387 -0.37297,0.10916 -0.81416,0.10916 -0.41845,0 -0.75958,-0.0819 -0.33659,-0.0819 -0.67771,-0.31839 -0.40026,-0.27745 -0.60494,-0.705 -0.20013,-0.42755 -0.20013,-1.02339 0,-1.03703 0.68226,-1.68745 0.68226,-0.65042 1.66471,-0.65042 0.49123,0 0.90968,0.15464 0.41845,0.1501 0.73229,0.45484 0.38662,0.37752 0.59584,0.97336 0.20923,0.59129 0.20923,1.53281 z M 365.2985,131.623 q 0,-0.70501 -0.14555,-1.13255 -0.14555,-0.42755 -0.40026,-0.66407 -0.21377,-0.20468 -0.45938,-0.2911 -0.24562,-0.091 -0.53217,-0.091 -0.65496,0 -1.03703,0.40936 -0.37752,0.40936 -0.37752,1.15074 0,0.4321 0.12281,0.70501 0.12281,0.2729 0.4139,0.47758 0.20468,0.141 0.4503,0.19103 0.24561,0.0455 0.5458,0.0455 0.35478,0 0.71865,-0.0955 0.36387,-0.0955 0.68226,-0.27745 0.005,-0.0955 0.009,-0.18649 0.009,-0.0955 0.009,-0.24106 z"
           inkscape:connector-curvature="0" />
        <path
           id="path4240"
           d="m 372.14839,132.22338 q 0,1.82391 -0.5731,2.67901 -0.56855,0.85055 -1.76933,0.85055 -1.21897,0 -1.78297,-0.8642 -0.55945,-0.86419 -0.55945,-2.65626 0,-1.80571 0.56855,-2.66536 0.56855,-0.86419 1.77387,-0.86419 1.21897,0 1.77842,0.87784 0.56401,0.87329 0.56401,2.64261 z m -1.19623,2.06498 q 0.15919,-0.36842 0.21377,-0.8642 0.0591,-0.50032 0.0591,-1.20078 0,-0.69135 -0.0591,-1.20077 -0.0546,-0.50942 -0.21832,-0.8642 -0.15919,-0.35022 -0.43665,-0.52761 -0.2729,-0.17739 -0.705,-0.17739 -0.42755,0 -0.70955,0.17739 -0.27745,0.17739 -0.44119,0.53671 -0.15465,0.33658 -0.21378,0.87784 -0.0546,0.54126 -0.0546,1.18713 0,0.70955 0.05,1.18713 0.05,0.47758 0.21378,0.8551 0.1501,0.35478 0.423,0.54126 0.27745,0.18648 0.73229,0.18648 0.42755,0 0.70955,-0.17738 0.282,-0.17739 0.43665,-0.53671 z"
           inkscape:connector-curvature="0" />
      </g>
      <g
         id="text4208"
         style="font-style:normal;font-weight:normal;font-size:7.04810572px;line-height:125%;font-family:sans-serif;letter-spacing:0px;word-spacing:0px;fill:#000000;fill-opacity:1;stroke:none;stroke-width:1px;stroke-linecap:butt;stroke-linejoin:miter;stroke-opacity:1"
         transform="scale(0.6440285,1.5527263)">
        <path
           id="path4227"
           d="m 439.17993,58.004057 -2.14747,0 0,-0.622903 2.14747,0 0,0.622903 z"
           inkscape:connector-curvature="0" />
        <path
           id="path4229"
           d="m 443.4439,59.934715 -2.77382,0 0,-0.523101 1.06686,0 0,-3.434575 -1.06686,0 0,-0.468039 q 0.21682,0 0.4646,-0.03441 0.24779,-0.03786 0.37512,-0.106685 0.15831,-0.08604 0.24779,-0.216812 0.0929,-0.134217 0.10668,-0.357912 l 0.53343,0 0,4.618437 1.0462,0 0,0.523101 z"
           inkscape:connector-curvature="0" />
        <path
           id="path4231"
           d="m 448.2172,57.370829 q 0,1.380025 -0.43362,2.027019 -0.43018,0.643552 -1.33873,0.643552 -0.92231,0 -1.34905,-0.653877 -0.4233,-0.653877 -0.4233,-2.009811 0,-1.366259 0.43018,-2.016694 0.43018,-0.653877 1.34217,-0.653877 0.92231,0 1.34561,0.664201 0.42674,0.66076 0.42674,1.999487 z m -0.9051,1.562422 q 0.12045,-0.278758 0.16175,-0.653877 0.0447,-0.37856 0.0447,-0.908545 0,-0.523101 -0.0447,-0.908545 -0.0413,-0.385443 -0.16519,-0.653877 -0.12045,-0.264992 -0.33038,-0.399209 -0.20649,-0.134217 -0.53343,-0.134217 -0.3235,0 -0.53687,0.134217 -0.20993,0.134217 -0.33382,0.406092 -0.11701,0.254668 -0.16175,0.664202 -0.0413,0.409533 -0.0413,0.89822 0,0.536868 0.0378,0.898221 0.0379,0.361353 0.16175,0.646994 0.11357,0.268433 0.32006,0.409533 0.20992,0.1411 0.55407,0.1411 0.3235,0 0.53687,-0.134217 0.21337,-0.134217 0.33038,-0.406092 z"
           inkscape:connector-curvature="0" />
        <path
           id="path4233"
           d="m 452.70486,57.370829 q 0,1.380025 -0.43362,2.027019 -0.43018,0.643552 -1.33873,0.643552 -0.92231,0 -1.34905,-0.653877 -0.4233,-0.653877 -0.4233,-2.009811 0,-1.366259 0.43018,-2.016694 0.43018,-0.653877 1.34217,-0.653877 0.92231,0 1.34561,0.664201 0.42674,0.66076 0.42674,1.999487 z m -0.9051,1.562422 q 0.12045,-0.278758 0.16175,-0.653877 0.0447,-0.37856 0.0447,-0.908545 0,-0.523101 -0.0447,-0.908545 -0.0413,-0.385443 -0.16519,-0.653877 -0.12045,-0.264992 -0.33038,-0.399209 -0.20649,-0.134217 -0.53343,-0.134217 -0.3235,0 -0.53687,0.134217 -0.20993,0.134217 -0.33382,0.406092 -0.11701,0.254668 -0.16175,0.664202 -0.0413,0.409533 -0.0413,0.89822 0,0.536868 0.0378,0.898221 0.0379,0.361353 0.16175,0.646994 0.11357,0.268433 0.32006,0.409533 0.20993,0.1411 0.55407,0.1411 0.3235,0 0.53687,-0.134217 0.21337,-0.134217 0.33038,-0.406092 z"
           inkscape:connector-curvature="0" />
      </g>
      <g
         id="text4212"
         style="font-style:normal;font-weight:normal;font-size:10px;line-height:125%;font-family:sans-serif;letter-spacing:0px;word-spacing:0px;fill:#000000;fill-opacity:1;stroke:none;stroke-width:1px;stroke-linecap:butt;stroke-linejoin:miter;stroke-opacity:1">
        <path
           id="path4224"
           d="m 289.44894,78.977715 q -0.26855,0.117187 -0.48828,0.219726 -0.21484,0.102539 -0.5664,0.214844 -0.29785,0.09277 -0.64942,0.15625 -0.34668,0.06836 -0.7666,0.06836 -0.79101,0 -1.44043,-0.219726 -0.64453,-0.22461 -1.12305,-0.698243 -0.46875,-0.463867 -0.73242,-1.176757 -0.26367,-0.717774 -0.26367,-1.665039 0,-0.898438 0.25391,-1.606446 0.2539,-0.708008 0.73242,-1.196289 0.46387,-0.473633 1.11816,-0.722656 0.65918,-0.249023 1.45996,-0.249023 0.58594,0 1.167,0.141601 0.58593,0.141602 1.29882,0.498047 l 0,1.147461 -0.0732,0 q -0.60058,-0.50293 -1.1914,-0.732422 -0.59082,-0.229492 -1.26465,-0.229492 -0.55176,0 -0.9961,0.180664 -0.43945,0.175781 -0.78613,0.551758 -0.33691,0.366211 -0.52734,0.927734 -0.18555,0.556641 -0.18555,1.289063 0,0.766601 0.20508,1.318359 0.20996,0.551758 0.53711,0.898437 0.34179,0.361329 0.7959,0.53711 0.45898,0.170898 0.96679,0.170898 0.69825,0 1.3086,-0.239258 0.61035,-0.239257 1.14257,-0.717773 l 0.0684,0 0,1.132813 z"
           inkscape:connector-curvature="0" />
      </g>
    </g>
    <text
       xml:space="preserve"
       style="font-style:normal;font-weight:normal;font-size:10px;line-height:125%;font-family:sans-serif;letter-spacing:0px;word-spacing:0px;fill:#000000;fill-opacity:1;stroke:none;stroke-width:1px;stroke-linecap:butt;stroke-linejoin:miter;stroke-opacity:1"
       x="380"
       y="92.362206"
       id="text4216"
       sodipodi:linespacing="125%"><tspan
         sodipodi:role="line"
         id="tspan4218"
         x="380"
         y="92.362206" /></text>
  </g>
</svg>
