<?xml version="1.0" encoding="UTF-8" standalone="no"?>
<!-- Created with Inkscape (http://www.inkscape.org/) -->

<svg
   xmlns:dc="http://purl.org/dc/elements/1.1/"
   xmlns:cc="http://creativecommons.org/ns#"
   xmlns:rdf="http://www.w3.org/1999/02/22-rdf-syntax-ns#"
   xmlns:svg="http://www.w3.org/2000/svg"
   xmlns="http://www.w3.org/2000/svg"
   xmlns:sodipodi="http://sodipodi.sourceforge.net/DTD/sodipodi-0.dtd"
   xmlns:inkscape="http://www.inkscape.org/namespaces/inkscape"
   width="75.353096mm"
   height="75.353096mm"
   viewBox="0 0 266.99916 266.99916"
   id="svg2"
   version="1.1"
   inkscape:version="0.91 r13725"
   sodipodi:docname="top view 2.svg">
  <defs
     id="defs4">
    <pattern
       y="0"
       x="0"
       height="6"
       width="6"
       patternUnits="userSpaceOnUse"
       id="EMFhbasepattern" />
  </defs>
  <sodipodi:namedview
     id="base"
     pagecolor="#ffffff"
     bordercolor="#666666"
     borderopacity="1.0"
     inkscape:pageopacity="0.0"
     inkscape:pageshadow="2"
     inkscape:zoom="1.8101563"
     inkscape:cx="174.70505"
     inkscape:cy="125.50832"
     inkscape:document-units="px"
     inkscape:current-layer="layer1"
     showgrid="false"
     inkscape:window-width="1111"
     inkscape:window-height="726"
     inkscape:window-x="753"
     inkscape:window-y="88"
     inkscape:window-maximized="0"
     fit-margin-top="0"
     fit-margin-left="0"
     fit-margin-right="0"
     fit-margin-bottom="0" />
  <metadata
     id="metadata7">
    <rdf:RDF>
      <cc:Work
         rdf:about="">
        <dc:format>image/svg+xml</dc:format>
        <dc:type
           rdf:resource="http://purl.org/dc/dcmitype/StillImage" />
        <dc:title />
      </cc:Work>
    </rdf:RDF>
  </metadata>
  <g
     inkscape:label="Layer 1"
     inkscape:groupmode="layer"
     id="layer1"
     transform="translate(-165.18406,-419.54887)">
    <g
       id="g4186"
       transform="matrix(0.637529,0.77042637,-0.77042637,0.637529,534.3472,-29.64975)">
      <path
         style="fill:#f2f2f2;fill-opacity:1;fill-rule:nonzero;stroke:#000000;stroke-width:0.53399795px;stroke-linecap:butt;stroke-linejoin:miter;stroke-miterlimit:2;stroke-dasharray:none;stroke-opacity:1"
         d="m 431.91621,553.04814 c 0,73.60268 -59.63021,133.23288 -133.23286,133.23288 -73.60268,0 -133.23229,-59.6302 -133.23229,-133.23288 0,-73.60265 59.62961,-133.23227 133.23229,-133.23227 73.60265,0 133.23286,59.62962 133.23286,133.23227 z"
         id="path4143"
         inkscape:connector-curvature="0" />
      <path
         style="fill:#f2f2f2;fill-opacity:1;fill-rule:nonzero;stroke:#000000;stroke-width:0.6674974px;stroke-linecap:butt;stroke-linejoin:miter;stroke-miterlimit:2;stroke-dasharray:none;stroke-opacity:1"
         d="m 423.01618,552.87014 c 0,68.79666 -55.80319,124.59985 -124.59983,124.59985 -68.84115,0 -124.59931,-55.80319 -124.59931,-124.59985 0,-68.84115 55.75816,-124.59931 124.59931,-124.59931 68.79664,0 124.59983,55.75816 124.59983,124.59931 z"
         id="path4141"
         inkscape:connector-curvature="0" />
      <path
         style="fill:#cccccc;fill-opacity:1;fill-rule:nonzero;stroke:#000000;stroke-width:0.6674974px;stroke-linecap:butt;stroke-linejoin:miter;stroke-miterlimit:2;stroke-dasharray:none;stroke-opacity:1"
         d="m 419.76766,552.82565 c 0,67.01665 -54.29018,121.30683 -121.26232,121.30683 -67.01665,0 -121.30628,-54.29018 -121.30628,-121.30683 0,-66.97214 54.28963,-121.2618 121.30628,-121.2618 66.97214,0 121.26232,54.28966 121.26232,121.2618 z"
         id="path4145"
         inkscape:connector-curvature="0" />
      <path
         style="fill:#cccccc;fill-opacity:1;fill-rule:nonzero;stroke:#000000;stroke-width:0.33590722px;stroke-linecap:butt;stroke-linejoin:miter;stroke-miterlimit:2;stroke-dasharray:none;stroke-opacity:1"
         d="m 193.67706,594.00738 c -0.29071,-0.24224 -0.5004,-0.58071 -0.59678,-0.98851 -0.0481,-0.20393 -0.0964,-0.4078 -0.11227,-0.58478 l 0.0328,-0.30018 -6.17545,-81.45065 c -0.0688,-0.76691 0.38499,-1.37126 0.9887,-1.30485 l 0.63066,0.0342 c 0.26961,0.006 0.49038,0.13568 0.68949,0.35612 0.10819,-0.12837 0.22143,-0.1976 0.33458,-0.26704 0.24844,-0.22966 0.52901,-0.43254 0.84195,-0.60842 l 0.5772,-0.22862 130.32861,-71.57649 c 1.2571,-0.64456 2.79324,-0.51079 3.43343,0.29557 l 0.64549,0.86533 c 0.6725,0.83327 0.21236,2.0327 -1.03943,2.73628 l -80.15042,43.96029 84.77107,-37.76311 c 0.49085,-0.1914 0.93301,-0.25961 1.40748,-0.30092 1.05162,-0.26995 2.11861,-0.0361 2.60261,0.69492 l 0.65079,0.92435 c 0.55916,0.90258 0.04,2.10719 -1.21737,2.75178 l -88.02615,47.11337 93.76037,-39.49705 c 1.21365,-0.4624 2.54488,-0.28106 3.1475,0.43943 0.37174,0.14593 0.65718,0.32916 0.86147,0.60877 l 0.62379,0.95641 c 0.6132,0.83845 0.099,2.10204 -1.12576,2.77352 l -70.93042,39.47105 74.56153,-34.9718 c 0.97114,-0.50074 2.11386,-0.42187 2.87318,0.0471 0.42574,0.0819 0.77576,0.31889 1.0125,0.62523 l 0.76406,0.85507 c 0.67251,0.83328 0.24466,2.05963 -0.98013,2.73111 l -130.07859,73.69537 c -1.02516,0.56488 -2.28119,0.55536 -3.04582,0.0274 l 4.28305,48.38026 c 0.0689,0.76692 -0.32564,1.36611 -0.9563,1.33183 l -0.65768,-0.002 c -0.63067,-0.0342 -1.19565,-0.66878 -1.26451,-1.4357 l -4.58014,-51.35689 0.38103,51.18744 c -0.0328,0.30017 -0.0984,0.5733 -0.20074,0.76066 -0.17314,0.40154 -0.51309,0.60949 -0.90649,0.55454 l -0.66299,-0.0611 c -0.636,-0.0929 -1.17399,-0.75983 -1.2428,-1.52681 l -5.01533,-62.19914 -2.30958,61.49923 c -0.0381,0.24114 -0.10856,0.45536 -0.21127,0.64269 -0.13552,0.48744 -0.49722,0.78648 -0.98225,0.70981 l -0.63602,-0.093 c -0.63601,-0.0929 -1.17399,-0.75983 -1.21049,-1.49989 l -2.99146,-46.97644 -0.69029,46.91055 c 0,0 -0.0272,0.0322 0.005,0.0592 0.0365,0.73998 -0.39025,1.31227 -1.02086,1.27806 l -0.60364,-0.0663 c -0.21028,-0.0111 -0.42572,-0.0819 -0.58724,-0.21642 z m -0.22151,-33.09725 0.70905,-48.36882 -1.32169,0.59072 c -0.0324,-0.027 -0.0593,0.005 -0.0864,0.0373 -0.99817,0.53283 -2.19489,0.51811 -2.92717,0.0171 l 3.62611,47.72375 z m 7.26396,5.0158 1.66805,-44.67703 -2.13082,0.89903 c -0.43157,0.18622 -0.84139,0.28135 -1.28885,0.2906 -0.38284,0.063 -0.71168,0.062 -1.0458,0.002 l 2.79743,43.48551 z m 9.06058,-9.26126 -0.13504,-19.8166 c -0.11847,0.0105 -0.2103,-0.0111 -0.36114,-0.0279 -0.38286,0.0631 -0.77616,0.008 -1.11559,-0.11081 l 1.61177,19.95544 z m 5.58647,-14.33955 c 0.0864,-0.0372 0.11338,-0.0693 0.19955,-0.10665 l 81.36154,-46.11683 -82.24427,38.61315 0.68312,7.61027 z m -7.56308,-10.01356 1.79666,-0.95909 -0.0974,-13.07165 -2.735,1.15971 1.03574,12.87103 z m -10.18112,-14.54204 5.01778,-2.69625 0.0969,-3.24872 c 0.0277,-0.68622 0.46545,-1.14045 1.00458,-1.12789 0.14043,-0.10139 0.3453,-0.14894 0.55546,-0.13757 l 0.63602,0.093 c 0.636,0.0929 1.174,0.75983 1.2428,1.52679 l 0.0847,0.94392 66.73007,-35.65712 -75.77801,33.7398 c 0.005,0.0593 0.0108,0.11785 0.0159,0.17697 l 0.39395,6.38685 z m 16.53168,11.046 92.82561,-51.57435 -93.8788,39.5075 1.05319,12.06685 z"
         id="path4147"
         inkscape:connector-curvature="0" />
    </g>
  </g>
</svg>
