<?xml version="1.0" encoding="UTF-8" standalone="no"?>
<!-- Created with Inkscape (http://www.inkscape.org/) -->

<svg
   xmlns:dc="http://purl.org/dc/elements/1.1/"
   xmlns:cc="http://creativecommons.org/ns#"
   xmlns:rdf="http://www.w3.org/1999/02/22-rdf-syntax-ns#"
   xmlns:svg="http://www.w3.org/2000/svg"
   xmlns="http://www.w3.org/2000/svg"
   xmlns:sodipodi="http://sodipodi.sourceforge.net/DTD/sodipodi-0.dtd"
   xmlns:inkscape="http://www.inkscape.org/namespaces/inkscape"
   width="127mm"
   height="127mm"
   viewBox="0 0 450 450"
   id="svg2"
   version="1.1"
   inkscape:version="0.91 r13725"
   sodipodi:docname="048_top view with ecoli lines (Stage 2).svg">
  <defs
     id="defs4">
    <pattern
       y="0"
       x="0"
       height="6"
       width="6"
       patternUnits="userSpaceOnUse"
       id="EMFhbasepattern" />
  </defs>
  <sodipodi:namedview
     id="base"
     pagecolor="#ffffff"
     bordercolor="#666666"
     borderopacity="1.0"
     inkscape:pageopacity="0.0"
     inkscape:pageshadow="2"
     inkscape:zoom="1.2110809"
     inkscape:cx="309.8891"
     inkscape:cy="240.53356"
     inkscape:document-units="px"
     inkscape:current-layer="layer1"
     showgrid="false"
     inkscape:window-width="1600"
     inkscape:window-height="837"
     inkscape:window-x="-8"
     inkscape:window-y="-8"
     inkscape:window-maximized="1"
     fit-margin-top="0"
     fit-margin-left="0"
     fit-margin-right="0"
     fit-margin-bottom="0" />
  <metadata
     id="metadata7">
    <rdf:RDF>
      <cc:Work
         rdf:about="">
        <dc:format>image/svg+xml</dc:format>
        <dc:type
           rdf:resource="http://purl.org/dc/dcmitype/StillImage" />
        <dc:title></dc:title>
      </cc:Work>
    </rdf:RDF>
  </metadata>
  <g
     inkscape:label="Layer 1"
     inkscape:groupmode="layer"
     id="layer1"
     transform="translate(-112.14286,-293.07649)">
    <g
       id="g4216">
      <g
         id="g4171">
        <g
           transform="translate(-73.336177,21.114668)"
           id="g4144">
          <circle
             r="210"
             cy="496.64792"
             cx="410"
             id="path4136"
             style="opacity:0.6;fill:#f2f2f2;stroke:#000000;stroke-width:1.10000002;stroke-miterlimit:2.70000005;stroke-dasharray:none;stroke-opacity:1" />
          <circle
             r="224.56554"
             cy="496.96182"
             cx="410.47903"
             id="path4140"
             style="opacity:0.6;fill:#f2f2f2;stroke:#000000;stroke-width:0.86892194;stroke-miterlimit:2.70000005;stroke-dasharray:none;stroke-opacity:1" />
          <circle
             r="204.42363"
             cy="496.62021"
             cx="410.14301"
             id="path4142"
             style="opacity:0.7;fill:#cccccc;stroke:#000000;stroke-width:1.15274477;stroke-miterlimit:2.70000005;stroke-dasharray:none;stroke-opacity:1" />
        </g>
      </g>
      <path
         id="rect4136"
         d="m 257.3457,335.16797 c -0.6482,-0.0262 -1.36656,0.21145 -1.95898,0.67578 -0.29322,0.18301 -0.56719,0.41285 -0.79492,0.69336 l -0.35547,0.43945 -101.96875,104.83985 c -0.96185,0.989 -1.0212,2.30204 -0.13281,2.94336 l 0.89062,0.64453 c 0.37224,0.2687 0.85138,0.36729 1.35156,0.32812 0.0221,0.23229 0.0588,0.47013 0.11524,0.71289 0.0962,0.585 0.26247,1.1754 0.5,1.77149 l 0.49219,0.97656 95.64453,247.64453 c 0.95576,2.31253 3.18002,3.85843 4.98437,3.49414 l 1.88086,-0.42969 c 1.88056,-0.43049 2.61785,-2.61147 1.73828,-4.99023 l -58.85547,-152.15234 72.32032,148.94531 c 0.43252,0.82791 0.95071,1.44612 1.54687,1.99804 1.15309,1.60609 2.86313,2.46217 4.31445,2.07032 l 1.96289,-0.56836 c 1.82118,-0.57953 2.49484,-2.83783 1.53907,-5.15039 l -66.04883,-165.56446 82.61914,161.66211 c 1.11941,2.0366 3.15497,3.28012 4.8125,2.97657 0.61861,0.26492 1.25234,0.31368 1.83398,0.14257 l 1.96289,-0.56836 c 1.80996,-0.43605 2.56097,-2.75937 1.67579,-5.0664 l -51.49414,-135.48047 61.5957,133.45508 c 0.78325,1.79373 2.39374,3.00216 3.9414,3.19531 0.68357,0.3423 1.45517,0.47433 2.10743,0.30859 l 2.08593,-0.34179 c 1.87494,-0.35878 2.68401,-2.53284 1.79883,-4.83985 L 236.56055,429.75977 c -0.7579,-1.9753 -2.49226,-3.43328 -4.15235,-3.58985 l 61.49024,-61.52539 c 0.97634,-0.97687 1.06873,-2.29911 0.20703,-2.9668 l -0.93945,-0.72851 c -0.86171,-0.66769 -2.34008,-0.41829 -3.31641,0.55859 l -65.24805,65.28321 59.27735,-69.91016 c 0.34815,-0.41055 0.5441,-0.85865 0.60156,-1.28711 0.21492,-0.70545 0.0298,-1.39418 -0.57813,-1.79102 l -1.0039,-0.6582 c -0.92406,-0.60327 -2.44796,-0.29538 -3.41602,0.68945 l -78.32617,79.68555 67.47852,-87.14062 c 0.27346,-0.35313 0.43335,-0.73065 0.5039,-1.09766 0.35389,-0.80591 0.18577,-1.63286 -0.50976,-2.07617 l -1.01758,-0.64649 c -0.93174,-0.5936 -2.44411,-0.26966 -3.39258,0.72852 l -58.03906,61.08008 52.95703,-65.23828 c 0.0229,-0.0279 0.0371,-0.0575 0.0586,-0.0859 0.91616,-0.98281 0.96341,-2.26002 0.0899,-2.89063 l -0.89063,-0.64453 c -0.2971,-0.21447 -0.6599,-0.32411 -1.04883,-0.33984 z m -38.3164,45.18164 -54.60352,67.26562 -1.10937,-2.28515 c -0.0707,-0.006 -0.0661,-0.0773 -0.13086,-0.1543 -0.73548,-1.84557 -2.3313,-3.19714 -3.92383,-3.37695 l 59.76758,-61.44922 z m 15.63086,1.44727 -49.00586,63.28515 -1.86133,-3.63867 c -0.36752,-0.7506 -0.88625,-1.36803 -1.48242,-1.91992 -0.40567,-0.48229 -0.87535,-0.89027 -1.3711,-1.19532 l 53.72071,-56.53124 z m 1.77148,23.08789 -22.99414,27.11718 c -0.14709,-0.14298 -0.29858,-0.28035 -0.46094,-0.40429 -0.50802,-0.52823 -1.0773,-0.92209 -1.66797,-1.1543 l 25.12305,-25.55859 z m -8.84766,26.11132 c 0.0389,0.1273 0.064,0.25245 0.11329,0.38086 l 58.08984,156.4961 -67.89844,-147.17578 9.69531,-9.70118 z m -21.81836,5.08594 1.30665,3.42774 -15.13672,17.85351 -2.42578,-4.74414 16.25585,-16.53711 z m -30.65234,8.37891 3.75,9.39258 -3.53516,4.56445 c -0.75808,0.97897 -0.71601,2.13723 0.041,2.74414 0.0982,0.30698 0.28634,0.58048 0.58789,0.77734 l 1.00586,0.65625 c 0.92407,0.60326 2.44797,0.29733 3.41602,-0.6875 l 1.20898,-1.22851 50.06836,125.41601 -64.64063,-133.14648 c 0.0783,-0.0681 0.15819,-0.13292 0.23047,-0.20899 l 7.86719,-8.27929 z m 35.26953,3.74609 67.4375,177.08594 -82.73828,-161.77735 15.30078,-15.30859 z"
         style="opacity:0.97000002;fill:#cccccc;stroke:#000000;stroke-width:0.592;stroke-miterlimit:2.70000005;stroke-dasharray:none;stroke-opacity:1"
         inkscape:connector-curvature="0" />
    </g>
  </g>
</svg>
