<?xml version="1.0" encoding="UTF-8" standalone="no"?>
<!-- Created with Inkscape (http://www.inkscape.org/) -->

<svg
   xmlns:dc="http://purl.org/dc/elements/1.1/"
   xmlns:cc="http://creativecommons.org/ns#"
   xmlns:rdf="http://www.w3.org/1999/02/22-rdf-syntax-ns#"
   xmlns:svg="http://www.w3.org/2000/svg"
   xmlns="http://www.w3.org/2000/svg"
   xmlns:sodipodi="http://sodipodi.sourceforge.net/DTD/sodipodi-0.dtd"
   xmlns:inkscape="http://www.inkscape.org/namespaces/inkscape"
   width="127mm"
   height="127mm"
   viewBox="0 0 450 450"
   id="svg2"
   version="1.1"
   inkscape:version="0.91 r13725"
   sodipodi:docname="top view 1.svg">
  <defs
     id="defs4" />
  <sodipodi:namedview
     id="base"
     pagecolor="#ffffff"
     bordercolor="#666666"
     borderopacity="1.0"
     inkscape:pageopacity="0.0"
     inkscape:pageshadow="2"
     inkscape:zoom="0.87780678"
     inkscape:cx="212.92664"
     inkscape:cy="214.99402"
     inkscape:document-units="px"
     inkscape:current-layer="layer1"
     showgrid="false"
     fit-margin-top="0"
     fit-margin-left="0"
     fit-margin-right="0"
     fit-margin-bottom="0"
     inkscape:window-width="1536"
     inkscape:window-height="801"
     inkscape:window-x="-8"
     inkscape:window-y="-8"
     inkscape:window-maximized="1" />
  <metadata
     id="metadata7">
    <rdf:RDF>
      <cc:Work
         rdf:about="">
        <dc:format>image/svg+xml</dc:format>
        <dc:type
           rdf:resource="http://purl.org/dc/dcmitype/StillImage" />
        <dc:title></dc:title>
      </cc:Work>
    </rdf:RDF>
  </metadata>
  <g
     inkscape:label="Layer 1"
     inkscape:groupmode="layer"
     id="layer1"
     transform="translate(-169.28572,-255.93364)">
    <g
       transform="translate(-16.193321,-16.028189)"
       id="g4144">
      <circle
         r="210"
         cy="496.64792"
         cx="410"
         id="path4136"
         style="opacity:0.6;fill:#f2f2f2;stroke:#000000;stroke-width:1.10000002;stroke-miterlimit:2.70000005;stroke-dasharray:none;stroke-opacity:1" />
      <circle
         r="224.56554"
         cy="496.96182"
         cx="410.47903"
         id="path4140"
         style="opacity:0.6;fill:#f2f2f2;stroke:#000000;stroke-width:0.86892194;stroke-miterlimit:2.70000005;stroke-dasharray:none;stroke-opacity:1" />
      <circle
         r="204.42363"
         cy="496.62021"
         cx="410.14301"
         id="path4142"
         style="opacity:0.7;fill:#cccccc;stroke:#000000;stroke-width:1.15274477;stroke-miterlimit:2.70000005;stroke-dasharray:none;stroke-opacity:1" />
    </g>
    <path
       style="opacity:0.97000002;fill:#cccccc;stroke:#000000;stroke-width:0.49200001;stroke-miterlimit:2.70000005;stroke-dasharray:none;stroke-opacity:1"
       d="m 315.53768,298.3654 c -0.79227,-0.57194 -2.06022,-0.40769 -3.00809,0.33523 -0.29322,0.18301 -0.56628,0.41359 -0.79401,0.6941 l -0.35621,0.43938 -101.96839,104.84032 c -0.96185,0.989 -1.02113,2.30098 -0.13274,2.9423 l 0.89091,0.6439 c 0.8884,0.64131 2.37748,0.36128 3.33938,-0.62767 l 62.66324,-64.42712 -56.04894,69.0456 c -0.30261,0.37282 -0.48154,0.7748 -0.55131,1.16391 -0.4701,0.86292 -0.34327,1.78593 0.4068,2.26403 l 1.01794,0.64809 c 0.93174,0.59359 2.44479,0.26823 3.39324,-0.72988 l 67.41347,-70.94415 -59.33227,76.62086 c -0.75808,0.97897 -0.71513,2.13893 0.0419,2.74584 0.0982,0.30698 0.28625,0.58002 0.5878,0.77688 l 1.0063,0.65673 c 0.92407,0.60326 2.44741,0.29682 3.41546,-0.68801 l 56.05188,-57.02431 -51.35385,60.56418 c -0.70071,0.82636 -0.79673,1.80467 -0.33142,2.45706 0.0616,0.37488 0.24765,0.71122 0.56575,0.95769 l 0.94034,0.72795 c 0.8617,0.66769 2.34049,0.41913 3.31683,-0.55775 L 351.04222,327.50254 c 0.97634,-0.97687 1.06762,-2.30044 0.20592,-2.96813 l -0.93867,-0.72833 c -0.86171,-0.66769 -2.34133,-0.4182 -3.31766,0.55868 l -65.24689,65.28321 59.27699,-69.90903 c 0.34815,-0.41055 0.54415,-0.85886 0.60161,-1.28732 0.21492,-0.70545 0.0306,-1.3946 -0.57735,-1.79144 l -1.00545,-0.65767 c -0.92406,-0.60327 -2.44738,-0.29537 -3.41544,0.68946 l -78.3267,79.68446 67.47847,-87.14074 c 0.27346,-0.35313 0.43315,-0.72994 0.5037,-1.09695 0.35389,-0.80591 0.18744,-1.63252 -0.50809,-2.07583 l -1.01793,-0.64809 c -0.93174,-0.5936 -2.44478,-0.26831 -3.39325,0.72987 l -58.03973,61.08027 52.95781,-65.23865 c 0.0229,-0.0279 0.0376,-0.0574 0.0591,-0.0858 0.91616,-0.98281 0.96266,-2.2611 0.0891,-2.89171 l -0.89007,-0.64336 z"
       id="rect4136"
       inkscape:connector-curvature="0" />
  </g>
</svg>
