<?xml version="1.0" encoding="UTF-8" standalone="no"?>
<!-- Created with Inkscape (http://www.inkscape.org/) -->

<svg
   xmlns:dc="http://purl.org/dc/elements/1.1/"
   xmlns:cc="http://creativecommons.org/ns#"
   xmlns:rdf="http://www.w3.org/1999/02/22-rdf-syntax-ns#"
   xmlns:svg="http://www.w3.org/2000/svg"
   xmlns="http://www.w3.org/2000/svg"
   xmlns:sodipodi="http://sodipodi.sourceforge.net/DTD/sodipodi-0.dtd"
   xmlns:inkscape="http://www.inkscape.org/namespaces/inkscape"
   width="75.355453mm"
   height="75.355453mm"
   viewBox="0 0 267.00751 267.00751"
   id="svg2"
   version="1.1"
   inkscape:version="0.91 r13725"
   sodipodi:docname="top view 3.svg">
  <defs
     id="defs4" />
  <sodipodi:namedview
     id="base"
     pagecolor="#ffffff"
     bordercolor="#666666"
     borderopacity="1.0"
     inkscape:pageopacity="0.0"
     inkscape:pageshadow="2"
     inkscape:zoom="1.4"
     inkscape:cx="155.82551"
     inkscape:cy="116.96818"
     inkscape:document-units="px"
     inkscape:current-layer="layer1"
     showgrid="false"
     fit-margin-top="0"
     fit-margin-left="0"
     fit-margin-right="0"
     fit-margin-bottom="0"
     inkscape:window-width="1231"
     inkscape:window-height="627"
     inkscape:window-x="189"
     inkscape:window-y="143"
     inkscape:window-maximized="0" />
  <metadata
     id="metadata7">
    <rdf:RDF>
      <cc:Work
         rdf:about="">
        <dc:format>image/svg+xml</dc:format>
        <dc:type
           rdf:resource="http://purl.org/dc/dcmitype/StillImage" />
        <dc:title />
      </cc:Work>
    </rdf:RDF>
  </metadata>
  <g
     inkscape:label="Layer 1"
     inkscape:groupmode="layer"
     id="layer1"
     transform="translate(-192.21051,-364.57271)">
    <g
       id="g4161"
       transform="matrix(-0.73012188,0.68331694,-0.68331694,-0.73012188,903.86947,639.16705)">
      <path
         style="fill:#f2f2f2;fill-opacity:1;fill-rule:nonzero;stroke:#000000;stroke-width:0.53399795px;stroke-linecap:butt;stroke-linejoin:miter;stroke-miterlimit:2;stroke-dasharray:none;stroke-opacity:1"
         d="m 333.48284,365.07059 c 73.47745,4.29181 129.52912,67.29763 125.23731,140.77505 -4.29182,73.47744 -67.29759,129.52852 -140.77503,125.23671 -73.47742,-4.29181 -129.52854,-67.297 -125.23673,-140.77444 4.29181,-73.47742 67.29704,-129.52913 140.77445,-125.23732 z"
         id="path4143"
         inkscape:connector-curvature="0" />
      <path
         style="fill:#f2f2f2;fill-opacity:1;fill-rule:nonzero;stroke:#000000;stroke-width:0.6674974px;stroke-linecap:butt;stroke-linejoin:miter;stroke-miterlimit:2;stroke-dasharray:none;stroke-opacity:1"
         d="m 332.78618,373.9451 c 68.6796,4.01157 121.13393,62.97372 117.12236,131.65331 -4.01417,68.72401 -62.9737,121.13338 -131.6533,117.12181 -68.72401,-4.01416 -121.13601,-62.92874 -117.12185,-131.65275 4.01157,-68.67959 62.92878,-121.13654 131.65279,-117.12237 z"
         id="path4141"
         inkscape:connector-curvature="0" />
      <path
         style="fill:#cccccc;fill-opacity:1;fill-rule:nonzero;stroke:#000000;stroke-width:0.6674974px;stroke-linecap:butt;stroke-linejoin:miter;stroke-miterlimit:2;stroke-dasharray:none;stroke-opacity:1"
         d="m 332.55234,377.1855 c 66.90263,3.90777 117.93474,61.27127 114.02956,128.12946 -3.90778,66.90262 -61.27124,117.93418 -128.17386,114.0264 C 251.54985,615.43618 200.51822,558.07327 204.426,491.17065 208.33118,424.31246 265.69416,373.28031 332.55234,377.1855 Z"
         id="path4145"
         inkscape:connector-curvature="0" />
      <path
         id="path4147"
         d="m 393.03906,403.10742 c -0.19177,0.0138 -0.38443,0.0499 -0.57617,0.11133 l -0.60156,0.19336 -157.70703,30.24609 c -1.48766,0.28539 -2.42236,1.79494 -2.09571,3.38477 l 0.32618,1.5957 c 0.32668,1.5898 1.78773,2.63879 3.27539,2.35352 l 96.91601,-18.58594 -81.8164,26.21094 -2.625,-5.33594 c -0.59892,-1.26186 -1.79885,-1.76144 -2.66993,-1.13867 l -0.89843,0.71289 c -0.31962,0.21847 -0.57702,0.55437 -0.6836,0.97461 -0.51245,0.73069 -0.6581,1.86654 -0.21484,2.86523 l 1.48633,3.71875 -5.21289,1.66992 -0.97657,-2.02539 c -0.59892,-1.26187 -1.83034,-1.84842 -2.70312,-1.28515 l -0.99024,0.5664 c -0.29105,0.18764 -0.49084,0.46163 -0.6582,0.82422 -0.7544,0.55959 -1.0139,1.87865 -0.62305,3.11719 l 7.82227,22.08789 c -0.75946,0.66118 -1.14227,1.73549 -0.96289,2.8125 -0.12259,0.45734 -0.14637,0.95787 -0.0215,1.47266 l 0.41797,1.71679 c 0.38281,1.5776 1.89068,2.6282 3.38086,2.35352 l 0.13477,-0.0254 2.9043,8.20117 -1.41211,0.4082 c -1.1551,0.33411 -1.89539,1.41115 -1.9375,2.6211 -0.20001,0.50407 -0.26771,1.07667 -0.16211,1.66601 l 0.3125,1.74219 c 0.008,0.043 0.0258,0.0808 0.0351,0.12305 l -18.44922,-39.90039 c -0.57017,-1.29286 -1.74213,-1.88058 -2.67578,-1.375 l -0.96093,0.5957 c -0.758,0.44055 -1.05388,1.49302 -0.84571,2.55859 0.0136,0.47608 0.0563,0.9207 0.21875,1.42188 l 32.75586,86.82812 -39.21289,-82.57617 c -0.62939,-1.29071 -1.79885,-1.82003 -2.66992,-1.19726 l -0.90234,0.59375 c -0.84232,0.59208 -1.0643,2.11761 -0.49415,3.41015 l 63.85547,134.28125 0.19336,0.58789 c 0.15733,0.32267 0.34381,0.61555 0.5586,0.87696 0.0627,0.117 0.1262,0.23412 0.24804,0.34961 -0.23167,0.18592 -0.37478,0.39916 -0.39648,0.66796 l -0.0703,0.62696 c -0.1015,0.59881 0.47452,1.0865 1.24414,1.0625 l 81.67187,-1.41406 0.29883,0.0488 c 0.1776,-0.005 0.38345,-0.042 0.58984,-0.0781 0.41273,-0.0724 0.76271,-0.26102 1.02149,-0.53711 0.14371,-0.1534 0.22865,-0.36495 0.25195,-0.57422 l 0.10156,-0.59766 c 0.0709,-0.62754 -0.47594,-1.08675 -1.21679,-1.09375 -0.0288,0.031 -0.0605,0.002 -0.0605,0.002 l -46.78906,-3.42578 47.07031,-0.2461 c 0.74093,0.007 1.43853,-0.49158 1.56836,-1.12109 l 0.12891,-0.62891 c 0.10482,-0.47973 -0.17168,-0.85972 -0.65039,-1.02344 -0.18102,-0.11345 -0.39041,-0.19594 -0.62891,-0.24804 l -61.26172,-5.89063 62.38672,-1.38086 c 0.76969,-0.024 1.46588,-0.52284 1.5957,-1.15234 l 0.10156,-0.6582 c 0.0778,-0.38953 -0.11119,-0.74124 -0.50195,-0.9375 -0.18107,-0.1131 -0.45029,-0.19394 -0.74805,-0.24414 l -51.12109,-2.60352 51.53516,-1.57813 c 0.76963,-0.024 1.43691,-0.55208 1.50781,-1.17968 l 0.041,-0.65625 c 0.071,-0.62759 -0.50576,-1.05535 -1.2754,-1.03125 l -48.54687,1.45508 c 0.57165,-0.73254 0.65454,-1.98662 0.15039,-3.04297 L 274.1543,496.18359 407.0957,473.24023 c 1.49184,-0.25745 2.45996,-1.74922 2.17383,-3.3457 l -0.31055,-1.74023 c -0.28609,-1.59645 -1.71709,-2.67348 -3.20898,-2.41602 l -99.69922,17.20703 97.7168,-28.26758 c 0.5739,-0.16604 1.04315,-0.51918 1.38086,-0.97656 0.65879,-0.64125 0.9667,-1.634 0.71484,-2.67187 l -0.41601,-1.7168 c -0.38278,-1.57756 -1.89072,-2.62622 -3.38086,-2.35156 l -120.57227,22.22265 116.33008,-41.18945 c 0.47142,-0.16689 0.86048,-0.46791 1.16797,-0.83984 0.84514,-0.63193 1.26021,-1.77069 0.96484,-2.94532 l -0.43164,-1.71875 c -0.39585,-1.5732 -1.90819,-2.59197 -3.39062,-2.2832 l -90.71289,18.89258 89.17578,-28.57031 c 0.0382,-0.0125 0.0697,-0.0326 0.10742,-0.0469 1.44447,-0.32047 2.34466,-1.80198 2.02344,-3.36523 l -0.32618,-1.59375 c -0.29131,-1.41779 -1.48497,-2.39957 -2.79492,-2.39453 -0.18686,-0.0271 -0.37658,-0.0353 -0.56836,-0.0215 z m -48.08789,35.54492 -84.39648,29.88282 -5.48828,-11.16211 89.88476,-18.72071 z m -96.46875,20.08985 4.92578,12.32226 -3.68164,1.30469 -6.08594,-12.61719 4.8418,-1.00976 z m 82.42774,9.07812 -61.89844,17.90625 -2.92969,-5.95703 64.82813,-11.94922 z m -73.39258,13.52735 2.75976,6.90429 -2.53515,0.73243 -3.40039,-7.05079 3.17578,-0.58593 z m -6.99805,4.02734 2.41016,5.00195 -0.58203,0.16797 -1.82813,-5.16992 z m 18.51563,11.69141 41.02148,83.35547 c 0.0322,0.0882 0.0616,0.11667 0.0937,0.20507 l -7.63672,0.23828 -33.52539,-83.78906 0.0469,-0.01 z m -4.89649,0.8457 10.09375,25.25781 -12.02344,-24.92383 1.92969,-0.33398 z m -7,1.20898 39.45508,81.92774 -12.10742,0.34765 -29.00391,-81.99023 1.65625,-0.28516 z m -12.08203,0.54102 c 0.61647,0.81099 1.59734,1.2678 2.61719,1.0918 l 2.94726,-0.50782 17.33203,48.93946 -22.89648,-49.52344 z m 3.70508,19.65625 31.70508,68.69531 -0.94727,0.0293 c -0.76966,0.024 -1.46587,0.52284 -1.5957,1.15234 l -0.13086,0.62891 c -0.0236,0.20914 0.0125,0.4164 0.10547,0.5625 -0.044,0.53748 0.38493,1.00066 1.06836,1.06836 l 3.23632,0.28711 2.39844,5.16601 -6.39844,0.0215 c -0.0593,0.002 -0.11823,0.004 -0.17773,0.006 l -29.26367,-77.61719 z m 37.04297,65.75976 13.05664,0.66602 0.85156,1.84961 -12.9082,0.2832 -1,-2.79883 z m 18.54492,0.94141 19.79101,1.01953 -20.01562,0.44532 c 0.13838,-0.33193 0.21648,-0.72154 0.17578,-1.10743 0.0256,-0.14961 0.0528,-0.23854 0.0488,-0.35742 z m -15.99609,6.33399 44.5039,4.27148 -43.57422,0.25586 c 0.0794,-0.33005 0.0992,-0.6571 0.0586,-1.04297 0.0169,-0.44723 -0.0541,-0.86299 -0.21485,-1.30469 l -0.77343,-2.17968 z m -9.17188,7.70312 48.24414,3.52734 -47.85351,0.8379 c 0.54286,-0.70182 0.628,-1.89629 0.15429,-2.92383 -0.0302,-0.0289 -0.0621,-0.0571 -0.0332,-0.0879 l -0.51172,-1.35352 z"
         style="fill:#cccccc;fill-opacity:1;fill-rule:nonzero;stroke:#000000;stroke-width:0.33590722px;stroke-linecap:butt;stroke-linejoin:miter;stroke-miterlimit:2;stroke-dasharray:none;stroke-opacity:1"
         inkscape:connector-curvature="0" />
    </g>
  </g>
</svg>
