<?xml version="1.0" encoding="UTF-8" standalone="no"?>
<!-- Created with Inkscape (http://www.inkscape.org/) -->

<svg
   xmlns:dc="http://purl.org/dc/elements/1.1/"
   xmlns:cc="http://creativecommons.org/ns#"
   xmlns:rdf="http://www.w3.org/1999/02/22-rdf-syntax-ns#"
   xmlns:svg="http://www.w3.org/2000/svg"
   xmlns="http://www.w3.org/2000/svg"
   xmlns:sodipodi="http://sodipodi.sourceforge.net/DTD/sodipodi-0.dtd"
   xmlns:inkscape="http://www.inkscape.org/namespaces/inkscape"
   width="127mm"
   height="127mm"
   viewBox="0 0 450 450"
   id="svg2"
   version="1.1"
   inkscape:version="0.91 r13725"
   sodipodi:docname="top view 4.svg">
  <defs
     id="defs4" />
  <sodipodi:namedview
     id="base"
     pagecolor="#ffffff"
     bordercolor="#666666"
     borderopacity="1.0"
     inkscape:pageopacity="0.0"
     inkscape:pageshadow="2"
     inkscape:zoom="0.98994949"
     inkscape:cx="87.709219"
     inkscape:cy="180.67111"
     inkscape:document-units="px"
     inkscape:current-layer="layer1"
     showgrid="false"
     inkscape:window-width="1536"
     inkscape:window-height="801"
     inkscape:window-x="-8"
     inkscape:window-y="-8"
     inkscape:window-maximized="1" />
  <metadata
     id="metadata7">
    <rdf:RDF>
      <cc:Work
         rdf:about="">
        <dc:format>image/svg+xml</dc:format>
        <dc:type
           rdf:resource="http://purl.org/dc/dcmitype/StillImage" />
        <dc:title />
      </cc:Work>
    </rdf:RDF>
  </metadata>
  <g
     inkscape:label="Layer 1"
     inkscape:groupmode="layer"
     id="layer1"
     transform="translate(0,-602.3622)">
    <path
       inkscape:connector-curvature="0"
       id="path4143"
       d="M 402.25762,963.67512 C 327.18238,1061.6145 187.01223,1080.1383 89.072844,1005.0631 -8.866548,929.98782 -27.389497,789.81829 47.685733,691.8789 122.76093,593.93952 262.92966,575.41602 360.86913,650.49114 c 97.93933,75.07526 116.46368,215.24462 41.38849,313.18398 z"
       style="fill:#f2f2f2;fill-opacity:1;fill-rule:nonzero;stroke:#000000;stroke-width:0.89530987px;stroke-linecap:butt;stroke-linejoin:miter;stroke-miterlimit:2;stroke-dasharray:none;stroke-opacity:1" />
    <path
       inkscape:connector-curvature="0"
       id="path4141"
       d="M 390.59635,954.36017 C 320.4233,1045.9045 189.24914,1063.2394 97.704884,993.06632 6.1014092,922.84788 -11.173554,791.71967 58.999504,700.17537 129.21792,608.57191 260.28625,591.25097 351.88966,661.46947 c 91.54431,70.17299 108.92513,201.28723 38.70669,292.8907 z"
       style="fill:#f2f2f2;fill-opacity:1;fill-rule:nonzero;stroke:#000000;stroke-width:1.11913729px;stroke-linecap:butt;stroke-linejoin:miter;stroke-miterlimit:2;stroke-dasharray:none;stroke-opacity:1" />
    <path
       inkscape:connector-curvature="0"
       id="path4145"
       d="M 386.31908,950.98746 C 317.96166,1040.1632 190.34407,1057.0281 101.22758,988.71603 12.051869,920.35859 -4.8122839,792.74158 63.545166,703.56588 131.85719,614.44939 259.47346,597.58467 348.64925,665.94202 c 89.11646,68.31205 105.98187,195.92897 37.66983,285.04544 z"
       style="fill:#cccccc;fill-opacity:1;fill-rule:nonzero;stroke:#000000;stroke-width:1.11913729px;stroke-linecap:butt;stroke-linejoin:miter;stroke-miterlimit:2;stroke-dasharray:none;stroke-opacity:1" />
    <path
       style="fill:#cccccc;fill-opacity:1;fill-rule:nonzero;stroke:#000000;stroke-width:0.56318766px;stroke-linecap:butt;stroke-linejoin:miter;stroke-miterlimit:2;stroke-dasharray:none;stroke-opacity:1"
       d="m 38.510599,880.73432 125.788681,81.89581 0.43524,0.39537 c 0.27819,0.25248 0.61761,0.39526 0.98635,0.45286 1.18299,0.41362 2.81421,-0.27604 3.87328,-1.72057 l 1.18931,-1.62461 c 1.16777,-1.59275 1.18361,-3.47713 0.0558,-4.27422 -0.0263,-0.0265 -0.0434,-0.0599 -0.0711,-0.0855 l -64.69373,-58.72334 71.51568,48.72384 c 1.16867,0.79627 3.10827,0.16481 4.34914,-1.4154 l 1.35522,-1.72554 c 0.92627,-1.17995 1.1905,-2.54432 0.77999,-3.49195 -0.0697,-0.4986 -0.25445,-0.94615 -0.5876,-1.2737 l -82.19376,-80.85034 96.67391,61.63369 c 1.19482,0.76172 3.14899,0.0976 4.38047,-1.49146 l 1.34024,-1.73119 c 0.8102,-1.04539 1.08965,-2.21597 0.8531,-3.11564 -0.0491,-0.60051 -0.27792,-1.12824 -0.7043,-1.4868 l -72.59544,-61.05828 80.59529,49.69894 c 0.0721,0.0444 0.15441,0.0667 0.23121,0.10089 l -29.1819,64.51974 c -1.04604,2.31266 0.11423,5.05872 2.59909,6.16339 l 2.70818,1.20736 c 2.48479,1.10468 5.32484,0.13179 6.37091,-2.18093 l 54.79547,-121.15196 c 0.96142,-0.23559 1.97978,-0.96716 2.74392,-2.03671 0.50125,-0.3708 0.98042,-0.86509 1.38112,-1.49101 l 1.33727,-2.08743 c 1.22795,-1.91809 1.26665,-4.18552 0.0849,-5.08348 l -0.52639,-0.40004 5.00202,-11.06208 1.2138,0.67573 -48.81676,150.28956 c -0.30942,0.9527 -0.26126,1.93595 0.0558,2.83488 0.27026,1.51753 1.35922,2.87869 3.03656,3.50544 l 2.77383,1.03823 c 2.54949,0.95273 5.42377,-0.15318 6.44432,-2.47966 l 82.57789,-188.24325 -52.26358,200.19629 c -0.21183,0.81125 -0.16087,1.63499 0.0661,2.41161 0.082,1.76738 1.2721,3.41422 3.18018,4.10927 l 2.79201,1.0184 c 2.55574,0.9305 5.3913,-0.2109 6.35726,-2.55873 L 325.91203,855.09358 281.67825,1005.732 c -0.0186,0.065 -0.02,0.1275 -0.0356,0.1933 -0.91401,2.3062 0.29448,4.9482 2.76621,5.9729 l 2.51838,1.0473 c 2.24174,0.9294 4.72713,0.1964 5.95238,-1.6263 0.21341,-0.2339 0.40424,-0.4889 0.56533,-0.7681 0.16131,-0.2791 0.29236,-0.5816 0.38745,-0.9055 l 0.29716,-1.0153 106.37495,-247.32889 c 1.00335,-2.33316 -0.21385,-5.05041 -2.72757,-6.0926 l -2.52077,-1.04702 c -2.51368,-1.04216 -5.34436,-0.002 -6.34785,2.33111 l -65.37205,151.98885 40.58688,-138.20591 9.87449,1.3766 c 2.31469,0.35578 4.13542,-0.83962 4.09051,-2.63438 l -0.14394,-1.91804 c -0.003,-0.64906 -0.22552,-1.32236 -0.70851,-1.86557 -0.53208,-1.39852 -1.97144,-2.66915 -3.77464,-2.99321 l -6.55919,-1.43425 2.58539,-8.80589 3.72998,0.54978 c 2.31469,0.35579 4.28757,-0.8013 4.3268,-2.54243 l 0.14469,-1.90677 c 0.0133,-0.5804 -0.17955,-1.11593 -0.52533,-1.68931 -0.067,-1.57343 -1.65221,-3.17485 -3.73883,-3.79746 l -38.01399,-9.92178 c -0.2032,-1.67603 -1.33379,-3.21646 -2.99727,-3.98065 -0.51941,-0.60032 -1.19224,-1.10451 -2.02414,-1.41548 l -2.77594,-1.03563 c -2.54956,-0.95277 -5.42505,0.15204 -6.44561,2.47859 l -0.0924,0.21004 -14.11427,-3.68292 0.7616,-2.34391 c 0.62288,-1.91741 -0.17446,-3.95838 -1.8141,-5.155 -0.51142,-0.75176 -1.2431,-1.3833 -2.16034,-1.79115 l -2.71161,-1.2058 c -0.0672,-0.0294 -0.13658,-0.041 -0.20396,-0.0679 l 72.73135,11.92906 c 2.33064,0.42487 4.24908,-0.64793 4.42564,-2.41926 l 0.0767,-1.8948 c 0.10167,-1.46648 -1.08112,-2.86699 -2.75585,-3.5804 -0.67342,-0.42909 -1.33115,-0.78812 -2.17947,-1.03418 l -151.3175,-36.21597 151.49088,23.25539 c 2.38336,0.34066 4.2187,-0.78523 4.17374,-2.57989 l 0.0237,-1.81054 c -0.0294,-1.72597 -1.93642,-3.46987 -4.26666,-3.89438 l -246.43197,-37.69354 -0.9983,-0.28344 c -0.59582,-0.0852 -1.17685,-0.10215 -1.7417,-0.0499 -0.22137,-0.023 -0.44373,-0.0443 -0.71863,0.0162 -0.0401,-0.49642 -0.20114,-0.89651 -0.55379,-1.17948 l -0.80485,-0.68786 c -0.73561,-0.70414 -1.95409,-0.36321 -2.64475,0.72749 l -74.864195,114.67941 -0.348621,0.36951 c -0.159972,0.25129 -0.303323,0.57116 -0.447371,0.89156 -0.28775,0.64091 -0.355464,1.30371 -0.215722,1.92257 0.07772,0.34375 0.291846,0.66218 0.560377,0.89137 l 0.734803,0.70245 c 0.804205,0.68876 1.95478,0.36151 2.661393,-0.66009 -0.01589,-0.0691 0.05413,-0.0857 0.05413,-0.0857 l 48.768211,-61.7148 -43.936802,65.55915 c -0.706683,1.02175 -0.670645,2.45822 0.08091,3.23058 l 0.750418,0.77113 c 0.567208,0.59676 1.356192,0.57008 2.033724,0.0597 0.327725,-0.1445 0.638886,-0.35697 0.935543,-0.63896 l 65.803299,-79.48133 -56.768897,87.88275 c -0.690699,1.09082 -0.653968,2.52563 0.09757,3.29797 l 0.817311,0.76046 c 0.467486,0.47433 1.134,0.54379 1.773959,0.18608 0.327301,-0.14489 0.693054,-0.44287 1.042837,-0.80891 l 51.701563,-68.50016 -46.28731,73.00812 c -0.690642,1.09075 -0.585738,2.51296 0.218589,3.20172 l 0.871468,0.67487 c 0.804236,0.68891 1.94047,0.28965 2.631011,-0.80119 l 43.648442,-68.74398 c 0.47893,1.48246 2.14042,2.77686 4.08074,3.07086 l 28.36838,3.95573 61.88506,48.62982 -87.02296,-48.38383 c -0.51105,-0.28417 -1.13033,-0.29384 -1.76531,-0.0928 -1.00548,0.13528 -2.11759,0.90847 -2.92538,2.17035 l -1.33963,2.08768 c -1.22797,1.91807 -1.2643,4.18525 -0.0826,5.08323 l 95.61635,72.65519 -110.60233,-49.88012 c -0.44815,-0.20221 -0.97034,-0.20266 -1.50717,-0.0652 -1.11266,-0.0218 -2.42979,0.81688 -3.33764,2.25321 l -1.32739,2.1019 c -1.21575,1.92392 -1.22297,4.16067 -0.0143,5.01759 l 73.95671,52.44001 -81.992997,-41.31297 c -0.03567,-0.0173 -0.07498,-0.0205 -0.111115,-0.036 -1.195832,-0.815 -3.132339,-0.0133 -4.38526,1.84139 l -1.276986,1.89025 c -1.136355,1.68214 -1.307235,3.63306 -0.488101,4.66449 0.1819,0.35129 0.443016,0.63634 0.795509,0.81408 l 0.552756,0.2768 73.663744,54.78336 -74.007917,-45.63558 c -1.205989,-0.74369 -3.105299,-0.0226 -4.259862,1.61707 l -1.25913,1.78819 c -0.426187,0.60528 -0.687446,1.24731 -0.78928,1.85549 -0.640678,1.32336 -0.573565,2.7211 0.284588,3.44283 l 62.892261,52.89678 -69.18126,-44.10796 c -1.194799,-0.76176 -3.148666,-0.0952 -4.380199,1.49382 l -1.341566,1.73012 c -0.401909,0.51852 -0.660238,1.06743 -0.805435,1.60079 -1.015553,1.47094 -1.139932,3.24451 -0.216504,4.15283 L 141.60524,909.8515 58.540101,853.25879 c -1.168667,-0.79618 -3.108257,-0.16481 -4.349126,1.41539 l -1.355224,1.72554 c -0.998946,1.27248 -1.217924,2.75156 -0.660371,3.69877 0.06735,0.53234 0.274945,1.0036 0.64459,1.33924 l 68.46866,62.15087 -77.30067,-50.32567 c -1.186609,-0.77248 -3.098206,-0.0906 -4.285847,1.52918 l -1.190361,1.62591 c -1.187588,1.61978 -1.18782,3.54354 -0.0013,4.31616 z m 104.732891,-50.12376 81.45147,41.04095 -6.61352,14.6191 -74.83795,-55.66005 z m 7.4046,-26.42585 86.84595,39.1682 -7.67615,16.96975 -79.1698,-56.13795 z M 81.479949,744.98898 122.1151,684.27313 c 0.38336,0.42068 0.8179,0.75464 1.39163,1.06127 0.60479,0.44418 1.24923,0.73762 2.01347,0.93003 l 3.75124,0.97684 -47.791498,57.74772 z m 207.868591,165.38544 37.91609,-145.24069 20.65358,2.88316 -58.56967,142.35753 z M 76.93221,730.90365 120.78273,663.70184 c 0.46338,1.41361 2.04146,2.65417 3.91316,2.96332 0.0685,-0.0148 0.13745,-0.0316 0.15298,0.0376 l 2.35995,0.56314 -50.276673,63.63783 z m 26.05205,11.00514 18.20965,-28.1993 c 0.33052,0.5043 0.79744,0.97992 1.37129,1.28642 0.18354,0.17628 0.28161,0.29706 0.45035,0.40335 l -20.03136,26.50962 z m 159.09081,121.54183 33.37524,-102.75217 11.02331,1.53802 -44.39855,101.21415 z m -75.59437,-78.0178 61.69569,34.3016 -4.23348,9.36022 -57.46221,-43.66182 z m -61.43749,-56.91074 6.85321,-10.82212 9.39846,2.05294 c -0.57761,0.35793 -1.13715,0.87905 -1.6075,1.54948 l -1.42364,2.02618 c -1.30558,1.86092 -1.41639,4.09808 -0.24956,5.01498 l 3.08865,2.42776 -15.68666,-2.18486 c -0.1527,-0.0383 -0.22004,-0.0258 -0.37292,-0.0644 z m 0.14972,-21.03777 11.74858,-18.18183 4.82664,1.245 -13.20805,17.49505 -3.36717,-0.55822 z m 20.33181,13.19254 134.19587,29.3142 -0.0302,0.0747 -117.60334,-16.37466 -16.56226,-13.01429 z m 29.57321,23.23937 101.00149,14.08363 -21.78554,48.1651 -79.21595,-62.24873 z M 137.2103,709.311 l 10.90665,-17.13057 141.07461,36.87331 -1.16257,2.56752 L 137.2103,709.311 Z m -10.72939,-31.56174 5.98863,-8.90024 c 0.0529,-0.0843 0.10498,-0.16727 0.15831,-0.25163 l 135.24997,32.39794 -125.16364,-20.61679 0.85063,-1.342 c 0.69066,-1.09078 0.65266,-2.52668 -0.0989,-3.29902 l -0.74832,-0.77376 c -0.26793,-0.22964 -0.59095,-0.37445 -0.88118,-0.38286 -0.70479,-0.56638 -1.75065,-0.40766 -2.48751,0.47717 l -3.44228,4.22252 -9.4257,-1.5313 z m 112.09273,54.97385 45.90075,6.75799 -1.35143,2.99293 -44.54932,-9.75092 z m -30.19962,-33.18752 90.27059,14.80812 c -1.70544,0.0927 -3.26392,1.02495 -3.97902,2.60593 l -2.0666,4.56748 -84.22497,-21.98153 z m 91.78739,46.6658 1.36885,-4.20645 12.98405,1.91191 -2.17433,4.95931 -12.17857,-2.66477 z m 3.96281,-12.19631 0.31549,-0.96588 8.89427,2.32678 -9.20976,-1.3609 z m 26.35305,18.83025 1.65228,-6.33532 23.2363,3.4216 -3.15247,7.6695 -21.73611,-4.75578 z"
       id="path4147"
       inkscape:connector-curvature="0" />
  </g>
</svg>
