<?xml version="1.0" encoding="UTF-8" standalone="no"?>
<!-- Created with Inkscape (http://www.inkscape.org/) -->

<svg
   xmlns:dc="http://purl.org/dc/elements/1.1/"
   xmlns:cc="http://creativecommons.org/ns#"
   xmlns:rdf="http://www.w3.org/1999/02/22-rdf-syntax-ns#"
   xmlns:svg="http://www.w3.org/2000/svg"
   xmlns="http://www.w3.org/2000/svg"
   xmlns:sodipodi="http://sodipodi.sourceforge.net/DTD/sodipodi-0.dtd"
   xmlns:inkscape="http://www.inkscape.org/namespaces/inkscape"
   width="182.59755mm"
   height="182.59755mm"
   viewBox="0 0 646.99919 646.99919"
   id="svg2"
   version="1.1"
   inkscape:version="0.91 r13725"
   sodipodi:docname="050_top view plate with ecoli lines (Stage 4).svg">
  <defs
     id="defs4" />
  <sodipodi:namedview
     id="base"
     pagecolor="#ffffff"
     bordercolor="#666666"
     borderopacity="1.0"
     inkscape:pageopacity="0.0"
     inkscape:pageshadow="2"
     inkscape:zoom="0.77587891"
     inkscape:cx="209.85961"
     inkscape:cy="341.14393"
     inkscape:document-units="px"
     inkscape:current-layer="layer1"
     showgrid="false"
     inkscape:window-width="1600"
     inkscape:window-height="837"
     inkscape:window-x="-8"
     inkscape:window-y="-8"
     inkscape:window-maximized="1"
     fit-margin-top="0"
     fit-margin-left="0"
     fit-margin-right="0"
     fit-margin-bottom="0" />
  <metadata
     id="metadata7">
    <rdf:RDF>
      <cc:Work
         rdf:about="">
        <dc:format>image/svg+xml</dc:format>
        <dc:type
           rdf:resource="http://purl.org/dc/dcmitype/StillImage" />
        <dc:title></dc:title>
      </cc:Work>
    </rdf:RDF>
  </metadata>
  <g
     inkscape:label="Layer 1"
     inkscape:groupmode="layer"
     id="layer1"
     transform="translate(-37.929006,-161.71978)">
    <g
       id="g4168">
      <path
         style="fill:#f2f2f2;fill-opacity:1;fill-rule:nonzero;stroke:#000000;stroke-width:1.61749673px;stroke-linecap:butt;stroke-linejoin:miter;stroke-miterlimit:2;stroke-dasharray:none;stroke-opacity:1"
         d="m 662.71442,484.78734 c 0,166.70982 -135.22374,301.9335 -301.93357,301.9335 -166.81762,0 -301.932232,-135.22368 -301.932232,-301.9335 0,-166.81763 135.114612,-301.93225 301.932232,-301.93225 166.70983,0 301.93357,135.11462 301.93357,301.93225 z"
         id="path4141"
         inkscape:connector-curvature="0" />
      <path
         style="fill:#f2f2f2;fill-opacity:1;fill-rule:nonzero;stroke:#000000;stroke-width:1.29399753px;stroke-linecap:butt;stroke-linejoin:miter;stroke-miterlimit:2;stroke-dasharray:none;stroke-opacity:1"
         d="m 684.28118,485.21869 c 0,178.35584 -144.49743,322.85327 -322.85333,322.85327 -178.35584,0 -322.851845,-144.49743 -322.851845,-322.85327 0,-178.35589 144.496005,-322.85191 322.851845,-322.85191 178.3559,0 322.85333,144.49602 322.85333,322.85191 z"
         id="path4143"
         inkscape:connector-curvature="0" />
      <path
         style="opacity:0.8;fill:#cccccc;fill-opacity:1;fill-rule:nonzero;stroke:#000000;stroke-width:1.61749673px;stroke-linecap:butt;stroke-linejoin:miter;stroke-miterlimit:2;stroke-dasharray:none;stroke-opacity:1"
         d="m 654.84252,484.67954 c 0,162.3964 -131.55736,293.95376 -293.84596,293.95376 -162.39646,0 -293.952552,-131.55736 -293.952552,-293.95376 0,-162.28866 131.556092,-293.84475 293.952552,-293.84475 162.2886,0 293.84596,131.55609 293.84596,293.84475 z"
         id="path4145"
         inkscape:connector-curvature="0" />
      <path
         id="path4147"
         d="m 329.3418,198.67188 c -1.30636,0.0466 -2.32417,0.75079 -2.50391,1.875 l -0.24219,1.50585 c -0.23964,1.49892 1.10724,3.15316 3.02149,3.71289 l 124.70508,36.4629 -126.28711,-25.4004 c -0.68189,-0.13713 -1.31849,-0.10319 -1.86719,0.0566 -1.42572,-0.0337 -2.53181,0.70416 -2.65235,1.92968 l -0.16406,1.66211 c -0.14931,1.52216 1.27231,3.18136 3.18946,3.71875 L 462.80859,262.38867 324.5625,237.73242 c -1.76633,-0.31506 -3.23533,0.4658 -3.51758,1.78125 -0.33135,0.31481 -0.55689,0.72118 -0.61133,1.2168 l -0.18164,1.65625 c -0.16687,1.51882 1.23544,3.19961 3.14844,3.76953 l 19.63281,5.84766 c -0.54281,0.5797 -1.02102,1.26176 -1.38867,2.04492 l -1.91992,4.08398 -17.7832,-3.95703 c -1.53126,-0.34084 -2.85641,0.15758 -3.39063,1.14258 -0.44329,0.31263 -0.75573,0.75538 -0.86328,1.30273 l -0.31445,1.61719 c -0.2914,1.48273 1.00585,3.14732 2.91406,3.73242 l 15.41992,4.72657 -85.36133,181.82421 -5.67773,-15.29882 64.39258,-195.74805 c 0.38308,-1.16418 0.46855,-2.34413 0.34375,-3.45117 0.21296,-2.52683 -0.86485,-4.86322 -2.92578,-5.82422 l -3.01758,-1.40625 c -2.76059,-1.28666 -6.19508,0.39413 -7.70703,3.76953 l -22.03711,49.19336 -22.74024,22.76758 5.54883,-15.64258 28.3418,-33.39453 c 0.43151,-0.647 0.75543,-1.29479 0.86328,-1.83399 0.3235,-1.0783 -5.8e-4,-2.04885 -0.86328,-2.58789 l -1.40235,-0.9707 c -1.40186,-0.86266 -3.55712,-0.43132 -4.95898,0.9707 l -13.4082,13.65235 14.85156,-41.86524 c 0.0336,-0.0925 0.0476,-0.18411 0.0781,-0.27734 1.44536,-3.31489 0.51934,-7.07519 -2.1289,-8.49805 l -2.69727,-1.45117 c -2.40177,-1.2905 -5.37254,-0.19909 -7.08984,2.42969 -0.56922,0.67632 -1.05098,1.48221 -1.38086,2.41211 l -0.51367,1.45508 -7.21875,15.60351 c -0.87545,0.17552 -1.73827,0.63549 -2.38477,1.33594 l -83.46094,87.88281 76.13086,-93.81641 c 0,0 -6e-4,-0.10742 0.10742,-0.10742 1.29402,-1.40181 1.40128,-3.23262 0.10743,-4.20312 l -1.29297,-0.86328 c -0.43151,-0.32348 -0.97062,-0.54102 -1.50977,-0.54102 -0.97051,0 -1.94202,0.32369 -2.80469,0.9707 -0.43151,0.3235 -0.86205,0.6472 -1.18554,0.97071 l -0.43164,0.64843 -146.654299,150.75 c -1.401855,1.40185 -1.509055,3.3444 -0.214844,4.20704 l 1.292969,0.96875 c 0.539152,0.43149 1.18655,0.5393 1.941406,0.43164 0,0.43151 0.109378,0.75656 0.216797,1.08007 0.108026,0.86265 0.322979,1.72328 0.646484,2.58594 l 0.753907,1.40235 39.86914,103.22265 -38.46094,83.12891 c -1.55207,3.35504 -0.63461,7.21892 2.0586,8.66601 l 2.70117,1.45313 c 2.69321,1.44705 6.10979,-0.0885 7.66211,-3.44336 l 33.09765,-71.53125 8.26953,21.4082 -21.44335,60.43946 c -0.43831,1.23584 -0.55072,2.49666 -0.40625,3.66796 -0.45114,2.74947 0.60751,5.38736 2.83007,6.42383 l 3.01758,1.40235 c 2.76063,1.28662 6.19506,-0.39237 7.70703,-3.76758 l 18.5918,-41.50391 12.75195,33.01563 -6.9707,21.1914 c -1.0617,3.22753 -0.0159,6.60002 2.32813,8.00977 0.48902,0.85023 1.1731,1.55794 2.07031,1.98828 l 2.99219,1.43359 c 2.74963,1.31861 6.22809,-0.30849 7.79882,-3.65429 l 1.63086,-3.47461 49.39258,127.88086 c 1.40181,3.34286 4.6366,5.60756 7.22461,5.06836 l 2.69531,-0.64649 c 2.69586,-0.53915 3.77448,-3.66842 2.48047,-7.11914 L 210.8242,637.85938 c 1.66192,-0.43675 3.21995,-1.73196 4.1543,-3.67774 l 2.78515,-5.80273 51.6836,106.47461 c 0.647,1.18615 1.40296,2.0494 2.26562,2.9121 1.6175,2.26451 4.09524,3.55716 6.25195,2.91016 l 2.80469,-0.7539 c 2.58802,-0.86266 3.56005,-4.09853 2.1582,-7.44141 l -32.95898,-82.6582 c 0.54464,0.77765 1.2564,1.40236 2.11328,1.78711 l 3.05859,1.37695 c 2.80566,1.25967 6.04239,-0.52456 7.25977,-3.99414 l 1.85938,-5.29883 42.49804,83.17969 c 1.61751,2.91152 4.53004,4.7458 6.90235,4.31445 0.97051,0.32351 1.83071,0.43085 2.69336,0.21484 l 2.80468,-0.86328 c 2.58802,-0.647 3.66707,-3.98921 2.37305,-7.33203 l -24.38086,-64.1875 4.5293,-13.2832 34.40625,74.55859 c 1.07832,2.58802 3.45033,4.31321 5.71484,4.63672 0.9705,0.53921 2.04901,0.64713 3.01953,0.43164 l 2.91211,-0.43164 c 2.69582,-0.53915 3.8819,-3.66691 2.58789,-7.00976 l -11.62695,-31.33399 c 2.27339,-0.20526 4.4275,-2.02803 5.30469,-4.75977 l 60.20117,-187.46093 -2.94727,22.7207 -40.45898,172.79492 c -0.023,0.0956 -0.0251,0.18743 -0.0449,0.28321 -1.0675,3.44264 0.26673,7.09004 3.05859,8.23632 l 2.84766,1.16993 c 2.53206,1.0397 5.36288,-0.3468 6.77734,-3.13477 0.49054,-0.73022 0.88116,-1.58099 1.10547,-2.53906 l 0.34961,-1.49805 5.93359,-17.72851 -2.21484,17.08789 c -0.50726,3.91365 1.55164,7.74222 4.61719,8.58789 l 3.07422,0.85156 c 3.06556,0.84566 5.94173,-1.62744 6.44921,-5.54102 l 11.98047,-92.40625 16.52149,-49.35547 -5.93946,147.61133 c -0.0566,1.40816 0.2137,2.7607 0.70703,3.95508 0.3861,3.00162 2.21092,5.50688 4.69336,6.03906 l 3.36914,0.72071 c 3.08319,0.66019 5.93645,-1.96582 6.39844,-5.89063 l 32.67969,-277.63476 0.13867,-0.41797 -5.19531,285.29492 c -0.0668,3.65684 1.96648,6.93807 4.67969,7.83203 0.73321,0.77077 1.61147,1.34099 2.61718,1.56836 l 3.35743,0.75977 c 3.08213,0.6965 5.9894,-1.88829 6.51757,-5.79688 l 30.58008,-226.32031 -14.12109,231.21875 c -0.19269,3.15483 1.22511,6.06712 3.35937,7.41797 0.7645,1.00653 1.74529,1.76411 2.8711,2.11523 l 3.32617,1.03516 c 3.04973,0.95112 5.95558,-1.41542 6.51562,-5.31055 l 9.72657,-67.64258 1.33984,0.0762 c 1.68345,0.0942 3.37236,-1.68859 3.78711,-3.99609 L 549.67383,506.20706 535.05859,657.0098 c -0.0789,0.81427 0.0282,1.55607 0.26368,2.17773 0.11483,1.67107 1.04768,2.87641 2.41601,2.86523 l 1.85742,-0.0195 c 1.69949,-0.0141 3.37981,-1.88129 3.76953,-4.18945 l 27.69922,-164.05859 -12.51562,164.6914 c -0.15993,2.10418 0.86454,3.72391 2.34961,3.89063 0.38354,0.34834 0.85421,0.56424 1.4082,0.5664 l 1.84961,0.008 c 1.69768,0.007 3.40783,-1.84699 3.83398,-4.1543 l 24.67579,-133.59766 -15.6504,134.3086 c -0.21352,1.83258 0.48247,3.32187 1.62891,3.82422 0.3931,0.47944 0.91441,0.78984 1.53125,0.84765 l 1.82227,0.16797 c 1.67104,0.15673 3.37291,-1.57139 3.8164,-3.875 l 47.39258,-246.1582 c 0.4435,-2.30363 -0.54578,-4.28475 -2.2168,-4.44141 l -1.82226,-0.16992 c -1.67107,-0.15675 -3.3729,1.56945 -3.81641,3.87305 l -29.63672,153.94921 18.06055,-155.0332 c 0.10614,-0.91046 -0.0187,-1.73385 -0.30273,-2.40039 -0.31257,-1.20905 -1.12531,-2.02305 -2.24219,-2.02734 l -1.84766,-0.0117 c -1.69768,-0.007 -3.40587,1.85087 -3.83203,4.1582 l -34.48047,186.68555 14.23633,-187.29883 c 0.0576,-0.75903 -0.0515,-1.44831 -0.26758,-2.03906 -0.21717,-1.4817 -1.12377,-2.5104 -2.39258,-2.5 l -1.85546,0.0176 c -1.6995,0.0141 -3.38182,1.88118 -3.77149,4.18945 l -23.8457,141.24609 13.80664,-142.48633 c 0.005,-0.0613 0.002,-0.11508 0.006,-0.17578 0.36081,-2.25628 -0.64933,-4.13003 -2.30469,-4.22265 l -1.6875,-0.0937 c -1.5013,-0.0837 -3.00305,1.32328 -3.60547,3.26562 -0.22549,0.53383 -0.38201,1.11975 -0.4414,1.73242 l -0.0937,0.95704 -27.64258,153.81445 36.4375,-253.42578 c 0.56009,-3.89509 -1.44446,-7.79496 -4.49414,-8.7461 l -3.32422,-1.03906 c -3.04969,-0.95112 -5.95364,1.42134 -6.51367,5.31641 l -37.42793,260.3024 16.29883,-266.89258 c 0.0957,-1.5674 -0.21217,-3.07174 -0.79883,-4.36523 -0.6959,-2.26429 -2.26342,-4.03599 -4.29101,-4.49414 l -3.35547,-0.76172 c -2.96497,-0.67013 -5.75688,1.70244 -6.43555,5.36328 l -37.13867,-11.06445 c -0.11664,-0.50357 -0.26246,-0.99599 -0.44922,-1.46094 -0.5517,-2.70805 -2.30554,-4.89136 -4.60742,-5.38477 l -3.36914,-0.7207 c -2.3554,-0.50437 -4.57033,0.91394 -5.69336,3.35938 l -19.04492,-5.67383 c -0.22399,-3.20777 -2.07812,-6.03299 -4.65625,-6.74414 l -3.07032,-0.84961 c -0.34173,-0.0942 -0.6819,-0.1498 -1.01562,-0.16406 l 0,0.002 c -2.10317,-0.0899 -3.97726,1.36533 -4.89844,3.69336 l -59.54101,-17.73828 157.22851,28.04297 c 0.63716,0.11366 1.23129,0.0727 1.75195,-0.0723 1.27511,-0.0733 2.23008,-0.79719 2.3418,-1.93359 l 0.16211,-1.66211 c 0.14931,-1.52215 -1.27416,-3.1814 -3.19141,-3.71875 l -117.32226,-32.88282 119.32617,23.9961 c 0.0513,0.0112 0.0995,0.0109 0.15039,0.0195 1.87601,0.50727 3.55731,-0.2429 3.79297,-1.7168 l 0.24219,-1.5 c 0.21374,-1.33676 -0.83662,-2.79631 -2.42383,-3.49414 -0.43055,-0.24544 -0.91073,-0.43388 -1.42383,-0.53711 l -0.80469,-0.16211 -202.92968,-59.33203 c -0.47858,-0.13991 -0.94542,-0.19526 -1.38086,-0.17968 z m 25.82422,56.94726 77.01171,22.94141 -0.0176,0.14453 -44.56446,-9.91797 -1.03125,-0.46289 c -0.82706,-0.37132 -1.68809,-0.45212 -2.52734,-0.33008 l -29.40234,-6.54297 0.23242,-0.61328 c 0.51922,-1.3681 0.63808,-2.77427 0.43164,-4.05469 -0.009,-0.39989 -0.0597,-0.78571 -0.13281,-1.16406 z m -108.81055,4.23047 -19.20117,41.49805 -61.22852,62.34375 80.42969,-103.8418 z m 104.52539,11.50195 19.5332,5.98828 -103.56054,215.66407 -0.0391,-0.10743 84.06641,-221.54492 z m 47.16406,7.07422 14.5957,3.2461 c -0.44333,0.22663 -0.87373,0.49666 -1.26757,0.83984 l -13.32813,-4.08594 z m 23.4668,5.22266 9.72656,2.16406 -0.34766,2.68359 -6.50781,-1.99609 c -0.58544,-1.00417 -1.3967,-1.81525 -2.39258,-2.28125 -0.14801,-0.20272 -0.30761,-0.39077 -0.47851,-0.57031 z m -28.75977,0.53906 15.40039,4.72656 -67.75,198.69532 52.34961,-203.42188 z m -201.16015,3.05078 -78.50196,96.72461 -1.61914,-3.3418 c -0.10802,0 -0.10742,-0.10736 -0.10742,-0.21484 -1.07832,-2.6958 -3.45048,-4.63782 -5.71484,-4.85352 l 85.94336,-88.31445 z m 254.92773,1.97461 17.72656,3.94531 -0.63281,5.3711 -17.25586,-5.29102 0.16211,-4.02539 z m -232.39062,0.0742 -70.52149,91.00977 -2.69726,-5.28321 c -0.53915,-1.07836 -1.18812,-1.94045 -2.05078,-2.69531 -0.647,-0.75485 -1.29398,-1.29521 -2.04883,-1.72656 l 77.31836,-81.30469 z m 210.63671,4.71875 5.20313,1.5957 -15.55078,119.94922 -43.67383,135.9961 54.02148,-257.54102 z m 55.49024,2.71484 35.92773,7.9961 -1.28906,9.53515 -34.76367,-10.6582 0.125,-6.87305 z m -214.98828,1.89649 -38.58594,86.13672 -2.49609,-6.72266 21.05273,-59.33789 20.0293,-20.07617 z m 180.79687,1.91992 4.82422,1.48047 c -0.0101,0.0324 -0.0304,0.057 -0.041,0.0898 l -5.54102,17.25196 0.75781,-18.82227 z m 33.9336,10.40625 7.98633,2.44922 c -0.96794,0.78811 -1.76913,1.90705 -2.23633,3.30273 l -6.19141,18.5 0.44141,-24.25195 z m 18.69336,5.73242 15.24414,4.67383 -39.44336,291.89258 4.20703,-230.97852 20.14648,-60.18945 c 0.62843,-1.87779 0.51132,-3.81369 -0.15429,-5.39844 z m -282.08203,5.82227 -32.99805,38.92773 c -0.2155,-0.2155 -0.43256,-0.3214 -0.75586,-0.53711 -0.647,-0.7548 -1.5084,-1.29565 -2.37109,-1.61914 l 36.125,-36.77148 z m 243.4707,6.05664 -11.76758,99.98047 -8.40625,25.11132 1.89063,-47.00976 18.2832,-78.08203 z M 353.6875,345.32031 284.85156,541.50586 273.79102,511.70312 353.6875,345.32031 Z m -147.01562,0.29688 -1.08204,2.34179 -6.01953,6.02735 7.10157,-8.36914 z m 47.95703,11.77734 -17.9043,54.42578 -2.93359,-7.9082 20.83789,-46.51758 z m -57.96094,9.84766 -4.89844,10.58984 -1.79687,-3.89648 6.69531,-6.69336 z m -24.16406,0.11719 1.94336,4.85156 -21.78516,25.66406 -3.44922,-6.79297 23.29102,-23.72265 z m 36.5664,6.60742 0.73242,1.97461 -8.2207,23.17187 -2.07031,-4.48828 9.55859,-20.6582 z m -80.5625,5.35937 5.39258,13.58789 -5.17578,6.57813 c -1.07836,1.40186 -0.97111,3.0182 0.10742,3.88086 0.10803,0.43151 0.43212,0.86203 0.86328,1.18554 l 1.40039,0.86329 c 1.40186,0.86264 3.56103,0.4313 4.96289,-0.97071 l 1.72266,-1.72461 19.67969,49.25586 -5.50586,11.90039 -35.0918,-72.26172 0.32227,-0.32421 11.32226,-11.97071 z m 263.41797,1.73828 -60.16797,286.83789 -19.61523,-52.85742 79.7832,-233.98047 z m -212.73437,3.6543 4.23632,11.13477 -15.12695,32.69921 -11.10937,-21.72851 22,-22.10547 z m 38.34179,12.06836 1.70118,4.58789 -8.18555,18.27344 -0.91797,-1.99219 7.40234,-20.86914 z m -27.10156,17.46289 2.99024,7.85938 -11.63672,32.80664 -5.33789,-10.4375 13.98437,-30.22852 z m 153.32422,2.875 -43.02344,167.17383 -8.03515,-21.6543 51.05859,-145.51953 z m -117.41406,3.41406 3.98242,10.73828 -5.79297,17.61328 -5.52344,-11.97851 7.33399,-16.37305 z m 51.32226,3.50586 -18.40234,48.5 -1.92774,-5.1914 20.33008,-43.3086 z m -39.39844,28.64063 4.46876,12.05078 -5.49805,11.71289 -3.96289,-8.59375 4.99218,-15.16992 z m -30.04492,8.30468 6.61328,17.37696 -8.24218,25.06054 -9.26563,-18.11718 10.89453,-24.32032 z m -43.57226,8.98438 6.24609,15.63281 -3.54101,9.98242 -7.45508,-15.34961 4.75,-10.26562 z m 259.49023,12.07617 -0.85547,21.25195 -9.13672,27.29493 1.70704,-13.16211 8.28515,-35.38477 z m -174.41797,1.52149 2.64649,7.13867 -3.86328,10.18164 -3.42579,-7.4336 4.64258,-9.88671 z m 190.51172,13.61132 -3.15625,26.8086 0.79492,-19.75586 2.36133,-7.05274 z m -217.36133,2.29883 1.58985,4.17774 -8.4961,18.09961 -0.25781,-0.50196 7.16406,-21.77539 z m -32.07812,0.41211 10.31641,20.19336 -1.29688,3.94531 -9.33984,-23.42187 0.32031,-0.7168 z m -7.5,16.74414 10.39258,26.01563 -1.40235,4.26758 -11.73242,-24.16016 2.74219,-6.12305 z m 48.25391,5.64453 4.42773,11.62891 -5.87695,15.48633 -5.88086,-11.5 7.33008,-15.61524 z m 34.54882,5.44336 12.1211,32.68555 -0.98047,2.79883 -13.80274,-29.9375 2.66211,-5.54688 z m -92.28906,10.08985 12.79688,26.36523 -1.9668,5.98438 -11.73633,-30.33008 0.90625,-2.01953 z m 82.66406,9.95898 14.87305,32.22852 -2.01953,5.75976 -13.73438,-36.15625 0.88086,-1.83203 z m -38.96093,4.41211 6.61718,12.94922 -3.86523,10.18555 -6.25195,-15.67774 3.5,-7.45703 z m 30.4707,13.26758 14.81055,38.91992 -1.86329,5.31445 -17.63281,-34.48047 4.68555,-9.7539 z m -41.2832,9.76562 3.11718,7.80274 -3.44726,-7.09766 0.33008,-0.70508 z m 79.36328,6.33789 1.5039,4.05274 -1.66015,-3.60156 0.15625,-0.45118 z m -49.56055,7.80079 18.71094,36.62304 -5.9961,17.08985 c -0.46963,1.33841 -0.55972,2.72498 -0.34179,3.99804 L 230.6875,601.46875 236.5,589.35938 Z m -37.04688,1.29296 8.41407,17.33399 -4.25781,11.2207 -7.9336,-20.50586 3.77734,-8.04883 z m 80.56055,8.13868 10.90625,23.63476 -3.09765,12.03906 -10.56446,-27.8125 2.75586,-7.86132 z m -9.27929,26.44921 5.39648,14.18165 -6.15039,-12.03126 0.75391,-2.15039 z"
         style="fill:#cccccc;fill-opacity:1;fill-rule:nonzero;stroke:#000000;stroke-width:0.66097111;stroke-linecap:butt;stroke-linejoin:miter;stroke-miterlimit:2;stroke-dasharray:none;stroke-opacity:1"
         inkscape:connector-curvature="0" />
    </g>
  </g>
</svg>
