<?xml version="1.0" encoding="UTF-8" standalone="no"?>
<!-- Created with Inkscape (http://www.inkscape.org/) -->

<svg
   xmlns:dc="http://purl.org/dc/elements/1.1/"
   xmlns:cc="http://creativecommons.org/ns#"
   xmlns:rdf="http://www.w3.org/1999/02/22-rdf-syntax-ns#"
   xmlns:svg="http://www.w3.org/2000/svg"
   xmlns="http://www.w3.org/2000/svg"
   xmlns:sodipodi="http://sodipodi.sourceforge.net/DTD/sodipodi-0.dtd"
   xmlns:inkscape="http://www.inkscape.org/namespaces/inkscape"
   width="162.43881mm"
   height="162.43881mm"
   viewBox="0 0 575.57059 575.57059"
   id="svg2"
   version="1.1"
   inkscape:version="0.91 r13725"
   sodipodi:docname="049_top view with ecoli (Stage 3).svg">
  <defs
     id="defs4">
    <pattern
       y="0"
       x="0"
       height="6"
       width="6"
       patternUnits="userSpaceOnUse"
       id="EMFhbasepattern" />
  </defs>
  <sodipodi:namedview
     id="base"
     pagecolor="#ffffff"
     bordercolor="#666666"
     borderopacity="1.0"
     inkscape:pageopacity="0.0"
     inkscape:pageshadow="2"
     inkscape:zoom="0.98994949"
     inkscape:cx="310.93781"
     inkscape:cy="308.49725"
     inkscape:document-units="px"
     inkscape:current-layer="layer1"
     showgrid="false"
     inkscape:window-width="1600"
     inkscape:window-height="837"
     inkscape:window-x="-8"
     inkscape:window-y="-8"
     inkscape:window-maximized="1"
     fit-margin-top="0"
     fit-margin-left="0"
     fit-margin-right="0"
     fit-margin-bottom="0" />
  <metadata
     id="metadata7">
    <rdf:RDF>
      <cc:Work
         rdf:about="">
        <dc:format>image/svg+xml</dc:format>
        <dc:type
           rdf:resource="http://purl.org/dc/dcmitype/StillImage" />
        <dc:title></dc:title>
      </cc:Work>
    </rdf:RDF>
  </metadata>
  <g
     inkscape:label="Layer 1"
     inkscape:groupmode="layer"
     id="layer1"
     transform="translate(-130.78615,-271.71982)">
    <g
       id="g4185">
      <path
         style="fill:#f2f2f2;fill-opacity:1;fill-rule:nonzero;stroke:#000000;stroke-width:1.43892539px;stroke-linecap:butt;stroke-linejoin:miter;stroke-miterlimit:2;stroke-dasharray:none;stroke-opacity:1"
         d="m 686.59536,559.12077 c 0,148.30509 -120.29506,268.6001 -268.60015,268.6001 -148.40099,0 -268.59897,-120.29501 -268.59897,-268.6001 0,-148.40099 120.19798,-268.59898 268.59897,-268.59898 148.30509,0 268.60015,120.19799 268.60015,268.59898 z"
         id="path4141"
         inkscape:connector-curvature="0" />
      <path
         style="fill:#f2f2f2;fill-opacity:1;fill-rule:nonzero;stroke:#000000;stroke-width:1.15114045px;stroke-linecap:butt;stroke-linejoin:miter;stroke-miterlimit:2;stroke-dasharray:none;stroke-opacity:1"
         d="m 705.78116,559.5045 c 0,158.66539 -128.54494,287.21033 -287.21038,287.21033 -158.66539,0 -287.20906,-128.54494 -287.20906,-287.21033 0,-158.66543 128.54367,-287.20911 287.20906,-287.20911 158.66544,0 287.21038,128.54368 287.21038,287.20911 z"
         id="path4143"
         inkscape:connector-curvature="0" />
      <path
         style="opacity:0.8;fill:#cccccc;fill-opacity:1;fill-rule:nonzero;stroke:#000000;stroke-width:1.43892539px;stroke-linecap:butt;stroke-linejoin:miter;stroke-miterlimit:2;stroke-dasharray:none;stroke-opacity:1"
         d="m 679.59252,559.02487 c 0,144.46787 -117.03345,261.50132 -261.40542,261.50132 -144.46792,0 -261.50024,-117.03345 -261.50024,-261.50132 0,-144.37202 117.03232,-261.40434 261.50024,-261.40434 144.37197,0 261.40542,117.03232 261.40542,261.40434 z"
         id="path4145"
         inkscape:connector-curvature="0" />
      <path
         inkscape:connector-curvature="0"
         id="path4147"
         d="m 390.02734,304.5918 c -1.16214,0.0415 -2.06861,0.66788 -2.22851,1.66797 l -0.21485,1.33984 c -0.21318,1.33344 0.98459,2.8048 2.6875,3.30273 l 110.9375,32.4375 -112.34375,-22.5957 c -0.60661,-0.122 -1.17399,-0.0914 -1.66211,0.0508 -1.26832,-0.03 -2.25215,0.62658 -2.35937,1.7168 l -0.14648,1.47851 c -0.13283,1.35411 1.1324,2.83054 2.83789,3.3086 l 121.22461,33.97656 -122.98438,-21.93555 c -1.57133,-0.28027 -2.87782,0.41571 -3.12891,1.58594 -0.29477,0.28005 -0.49649,0.64112 -0.54492,1.08203 l -0.16015,1.47266 c -0.14845,1.35114 1.09898,2.84651 2.80078,3.35351 l 17.46484,5.20313 c -0.48289,0.5157 -0.90927,1.12166 -1.23633,1.81836 l -1.70703,3.63281 -15.82031,-3.51953 c -1.36221,-0.30321 -2.54039,0.13937 -3.01563,1.01563 -0.39435,0.27811 -0.67189,0.67323 -0.76757,1.16015 l -0.28125,1.4375 c -0.25923,1.31904 0.89621,2.7998 2.59375,3.32031 l 13.71679,4.20508 -75.9375,161.75196 -5.05078,-13.61133 57.28321,-174.13672 c 0.34079,-1.03565 0.41766,-2.08549 0.30664,-3.07031 0.18945,-2.24787 -0.77012,-4.32673 -2.60352,-5.18164 l -2.68359,-1.25 c -2.45582,-1.14461 -5.5124,0.35075 -6.85743,3.35351 l -19.60351,43.76172 -20.23047,20.25391 4.9375,-13.91602 25.21289,-29.70703 c 0.38387,-0.57557 0.67164,-1.15119 0.76758,-1.63086 0.28779,-0.95926 -1.2e-4,-1.8232 -0.76758,-2.30273 l -1.24805,-0.86329 c -1.24709,-0.76742 -3.16502,-0.38395 -4.41211,0.86329 l -11.92773,12.14453 13.21289,-37.24219 c 0.0299,-0.0823 0.0413,-0.16511 0.0684,-0.24805 1.28579,-2.94892 0.4633,-6.29282 -1.89258,-7.55859 l -2.40039,-1.29102 c -2.13661,-1.14803 -4.77893,-0.17841 -6.30664,2.16016 -0.50638,0.60165 -0.93506,1.31924 -1.22852,2.14648 l -0.45703,1.29492 -6.42187,13.88086 c -0.7788,0.15614 -1.54597,0.56438 -2.1211,1.1875 l -74.24804,78.18164 67.72656,-83.45898 c 0,0 -4e-4,-0.0957 0.0957,-0.0957 1.15115,-1.24705 1.24671,-2.87688 0.0957,-3.74024 l -1.15039,-0.76758 c -0.38387,-0.28777 -0.86412,-0.48046 -1.34375,-0.48046 -0.86336,0 -1.72672,0.2877 -2.49414,0.86328 -0.38387,0.28778 -0.76691,0.57549 -1.05469,0.86328 l -0.38477,0.57617 -130.46289,134.10742 c -1.24709,1.24709 -1.34273,2.97478 -0.1914,3.74219 l 1.15039,0.86328 c 0.47963,0.38386 1.05504,0.47858 1.72656,0.38281 0,0.38387 0.0978,0.67315 0.19336,0.96094 0.0961,0.76742 0.28643,1.53336 0.57422,2.30078 l 0.67187,1.24805 35.4668,91.82617 -34.21484,73.95117 c -1.38072,2.98464 -0.56385,6.42166 1.83203,7.70899 l 2.40234,1.29297 c 2.39588,1.2873 5.43547,-0.078 6.81641,-3.0625 l 29.44336,-63.63477 7.35742,19.04492 -19.07617,53.76758 c -0.38992,1.0994 -0.48985,2.21973 -0.36133,3.26172 -0.40133,2.44593 0.54039,4.7928 2.51758,5.71484 l 2.68359,1.24805 c 2.45586,1.14458 5.51238,-0.34897 6.85742,-3.35156 l 16.53906,-36.92188 11.34375,29.3711 -6.20117,18.85156 c -0.94449,2.87121 -0.0149,5.87089 2.07031,7.125 0.43503,0.75637 1.04364,1.3867 1.8418,1.76953 l 2.66211,1.27539 c 2.44608,1.17303 5.54018,-0.27552 6.9375,-3.25195 l 1.45117,-3.08985 43.93946,113.76172 c 1.24705,2.97381 4.12543,4.98944 6.42773,4.50977 l 2.39844,-0.57617 c 2.39824,-0.47963 3.35623,-3.26228 2.20508,-6.33204 l -34.97852,-90.41015 c 1.47844,-0.38853 2.86411,-1.54053 3.69531,-3.27149 l 2.47852,-5.1621 45.97656,94.7207 c 0.57557,1.0552 1.24821,1.82238 2.01563,2.58984 1.43893,2.01451 3.64389,3.16542 5.5625,2.58985 l 2.49414,-0.67188 c 2.3023,-0.76742 3.16701,-3.64532 1.91992,-6.61914 l -29.32031,-73.5332 c 0.48451,0.6918 1.11858,1.24758 1.88086,1.58984 l 2.7207,1.22461 c 2.49591,1.1206 5.376,-0.46619 6.45898,-3.55273 l 1.6543,-4.71289 37.80469,73.99609 c 1.43894,2.59009 4.03021,4.22162 6.14062,3.83789 0.86336,0.28779 1.62908,0.38357 2.39649,0.19141 l 2.49414,-0.76758 c 2.3023,-0.57557 3.26248,-3.54967 2.11132,-6.52344 l -21.68945,-57.10156 4.0293,-11.81641 30.60937,66.32813 c 0.95927,2.3023 3.06948,3.83721 5.08399,4.125 0.86336,0.47968 1.82218,0.57451 2.68555,0.38281 l 2.58984,-0.38281 c 2.3982,-0.47963 3.45388,-3.26252 2.30273,-6.23633 l -10.34375,-27.875 c 2.0224,-0.1826 3.9384,-1.80422 4.71875,-4.23438 L 464.41605,543.3633 418.00589,741.57424 c -0.0205,0.085 -0.0214,0.16674 -0.0391,0.25195 -0.94965,3.06257 0.23706,6.30644 2.7207,7.32617 l 2.5332,1.04102 c 2.25252,0.92491 4.771,-0.30888 6.0293,-2.78906 0.43639,-0.6496 0.78288,-1.40552 0.98242,-2.25782 l 0.31055,-1.33398 110.27539,-329.44141 c 0.55905,-1.67048 0.45346,-3.39294 -0.13867,-4.80273 l 22.6914,6.95703 c 1.69754,0.52054 3.27203,-0.12239 3.53125,-1.44141 l 0.28516,-1.43945 c 0.25923,-1.31904 -0.90012,-2.79979 -2.59766,-3.32031 l -90.01367,-27.59961 c -0.52081,-0.89331 -1.24297,-1.61475 -2.1289,-2.0293 -0.13167,-0.18034 -0.27376,-0.34809 -0.42579,-0.50781 l 94.36329,21 c 0.67678,0.15066 1.30793,0.11345 1.83398,-0.0645 0.93705,-0.16098 1.61919,-0.75175 1.7168,-1.64063 l 0.16406,-1.46875 c 0.14846,-1.35112 -1.1029,-2.84653 -2.80469,-3.35351 L 429.59766,353.63867 569.4668,378.58594 c 0.56681,0.10111 1.09541,0.0645 1.55859,-0.0645 1.13434,-0.0652 1.9846,-0.70976 2.08399,-1.7207 l 0.14453,-1.47851 c 0.13283,-1.3541 -1.13426,-2.83057 -2.83985,-3.3086 l -104.36914,-29.25195 106.15235,21.34766 c 0.0456,0.01 0.0875,0.01 0.13281,0.0176 1.6689,0.45127 3.16536,-0.21616 3.375,-1.52734 l 0.21484,-1.33594 c 0.19014,-1.18918 -0.74427,-2.48663 -2.15625,-3.10742 -0.38302,-0.21834 -0.80917,-0.38669 -1.26562,-0.47852 l -0.7168,-0.14453 -180.52539,-52.78125 c -0.42574,-0.12446 -0.84115,-0.174 -1.22852,-0.16015 z M 413,355.25195 l 70.28125,20.93555 -41.43164,-9.2207 -0.91797,-0.41211 c -0.73575,-0.33033 -1.50146,-0.40154 -2.24805,-0.29297 l -26.15625,-5.82031 0.20704,-0.54688 c 0.4619,-1.21706 0.56841,-2.46641 0.38476,-3.60547 -0.008,-0.35574 -0.0541,-0.70053 -0.11914,-1.03711 z m -96.79688,3.76367 -17.08203,36.91797 -54.46875,55.46094 71.55078,-92.37891 z m 92.98438,10.23243 17.37695,5.32812 -92.12695,191.85352 -0.0352,-0.0957 74.78516,-197.08593 z m 41.95703,6.29297 12.98438,2.88867 c -0.39439,0.20162 -0.7766,0.44079 -1.12696,0.74609 l -11.85742,-3.63476 z m -4.70703,5.12695 13.69922,4.20312 -60.26953,176.75977 46.57031,-180.96289 z m -178.95312,2.71289 -69.83594,86.04687 -1.43946,-2.97265 c -0.0961,0 -0.0957,-0.0958 -0.0957,-0.19141 -0.95927,-2.39819 -3.06961,-4.12648 -5.08398,-4.31836 l 76.45508,-78.56445 z m 20.04882,1.82226 -62.73632,80.9629 -2.39844,-4.69922 c -0.47963,-0.95931 -1.0568,-1.72692 -1.82422,-2.39844 -0.57557,-0.67152 -1.15075,-1.15143 -1.82227,-1.53516 l 68.78125,-72.33008 z m 187.38282,4.19922 23.23828,7.12696 c -0.009,0.0288 -0.0258,0.0509 -0.0352,0.0801 l -71.25976,221.90039 48.05664,-229.10743 z m -141.88868,4.10157 -34.32617,76.62695 -2.2207,-5.98047 18.72851,-52.78711 17.81836,-17.85937 z m 177.66602,6.86914 20.46289,6.27539 c -0.86108,0.7011 -1.57461,1.6959 -1.99023,2.9375 l -67.76758,202.45117 49.11914,-209.7793 c 0.14915,-0.63736 0.19794,-1.26881 0.17578,-1.88476 z m -220.95313,14.375 -29.35546,34.63086 c -0.19171,-0.19171 -0.38427,-0.28663 -0.67188,-0.47852 -0.57557,-0.67147 -1.34191,-1.15167 -2.10937,-1.43945 l 32.13671,-32.71289 z m 121.94532,20.30273 -61.23633,174.52734 -9.83984,-26.51367 71.07617,-148.01367 z m -130.78516,0.26367 -0.96289,2.08399 -5.35547,5.36133 6.31836,-7.44532 z m 42.66211,10.47852 -15.92773,48.41601 -2.60938,-7.03515 18.53711,-41.38086 z M 272,454.55273 l -4.35742,9.41993 -1.59766,-3.46485 L 272,454.55273 Z m -21.49609,0.10352 1.72851,4.31641 -19.3789,22.83007 -3.06836,-6.04296 20.71875,-21.10352 z m 32.52929,5.87891 0.65235,1.75586 -7.31446,20.61328 -1.84179,-3.99219 8.5039,-18.37695 z m -71.66797,4.76757 4.79688,12.08789 -4.60352,5.85157 c -0.95931,1.2471 -0.86376,2.6857 0.0957,3.45312 0.0961,0.38387 0.38402,0.7669 0.76758,1.05469 l 1.24609,0.76758 c 1.24709,0.76742 3.16697,0.38395 4.41406,-0.86328 l 1.5332,-1.53516 17.50586,43.81836 -4.89648,10.58594 -31.21875,-64.28321 0.28711,-0.28906 10.07226,-10.64844 z m 234.33594,1.54688 -53.52539,255.16992 -17.44922,-47.02148 70.97461,-208.14844 z m -189.24805,3.25 3.76954,9.90625 -13.45704,29.08789 -9.88281,-19.32813 19.57031,-19.66601 z m 34.10938,10.73633 1.51367,4.08203 -7.2832,16.25586 -0.81641,-1.77344 6.58594,-18.56445 z m -24.10938,15.53515 2.66016,6.99219 -10.35351,29.1836 -4.74805,-9.28516 12.4414,-26.89063 z m 136.39649,2.55664 -38.27344,148.71875 -7.14844,-19.26367 45.42188,-129.45508 z m -104.45117,3.03711 3.54297,9.55274 -5.1543,15.66992 -4.91406,-10.65625 6.52539,-14.56641 z m 45.65625,3.11914 -16.3711,43.14649 -1.71484,-4.61914 18.08594,-38.52735 z m -35.04883,25.47852 3.97461,10.7207 -4.89063,10.41992 -3.52539,-7.64453 4.44141,-13.49609 z m -26.72852,7.38867 5.88282,15.45899 -7.33204,22.29296 -8.24218,-16.11718 9.6914,-21.63477 z m -38.76172,7.99219 5.55665,13.90625 -3.15039,8.88086 -6.63086,-13.6543 4.2246,-9.13281 z m 75.67969,12.0957 2.35547,6.35156 -3.4375,9.05665 -3.04687,-6.61133 4.1289,-8.79688 z m -23.88476,14.1543 1.41406,3.7168 -7.55859,16.10156 -0.22852,-0.44727 6.37305,-19.37109 z m -28.53711,0.36719 9.17773,17.96289 -1.15429,3.50976 -8.3086,-20.83593 0.28516,-0.63672 z m -6.67188,14.89453 9.2461,23.14453 -1.24805,3.79687 -10.4375,-21.49414 2.43945,-5.44726 z m 42.92774,5.02148 3.9375,10.34571 -5.22657,13.77734 -5.23242,-10.23047 6.52149,-13.89258 z m 30.73437,4.84375 10.78321,29.07617 -0.87305,2.49024 -12.2793,-26.63281 2.36914,-4.9336 z m -82.10156,8.97461 11.38477,23.45508 -1.75,5.32422 -10.43946,-26.98242 0.80469,-1.79688 z m 73.53906,8.85938 13.23047,28.67187 -1.79687,5.12305 -12.2168,-32.16406 0.7832,-1.63086 z m -34.66015,3.92578 5.88671,11.51953 -3.4375,9.06055 -5.5625,-13.94727 3.11329,-6.63281 z m 27.10742,11.80273 13.17578,34.62305 -1.6582,4.72852 -15.68555,-30.67383 4.16797,-8.67774 z m -36.72656,8.6875 2.77343,6.94141 -3.0664,-6.31445 0.29297,-0.62696 z m 70.60156,5.63867 1.33789,3.60547 -1.47656,-3.20507 0.13867,-0.4004 z m -44.08789,6.93946 16.64453,32.58008 -5.33399,15.20312 c -0.41778,1.19065 -0.49855,2.42413 -0.30468,3.55664 l -16.17774,-40.56836 5.17188,-10.77148 z m -32.95703,1.15039 7.48437,15.41992 -3.78711,9.98242 -7.05859,-18.24219 3.36133,-7.16015 z m 71.66601,7.24023 9.70313,21.02539 -2.75586,10.70899 -9.39844,-24.74219 2.45117,-6.99219 z m -8.25391,23.5293 4.80079,12.61523 -5.47266,-10.70312 0.67187,-1.91211 z"
         style="fill:#cccccc;fill-opacity:1;fill-rule:nonzero;stroke:#000000;stroke-width:0.588;stroke-linecap:butt;stroke-linejoin:miter;stroke-miterlimit:2;stroke-dasharray:none;stroke-opacity:1" />
    </g>
  </g>
</svg>
