<?xml version="1.0" encoding="UTF-8" standalone="no"?>
<!-- Created with Inkscape (http://www.inkscape.org/) -->

<svg
   xmlns:dc="http://purl.org/dc/elements/1.1/"
   xmlns:cc="http://creativecommons.org/ns#"
   xmlns:rdf="http://www.w3.org/1999/02/22-rdf-syntax-ns#"
   xmlns:svg="http://www.w3.org/2000/svg"
   xmlns="http://www.w3.org/2000/svg"
   xmlns:sodipodi="http://sodipodi.sourceforge.net/DTD/sodipodi-0.dtd"
   xmlns:inkscape="http://www.inkscape.org/namespaces/inkscape"
   width="98.595032mm"
   height="141.49373mm"
   viewBox="0 0 349.35247 501.35573"
   id="svg2"
   version="1.1"
   inkscape:version="0.91 r13725"
   sodipodi:docname="062_new transformation solution (no cap).svg">
  <defs
     id="defs4">
    <pattern
       y="0"
       x="0"
       height="6"
       width="6"
       patternUnits="userSpaceOnUse"
       id="EMFhbasepattern" />
  </defs>
  <sodipodi:namedview
     id="base"
     pagecolor="#ffffff"
     bordercolor="#666666"
     borderopacity="1.0"
     inkscape:pageopacity="0.0"
     inkscape:pageshadow="2"
     inkscape:zoom="0.49497475"
     inkscape:cx="-14.796033"
     inkscape:cy="415.41932"
     inkscape:document-units="px"
     inkscape:current-layer="layer1"
     showgrid="false"
     inkscape:window-width="1600"
     inkscape:window-height="837"
     inkscape:window-x="-8"
     inkscape:window-y="-8"
     inkscape:window-maximized="1"
     fit-margin-top="0"
     fit-margin-left="0"
     fit-margin-right="0"
     fit-margin-bottom="0" />
  <metadata
     id="metadata7">
    <rdf:RDF>
      <cc:Work
         rdf:about="">
        <dc:format>image/svg+xml</dc:format>
        <dc:type
           rdf:resource="http://purl.org/dc/dcmitype/StillImage" />
        <dc:title></dc:title>
      </cc:Work>
    </rdf:RDF>
  </metadata>
  <g
     inkscape:label="Layer 1"
     inkscape:groupmode="layer"
     id="layer1"
     transform="translate(-176.75233,-287.39865)">
    <path
       style="opacity:0.7;fill:#f2f2f2;fill-opacity:1;fill-rule:nonzero;stroke:#000000;stroke-width:0.69999999;stroke-miterlimit:4;stroke-dasharray:none;stroke-opacity:1"
       d="m 230.18359,287.74865 -10.10023,72.19727 0.4375,0 c -0.084,0.35602 -0.13282,0.72439 -0.13282,1.10547 l 0,57.85742 c 0,2.73832 2.29689,5.03515 5.03516,5.03515 l 251.74609,0 c 2.73832,0 4.94532,-2.29683 4.94532,-5.03515 l 0,-57.85742 c 0,-0.38185 -0.0515,-0.74879 -0.13282,-1.10547 l 0.26953,0 -9.69973,-72.19727 z"
       id="path3347"
       inkscape:connector-curvature="0"
       sodipodi:nodetypes="cccsssssscccc" />
    <path
       inkscape:connector-curvature="0"
       id="path3341"
       d="m 268.08747,386.31429 166.6815,0 c 50.43779,0 90.98234,40.6329 90.98234,90.98235 l 0,220.21022 c 0,50.3494 -40.54455,90.894 -90.98234,90.894 l -166.6815,0 c -50.43742,0 -90.98164,-40.5446 -90.98164,-90.894 l 0,-220.21022 c 0,-50.34945 40.54422,-90.98235 90.98164,-90.98235 z"
       style="opacity:0.7;fill:#f2f2f2;fill-opacity:1;fill-rule:nonzero;stroke:#000000;stroke-width:0.70700002;stroke-linecap:butt;stroke-linejoin:miter;stroke-miterlimit:4;stroke-dasharray:none;stroke-opacity:1" />
    <path
       inkscape:connector-curvature="0"
       id="path3351"
       d="m 183.02407,464.04678 334.24734,0 c 2.73831,0 4.76994,0.795 4.76994,1.94329 l 0,217.64859 c 0,1.06 -2.03163,2.0317 -4.76994,2.0317 l -334.24734,0 c -2.91497,0 -4.9466,-0.9717 -4.9466,-2.0317 l 0,-217.64859 c 0,-1.14829 2.03163,-1.94329 4.9466,-1.94329 z"
       style="fill:#ffff00;fill-opacity:1;fill-rule:nonzero;stroke:none" />
    <rect
       style="opacity:0.85;fill:#cccccc;stroke:#000000;stroke-width:0.72648931;stroke-miterlimit:4;stroke-dasharray:none;stroke-opacity:1"
       id="rect4244"
       width="261.16022"
       height="8.0866699"
       x="149.74426"
       y="378.27185"
       ry="4.043335"
       transform="matrix(0.99968319,-0.02516964,0.18257796,0.98319138,0,0)" />
    <rect
       transform="matrix(0.99963643,-0.02696297,0.17079325,0.98530689,0,0)"
       ry="4.0524454"
       y="316.70889"
       x="172.62117"
       height="8.1048908"
       width="244.86539"
       id="rect4246"
       style="opacity:0.85;fill:#cccccc;stroke:#000000;stroke-width:0.70425218;stroke-miterlimit:4;stroke-dasharray:none;stroke-opacity:1" />
    <rect
       style="opacity:0.85;fill:#cccccc;stroke:#000000;stroke-width:0.71555763;stroke-miterlimit:4;stroke-dasharray:none;stroke-opacity:1"
       id="rect4248"
       width="252.87866"
       height="8.1020594"
       x="163.27925"
       y="337.6774"
       ry="4.0510292"
       transform="matrix(0.99966004,-0.02607302,0.1764485,0.98430987,0,0)" />
    <rect
       transform="matrix(0.99968319,-0.02516964,0.18257796,0.98319138,0,0)"
       ry="4.043335"
       y="358.04279"
       x="154.15334"
       height="8.0866699"
       width="261.16022"
       id="rect4250"
       style="opacity:0.85;fill:#cccccc;stroke:#000000;stroke-width:0.72648931;stroke-miterlimit:4;stroke-dasharray:none;stroke-opacity:1" />
    <g
       id="g4246"
       transform="matrix(0.4409398,0,0,0.4409398,-8.0498581,122.63552)">
      <path
         style="fill:#000000;fill-opacity:1;fill-rule:nonzero;stroke:#000000;stroke-width:3.23360372px;stroke-linecap:butt;stroke-linejoin:miter;stroke-miterlimit:4;stroke-dasharray:none;stroke-opacity:1"
         d="m 486.71312,867.28457 -15.56171,0 0,38.39917 -5.86091,0 0,-38.39917 -15.56171,0 0,-5.25462 36.98433,0 0,5.25462 z"
         id="path4175"
         inkscape:connector-curvature="0" />
      <path
         style="fill:#000000;fill-opacity:1;fill-rule:nonzero;stroke:#000000;stroke-width:3.23360372px;stroke-linecap:butt;stroke-linejoin:miter;stroke-miterlimit:4;stroke-dasharray:none;stroke-opacity:1"
         d="m 506.72091,879.0064 -0.20242,0 c -0.80873,-0.20242 -1.61688,-0.40388 -2.42523,-0.40388 -0.80872,-0.20242 -1.81872,-0.20242 -2.8292,-0.20242 -1.61678,0 -3.23366,0.40388 -4.85044,1.21261 -1.61678,0.6063 -3.03152,1.61678 -4.64831,2.82939 l 0,23.24164 -5.45674,0 0,-32.74039 5.45674,0 0,4.85044 c 2.22309,-1.81891 4.24414,-3.03152 5.86092,-3.63783 1.61678,-0.80872 3.4357,-1.21261 5.05258,-1.21261 1.01019,0 1.61649,0 2.2228,0.20242 0.40388,0 1.01057,0 1.81891,0.20242 l 0,5.65879 z"
         id="path4177"
         inkscape:connector-curvature="0" />
      <path
         style="fill:#000000;fill-opacity:1;fill-rule:nonzero;stroke:#000000;stroke-width:3.23360372px;stroke-linecap:butt;stroke-linejoin:miter;stroke-miterlimit:4;stroke-dasharray:none;stroke-opacity:1"
         d="m 536.42986,905.68374 -5.65878,0 0,-3.4358 c -0.40389,0.20242 -1.01058,0.80873 -1.81892,1.41475 -0.80873,0.6063 -1.61688,1.01047 -2.42522,1.41474 -1.01057,0.40389 -2.02105,0.80873 -3.23366,1.01048 -1.21261,0.40388 -2.62735,0.6063 -4.24414,0.6063 -2.82939,0 -5.45674,-1.01047 -7.47779,-3.03152 -2.02096,-2.02105 -3.03153,-4.44627 -3.03153,-7.4778 0,-2.42522 0.60631,-4.44617 1.61688,-6.06305 1.01048,-1.41465 2.62726,-2.62726 4.44617,-3.63783 2.02105,-0.80873 4.44627,-1.41456 7.27567,-1.61669 2.82948,-0.40388 5.86101,-0.6063 8.89254,-0.80872 l 0,-0.80873 c 0,-1.21261 -0.20242,-2.22318 -0.60631,-3.03153 -0.40388,-1.01057 -1.01057,-1.61687 -1.81892,-2.02104 -0.80872,-0.40389 -1.81891,-0.80873 -2.82948,-0.80873 -1.01048,-0.20242 -2.22309,-0.40388 -3.4357,-0.40388 -1.41474,0 -3.03153,0.20242 -4.85044,0.6063 -1.81892,0.40389 -3.63783,1.01048 -5.45675,1.61678 l -0.40388,0 0,-5.45665 c 1.21261,-0.40388 2.62725,-0.6063 4.6483,-1.01048 2.02105,-0.40388 4.04201,-0.6063 6.06306,-0.6063 2.42522,0 4.24413,0.20242 6.06305,0.6063 1.61678,0.40389 3.23366,1.01048 4.44627,2.02096 1.21261,0.80872 2.22309,2.02105 2.82939,3.4357 0.60631,1.41474 1.01048,3.23366 1.01048,5.25461 l 0,22.23116 z m -5.65878,-8.08411 0,-9.09457 c -1.61688,0.20242 -3.63784,0.20242 -5.86102,0.40388 -2.22309,0.20242 -4.042,0.60631 -5.45674,1.01057 -1.41465,0.40389 -2.8294,1.01048 -3.83987,2.02096 -0.80873,1.01057 -1.41475,2.22318 -1.41475,3.83996 0,1.81892 0.60631,3.23366 1.81892,4.24414 1.01047,1.01048 2.82939,1.41474 5.05257,1.41474 2.02096,0 3.83987,-0.40388 5.25462,-1.01057 1.61678,-0.80872 3.23366,-1.81891 4.44627,-2.82939 z"
         id="path4179"
         inkscape:connector-curvature="0" />
      <path
         style="fill:#000000;fill-opacity:1;fill-rule:nonzero;stroke:#000000;stroke-width:3.23360372px;stroke-linecap:butt;stroke-linejoin:miter;stroke-miterlimit:4;stroke-dasharray:none;stroke-opacity:1"
         d="m 574.42476,905.68374 -5.65888,0 0,-18.59343 c 0,-1.61678 0,-3.03143 -0.20242,-4.24404 -0.20242,-1.41465 -0.40388,-2.42512 -1.01047,-3.03143 -0.40389,-0.80872 -1.21261,-1.41474 -2.02105,-1.81891 -1.01048,-0.40389 -2.22309,-0.60631 -3.63783,-0.60631 -1.41475,0 -3.03153,0.20242 -4.64831,1.01048 -1.61688,0.80872 -3.23366,1.81891 -4.64841,2.82939 l 0,24.45425 -5.65878,0 0,-32.74039 5.65878,0 0,3.63783 c 1.61688,-1.41474 3.4358,-2.42522 5.25471,-3.23356 1.81892,-0.80873 3.63783,-1.21261 5.65879,-1.21261 3.43579,0 6.26518,1.01047 8.0841,3.23356 1.81892,2.02105 2.82939,5.05258 2.82939,9.09458 l 0,21.22059 z"
         id="path4181"
         inkscape:connector-curvature="0" />
      <path
         style="fill:#000000;fill-opacity:1;fill-rule:nonzero;stroke:#000000;stroke-width:3.23360372px;stroke-linecap:butt;stroke-linejoin:miter;stroke-miterlimit:4;stroke-dasharray:none;stroke-opacity:1"
         d="m 608.37757,896.18489 c 0,3.03153 -1.21261,5.45675 -3.83997,7.4778 -2.42522,1.81891 -5.86091,2.82939 -10.10505,2.82939 -2.42522,0 -4.64831,-0.20242 -6.66936,-0.80873 -2.02105,-0.6063 -3.63783,-1.21261 -5.05257,-2.02105 l 0,-6.06305 0.40388,0 c 1.61688,1.21261 3.63783,2.22309 5.65888,3.03153 2.22309,0.80872 4.24414,1.21261 6.26519,1.21261 2.42522,0 4.24413,-0.40389 5.65878,-1.21261 1.21261,-0.80873 2.02105,-2.02105 2.02105,-3.63783 0,-1.41475 -0.40388,-2.22309 -1.21261,-3.03153 -0.6063,-0.6063 -2.02105,-1.21261 -4.24414,-1.61678 -0.80872,-0.20242 -1.81891,-0.40389 -3.03152,-0.60631 -1.21261,-0.20242 -2.42522,-0.40388 -3.4357,-0.80872 -2.82949,-0.80873 -4.85044,-1.81892 -6.06305,-3.23366 -1.21261,-1.61678 -1.81892,-3.4356 -1.81892,-5.45665 0,-1.41465 0.20242,-2.62726 0.80873,-3.83987 0.6063,-1.21261 1.41465,-2.22309 2.62726,-3.23366 1.01057,-0.80873 2.42522,-1.61678 4.0421,-2.22309 1.81891,-0.40388 3.63783,-0.80872 5.65878,-0.80872 2.02105,0 4.0421,0.40388 5.86101,0.80872 2.02096,0.40389 3.83987,1.01057 5.05248,1.61688 l 0,6.06296 -0.20242,0 c -1.41464,-1.21261 -3.23356,-2.02105 -5.25461,-2.62726 -1.81891,-0.80873 -3.83996,-1.21261 -5.86092,-1.21261 -2.02105,0 -3.63783,0.40388 -5.05257,1.21261 -1.41475,0.80872 -2.02105,2.02095 -2.02105,3.4357 0,1.41464 0.40388,2.42522 1.21261,3.03152 0.80872,0.80873 2.22318,1.21252 4.0421,1.61669 1.01047,0.40388 2.02095,0.6063 3.23356,0.80872 1.41475,0.20242 2.42522,0.40389 3.23366,0.60631 2.62736,0.6063 4.44627,1.61678 5.86092,3.03152 1.41474,1.41465 2.22318,3.4357 2.22318,5.65879 z"
         id="path4183"
         inkscape:connector-curvature="0" />
      <path
         style="fill:#000000;fill-opacity:1;fill-rule:nonzero;stroke:#000000;stroke-width:3.23360372px;stroke-linecap:butt;stroke-linejoin:miter;stroke-miterlimit:4;stroke-dasharray:none;stroke-opacity:1"
         d="m 633.8421,865.46565 -0.40388,0 c -0.60631,-0.20242 -1.41475,-0.40389 -2.22309,-0.60631 -1.01057,-0.20242 -1.81892,-0.20242 -2.62736,-0.20242 -2.42522,0 -4.042,0.60631 -5.25461,1.61679 -1.01057,1.01047 -1.41474,2.82939 -1.41474,5.65878 l 0,1.01048 9.90301,0 0,4.64831 -9.90301,0 0,28.09207 -5.45675,0 0,-28.09207 -3.63783,0 0,-4.64831 3.63783,0 0,-1.01048 c 0,-3.83987 1.01048,-6.87139 3.03153,-8.89235 1.81891,-2.22318 4.6483,-3.23366 8.28614,-3.23366 1.21261,0 2.42522,0 3.23365,0.20242 1.01048,0.20242 2.02105,0.20242 2.8294,0.40389 l 0,5.05248 z"
         id="path4185"
         inkscape:connector-curvature="0" />
      <path
         style="fill:#000000;fill-opacity:1;fill-rule:nonzero;stroke:#000000;stroke-width:3.23360372px;stroke-linecap:butt;stroke-linejoin:miter;stroke-miterlimit:4;stroke-dasharray:none;stroke-opacity:1"
         d="m 665.16765,889.3135 c 0,5.45674 -1.41475,9.49875 -4.0421,12.7324 -2.82939,3.03153 -6.46723,4.64831 -11.11553,4.64831 -4.64812,0 -8.28595,-1.61678 -10.91321,-4.64831 -2.82949,-3.23365 -4.0421,-7.27566 -4.0421,-12.7324 0,-5.25462 1.21261,-9.49866 4.0421,-12.53018 2.62726,-3.23366 6.26509,-4.64831 10.91321,-4.64831 4.6483,0 8.28614,1.41465 11.11553,4.64831 2.62735,3.03152 4.0421,7.27556 4.0421,12.53018 z m -5.65888,0 c 0,-4.24405 -0.80873,-7.27557 -2.42522,-9.29662 -1.81892,-2.22309 -4.04201,-3.23356 -7.07353,-3.23356 -2.8292,0 -5.25443,1.01047 -6.87121,3.23356 -1.61678,2.02105 -2.42522,5.05257 -2.42522,9.29662 0,4.042 0.80873,7.27566 2.42522,9.29661 1.61678,2.22318 4.04201,3.23366 6.87121,3.23366 3.03152,0 5.25461,-1.01048 6.87139,-3.03152 1.81892,-2.22309 2.62736,-5.25462 2.62736,-9.49875 z"
         id="path4187"
         inkscape:connector-curvature="0" />
      <path
         style="fill:#000000;fill-opacity:1;fill-rule:nonzero;stroke:#000000;stroke-width:3.23360372px;stroke-linecap:butt;stroke-linejoin:miter;stroke-miterlimit:4;stroke-dasharray:none;stroke-opacity:1"
         d="m 694.06788,879.0064 -0.20242,0 c -0.80873,-0.20242 -1.61679,-0.40388 -2.42522,-0.40388 -0.80873,-0.20242 -1.61679,-0.20242 -2.8294,-0.20242 -1.61678,0 -3.23366,0.40388 -4.85015,1.21261 -1.61688,0.6063 -3.03153,1.61678 -4.44627,2.82939 l 0,23.24164 -5.65888,0 0,-32.74039 5.65888,0 0,4.85044 c 2.02105,-1.81891 4.042,-3.03152 5.65859,-3.63783 1.61678,-0.80872 3.4357,-1.21261 5.05258,-1.21261 1.01047,0 1.81891,0 2.22308,0.20242 0.40389,0 1.01048,0 1.81892,0.20242 l 0,5.65879 z"
         id="path4189"
         inkscape:connector-curvature="0" />
      <path
         style="fill:#000000;fill-opacity:1;fill-rule:nonzero;stroke:#000000;stroke-width:3.23360372px;stroke-linecap:butt;stroke-linejoin:miter;stroke-miterlimit:4;stroke-dasharray:none;stroke-opacity:1"
         d="m 747.0177,905.68374 -5.45674,0 0,-18.59343 c 0,-1.41465 0,-2.82929 -0.20242,-4.0419 0,-1.41465 -0.40389,-2.42523 -0.80873,-3.23357 -0.40388,-0.80872 -1.01048,-1.41474 -1.81891,-1.81891 -1.01048,-0.40389 -2.22309,-0.60631 -3.63784,-0.60631 -1.61678,0 -3.23356,0.40389 -4.6483,1.01048 -1.61679,0.80872 -3.03153,1.81891 -4.64831,3.03152 0,0.40389 0,1.01048 0.20242,1.61679 0,0.6063 0,1.21261 0,1.61678 l 0,21.01855 -5.45675,0 0,-18.59343 c 0,-1.41465 -0.20242,-2.82929 -0.20242,-4.0419 -0.20242,-1.41465 -0.40388,-2.42523 -0.80872,-3.23357 -0.40389,-0.80872 -1.21261,-1.41474 -2.02019,-1.81891 -0.80873,-0.40389 -2.02105,-0.60631 -3.63784,-0.60631 -1.41474,0 -3.03152,0.20242 -4.44627,1.01048 -1.61678,0.80872 -3.03152,1.81891 -4.6483,2.82939 l 0,24.45425 -5.45675,0 0,-32.74039 5.45675,0 0,3.63783 c 1.81891,-1.41474 3.43569,-2.42522 5.25461,-3.23356 1.61678,-0.80873 3.4357,-1.21261 5.45675,-1.21261 2.22232,0 4.04124,0.40388 5.65802,1.41465 1.61688,0.80872 2.62735,2.22308 3.43579,3.83996 2.22309,-1.81892 4.24414,-3.23366 6.06305,-4.042 1.81892,-0.80873 3.83987,-1.21261 5.86092,-1.21261 3.63783,0 6.26519,1.01047 8.0841,3.23356 1.61678,2.22309 2.42522,5.25461 2.42522,9.09458 l 0,21.22059 z"
         id="path4191"
         inkscape:connector-curvature="0" />
      <path
         style="fill:#000000;fill-opacity:1;fill-rule:nonzero;stroke:#000000;stroke-width:3.23360372px;stroke-linecap:butt;stroke-linejoin:miter;stroke-miterlimit:4;stroke-dasharray:none;stroke-opacity:1"
         d="m 783.19398,905.68374 -5.65888,0 0,-3.4358 c -0.40389,0.20242 -1.01048,0.80873 -1.81892,1.41475 -0.80872,0.6063 -1.61678,1.01047 -2.42522,1.41474 -1.01048,0.40389 -2.02105,0.80873 -3.23366,1.01048 -1.21261,0.40388 -2.62726,0.6063 -4.24414,0.6063 -2.82939,0 -5.45674,-1.01047 -7.4777,-3.03152 -2.02105,-2.02105 -3.03152,-4.44627 -3.03152,-7.4778 0,-2.42522 0.6063,-4.44617 1.61678,-6.06305 1.01048,-1.41465 2.62735,-2.62726 4.44627,-3.63783 2.02095,-0.80873 4.44617,-1.41456 7.27566,-1.61669 2.82939,-0.40388 5.86092,-0.6063 8.89245,-0.80872 l 0,-0.80873 c 0,-1.21261 -0.20242,-2.22318 -0.60631,-3.03153 -0.40388,-1.01057 -1.01048,-1.61687 -1.81891,-2.02104 -0.80873,-0.40389 -1.81892,-0.80873 -2.8294,-0.80873 -1.01057,-0.20242 -2.22318,-0.40388 -3.43579,-0.40388 -1.41465,0 -3.03153,0.20242 -4.85044,0.6063 -1.81892,0.40389 -3.63783,1.01048 -5.45675,1.61678 l -0.40388,0 0,-5.45665 c 1.21261,-0.40388 2.62735,-0.6063 4.6484,-1.01048 2.02095,-0.40388 4.042,-0.6063 6.06305,-0.6063 2.42522,0 4.24414,0.20242 6.06305,0.6063 1.61679,0.40389 3.23357,1.01048 4.44618,2.02096 1.21261,0.80872 2.22318,2.02105 2.82949,3.4357 0.6063,1.41474 1.01047,3.23366 1.01047,5.25461 l 0,22.23116 z m -5.65888,-8.08411 0,-9.09457 c -1.61679,0.20242 -3.63783,0.20242 -5.86092,0.40388 -2.22318,0.20242 -4.0421,0.60631 -5.45675,1.01057 -1.41474,0.40389 -2.82949,1.01048 -3.83996,2.02096 -0.80873,1.01057 -1.41475,2.22318 -1.41475,3.83996 0,1.81892 0.60631,3.23366 1.81892,4.24414 1.01057,1.01048 2.82949,1.41474 5.05257,1.41474 2.02105,0 3.63783,-0.40388 5.25462,-1.01057 1.61687,-0.80872 3.23366,-1.81891 4.44627,-2.82939 z"
         id="path4193"
         inkscape:connector-curvature="0" />
      <path
         style="fill:#000000;fill-opacity:1;fill-rule:nonzero;stroke:#000000;stroke-width:3.23360372px;stroke-linecap:butt;stroke-linejoin:miter;stroke-miterlimit:4;stroke-dasharray:none;stroke-opacity:1"
         d="m 810.67975,905.4816 c -1.01048,0.20242 -2.02095,0.40389 -3.4357,0.60631 -1.21261,0.20242 -2.22309,0.20242 -3.23366,0.20242 -3.23356,0 -5.86092,-0.80873 -7.4777,-2.62736 -1.81891,-1.81891 -2.62735,-4.6483 -2.62735,-8.6904 l 0,-17.38053 -3.83997,0 0,-4.6484 3.83997,0 0,-9.29652 5.45674,0 0,9.29652 11.31767,0 0,4.6484 -11.31767,0 0,14.95531 c 0,1.61687 0,3.03152 0.20242,4.04209 0,1.01048 0.20242,1.81892 0.80873,2.62726 0.40388,0.80873 1.01048,1.41475 1.61678,1.81892 0.80873,0.20242 2.02105,0.40388 3.63783,0.40388 0.80873,0 1.81892,0 2.62736,-0.40388 1.01047,-0.20242 1.81891,-0.40389 2.22308,-0.60631 l 0.20242,0 0,5.05258 z"
         id="path4195"
         inkscape:connector-curvature="0" />
      <path
         style="fill:#000000;fill-opacity:1;fill-rule:nonzero;stroke:#000000;stroke-width:3.23360372px;stroke-linecap:butt;stroke-linejoin:miter;stroke-miterlimit:4;stroke-dasharray:none;stroke-opacity:1"
         d="m 823.41216,867.4867 -6.26509,0 0,-5.65879 6.26509,0 0,5.65879 z m -0.40389,38.19704 -5.45674,0 0,-32.74039 5.45674,0 0,32.74039 z"
         id="path4197"
         inkscape:connector-curvature="0" />
      <path
         style="fill:#000000;fill-opacity:1;fill-rule:nonzero;stroke:#000000;stroke-width:3.23360372px;stroke-linecap:butt;stroke-linejoin:miter;stroke-miterlimit:4;stroke-dasharray:none;stroke-opacity:1"
         d="m 861.60939,889.3135 c 0,5.45674 -1.41465,9.49875 -4.04201,12.7324 -2.82939,3.03153 -6.46722,4.64831 -11.11562,4.64831 -4.64831,0 -8.28614,-1.61678 -10.9135,-4.64831 -2.82939,-3.23365 -4.24413,-7.27566 -4.24413,-12.7324 0,-5.25462 1.41474,-9.49866 4.24413,-12.53018 2.62736,-3.23366 6.26519,-4.64831 10.9135,-4.64831 4.6484,0 8.28623,1.41465 11.11562,4.64831 2.62736,3.03152 4.04201,7.27556 4.04201,12.53018 z m -5.65879,0 c 0,-4.24405 -0.80872,-7.27557 -2.62735,-9.29662 -1.61679,-2.22309 -3.83997,-3.23356 -6.87149,-3.23356 -3.03153,0 -5.25462,1.01047 -6.8714,3.23356 -1.61688,2.02105 -2.42522,5.05257 -2.42522,9.29662 0,4.042 0.80873,7.27566 2.42522,9.29661 1.61678,2.22318 3.83987,3.23366 6.8714,3.23366 3.03152,0 5.2547,-1.01048 6.87149,-3.03152 1.81891,-2.22309 2.62735,-5.25462 2.62735,-9.49875 z"
         id="path4199"
         inkscape:connector-curvature="0" />
      <path
         style="fill:#000000;fill-opacity:1;fill-rule:nonzero;stroke:#000000;stroke-width:3.23360372px;stroke-linecap:butt;stroke-linejoin:miter;stroke-miterlimit:4;stroke-dasharray:none;stroke-opacity:1"
         d="m 897.38139,905.68374 -5.45674,0 0,-18.59343 c 0,-1.61678 0,-3.03143 -0.20242,-4.24404 -0.20242,-1.41465 -0.60631,-2.42512 -1.01048,-3.03143 -0.40389,-0.80872 -1.21261,-1.41474 -2.02105,-1.81891 -1.01048,-0.40389 -2.22309,-0.60631 -3.63783,-0.60631 -1.41465,0 -3.03153,0.20242 -4.64831,1.01048 -1.61678,0.80872 -3.23366,1.81891 -4.85044,2.82939 l 0,24.45425 -5.45675,0 0,-32.74039 5.45675,0 0,3.63783 c 1.81891,-1.41474 3.63783,-2.42522 5.45675,-3.23356 1.81891,-0.80873 3.63783,-1.21261 5.65888,-1.21261 3.43569,0 6.06305,1.01047 8.084,3.23356 1.81892,2.02105 2.62736,5.05258 2.62736,9.09458 l 0,21.22059 z"
         id="path4201"
         inkscape:connector-curvature="0" />
      <path
         style="fill:#000000;fill-opacity:1;fill-rule:nonzero;stroke:#000000;stroke-width:3.23360372px;stroke-linecap:butt;stroke-linejoin:miter;stroke-miterlimit:4;stroke-dasharray:none;stroke-opacity:1"
         d="m 961.24557,893.15336 c 0,1.81892 -0.40388,3.4358 -1.21261,5.05258 -0.80872,1.81892 -1.81891,3.23366 -3.23366,4.24414 -1.61678,1.21261 -3.4357,2.22308 -5.45674,3.03152 -2.22309,0.60631 -4.64831,1.01048 -7.4777,1.01048 -3.23366,0 -6.06306,-0.40389 -8.48828,-0.80873 -2.62735,-0.6063 -5.05257,-1.61687 -7.67993,-2.62735 l 0,-7.27566 0.40389,0 c 2.22318,1.81891 4.6484,3.23366 7.67993,4.24413 2.82939,1.01048 5.45674,1.41475 8.084,1.41475 3.63783,0 6.26519,-0.60631 8.28624,-2.02105 2.02095,-1.21261 3.03152,-3.03153 3.03152,-5.25461 0,-2.02105 -0.40388,-3.4358 -1.41474,-4.44627 -0.80873,-0.80873 -2.42522,-1.61679 -4.24414,-2.02105 -1.41474,-0.40389 -3.03152,-0.80873 -4.85044,-1.01048 -1.61678,-0.20242 -3.4357,-0.60631 -5.45674,-1.01048 -3.83997,-0.80872 -6.66936,-2.22308 -8.48828,-4.0419 -1.81891,-2.02105 -2.82939,-4.64841 -2.82939,-7.88197 0,-3.63783 1.61678,-6.66926 4.64831,-8.89245 3.03152,-2.42512 7.07353,-3.63773 11.72193,-3.63773 3.03153,0 5.86092,0.40388 8.48827,1.01047 2.42522,0.60631 4.85044,1.21261 6.66936,2.02096 l 0,6.87139 -0.40388,0 c -1.61688,-1.41465 -3.83997,-2.42512 -6.46732,-3.43569 -2.62726,-1.01048 -5.45675,-1.41465 -8.28614,-1.41465 -3.03153,0 -5.65888,0.6063 -7.4778,2.02095 -1.81891,1.21261 -2.82939,2.82939 -2.82939,4.85044 0,1.81892 0.40388,3.23357 1.41474,4.44618 1.01048,1.01057 2.62726,1.81891 4.85044,2.22318 1.41465,0.40388 3.03153,0.6063 5.45675,1.01048 2.22309,0.40388 4.24414,0.80872 5.86092,1.21261 3.23366,0.80872 5.65888,2.22308 7.27566,3.83977 1.61678,1.81892 2.42522,4.24414 2.42522,7.27566 z"
         id="path4203"
         inkscape:connector-curvature="0" />
      <path
         style="fill:#000000;fill-opacity:1;fill-rule:nonzero;stroke:#000000;stroke-width:3.23360372px;stroke-linecap:butt;stroke-linejoin:miter;stroke-miterlimit:4;stroke-dasharray:none;stroke-opacity:1"
         d="m 998.02538,889.3135 c 0,5.45674 -1.41465,9.49875 -4.042,12.7324 -2.82672,3.03153 -6.46455,4.64831 -11.11295,4.64831 -4.64831,0 -8.28614,-1.61678 -10.9135,-4.64831 -2.82939,-3.23365 -4.042,-7.27566 -4.042,-12.7324 0,-5.25462 1.21261,-9.49866 4.042,-12.53018 2.62736,-3.23366 6.26519,-4.64831 10.9135,-4.64831 4.6484,0 8.28623,1.41465 11.11295,4.64831 2.62735,3.03152 4.042,7.27556 4.042,12.53018 z m -5.65611,0 c 0,-4.24405 -0.80872,-7.27557 -2.62735,-9.29662 -1.61679,-2.22309 -3.83997,-3.23356 -6.87149,-3.23356 -2.8294,0 -5.25462,1.01047 -6.8714,3.23356 -1.61688,2.02105 -2.42522,5.05257 -2.42522,9.29662 0,4.042 0.80873,7.27566 2.42522,9.29661 1.61678,2.22318 4.042,3.23366 6.8714,3.23366 3.03152,0 5.2547,-1.01048 6.87149,-3.03152 1.81891,-2.22309 2.62735,-5.25462 2.62735,-9.49875 z"
         id="path4205"
         inkscape:connector-curvature="0" />
      <path
         style="fill:#000000;fill-opacity:1;fill-rule:nonzero;stroke:#000000;stroke-width:3.23360372px;stroke-linecap:butt;stroke-linejoin:miter;stroke-miterlimit:4;stroke-dasharray:none;stroke-opacity:1"
         d="m 1012.1725,905.68374 -5.6588,0 0,-45.4727 5.6588,0 0,45.4727 z"
         id="path4207"
         inkscape:connector-curvature="0" />
      <path
         style="fill:#000000;fill-opacity:1;fill-rule:nonzero;stroke:#000000;stroke-width:3.23360372px;stroke-linecap:butt;stroke-linejoin:miter;stroke-miterlimit:4;stroke-dasharray:none;stroke-opacity:1"
         d="m 1049.9656,905.68374 -5.4568,0 0,-3.63784 c -2.021,1.41465 -3.6378,2.62726 -5.4567,3.4357 -1.6169,0.80873 -3.4358,1.21261 -5.6589,1.21261 -3.4357,0 -6.063,-1.21261 -7.8819,-3.23366 -2.0211,-2.02095 -2.8294,-5.25461 -2.8294,-9.29661 l 0,-21.22059 5.4567,0 0,18.59323 c 0,1.81892 0,3.23366 0.2024,4.24414 0.2024,1.21261 0.4039,2.22309 1.0105,3.03153 0.6063,1.01047 1.2126,1.61678 2.0211,2.02104 0.8087,0.40389 2.0209,0.60631 3.6378,0.60631 1.4146,0 3.0315,-0.40389 4.6483,-1.21261 1.8189,-0.80873 3.2336,-1.61688 4.8504,-2.82949 l 0,-24.45415 5.4568,0 0,32.74039 z"
         id="path4209"
         inkscape:connector-curvature="0" />
      <path
         style="fill:#000000;fill-opacity:1;fill-rule:nonzero;stroke:#000000;stroke-width:3.23360372px;stroke-linecap:butt;stroke-linejoin:miter;stroke-miterlimit:4;stroke-dasharray:none;stroke-opacity:1"
         d="m 1077.8556,905.4816 c -1.2126,0.20242 -2.2232,0.40389 -3.4358,0.60631 -1.2126,0.20242 -2.4252,0.20242 -3.2335,0.20242 -3.4358,0 -5.861,-0.80873 -7.68,-2.62736 -1.8189,-1.81891 -2.6272,-4.6483 -2.6272,-8.6904 l 0,-17.38053 -3.6378,0 0,-4.6484 3.6378,0 0,-9.29652 5.4567,0 0,9.29652 11.5198,0 0,4.6484 -11.5198,0 0,14.95531 c 0,1.61687 0.2025,3.03152 0.2025,4.04209 0,1.01048 0.4038,1.81892 0.8087,2.62726 0.4039,0.80873 1.0105,1.41475 1.8189,1.81892 0.6063,0.20242 1.8189,0.40388 3.4357,0.40388 0.8087,0 1.8189,0 2.8294,-0.40388 0.8087,-0.20242 1.6169,-0.40389 2.021,-0.60631 l 0.4039,0 0,5.05258 z"
         id="path4211"
         inkscape:connector-curvature="0" />
      <path
         style="fill:#000000;fill-opacity:1;fill-rule:nonzero;stroke:#000000;stroke-width:3.23360372px;stroke-linecap:butt;stroke-linejoin:miter;stroke-miterlimit:4;stroke-dasharray:none;stroke-opacity:1"
         d="m 1090.3859,867.4867 -6.2652,0 0,-5.65879 6.2652,0 0,5.65879 z m -0.4039,38.19704 -5.4567,0 0,-32.74039 5.4567,0 0,32.74039 z"
         id="path4213"
         inkscape:connector-curvature="0" />
      <path
         style="fill:#000000;fill-opacity:1;fill-rule:nonzero;stroke:#000000;stroke-width:3.23360372px;stroke-linecap:butt;stroke-linejoin:miter;stroke-miterlimit:4;stroke-dasharray:none;stroke-opacity:1"
         d="m 1128.5831,889.3135 c 0,5.45674 -1.4147,9.49875 -4.042,12.7324 -2.8295,3.03153 -6.4673,4.64831 -11.1156,4.64831 -4.4463,0 -8.2861,-1.61678 -10.9135,-4.64831 -2.8294,-3.23365 -4.042,-7.27566 -4.042,-12.7324 0,-5.25462 1.2126,-9.49866 4.042,-12.53018 2.6274,-3.23366 6.4672,-4.64831 10.9135,-4.64831 4.6483,0 8.2861,1.41465 11.1156,4.64831 2.6273,3.03152 4.042,7.27556 4.042,12.53018 z m -5.6588,0 c 0,-4.24405 -0.8088,-7.27557 -2.4253,-9.29662 -1.8189,-2.22309 -4.042,-3.23356 -7.0735,-3.23356 -2.8294,0 -5.2546,1.01047 -6.8715,3.23356 -1.6168,2.02105 -2.4252,5.05257 -2.4252,9.29662 0,4.042 0.8087,7.27566 2.4252,9.29661 1.6169,2.22318 4.0421,3.23366 6.8715,3.23366 3.0315,0 5.2546,-1.01048 6.8715,-3.03152 1.8189,-2.22309 2.6273,-5.25462 2.6273,-9.49875 z"
         id="path4215"
         inkscape:connector-curvature="0" />
      <path
         style="fill:#000000;fill-opacity:1;fill-rule:nonzero;stroke:#000000;stroke-width:3.23360372px;stroke-linecap:butt;stroke-linejoin:miter;stroke-miterlimit:4;stroke-dasharray:none;stroke-opacity:1"
         d="m 1164.5573,905.68374 -5.6589,0 0,-18.59343 c 0,-1.61678 0,-3.03143 -0.2024,-4.24404 -0.2024,-1.41465 -0.4039,-2.42512 -1.0105,-3.03143 -0.4039,-0.80872 -1.2126,-1.41474 -2.0211,-1.81891 -1.0104,-0.40389 -2.223,-0.60631 -3.6378,-0.60631 -1.4147,0 -3.0315,0.20242 -4.6483,1.01048 -1.6169,0.80872 -3.2337,1.81891 -4.6484,2.82939 l 0,24.45425 -5.6588,0 0,-32.74039 5.6588,0 0,3.63783 c 1.6169,-1.41474 3.4358,-2.42522 5.2547,-3.23356 1.8189,-0.80873 3.6378,-1.21261 5.6588,-1.21261 3.4358,0 6.2652,1.01047 8.0841,3.23356 1.8189,2.02105 2.8294,5.05258 2.8294,9.09458 l 0,21.22059 z"
         id="path4217"
         inkscape:connector-curvature="0" />
    </g>
    <text
       xml:space="preserve"
       style="font-style:normal;font-weight:normal;font-size:23.87255859px;line-height:125%;font-family:sans-serif;letter-spacing:0px;word-spacing:0px;fill:#000000;fill-opacity:1;stroke:none;stroke-width:1px;stroke-linecap:butt;stroke-linejoin:miter;stroke-opacity:1"
       x="203.42424"
       y="535.22998"
       id="text4270"
       sodipodi:linespacing="125%"><tspan
         sodipodi:role="line"
         id="tspan4272"
         x="203.42424"
         y="535.22998"></tspan><tspan
         sodipodi:role="line"
         x="203.42424"
         y="565.07068"
         id="tspan4274">(50 mM CaCL2, pH 6.1)</tspan><tspan
         sodipodi:role="line"
         x="203.42424"
         y="594.91138"
         id="tspan4276">             15 mL</tspan><tspan
         sodipodi:role="line"
         x="203.42424"
         y="624.75208"
         id="tspan4280">    Catalog 000-0000</tspan><tspan
         sodipodi:role="line"
         x="203.42424"
         y="654.59277"
         id="tspan4278">    </tspan></text>
  </g>
</svg>
